G04 Layer: DrillDrawingLayer*
G04 EasyEDA Pro v3.2.148, 2026-07-02 20:03:51*
G04 Gerber Generator version 0.3*
G04 Scale: 100 percent, Rotated: No, Reflected: No*
G04 Dimensions in millimeters*
G04 Leading zeros omitted, absolute positions, 4 integers and 5 decimals*
G04 Generated by one-click*
G04 Object Configs: Pad,Via,Track,Text,Image,Dimension,BoardOutline,BoardCutout,CopperFilled,SolidRegion,FPCStiffener,Line,PlaneZone,ComponentProperty,ComponentSilkscreen,TearDrop*
G04 Layer Configs: 1,2,3,4,5,6,7,8,9,10,11,13,14,56*
G04 Copper Areas: 0*
%FSLAX45Y45*%
%MOMM*%
%AMIconRect*4,1,4,0.28,-0.28,-0.28,-0.28,-0.28,0.28,0.28,0.28,0.28,-0.28,0*4,0,4,0.233333,-0.233333,0.233333,0.233333,-0.233333,0.233333,-0.233333,-0.233333,0.233333,-0.233333,0*%
%AMIconTriangle*4,1,3,-0.339593,0.240473,0.339593,0.240473,0,-0.37884,-0.339593,0.240473,0*4,0,3,-0.265673,0.19404,0,-0.27342,0.266233,0.19404,-0.265673,0.19404,0*%
%AMIconStar6*4,1,12,0.12068,0.20888,0.298527,0.172713,0.241313,0,0.298527,-0.17206,0.12068,-0.208227,0,-0.344073,-0.120073,-0.208227,-0.298573,-0.17206,-0.240707,0,-0.298573,0.17206,-0.120073,0.20888,0,0.344073,0.12068,0.20888,0*4,0,12,-0.000467,0.273467,-0.090067,0.171733,-0.237533,0.136733,-0.193667,-0.007467,-0.237533,-0.1372,-0.090067,-0.171733,-0.000467,-0.273933,0.090067,-0.171733,0.237533,-0.1372,0.194133,0.007,0.237533,0.1372,0.090067,0.171267,-0.000467,0.273467,0*%
%ADD10IconRect*%
%ADD11C,0.616X0.522667*%
%ADD12IconTriangle*%
%ADD13IconStar6*%
%ADD14C,0.2032*%
%ADD15C,0.254*%
G75*


G04 Drill Drawing Start*
G54D10*
G01X-7848600Y0D03*
G01X-2463800Y0D03*
G54D11*
G01X-5524500Y7113600D03*
G01X-4775200Y7113600D03*
G54D12*
G01X-6613195Y-203200D03*
G01X-6595101Y-295699D03*
G01X-5209540Y-309880D03*
G01X-5081702Y-703301D03*
G54D13*
G01X-7188200Y7124700D03*
G01X-6838200Y7124700D03*
G01X-6473100Y7124700D03*
G01X-6108700Y7124700D03*
G01X-4196091Y7126300D03*
G01X-3846091Y7126300D03*
G01X-3480991Y7126300D03*
G01X-3116591Y7126300D03*
G04 Drill Drawing End*

G04 Text Start*
G54D14*
G01X-163354Y7258594D02*
G01X-163354Y7138452D01*
G01X-163354Y7258594D02*
G01X-117634Y7138452D01*
G01X-71914Y7258594D02*
G01X-117634Y7138452D01*
G01X-71914Y7258594D02*
G01X-71914Y7138452D01*
G01X44418Y7218462D02*
G01X44418Y7138452D01*
G01X44418Y7201444D02*
G01X32988Y7212874D01*
G01X21558Y7218462D01*
G01X4540Y7218462D01*
G01X-6890Y7212874D01*
G01X-18320Y7201444D01*
G01X-24162Y7184172D01*
G01X-24162Y7172742D01*
G01X-18320Y7155724D01*
G01X-6890Y7144294D01*
G01X4540Y7138452D01*
G01X21558Y7138452D01*
G01X32988Y7144294D01*
G01X44418Y7155724D01*
G01X92170Y7218462D02*
G01X92170Y7138452D01*
G01X92170Y7184172D02*
G01X98012Y7201444D01*
G01X109442Y7212874D01*
G01X120872Y7218462D01*
G01X137890Y7218462D01*
G01X185642Y7258594D02*
G01X185642Y7138452D01*
G01X242792Y7218462D02*
G01X185642Y7161312D01*
G01X208502Y7184172D02*
G01X248634Y7138452D01*
G01X1373926Y7229892D02*
G01X1368084Y7241322D01*
G01X1356654Y7252752D01*
G01X1345224Y7258594D01*
G01X1322364Y7258594D01*
G01X1310934Y7252752D01*
G01X1299504Y7241322D01*
G01X1293916Y7229892D01*
G01X1288074Y7212874D01*
G01X1288074Y7184172D01*
G01X1293916Y7167154D01*
G01X1299504Y7155724D01*
G01X1310934Y7144294D01*
G01X1322364Y7138452D01*
G01X1345224Y7138452D01*
G01X1356654Y7144294D01*
G01X1368084Y7155724D01*
G01X1373926Y7167154D01*
G01X1450380Y7218462D02*
G01X1438950Y7212874D01*
G01X1427520Y7201444D01*
G01X1421678Y7184172D01*
G01X1421678Y7172742D01*
G01X1427520Y7155724D01*
G01X1438950Y7144294D01*
G01X1450380Y7138452D01*
G01X1467398Y7138452D01*
G01X1478828Y7144294D01*
G01X1490258Y7155724D01*
G01X1496100Y7172742D01*
G01X1496100Y7184172D01*
G01X1490258Y7201444D01*
G01X1478828Y7212874D01*
G01X1467398Y7218462D01*
G01X1450380Y7218462D01*
G01X1543852Y7218462D02*
G01X1543852Y7161312D01*
G01X1549694Y7144294D01*
G01X1561124Y7138452D01*
G01X1578142Y7138452D01*
G01X1589572Y7144294D01*
G01X1606844Y7161312D01*
G01X1606844Y7218462D02*
G01X1606844Y7138452D01*
G01X1654596Y7218462D02*
G01X1654596Y7138452D01*
G01X1654596Y7195602D02*
G01X1671868Y7212874D01*
G01X1683298Y7218462D01*
G01X1700316Y7218462D01*
G01X1711746Y7212874D01*
G01X1717588Y7195602D01*
G01X1717588Y7138452D01*
G01X1782612Y7258594D02*
G01X1782612Y7161312D01*
G01X1788200Y7144294D01*
G01X1799630Y7138452D01*
G01X1811060Y7138452D01*
G01X1765340Y7218462D02*
G01X1805472Y7218462D01*
G01X2782247Y7241322D02*
G01X2770817Y7252752D01*
G01X2753799Y7258594D01*
G01X2730939Y7258594D01*
G01X2713667Y7252752D01*
G01X2702237Y7241322D01*
G01X2702237Y7229892D01*
G01X2708079Y7218462D01*
G01X2713667Y7212874D01*
G01X2725097Y7207032D01*
G01X2759387Y7195602D01*
G01X2770817Y7190014D01*
G01X2776659Y7184172D01*
G01X2782247Y7172742D01*
G01X2782247Y7155724D01*
G01X2770817Y7144294D01*
G01X2753799Y7138452D01*
G01X2730939Y7138452D01*
G01X2713667Y7144294D01*
G01X2702237Y7155724D01*
G01X2829999Y7258594D02*
G01X2835841Y7252752D01*
G01X2841429Y7258594D01*
G01X2835841Y7264182D01*
G01X2829999Y7258594D01*
G01X2835841Y7218462D02*
G01X2835841Y7138452D01*
G01X2952173Y7218462D02*
G01X2889181Y7138452D01*
G01X2889181Y7218462D02*
G01X2952173Y7218462D01*
G01X2889181Y7138452D02*
G01X2952173Y7138452D01*
G01X2999925Y7184172D02*
G01X3068505Y7184172D01*
G01X3068505Y7195602D01*
G01X3062917Y7207032D01*
G01X3057075Y7212874D01*
G01X3045645Y7218462D01*
G01X3028627Y7218462D01*
G01X3017197Y7212874D01*
G01X3005767Y7201444D01*
G01X2999925Y7184172D01*
G01X2999925Y7172742D01*
G01X3005767Y7155724D01*
G01X3017197Y7144294D01*
G01X3028627Y7138452D01*
G01X3045645Y7138452D01*
G01X3057075Y7144294D01*
G01X3068505Y7155724D01*
G01X6482411Y7258594D02*
G01X6482411Y7138452D01*
G01X6482411Y7258594D02*
G01X6533973Y7258594D01*
G01X6550991Y7252752D01*
G01X6556833Y7247164D01*
G01X6562421Y7235734D01*
G01X6562421Y7218462D01*
G01X6556833Y7207032D01*
G01X6550991Y7201444D01*
G01X6533973Y7195602D01*
G01X6482411Y7195602D01*
G01X6610173Y7258594D02*
G01X6610173Y7138452D01*
G01X6726505Y7218462D02*
G01X6726505Y7138452D01*
G01X6726505Y7201444D02*
G01X6715075Y7212874D01*
G01X6703645Y7218462D01*
G01X6686627Y7218462D01*
G01X6675197Y7212874D01*
G01X6663767Y7201444D01*
G01X6657925Y7184172D01*
G01X6657925Y7172742D01*
G01X6663767Y7155724D01*
G01X6675197Y7144294D01*
G01X6686627Y7138452D01*
G01X6703645Y7138452D01*
G01X6715075Y7144294D01*
G01X6726505Y7155724D01*
G01X6791529Y7258594D02*
G01X6791529Y7161312D01*
G01X6797117Y7144294D01*
G01X6808547Y7138452D01*
G01X6819977Y7138452D01*
G01X6774257Y7218462D02*
G01X6814389Y7218462D01*
G01X6867729Y7184172D02*
G01X6936309Y7184172D01*
G01X6936309Y7195602D01*
G01X6930721Y7207032D01*
G01X6924879Y7212874D01*
G01X6913449Y7218462D01*
G01X6896431Y7218462D01*
G01X6885001Y7212874D01*
G01X6873571Y7201444D01*
G01X6867729Y7184172D01*
G01X6867729Y7172742D01*
G01X6873571Y7155724D01*
G01X6885001Y7144294D01*
G01X6896431Y7138452D01*
G01X6913449Y7138452D01*
G01X6924879Y7144294D01*
G01X6936309Y7155724D01*
G01X7052641Y7258594D02*
G01X7052641Y7138452D01*
G01X7052641Y7201444D02*
G01X7041211Y7212874D01*
G01X7029781Y7218462D01*
G01X7012763Y7218462D01*
G01X7001333Y7212874D01*
G01X6989903Y7201444D01*
G01X6984061Y7184172D01*
G01X6984061Y7172742D01*
G01X6989903Y7155724D01*
G01X7001333Y7144294D01*
G01X7012763Y7138452D01*
G01X7029781Y7138452D01*
G01X7041211Y7144294D01*
G01X7052641Y7155724D01*
G01X8023828Y7241322D02*
G01X8012398Y7252752D01*
G01X7995380Y7258594D01*
G01X7972520Y7258594D01*
G01X7955248Y7252752D01*
G01X7943818Y7241322D01*
G01X7943818Y7229892D01*
G01X7949660Y7218462D01*
G01X7955248Y7212874D01*
G01X7966678Y7207032D01*
G01X8000968Y7195602D01*
G01X8012398Y7190014D01*
G01X8018240Y7184172D01*
G01X8023828Y7172742D01*
G01X8023828Y7155724D01*
G01X8012398Y7144294D01*
G01X7995380Y7138452D01*
G01X7972520Y7138452D01*
G01X7955248Y7144294D01*
G01X7943818Y7155724D01*
G01X8071580Y7258594D02*
G01X8071580Y7138452D01*
G01X8071580Y7195602D02*
G01X8088852Y7212874D01*
G01X8100282Y7218462D01*
G01X8117300Y7218462D01*
G01X8128730Y7212874D01*
G01X8134572Y7195602D01*
G01X8134572Y7138452D01*
G01X8250904Y7218462D02*
G01X8250904Y7138452D01*
G01X8250904Y7201444D02*
G01X8239474Y7212874D01*
G01X8228044Y7218462D01*
G01X8211026Y7218462D01*
G01X8199596Y7212874D01*
G01X8188166Y7201444D01*
G01X8182324Y7184172D01*
G01X8182324Y7172742D01*
G01X8188166Y7155724D01*
G01X8199596Y7144294D01*
G01X8211026Y7138452D01*
G01X8228044Y7138452D01*
G01X8239474Y7144294D01*
G01X8250904Y7155724D01*
G01X8298656Y7218462D02*
G01X8298656Y7098574D01*
G01X8298656Y7201444D02*
G01X8310086Y7212874D01*
G01X8321516Y7218462D01*
G01X8338788Y7218462D01*
G01X8350218Y7212874D01*
G01X8361648Y7201444D01*
G01X8367236Y7184172D01*
G01X8367236Y7172742D01*
G01X8361648Y7155724D01*
G01X8350218Y7144294D01*
G01X8338788Y7138452D01*
G01X8321516Y7138452D01*
G01X8310086Y7144294D01*
G01X8298656Y7155724D01*
G01X8414988Y7184172D02*
G01X8483568Y7184172D01*
G01X8483568Y7195602D01*
G01X8477980Y7207032D01*
G01X8472138Y7212874D01*
G01X8460708Y7218462D01*
G01X8443690Y7218462D01*
G01X8432260Y7212874D01*
G01X8420830Y7201444D01*
G01X8414988Y7184172D01*
G01X8414988Y7172742D01*
G01X8420830Y7155724D01*
G01X8432260Y7144294D01*
G01X8443690Y7138452D01*
G01X8460708Y7138452D01*
G01X8472138Y7144294D01*
G01X8483568Y7155724D01*
G01X9374999Y7258594D02*
G01X9420719Y7138452D01*
G01X9466439Y7258594D02*
G01X9420719Y7138452D01*
G01X9514191Y7258594D02*
G01X9520033Y7252752D01*
G01X9525621Y7258594D01*
G01X9520033Y7264182D01*
G01X9514191Y7258594D01*
G01X9520033Y7218462D02*
G01X9520033Y7138452D01*
G01X9641953Y7218462D02*
G01X9641953Y7138452D01*
G01X9641953Y7201444D02*
G01X9630523Y7212874D01*
G01X9619093Y7218462D01*
G01X9602075Y7218462D01*
G01X9590645Y7212874D01*
G01X9579215Y7201444D01*
G01X9573373Y7184172D01*
G01X9573373Y7172742D01*
G01X9579215Y7155724D01*
G01X9590645Y7144294D01*
G01X9602075Y7138452D01*
G01X9619093Y7138452D01*
G01X9630523Y7144294D01*
G01X9641953Y7155724D01*
G01X9792575Y7281454D02*
G01X9689705Y7098574D01*
G01X9840327Y7258594D02*
G01X9840327Y7138452D01*
G01X9840327Y7258594D02*
G01X9891889Y7258594D01*
G01X9908907Y7252752D01*
G01X9914749Y7247164D01*
G01X9920337Y7235734D01*
G01X9920337Y7218462D01*
G01X9914749Y7207032D01*
G01X9908907Y7201444D01*
G01X9891889Y7195602D01*
G01X9840327Y7195602D01*
G01X10036669Y7218462D02*
G01X10036669Y7138452D01*
G01X10036669Y7201444D02*
G01X10025239Y7212874D01*
G01X10013809Y7218462D01*
G01X9996791Y7218462D01*
G01X9985361Y7212874D01*
G01X9973931Y7201444D01*
G01X9968089Y7184172D01*
G01X9968089Y7172742D01*
G01X9973931Y7155724D01*
G01X9985361Y7144294D01*
G01X9996791Y7138452D01*
G01X10013809Y7138452D01*
G01X10025239Y7144294D01*
G01X10036669Y7155724D01*
G01X10153001Y7258594D02*
G01X10153001Y7138452D01*
G01X10153001Y7201444D02*
G01X10141571Y7212874D01*
G01X10130141Y7218462D01*
G01X10113123Y7218462D01*
G01X10101693Y7212874D01*
G01X10090263Y7201444D01*
G01X10084421Y7184172D01*
G01X10084421Y7172742D01*
G01X10090263Y7155724D01*
G01X10101693Y7144294D01*
G01X10113123Y7138452D01*
G01X10130141Y7138452D01*
G01X10141571Y7144294D01*
G01X10153001Y7155724D01*
G01X11044178Y7258594D02*
G01X11044178Y7138452D01*
G01X11044178Y7258594D02*
G01X11095740Y7258594D01*
G01X11112758Y7252752D01*
G01X11118600Y7247164D01*
G01X11124188Y7235734D01*
G01X11124188Y7218462D01*
G01X11118600Y7207032D01*
G01X11112758Y7201444D01*
G01X11095740Y7195602D01*
G01X11044178Y7195602D01*
G01X11240520Y7218462D02*
G01X11240520Y7138452D01*
G01X11240520Y7201444D02*
G01X11229090Y7212874D01*
G01X11217660Y7218462D01*
G01X11200642Y7218462D01*
G01X11189212Y7212874D01*
G01X11177782Y7201444D01*
G01X11171940Y7184172D01*
G01X11171940Y7172742D01*
G01X11177782Y7155724D01*
G01X11189212Y7144294D01*
G01X11200642Y7138452D01*
G01X11217660Y7138452D01*
G01X11229090Y7144294D01*
G01X11240520Y7155724D01*
G01X11356852Y7258594D02*
G01X11356852Y7138452D01*
G01X11356852Y7201444D02*
G01X11345422Y7212874D01*
G01X11333992Y7218462D01*
G01X11316974Y7218462D01*
G01X11305544Y7212874D01*
G01X11294114Y7201444D01*
G01X11288272Y7184172D01*
G01X11288272Y7172742D01*
G01X11294114Y7155724D01*
G01X11305544Y7144294D01*
G01X11316974Y7138452D01*
G01X11333992Y7138452D01*
G01X11345422Y7144294D01*
G01X11356852Y7155724D01*
G01X11612630Y7241322D02*
G01X11601200Y7252752D01*
G01X11584182Y7258594D01*
G01X11561322Y7258594D01*
G01X11544050Y7252752D01*
G01X11532620Y7241322D01*
G01X11532620Y7229892D01*
G01X11538462Y7218462D01*
G01X11544050Y7212874D01*
G01X11555480Y7207032D01*
G01X11589770Y7195602D01*
G01X11601200Y7190014D01*
G01X11607042Y7184172D01*
G01X11612630Y7172742D01*
G01X11612630Y7155724D01*
G01X11601200Y7144294D01*
G01X11584182Y7138452D01*
G01X11561322Y7138452D01*
G01X11544050Y7144294D01*
G01X11532620Y7155724D01*
G01X11660382Y7258594D02*
G01X11660382Y7138452D01*
G01X11660382Y7195602D02*
G01X11677654Y7212874D01*
G01X11689084Y7218462D01*
G01X11706102Y7218462D01*
G01X11717532Y7212874D01*
G01X11723374Y7195602D01*
G01X11723374Y7138452D01*
G01X11839706Y7218462D02*
G01X11839706Y7138452D01*
G01X11839706Y7201444D02*
G01X11828276Y7212874D01*
G01X11816846Y7218462D01*
G01X11799828Y7218462D01*
G01X11788398Y7212874D01*
G01X11776968Y7201444D01*
G01X11771126Y7184172D01*
G01X11771126Y7172742D01*
G01X11776968Y7155724D01*
G01X11788398Y7144294D01*
G01X11799828Y7138452D01*
G01X11816846Y7138452D01*
G01X11828276Y7144294D01*
G01X11839706Y7155724D01*
G01X11887458Y7218462D02*
G01X11887458Y7098574D01*
G01X11887458Y7201444D02*
G01X11898888Y7212874D01*
G01X11910318Y7218462D01*
G01X11927590Y7218462D01*
G01X11939020Y7212874D01*
G01X11950450Y7201444D01*
G01X11956038Y7184172D01*
G01X11956038Y7172742D01*
G01X11950450Y7155724D01*
G01X11939020Y7144294D01*
G01X11927590Y7138452D01*
G01X11910318Y7138452D01*
G01X11898888Y7144294D01*
G01X11887458Y7155724D01*
G01X12003790Y7184172D02*
G01X12072370Y7184172D01*
G01X12072370Y7195602D01*
G01X12066782Y7207032D01*
G01X12060940Y7212874D01*
G01X12049510Y7218462D01*
G01X12032492Y7218462D01*
G01X12021062Y7212874D01*
G01X12009632Y7201444D01*
G01X12003790Y7184172D01*
G01X12003790Y7172742D01*
G01X12009632Y7155724D01*
G01X12021062Y7144294D01*
G01X12032492Y7138452D01*
G01X12049510Y7138452D01*
G01X12060940Y7144294D01*
G01X12072370Y7155724D01*
G01X12963547Y7258594D02*
G01X12963547Y7138452D01*
G01X12963547Y7138452D02*
G01X13032127Y7138452D01*
G01X13148459Y7218462D02*
G01X13148459Y7138452D01*
G01X13148459Y7201444D02*
G01X13137029Y7212874D01*
G01X13125599Y7218462D01*
G01X13108581Y7218462D01*
G01X13097151Y7212874D01*
G01X13085721Y7201444D01*
G01X13079879Y7184172D01*
G01X13079879Y7172742D01*
G01X13085721Y7155724D01*
G01X13097151Y7144294D01*
G01X13108581Y7138452D01*
G01X13125599Y7138452D01*
G01X13137029Y7144294D01*
G01X13148459Y7155724D01*
G01X13202053Y7218462D02*
G01X13236343Y7138452D01*
G01X13270633Y7218462D02*
G01X13236343Y7138452D01*
G01X13224913Y7115592D01*
G01X13213483Y7104162D01*
G01X13202053Y7098574D01*
G01X13196211Y7098574D01*
G01X13318385Y7184172D02*
G01X13386965Y7184172D01*
G01X13386965Y7195602D01*
G01X13381377Y7207032D01*
G01X13375535Y7212874D01*
G01X13364105Y7218462D01*
G01X13347087Y7218462D01*
G01X13335657Y7212874D01*
G01X13324227Y7201444D01*
G01X13318385Y7184172D01*
G01X13318385Y7172742D01*
G01X13324227Y7155724D01*
G01X13335657Y7144294D01*
G01X13347087Y7138452D01*
G01X13364105Y7138452D01*
G01X13375535Y7144294D01*
G01X13386965Y7155724D01*
G01X13434717Y7218462D02*
G01X13434717Y7138452D01*
G01X13434717Y7184172D02*
G01X13440559Y7201444D01*
G01X13451989Y7212874D01*
G01X13463419Y7218462D01*
G01X13480437Y7218462D01*
G01X13656205Y7258594D02*
G01X13656205Y7138452D01*
G01X13656205Y7258594D02*
G01X13707767Y7258594D01*
G01X13724785Y7252752D01*
G01X13730627Y7247164D01*
G01X13736215Y7235734D01*
G01X13736215Y7218462D01*
G01X13730627Y7207032D01*
G01X13724785Y7201444D01*
G01X13707767Y7195602D01*
G01X13656205Y7195602D01*
G01X13852547Y7218462D02*
G01X13852547Y7138452D01*
G01X13852547Y7201444D02*
G01X13841117Y7212874D01*
G01X13829687Y7218462D01*
G01X13812669Y7218462D01*
G01X13801239Y7212874D01*
G01X13789809Y7201444D01*
G01X13783967Y7184172D01*
G01X13783967Y7172742D01*
G01X13789809Y7155724D01*
G01X13801239Y7144294D01*
G01X13812669Y7138452D01*
G01X13829687Y7138452D01*
G01X13841117Y7144294D01*
G01X13852547Y7155724D01*
G01X13900299Y7258594D02*
G01X13906141Y7252752D01*
G01X13911729Y7258594D01*
G01X13906141Y7264182D01*
G01X13900299Y7258594D01*
G01X13906141Y7218462D02*
G01X13906141Y7138452D01*
G01X13959481Y7218462D02*
G01X13959481Y7138452D01*
G01X13959481Y7184172D02*
G01X13965323Y7201444D01*
G01X13976753Y7212874D01*
G01X13988183Y7218462D01*
G01X14005201Y7218462D01*
G01X1293916Y6649321D02*
G01X1293916Y6655163D01*
G01X1299504Y6666593D01*
G01X1305346Y6672181D01*
G01X1316776Y6678023D01*
G01X1339636Y6678023D01*
G01X1351066Y6672181D01*
G01X1356654Y6666593D01*
G01X1362496Y6655163D01*
G01X1362496Y6643733D01*
G01X1356654Y6632303D01*
G01X1345224Y6615031D01*
G01X1288074Y6557881D01*
G01X1368084Y6557881D01*
G01X2708079Y6649321D02*
G01X2708079Y6655163D01*
G01X2713667Y6666593D01*
G01X2719509Y6672181D01*
G01X2730939Y6678023D01*
G01X2753799Y6678023D01*
G01X2765229Y6672181D01*
G01X2770817Y6666593D01*
G01X2776659Y6655163D01*
G01X2776659Y6643733D01*
G01X2770817Y6632303D01*
G01X2759387Y6615031D01*
G01X2702237Y6557881D01*
G01X2782247Y6557881D01*
G01X2841429Y6678023D02*
G01X2904421Y6678023D01*
G01X2870131Y6632303D01*
G01X2887149Y6632303D01*
G01X2898579Y6626461D01*
G01X2904421Y6620873D01*
G01X2910009Y6603601D01*
G01X2910009Y6592171D01*
G01X2904421Y6575153D01*
G01X2892991Y6563723D01*
G01X2875719Y6557881D01*
G01X2858701Y6557881D01*
G01X2841429Y6563723D01*
G01X2835841Y6569311D01*
G01X2829999Y6580741D01*
G01X3026341Y6660751D02*
G01X3020753Y6672181D01*
G01X3003481Y6678023D01*
G01X2992051Y6678023D01*
G01X2975033Y6672181D01*
G01X2963603Y6655163D01*
G01X2957761Y6626461D01*
G01X2957761Y6598013D01*
G01X2963603Y6575153D01*
G01X2975033Y6563723D01*
G01X2992051Y6557881D01*
G01X2997893Y6557881D01*
G01X3014911Y6563723D01*
G01X3026341Y6575153D01*
G01X3032183Y6592171D01*
G01X3032183Y6598013D01*
G01X3026341Y6615031D01*
G01X3014911Y6626461D01*
G01X2997893Y6632303D01*
G01X2992051Y6632303D01*
G01X2975033Y6626461D01*
G01X2963603Y6615031D01*
G01X2957761Y6598013D01*
G01X3085777Y6586583D02*
G01X3079935Y6580741D01*
G01X3085777Y6575153D01*
G01X3091365Y6580741D01*
G01X3085777Y6586583D01*
G01X3144959Y6649321D02*
G01X3144959Y6655163D01*
G01X3150547Y6666593D01*
G01X3156389Y6672181D01*
G01X3167819Y6678023D01*
G01X3190679Y6678023D01*
G01X3202109Y6672181D01*
G01X3207697Y6666593D01*
G01X3213539Y6655163D01*
G01X3213539Y6643733D01*
G01X3207697Y6632303D01*
G01X3196267Y6615031D01*
G01X3139117Y6557881D01*
G01X3219127Y6557881D01*
G01X3266879Y6637891D02*
G01X3266879Y6557881D01*
G01X3266879Y6615031D02*
G01X3284151Y6632303D01*
G01X3295581Y6637891D01*
G01X3312599Y6637891D01*
G01X3324029Y6632303D01*
G01X3329871Y6615031D01*
G01X3329871Y6557881D01*
G01X3329871Y6615031D02*
G01X3346889Y6632303D01*
G01X3358319Y6637891D01*
G01X3375591Y6637891D01*
G01X3387021Y6632303D01*
G01X3392609Y6615031D01*
G01X3392609Y6557881D01*
G01X3440361Y6678023D02*
G01X3446203Y6672181D01*
G01X3451791Y6678023D01*
G01X3446203Y6683611D01*
G01X3440361Y6678023D01*
G01X3446203Y6637891D02*
G01X3446203Y6557881D01*
G01X3499543Y6678023D02*
G01X3499543Y6557881D01*
G01X3587427Y6700883D02*
G01X3575997Y6689453D01*
G01X3564567Y6672181D01*
G01X3553137Y6649321D01*
G01X3547295Y6620873D01*
G01X3547295Y6598013D01*
G01X3553137Y6569311D01*
G01X3564567Y6546451D01*
G01X3575997Y6529433D01*
G01X3587427Y6518003D01*
G01X3703759Y6660751D02*
G01X3698171Y6672181D01*
G01X3680899Y6678023D01*
G01X3669469Y6678023D01*
G01X3652451Y6672181D01*
G01X3641021Y6655163D01*
G01X3635179Y6626461D01*
G01X3635179Y6598013D01*
G01X3641021Y6575153D01*
G01X3652451Y6563723D01*
G01X3669469Y6557881D01*
G01X3675311Y6557881D01*
G01X3692329Y6563723D01*
G01X3703759Y6575153D01*
G01X3709601Y6592171D01*
G01X3709601Y6598013D01*
G01X3703759Y6615031D01*
G01X3692329Y6626461D01*
G01X3675311Y6632303D01*
G01X3669469Y6632303D01*
G01X3652451Y6626461D01*
G01X3641021Y6615031D01*
G01X3635179Y6598013D01*
G01X3763195Y6586583D02*
G01X3757353Y6580741D01*
G01X3763195Y6575153D01*
G01X3768783Y6580741D01*
G01X3763195Y6586583D01*
G01X3850825Y6678023D02*
G01X3833807Y6672181D01*
G01X3822377Y6655163D01*
G01X3816535Y6626461D01*
G01X3816535Y6609443D01*
G01X3822377Y6580741D01*
G01X3833807Y6563723D01*
G01X3850825Y6557881D01*
G01X3862255Y6557881D01*
G01X3879527Y6563723D01*
G01X3890957Y6580741D01*
G01X3896545Y6609443D01*
G01X3896545Y6626461D01*
G01X3890957Y6655163D01*
G01X3879527Y6672181D01*
G01X3862255Y6678023D01*
G01X3850825Y6678023D01*
G01X3978587Y6678023D02*
G01X3961569Y6672181D01*
G01X3950139Y6655163D01*
G01X3944297Y6626461D01*
G01X3944297Y6609443D01*
G01X3950139Y6580741D01*
G01X3961569Y6563723D01*
G01X3978587Y6557881D01*
G01X3990017Y6557881D01*
G01X4007289Y6563723D01*
G01X4018719Y6580741D01*
G01X4024307Y6609443D01*
G01X4024307Y6626461D01*
G01X4018719Y6655163D01*
G01X4007289Y6672181D01*
G01X3990017Y6678023D01*
G01X3978587Y6678023D01*
G01X4106349Y6678023D02*
G01X4089331Y6672181D01*
G01X4077901Y6655163D01*
G01X4072059Y6626461D01*
G01X4072059Y6609443D01*
G01X4077901Y6580741D01*
G01X4089331Y6563723D01*
G01X4106349Y6557881D01*
G01X4117779Y6557881D01*
G01X4135051Y6563723D01*
G01X4146481Y6580741D01*
G01X4152069Y6609443D01*
G01X4152069Y6626461D01*
G01X4146481Y6655163D01*
G01X4135051Y6672181D01*
G01X4117779Y6678023D01*
G01X4106349Y6678023D01*
G01X4199821Y6637891D02*
G01X4199821Y6557881D01*
G01X4199821Y6615031D02*
G01X4217093Y6632303D01*
G01X4228523Y6637891D01*
G01X4245541Y6637891D01*
G01X4256971Y6632303D01*
G01X4262813Y6615031D01*
G01X4262813Y6557881D01*
G01X4262813Y6615031D02*
G01X4279831Y6632303D01*
G01X4291261Y6637891D01*
G01X4308533Y6637891D01*
G01X4319963Y6632303D01*
G01X4325551Y6615031D01*
G01X4325551Y6557881D01*
G01X4373303Y6637891D02*
G01X4373303Y6557881D01*
G01X4373303Y6615031D02*
G01X4390575Y6632303D01*
G01X4402005Y6637891D01*
G01X4419023Y6637891D01*
G01X4430453Y6632303D01*
G01X4436295Y6615031D01*
G01X4436295Y6557881D01*
G01X4436295Y6615031D02*
G01X4453313Y6632303D01*
G01X4464743Y6637891D01*
G01X4482015Y6637891D01*
G01X4493445Y6632303D01*
G01X4499033Y6615031D01*
G01X4499033Y6557881D01*
G01X4546785Y6700883D02*
G01X4558215Y6689453D01*
G01X4569645Y6672181D01*
G01X4581075Y6649321D01*
G01X4586917Y6620873D01*
G01X4586917Y6598013D01*
G01X4581075Y6569311D01*
G01X4569645Y6546451D01*
G01X4558215Y6529433D01*
G01X4546785Y6518003D01*
G01X6482411Y6678023D02*
G01X6482411Y6557881D01*
G01X6482411Y6678023D02*
G01X6562421Y6557881D01*
G01X6562421Y6678023D02*
G01X6562421Y6557881D01*
G01X6610173Y6678023D02*
G01X6610173Y6557881D01*
G01X6610173Y6678023D02*
G01X6661735Y6678023D01*
G01X6678753Y6672181D01*
G01X6684595Y6666593D01*
G01X6690183Y6655163D01*
G01X6690183Y6637891D01*
G01X6684595Y6626461D01*
G01X6678753Y6620873D01*
G01X6661735Y6615031D01*
G01X6610173Y6615031D01*
G01X6778067Y6678023D02*
G01X6778067Y6557881D01*
G01X6737935Y6678023D02*
G01X6817945Y6678023D01*
G01X6865697Y6678023D02*
G01X6865697Y6557881D01*
G01X6945707Y6678023D02*
G01X6945707Y6557881D01*
G01X6865697Y6620873D02*
G01X6945707Y6620873D01*
G01X7943818Y6678023D02*
G01X7943818Y6557881D01*
G01X7943818Y6678023D02*
G01X7995380Y6678023D01*
G01X8012398Y6672181D01*
G01X8018240Y6666593D01*
G01X8023828Y6655163D01*
G01X8023828Y6643733D01*
G01X8018240Y6632303D01*
G01X8012398Y6626461D01*
G01X7995380Y6620873D01*
G01X7943818Y6620873D01*
G01X7983950Y6620873D02*
G01X8023828Y6557881D01*
G01X8100282Y6637891D02*
G01X8088852Y6632303D01*
G01X8077422Y6620873D01*
G01X8071580Y6603601D01*
G01X8071580Y6592171D01*
G01X8077422Y6575153D01*
G01X8088852Y6563723D01*
G01X8100282Y6557881D01*
G01X8117300Y6557881D01*
G01X8128730Y6563723D01*
G01X8140160Y6575153D01*
G01X8146002Y6592171D01*
G01X8146002Y6603601D01*
G01X8140160Y6620873D01*
G01X8128730Y6632303D01*
G01X8117300Y6637891D01*
G01X8100282Y6637891D01*
G01X8193754Y6637891D02*
G01X8193754Y6580741D01*
G01X8199596Y6563723D01*
G01X8211026Y6557881D01*
G01X8228044Y6557881D01*
G01X8239474Y6563723D01*
G01X8256746Y6580741D01*
G01X8256746Y6637891D02*
G01X8256746Y6557881D01*
G01X8304498Y6637891D02*
G01X8304498Y6557881D01*
G01X8304498Y6615031D02*
G01X8321770Y6632303D01*
G01X8333200Y6637891D01*
G01X8350218Y6637891D01*
G01X8361648Y6632303D01*
G01X8367490Y6615031D01*
G01X8367490Y6557881D01*
G01X8483822Y6678023D02*
G01X8483822Y6557881D01*
G01X8483822Y6620873D02*
G01X8472392Y6632303D01*
G01X8460962Y6637891D01*
G01X8443944Y6637891D01*
G01X8432514Y6632303D01*
G01X8421084Y6620873D01*
G01X8415242Y6603601D01*
G01X8415242Y6592171D01*
G01X8421084Y6575153D01*
G01X8432514Y6563723D01*
G01X8443944Y6557881D01*
G01X8460962Y6557881D01*
G01X8472392Y6563723D01*
G01X8483822Y6575153D01*
G01X9374999Y6678023D02*
G01X9420719Y6557881D01*
G01X9466439Y6678023D02*
G01X9420719Y6557881D01*
G01X9514191Y6678023D02*
G01X9520033Y6672181D01*
G01X9525621Y6678023D01*
G01X9520033Y6683611D01*
G01X9514191Y6678023D01*
G01X9520033Y6637891D02*
G01X9520033Y6557881D01*
G01X9641953Y6637891D02*
G01X9641953Y6557881D01*
G01X9641953Y6620873D02*
G01X9630523Y6632303D01*
G01X9619093Y6637891D01*
G01X9602075Y6637891D01*
G01X9590645Y6632303D01*
G01X9579215Y6620873D01*
G01X9573373Y6603601D01*
G01X9573373Y6592171D01*
G01X9579215Y6575153D01*
G01X9590645Y6563723D01*
G01X9602075Y6557881D01*
G01X9619093Y6557881D01*
G01X9630523Y6563723D01*
G01X9641953Y6575153D01*
G01X13003679Y6678023D02*
G01X13003679Y6557881D01*
G01X12963547Y6678023D02*
G01X13043557Y6678023D01*
G01X13120011Y6637891D02*
G01X13108581Y6632303D01*
G01X13097151Y6620873D01*
G01X13091309Y6603601D01*
G01X13091309Y6592171D01*
G01X13097151Y6575153D01*
G01X13108581Y6563723D01*
G01X13120011Y6557881D01*
G01X13137029Y6557881D01*
G01X13148459Y6563723D01*
G01X13159889Y6575153D01*
G01X13165731Y6592171D01*
G01X13165731Y6603601D01*
G01X13159889Y6620873D01*
G01X13148459Y6632303D01*
G01X13137029Y6637891D01*
G01X13120011Y6637891D01*
G01X13213483Y6637891D02*
G01X13213483Y6518003D01*
G01X13213483Y6620873D02*
G01X13224913Y6632303D01*
G01X13236343Y6637891D01*
G01X13253615Y6637891D01*
G01X13265045Y6632303D01*
G01X13276475Y6620873D01*
G01X13282063Y6603601D01*
G01X13282063Y6592171D01*
G01X13276475Y6575153D01*
G01X13265045Y6563723D01*
G01X13253615Y6557881D01*
G01X13236343Y6557881D01*
G01X13224913Y6563723D01*
G01X13213483Y6575153D01*
G01X13457831Y6678023D02*
G01X13457831Y6557881D01*
G01X13457831Y6557881D02*
G01X13526411Y6557881D01*
G01X13642743Y6637891D02*
G01X13642743Y6557881D01*
G01X13642743Y6620873D02*
G01X13631313Y6632303D01*
G01X13619883Y6637891D01*
G01X13602865Y6637891D01*
G01X13591435Y6632303D01*
G01X13580005Y6620873D01*
G01X13574163Y6603601D01*
G01X13574163Y6592171D01*
G01X13580005Y6575153D01*
G01X13591435Y6563723D01*
G01X13602865Y6557881D01*
G01X13619883Y6557881D01*
G01X13631313Y6563723D01*
G01X13642743Y6575153D01*
G01X13696337Y6637891D02*
G01X13730627Y6557881D01*
G01X13764917Y6637891D02*
G01X13730627Y6557881D01*
G01X13719197Y6535021D01*
G01X13707767Y6523591D01*
G01X13696337Y6518003D01*
G01X13690495Y6518003D01*
G01X13812669Y6603601D02*
G01X13881249Y6603601D01*
G01X13881249Y6615031D01*
G01X13875661Y6626461D01*
G01X13869819Y6632303D01*
G01X13858389Y6637891D01*
G01X13841371Y6637891D01*
G01X13829941Y6632303D01*
G01X13818511Y6620873D01*
G01X13812669Y6603601D01*
G01X13812669Y6592171D01*
G01X13818511Y6575153D01*
G01X13829941Y6563723D01*
G01X13841371Y6557881D01*
G01X13858389Y6557881D01*
G01X13869819Y6563723D01*
G01X13881249Y6575153D01*
G01X13929001Y6637891D02*
G01X13929001Y6557881D01*
G01X13929001Y6603601D02*
G01X13934843Y6620873D01*
G01X13946273Y6632303D01*
G01X13957703Y6637891D01*
G01X13974721Y6637891D01*
G01X14022473Y6609443D02*
G01X14125343Y6609443D01*
G01X14173095Y6678023D02*
G01X14173095Y6557881D01*
G01X14173095Y6678023D02*
G01X14224657Y6678023D01*
G01X14241675Y6672181D01*
G01X14247517Y6666593D01*
G01X14253105Y6655163D01*
G01X14253105Y6643733D01*
G01X14247517Y6632303D01*
G01X14241675Y6626461D01*
G01X14224657Y6620873D01*
G01X14173095Y6620873D02*
G01X14224657Y6620873D01*
G01X14241675Y6615031D01*
G01X14247517Y6609443D01*
G01X14253105Y6598013D01*
G01X14253105Y6580741D01*
G01X14247517Y6569311D01*
G01X14241675Y6563723D01*
G01X14224657Y6557881D01*
G01X14173095Y6557881D01*
G01X14329559Y6637891D02*
G01X14318129Y6632303D01*
G01X14306699Y6620873D01*
G01X14300857Y6603601D01*
G01X14300857Y6592171D01*
G01X14306699Y6575153D01*
G01X14318129Y6563723D01*
G01X14329559Y6557881D01*
G01X14346577Y6557881D01*
G01X14358007Y6563723D01*
G01X14369437Y6575153D01*
G01X14375279Y6592171D01*
G01X14375279Y6603601D01*
G01X14369437Y6620873D01*
G01X14358007Y6632303D01*
G01X14346577Y6637891D01*
G01X14329559Y6637891D01*
G01X14440303Y6678023D02*
G01X14440303Y6580741D01*
G01X14445891Y6563723D01*
G01X14457321Y6557881D01*
G01X14468751Y6557881D01*
G01X14423031Y6637891D02*
G01X14463163Y6637891D01*
G01X14533775Y6678023D02*
G01X14533775Y6580741D01*
G01X14539363Y6563723D01*
G01X14550793Y6557881D01*
G01X14562223Y6557881D01*
G01X14516503Y6637891D02*
G01X14556635Y6637891D01*
G01X14638677Y6637891D02*
G01X14627247Y6632303D01*
G01X14615817Y6620873D01*
G01X14609975Y6603601D01*
G01X14609975Y6592171D01*
G01X14615817Y6575153D01*
G01X14627247Y6563723D01*
G01X14638677Y6557881D01*
G01X14655695Y6557881D01*
G01X14667125Y6563723D01*
G01X14678555Y6575153D01*
G01X14684397Y6592171D01*
G01X14684397Y6603601D01*
G01X14678555Y6620873D01*
G01X14667125Y6632303D01*
G01X14655695Y6637891D01*
G01X14638677Y6637891D01*
G01X14732149Y6637891D02*
G01X14732149Y6557881D01*
G01X14732149Y6615031D02*
G01X14749421Y6632303D01*
G01X14760851Y6637891D01*
G01X14777869Y6637891D01*
G01X14789299Y6632303D01*
G01X14795141Y6615031D01*
G01X14795141Y6557881D01*
G01X14795141Y6615031D02*
G01X14812159Y6632303D01*
G01X14823589Y6637891D01*
G01X14840861Y6637891D01*
G01X14852291Y6632303D01*
G01X14857879Y6615031D01*
G01X14857879Y6557881D01*
G01X15033647Y6678023D02*
G01X15033647Y6557881D01*
G01X15033647Y6557881D02*
G01X15102227Y6557881D01*
G01X15218559Y6637891D02*
G01X15218559Y6557881D01*
G01X15218559Y6620873D02*
G01X15207129Y6632303D01*
G01X15195699Y6637891D01*
G01X15178681Y6637891D01*
G01X15167251Y6632303D01*
G01X15155821Y6620873D01*
G01X15149979Y6603601D01*
G01X15149979Y6592171D01*
G01X15155821Y6575153D01*
G01X15167251Y6563723D01*
G01X15178681Y6557881D01*
G01X15195699Y6557881D01*
G01X15207129Y6563723D01*
G01X15218559Y6575153D01*
G01X15272153Y6637891D02*
G01X15306443Y6557881D01*
G01X15340733Y6637891D02*
G01X15306443Y6557881D01*
G01X15295013Y6535021D01*
G01X15283583Y6523591D01*
G01X15272153Y6518003D01*
G01X15266311Y6518003D01*
G01X15388485Y6603601D02*
G01X15457065Y6603601D01*
G01X15457065Y6615031D01*
G01X15451477Y6626461D01*
G01X15445635Y6632303D01*
G01X15434205Y6637891D01*
G01X15417187Y6637891D01*
G01X15405757Y6632303D01*
G01X15394327Y6620873D01*
G01X15388485Y6603601D01*
G01X15388485Y6592171D01*
G01X15394327Y6575153D01*
G01X15405757Y6563723D01*
G01X15417187Y6557881D01*
G01X15434205Y6557881D01*
G01X15445635Y6563723D01*
G01X15457065Y6575153D01*
G01X15504817Y6637891D02*
G01X15504817Y6557881D01*
G01X15504817Y6603601D02*
G01X15510659Y6620873D01*
G01X15522089Y6632303D01*
G01X15533519Y6637891D01*
G01X15550537Y6637891D01*
G01X1293916Y6068749D02*
G01X1293916Y6074591D01*
G01X1299504Y6086021D01*
G01X1305346Y6091609D01*
G01X1316776Y6097451D01*
G01X1339636Y6097451D01*
G01X1351066Y6091609D01*
G01X1356654Y6086021D01*
G01X1362496Y6074591D01*
G01X1362496Y6063161D01*
G01X1356654Y6051731D01*
G01X1345224Y6034459D01*
G01X1288074Y5977309D01*
G01X1368084Y5977309D01*
G01X2782247Y6097451D02*
G01X2725097Y5977309D01*
G01X2702237Y6097451D02*
G01X2782247Y6097451D01*
G01X2858701Y6097451D02*
G01X2841429Y6091609D01*
G01X2835841Y6080179D01*
G01X2835841Y6068749D01*
G01X2841429Y6057319D01*
G01X2852859Y6051731D01*
G01X2875719Y6045889D01*
G01X2892991Y6040301D01*
G01X2904421Y6028871D01*
G01X2910009Y6017441D01*
G01X2910009Y6000169D01*
G01X2904421Y5988739D01*
G01X2898579Y5983151D01*
G01X2881561Y5977309D01*
G01X2858701Y5977309D01*
G01X2841429Y5983151D01*
G01X2835841Y5988739D01*
G01X2829999Y6000169D01*
G01X2829999Y6017441D01*
G01X2835841Y6028871D01*
G01X2847271Y6040301D01*
G01X2864289Y6045889D01*
G01X2887149Y6051731D01*
G01X2898579Y6057319D01*
G01X2904421Y6068749D01*
G01X2904421Y6080179D01*
G01X2898579Y6091609D01*
G01X2881561Y6097451D01*
G01X2858701Y6097451D01*
G01X2963603Y6006011D02*
G01X2957761Y6000169D01*
G01X2963603Y5994581D01*
G01X2969191Y6000169D01*
G01X2963603Y6006011D01*
G01X3096953Y6097451D02*
G01X3039803Y5977309D01*
G01X3016943Y6097451D02*
G01X3096953Y6097451D01*
G01X3144705Y6057319D02*
G01X3144705Y5977309D01*
G01X3144705Y6034459D02*
G01X3161977Y6051731D01*
G01X3173407Y6057319D01*
G01X3190425Y6057319D01*
G01X3201855Y6051731D01*
G01X3207697Y6034459D01*
G01X3207697Y5977309D01*
G01X3207697Y6034459D02*
G01X3224715Y6051731D01*
G01X3236145Y6057319D01*
G01X3253417Y6057319D01*
G01X3264847Y6051731D01*
G01X3270435Y6034459D01*
G01X3270435Y5977309D01*
G01X3318187Y6097451D02*
G01X3324029Y6091609D01*
G01X3329617Y6097451D01*
G01X3324029Y6103039D01*
G01X3318187Y6097451D01*
G01X3324029Y6057319D02*
G01X3324029Y5977309D01*
G01X3377369Y6097451D02*
G01X3377369Y5977309D01*
G01X3465253Y6120311D02*
G01X3453823Y6108881D01*
G01X3442393Y6091609D01*
G01X3430963Y6068749D01*
G01X3425121Y6040301D01*
G01X3425121Y6017441D01*
G01X3430963Y5988739D01*
G01X3442393Y5965879D01*
G01X3453823Y5948861D01*
G01X3465253Y5937431D01*
G01X3518847Y6068749D02*
G01X3518847Y6074591D01*
G01X3524435Y6086021D01*
G01X3530277Y6091609D01*
G01X3541707Y6097451D01*
G01X3564567Y6097451D01*
G01X3575997Y6091609D01*
G01X3581585Y6086021D01*
G01X3587427Y6074591D01*
G01X3587427Y6063161D01*
G01X3581585Y6051731D01*
G01X3570155Y6034459D01*
G01X3513005Y5977309D01*
G01X3593015Y5977309D01*
G01X3646609Y6006011D02*
G01X3640767Y6000169D01*
G01X3646609Y5994581D01*
G01X3652197Y6000169D01*
G01X3646609Y6006011D01*
G01X3734239Y6097451D02*
G01X3717221Y6091609D01*
G01X3705791Y6074591D01*
G01X3699949Y6045889D01*
G01X3699949Y6028871D01*
G01X3705791Y6000169D01*
G01X3717221Y5983151D01*
G01X3734239Y5977309D01*
G01X3745669Y5977309D01*
G01X3762941Y5983151D01*
G01X3774371Y6000169D01*
G01X3779959Y6028871D01*
G01X3779959Y6045889D01*
G01X3774371Y6074591D01*
G01X3762941Y6091609D01*
G01X3745669Y6097451D01*
G01X3734239Y6097451D01*
G01X3862001Y6097451D02*
G01X3844983Y6091609D01*
G01X3833553Y6074591D01*
G01X3827711Y6045889D01*
G01X3827711Y6028871D01*
G01X3833553Y6000169D01*
G01X3844983Y5983151D01*
G01X3862001Y5977309D01*
G01X3873431Y5977309D01*
G01X3890703Y5983151D01*
G01X3902133Y6000169D01*
G01X3907721Y6028871D01*
G01X3907721Y6045889D01*
G01X3902133Y6074591D01*
G01X3890703Y6091609D01*
G01X3873431Y6097451D01*
G01X3862001Y6097451D01*
G01X3989763Y6097451D02*
G01X3972745Y6091609D01*
G01X3961315Y6074591D01*
G01X3955473Y6045889D01*
G01X3955473Y6028871D01*
G01X3961315Y6000169D01*
G01X3972745Y5983151D01*
G01X3989763Y5977309D01*
G01X4001193Y5977309D01*
G01X4018465Y5983151D01*
G01X4029895Y6000169D01*
G01X4035483Y6028871D01*
G01X4035483Y6045889D01*
G01X4029895Y6074591D01*
G01X4018465Y6091609D01*
G01X4001193Y6097451D01*
G01X3989763Y6097451D01*
G01X4083235Y6057319D02*
G01X4083235Y5977309D01*
G01X4083235Y6034459D02*
G01X4100507Y6051731D01*
G01X4111937Y6057319D01*
G01X4128955Y6057319D01*
G01X4140385Y6051731D01*
G01X4146227Y6034459D01*
G01X4146227Y5977309D01*
G01X4146227Y6034459D02*
G01X4163245Y6051731D01*
G01X4174675Y6057319D01*
G01X4191947Y6057319D01*
G01X4203377Y6051731D01*
G01X4208965Y6034459D01*
G01X4208965Y5977309D01*
G01X4256717Y6057319D02*
G01X4256717Y5977309D01*
G01X4256717Y6034459D02*
G01X4273989Y6051731D01*
G01X4285419Y6057319D01*
G01X4302437Y6057319D01*
G01X4313867Y6051731D01*
G01X4319709Y6034459D01*
G01X4319709Y5977309D01*
G01X4319709Y6034459D02*
G01X4336727Y6051731D01*
G01X4348157Y6057319D01*
G01X4365429Y6057319D01*
G01X4376859Y6051731D01*
G01X4382447Y6034459D01*
G01X4382447Y5977309D01*
G01X4430199Y6120311D02*
G01X4441629Y6108881D01*
G01X4453059Y6091609D01*
G01X4464489Y6068749D01*
G01X4470331Y6040301D01*
G01X4470331Y6017441D01*
G01X4464489Y5988739D01*
G01X4453059Y5965879D01*
G01X4441629Y5948861D01*
G01X4430199Y5937431D01*
G01X6482411Y6097451D02*
G01X6482411Y5977309D01*
G01X6482411Y6097451D02*
G01X6562421Y5977309D01*
G01X6562421Y6097451D02*
G01X6562421Y5977309D01*
G01X6610173Y6097451D02*
G01X6610173Y5977309D01*
G01X6610173Y6097451D02*
G01X6661735Y6097451D01*
G01X6678753Y6091609D01*
G01X6684595Y6086021D01*
G01X6690183Y6074591D01*
G01X6690183Y6057319D01*
G01X6684595Y6045889D01*
G01X6678753Y6040301D01*
G01X6661735Y6034459D01*
G01X6610173Y6034459D01*
G01X6778067Y6097451D02*
G01X6778067Y5977309D01*
G01X6737935Y6097451D02*
G01X6817945Y6097451D01*
G01X6865697Y6097451D02*
G01X6865697Y5977309D01*
G01X6945707Y6097451D02*
G01X6945707Y5977309D01*
G01X6865697Y6040301D02*
G01X6945707Y6040301D01*
G01X7943818Y6097451D02*
G01X7943818Y5977309D01*
G01X7943818Y6097451D02*
G01X7995380Y6097451D01*
G01X8012398Y6091609D01*
G01X8018240Y6086021D01*
G01X8023828Y6074591D01*
G01X8023828Y6063161D01*
G01X8018240Y6051731D01*
G01X8012398Y6045889D01*
G01X7995380Y6040301D01*
G01X7943818Y6040301D01*
G01X7983950Y6040301D02*
G01X8023828Y5977309D01*
G01X8100282Y6057319D02*
G01X8088852Y6051731D01*
G01X8077422Y6040301D01*
G01X8071580Y6023029D01*
G01X8071580Y6011599D01*
G01X8077422Y5994581D01*
G01X8088852Y5983151D01*
G01X8100282Y5977309D01*
G01X8117300Y5977309D01*
G01X8128730Y5983151D01*
G01X8140160Y5994581D01*
G01X8146002Y6011599D01*
G01X8146002Y6023029D01*
G01X8140160Y6040301D01*
G01X8128730Y6051731D01*
G01X8117300Y6057319D01*
G01X8100282Y6057319D01*
G01X8193754Y6057319D02*
G01X8193754Y6000169D01*
G01X8199596Y5983151D01*
G01X8211026Y5977309D01*
G01X8228044Y5977309D01*
G01X8239474Y5983151D01*
G01X8256746Y6000169D01*
G01X8256746Y6057319D02*
G01X8256746Y5977309D01*
G01X8304498Y6057319D02*
G01X8304498Y5977309D01*
G01X8304498Y6034459D02*
G01X8321770Y6051731D01*
G01X8333200Y6057319D01*
G01X8350218Y6057319D01*
G01X8361648Y6051731D01*
G01X8367490Y6034459D01*
G01X8367490Y5977309D01*
G01X8483822Y6097451D02*
G01X8483822Y5977309D01*
G01X8483822Y6040301D02*
G01X8472392Y6051731D01*
G01X8460962Y6057319D01*
G01X8443944Y6057319D01*
G01X8432514Y6051731D01*
G01X8421084Y6040301D01*
G01X8415242Y6023029D01*
G01X8415242Y6011599D01*
G01X8421084Y5994581D01*
G01X8432514Y5983151D01*
G01X8443944Y5977309D01*
G01X8460962Y5977309D01*
G01X8472392Y5983151D01*
G01X8483822Y5994581D01*
G01X9374999Y6097451D02*
G01X9420719Y5977309D01*
G01X9466439Y6097451D02*
G01X9420719Y5977309D01*
G01X9514191Y6097451D02*
G01X9520033Y6091609D01*
G01X9525621Y6097451D01*
G01X9520033Y6103039D01*
G01X9514191Y6097451D01*
G01X9520033Y6057319D02*
G01X9520033Y5977309D01*
G01X9641953Y6057319D02*
G01X9641953Y5977309D01*
G01X9641953Y6040301D02*
G01X9630523Y6051731D01*
G01X9619093Y6057319D01*
G01X9602075Y6057319D01*
G01X9590645Y6051731D01*
G01X9579215Y6040301D01*
G01X9573373Y6023029D01*
G01X9573373Y6011599D01*
G01X9579215Y5994581D01*
G01X9590645Y5983151D01*
G01X9602075Y5977309D01*
G01X9619093Y5977309D01*
G01X9630523Y5983151D01*
G01X9641953Y5994581D01*
G01X13003679Y6097451D02*
G01X13003679Y5977309D01*
G01X12963547Y6097451D02*
G01X13043557Y6097451D01*
G01X13120011Y6057319D02*
G01X13108581Y6051731D01*
G01X13097151Y6040301D01*
G01X13091309Y6023029D01*
G01X13091309Y6011599D01*
G01X13097151Y5994581D01*
G01X13108581Y5983151D01*
G01X13120011Y5977309D01*
G01X13137029Y5977309D01*
G01X13148459Y5983151D01*
G01X13159889Y5994581D01*
G01X13165731Y6011599D01*
G01X13165731Y6023029D01*
G01X13159889Y6040301D01*
G01X13148459Y6051731D01*
G01X13137029Y6057319D01*
G01X13120011Y6057319D01*
G01X13213483Y6057319D02*
G01X13213483Y5937431D01*
G01X13213483Y6040301D02*
G01X13224913Y6051731D01*
G01X13236343Y6057319D01*
G01X13253615Y6057319D01*
G01X13265045Y6051731D01*
G01X13276475Y6040301D01*
G01X13282063Y6023029D01*
G01X13282063Y6011599D01*
G01X13276475Y5994581D01*
G01X13265045Y5983151D01*
G01X13253615Y5977309D01*
G01X13236343Y5977309D01*
G01X13224913Y5983151D01*
G01X13213483Y5994581D01*
G01X13457831Y6097451D02*
G01X13457831Y5977309D01*
G01X13457831Y5977309D02*
G01X13526411Y5977309D01*
G01X13642743Y6057319D02*
G01X13642743Y5977309D01*
G01X13642743Y6040301D02*
G01X13631313Y6051731D01*
G01X13619883Y6057319D01*
G01X13602865Y6057319D01*
G01X13591435Y6051731D01*
G01X13580005Y6040301D01*
G01X13574163Y6023029D01*
G01X13574163Y6011599D01*
G01X13580005Y5994581D01*
G01X13591435Y5983151D01*
G01X13602865Y5977309D01*
G01X13619883Y5977309D01*
G01X13631313Y5983151D01*
G01X13642743Y5994581D01*
G01X13696337Y6057319D02*
G01X13730627Y5977309D01*
G01X13764917Y6057319D02*
G01X13730627Y5977309D01*
G01X13719197Y5954449D01*
G01X13707767Y5943019D01*
G01X13696337Y5937431D01*
G01X13690495Y5937431D01*
G01X13812669Y6023029D02*
G01X13881249Y6023029D01*
G01X13881249Y6034459D01*
G01X13875661Y6045889D01*
G01X13869819Y6051731D01*
G01X13858389Y6057319D01*
G01X13841371Y6057319D01*
G01X13829941Y6051731D01*
G01X13818511Y6040301D01*
G01X13812669Y6023029D01*
G01X13812669Y6011599D01*
G01X13818511Y5994581D01*
G01X13829941Y5983151D01*
G01X13841371Y5977309D01*
G01X13858389Y5977309D01*
G01X13869819Y5983151D01*
G01X13881249Y5994581D01*
G01X13929001Y6057319D02*
G01X13929001Y5977309D01*
G01X13929001Y6023029D02*
G01X13934843Y6040301D01*
G01X13946273Y6051731D01*
G01X13957703Y6057319D01*
G01X13974721Y6057319D01*
G01X14022473Y6028871D02*
G01X14125343Y6028871D01*
G01X14173095Y6097451D02*
G01X14173095Y5977309D01*
G01X14173095Y6097451D02*
G01X14224657Y6097451D01*
G01X14241675Y6091609D01*
G01X14247517Y6086021D01*
G01X14253105Y6074591D01*
G01X14253105Y6063161D01*
G01X14247517Y6051731D01*
G01X14241675Y6045889D01*
G01X14224657Y6040301D01*
G01X14173095Y6040301D02*
G01X14224657Y6040301D01*
G01X14241675Y6034459D01*
G01X14247517Y6028871D01*
G01X14253105Y6017441D01*
G01X14253105Y6000169D01*
G01X14247517Y5988739D01*
G01X14241675Y5983151D01*
G01X14224657Y5977309D01*
G01X14173095Y5977309D01*
G01X14329559Y6057319D02*
G01X14318129Y6051731D01*
G01X14306699Y6040301D01*
G01X14300857Y6023029D01*
G01X14300857Y6011599D01*
G01X14306699Y5994581D01*
G01X14318129Y5983151D01*
G01X14329559Y5977309D01*
G01X14346577Y5977309D01*
G01X14358007Y5983151D01*
G01X14369437Y5994581D01*
G01X14375279Y6011599D01*
G01X14375279Y6023029D01*
G01X14369437Y6040301D01*
G01X14358007Y6051731D01*
G01X14346577Y6057319D01*
G01X14329559Y6057319D01*
G01X14440303Y6097451D02*
G01X14440303Y6000169D01*
G01X14445891Y5983151D01*
G01X14457321Y5977309D01*
G01X14468751Y5977309D01*
G01X14423031Y6057319D02*
G01X14463163Y6057319D01*
G01X14533775Y6097451D02*
G01X14533775Y6000169D01*
G01X14539363Y5983151D01*
G01X14550793Y5977309D01*
G01X14562223Y5977309D01*
G01X14516503Y6057319D02*
G01X14556635Y6057319D01*
G01X14638677Y6057319D02*
G01X14627247Y6051731D01*
G01X14615817Y6040301D01*
G01X14609975Y6023029D01*
G01X14609975Y6011599D01*
G01X14615817Y5994581D01*
G01X14627247Y5983151D01*
G01X14638677Y5977309D01*
G01X14655695Y5977309D01*
G01X14667125Y5983151D01*
G01X14678555Y5994581D01*
G01X14684397Y6011599D01*
G01X14684397Y6023029D01*
G01X14678555Y6040301D01*
G01X14667125Y6051731D01*
G01X14655695Y6057319D01*
G01X14638677Y6057319D01*
G01X14732149Y6057319D02*
G01X14732149Y5977309D01*
G01X14732149Y6034459D02*
G01X14749421Y6051731D01*
G01X14760851Y6057319D01*
G01X14777869Y6057319D01*
G01X14789299Y6051731D01*
G01X14795141Y6034459D01*
G01X14795141Y5977309D01*
G01X14795141Y6034459D02*
G01X14812159Y6051731D01*
G01X14823589Y6057319D01*
G01X14840861Y6057319D01*
G01X14852291Y6051731D01*
G01X14857879Y6034459D01*
G01X14857879Y5977309D01*
G01X15033647Y6097451D02*
G01X15033647Y5977309D01*
G01X15033647Y5977309D02*
G01X15102227Y5977309D01*
G01X15218559Y6057319D02*
G01X15218559Y5977309D01*
G01X15218559Y6040301D02*
G01X15207129Y6051731D01*
G01X15195699Y6057319D01*
G01X15178681Y6057319D01*
G01X15167251Y6051731D01*
G01X15155821Y6040301D01*
G01X15149979Y6023029D01*
G01X15149979Y6011599D01*
G01X15155821Y5994581D01*
G01X15167251Y5983151D01*
G01X15178681Y5977309D01*
G01X15195699Y5977309D01*
G01X15207129Y5983151D01*
G01X15218559Y5994581D01*
G01X15272153Y6057319D02*
G01X15306443Y5977309D01*
G01X15340733Y6057319D02*
G01X15306443Y5977309D01*
G01X15295013Y5954449D01*
G01X15283583Y5943019D01*
G01X15272153Y5937431D01*
G01X15266311Y5937431D01*
G01X15388485Y6023029D02*
G01X15457065Y6023029D01*
G01X15457065Y6034459D01*
G01X15451477Y6045889D01*
G01X15445635Y6051731D01*
G01X15434205Y6057319D01*
G01X15417187Y6057319D01*
G01X15405757Y6051731D01*
G01X15394327Y6040301D01*
G01X15388485Y6023029D01*
G01X15388485Y6011599D01*
G01X15394327Y5994581D01*
G01X15405757Y5983151D01*
G01X15417187Y5977309D01*
G01X15434205Y5977309D01*
G01X15445635Y5983151D01*
G01X15457065Y5994581D01*
G01X15504817Y6057319D02*
G01X15504817Y5977309D01*
G01X15504817Y6023029D02*
G01X15510659Y6040301D01*
G01X15522089Y6051731D01*
G01X15533519Y6057319D01*
G01X15550537Y6057319D01*
G01X1345224Y5516880D02*
G01X1288074Y5436870D01*
G01X1373926Y5436870D01*
G01X1345224Y5516880D02*
G01X1345224Y5396738D01*
G01X2702237Y5494020D02*
G01X2713667Y5499608D01*
G01X2730939Y5516880D01*
G01X2730939Y5396738D01*
G01X2784533Y5488178D02*
G01X2784533Y5494020D01*
G01X2790121Y5505450D01*
G01X2795963Y5511038D01*
G01X2807393Y5516880D01*
G01X2830253Y5516880D01*
G01X2841683Y5511038D01*
G01X2847271Y5505450D01*
G01X2853113Y5494020D01*
G01X2853113Y5482590D01*
G01X2847271Y5471160D01*
G01X2835841Y5453888D01*
G01X2778691Y5396738D01*
G01X2858701Y5396738D01*
G01X2912295Y5425440D02*
G01X2906453Y5419598D01*
G01X2912295Y5414010D01*
G01X2917883Y5419598D01*
G01X2912295Y5425440D01*
G01X2999925Y5516880D02*
G01X2982907Y5511038D01*
G01X2971477Y5494020D01*
G01X2965635Y5465318D01*
G01X2965635Y5448300D01*
G01X2971477Y5419598D01*
G01X2982907Y5402580D01*
G01X2999925Y5396738D01*
G01X3011355Y5396738D01*
G01X3028627Y5402580D01*
G01X3040057Y5419598D01*
G01X3045645Y5448300D01*
G01X3045645Y5465318D01*
G01X3040057Y5494020D01*
G01X3028627Y5511038D01*
G01X3011355Y5516880D01*
G01X2999925Y5516880D01*
G01X3093397Y5476748D02*
G01X3093397Y5396738D01*
G01X3093397Y5453888D02*
G01X3110669Y5471160D01*
G01X3122099Y5476748D01*
G01X3139117Y5476748D01*
G01X3150547Y5471160D01*
G01X3156389Y5453888D01*
G01X3156389Y5396738D01*
G01X3156389Y5453888D02*
G01X3173407Y5471160D01*
G01X3184837Y5476748D01*
G01X3202109Y5476748D01*
G01X3213539Y5471160D01*
G01X3219127Y5453888D01*
G01X3219127Y5396738D01*
G01X3266879Y5516880D02*
G01X3272721Y5511038D01*
G01X3278309Y5516880D01*
G01X3272721Y5522468D01*
G01X3266879Y5516880D01*
G01X3272721Y5476748D02*
G01X3272721Y5396738D01*
G01X3326061Y5516880D02*
G01X3326061Y5396738D01*
G01X3413945Y5539740D02*
G01X3402515Y5528310D01*
G01X3391085Y5511038D01*
G01X3379655Y5488178D01*
G01X3373813Y5459730D01*
G01X3373813Y5436870D01*
G01X3379655Y5408168D01*
G01X3391085Y5385308D01*
G01X3402515Y5368290D01*
G01X3413945Y5356860D01*
G01X3495987Y5516880D02*
G01X3478969Y5511038D01*
G01X3467539Y5494020D01*
G01X3461697Y5465318D01*
G01X3461697Y5448300D01*
G01X3467539Y5419598D01*
G01X3478969Y5402580D01*
G01X3495987Y5396738D01*
G01X3507417Y5396738D01*
G01X3524689Y5402580D01*
G01X3536119Y5419598D01*
G01X3541707Y5448300D01*
G01X3541707Y5465318D01*
G01X3536119Y5494020D01*
G01X3524689Y5511038D01*
G01X3507417Y5516880D01*
G01X3495987Y5516880D01*
G01X3595301Y5425440D02*
G01X3589459Y5419598D01*
G01X3595301Y5414010D01*
G01X3600889Y5419598D01*
G01X3595301Y5425440D01*
G01X3660071Y5516880D02*
G01X3723063Y5516880D01*
G01X3688773Y5471160D01*
G01X3705791Y5471160D01*
G01X3717221Y5465318D01*
G01X3723063Y5459730D01*
G01X3728651Y5442458D01*
G01X3728651Y5431028D01*
G01X3723063Y5414010D01*
G01X3711633Y5402580D01*
G01X3694361Y5396738D01*
G01X3677343Y5396738D01*
G01X3660071Y5402580D01*
G01X3654483Y5408168D01*
G01X3648641Y5419598D01*
G01X3810693Y5516880D02*
G01X3793675Y5511038D01*
G01X3782245Y5494020D01*
G01X3776403Y5465318D01*
G01X3776403Y5448300D01*
G01X3782245Y5419598D01*
G01X3793675Y5402580D01*
G01X3810693Y5396738D01*
G01X3822123Y5396738D01*
G01X3839395Y5402580D01*
G01X3850825Y5419598D01*
G01X3856413Y5448300D01*
G01X3856413Y5465318D01*
G01X3850825Y5494020D01*
G01X3839395Y5511038D01*
G01X3822123Y5516880D01*
G01X3810693Y5516880D01*
G01X3972745Y5516880D02*
G01X3915595Y5516880D01*
G01X3910007Y5465318D01*
G01X3915595Y5471160D01*
G01X3932867Y5476748D01*
G01X3949885Y5476748D01*
G01X3967157Y5471160D01*
G01X3978587Y5459730D01*
G01X3984175Y5442458D01*
G01X3984175Y5431028D01*
G01X3978587Y5414010D01*
G01X3967157Y5402580D01*
G01X3949885Y5396738D01*
G01X3932867Y5396738D01*
G01X3915595Y5402580D01*
G01X3910007Y5408168D01*
G01X3904165Y5419598D01*
G01X4031927Y5476748D02*
G01X4031927Y5396738D01*
G01X4031927Y5453888D02*
G01X4049199Y5471160D01*
G01X4060629Y5476748D01*
G01X4077647Y5476748D01*
G01X4089077Y5471160D01*
G01X4094919Y5453888D01*
G01X4094919Y5396738D01*
G01X4094919Y5453888D02*
G01X4111937Y5471160D01*
G01X4123367Y5476748D01*
G01X4140639Y5476748D01*
G01X4152069Y5471160D01*
G01X4157657Y5453888D01*
G01X4157657Y5396738D01*
G01X4205409Y5476748D02*
G01X4205409Y5396738D01*
G01X4205409Y5453888D02*
G01X4222681Y5471160D01*
G01X4234111Y5476748D01*
G01X4251129Y5476748D01*
G01X4262559Y5471160D01*
G01X4268401Y5453888D01*
G01X4268401Y5396738D01*
G01X4268401Y5453888D02*
G01X4285419Y5471160D01*
G01X4296849Y5476748D01*
G01X4314121Y5476748D01*
G01X4325551Y5471160D01*
G01X4331139Y5453888D01*
G01X4331139Y5396738D01*
G01X4378891Y5539740D02*
G01X4390321Y5528310D01*
G01X4401751Y5511038D01*
G01X4413181Y5488178D01*
G01X4419023Y5459730D01*
G01X4419023Y5436870D01*
G01X4413181Y5408168D01*
G01X4401751Y5385308D01*
G01X4390321Y5368290D01*
G01X4378891Y5356860D01*
G01X6482411Y5516880D02*
G01X6482411Y5396738D01*
G01X6482411Y5516880D02*
G01X6533973Y5516880D01*
G01X6550991Y5511038D01*
G01X6556833Y5505450D01*
G01X6562421Y5494020D01*
G01X6562421Y5476748D01*
G01X6556833Y5465318D01*
G01X6550991Y5459730D01*
G01X6533973Y5453888D01*
G01X6482411Y5453888D01*
G01X6650305Y5516880D02*
G01X6650305Y5396738D01*
G01X6610173Y5516880D02*
G01X6690183Y5516880D01*
G01X6737935Y5516880D02*
G01X6737935Y5396738D01*
G01X6817945Y5516880D02*
G01X6817945Y5396738D01*
G01X6737935Y5459730D02*
G01X6817945Y5459730D01*
G01X7943818Y5516880D02*
G01X7943818Y5396738D01*
G01X7943818Y5516880D02*
G01X7995380Y5516880D01*
G01X8012398Y5511038D01*
G01X8018240Y5505450D01*
G01X8023828Y5494020D01*
G01X8023828Y5482590D01*
G01X8018240Y5471160D01*
G01X8012398Y5465318D01*
G01X7995380Y5459730D01*
G01X7943818Y5459730D01*
G01X7983950Y5459730D02*
G01X8023828Y5396738D01*
G01X8100282Y5476748D02*
G01X8088852Y5471160D01*
G01X8077422Y5459730D01*
G01X8071580Y5442458D01*
G01X8071580Y5431028D01*
G01X8077422Y5414010D01*
G01X8088852Y5402580D01*
G01X8100282Y5396738D01*
G01X8117300Y5396738D01*
G01X8128730Y5402580D01*
G01X8140160Y5414010D01*
G01X8146002Y5431028D01*
G01X8146002Y5442458D01*
G01X8140160Y5459730D01*
G01X8128730Y5471160D01*
G01X8117300Y5476748D01*
G01X8100282Y5476748D01*
G01X8193754Y5476748D02*
G01X8193754Y5419598D01*
G01X8199596Y5402580D01*
G01X8211026Y5396738D01*
G01X8228044Y5396738D01*
G01X8239474Y5402580D01*
G01X8256746Y5419598D01*
G01X8256746Y5476748D02*
G01X8256746Y5396738D01*
G01X8304498Y5476748D02*
G01X8304498Y5396738D01*
G01X8304498Y5453888D02*
G01X8321770Y5471160D01*
G01X8333200Y5476748D01*
G01X8350218Y5476748D01*
G01X8361648Y5471160D01*
G01X8367490Y5453888D01*
G01X8367490Y5396738D01*
G01X8483822Y5516880D02*
G01X8483822Y5396738D01*
G01X8483822Y5459730D02*
G01X8472392Y5471160D01*
G01X8460962Y5476748D01*
G01X8443944Y5476748D01*
G01X8432514Y5471160D01*
G01X8421084Y5459730D01*
G01X8415242Y5442458D01*
G01X8415242Y5431028D01*
G01X8421084Y5414010D01*
G01X8432514Y5402580D01*
G01X8443944Y5396738D01*
G01X8460962Y5396738D01*
G01X8472392Y5402580D01*
G01X8483822Y5414010D01*
G01X9374999Y5516880D02*
G01X9420719Y5396738D01*
G01X9466439Y5516880D02*
G01X9420719Y5396738D01*
G01X9514191Y5516880D02*
G01X9520033Y5511038D01*
G01X9525621Y5516880D01*
G01X9520033Y5522468D01*
G01X9514191Y5516880D01*
G01X9520033Y5476748D02*
G01X9520033Y5396738D01*
G01X9641953Y5476748D02*
G01X9641953Y5396738D01*
G01X9641953Y5459730D02*
G01X9630523Y5471160D01*
G01X9619093Y5476748D01*
G01X9602075Y5476748D01*
G01X9590645Y5471160D01*
G01X9579215Y5459730D01*
G01X9573373Y5442458D01*
G01X9573373Y5431028D01*
G01X9579215Y5414010D01*
G01X9590645Y5402580D01*
G01X9602075Y5396738D01*
G01X9619093Y5396738D01*
G01X9630523Y5402580D01*
G01X9641953Y5414010D01*
G01X13003679Y5516880D02*
G01X13003679Y5396738D01*
G01X12963547Y5516880D02*
G01X13043557Y5516880D01*
G01X13120011Y5476748D02*
G01X13108581Y5471160D01*
G01X13097151Y5459730D01*
G01X13091309Y5442458D01*
G01X13091309Y5431028D01*
G01X13097151Y5414010D01*
G01X13108581Y5402580D01*
G01X13120011Y5396738D01*
G01X13137029Y5396738D01*
G01X13148459Y5402580D01*
G01X13159889Y5414010D01*
G01X13165731Y5431028D01*
G01X13165731Y5442458D01*
G01X13159889Y5459730D01*
G01X13148459Y5471160D01*
G01X13137029Y5476748D01*
G01X13120011Y5476748D01*
G01X13213483Y5476748D02*
G01X13213483Y5356860D01*
G01X13213483Y5459730D02*
G01X13224913Y5471160D01*
G01X13236343Y5476748D01*
G01X13253615Y5476748D01*
G01X13265045Y5471160D01*
G01X13276475Y5459730D01*
G01X13282063Y5442458D01*
G01X13282063Y5431028D01*
G01X13276475Y5414010D01*
G01X13265045Y5402580D01*
G01X13253615Y5396738D01*
G01X13236343Y5396738D01*
G01X13224913Y5402580D01*
G01X13213483Y5414010D01*
G01X13457831Y5516880D02*
G01X13457831Y5396738D01*
G01X13457831Y5396738D02*
G01X13526411Y5396738D01*
G01X13642743Y5476748D02*
G01X13642743Y5396738D01*
G01X13642743Y5459730D02*
G01X13631313Y5471160D01*
G01X13619883Y5476748D01*
G01X13602865Y5476748D01*
G01X13591435Y5471160D01*
G01X13580005Y5459730D01*
G01X13574163Y5442458D01*
G01X13574163Y5431028D01*
G01X13580005Y5414010D01*
G01X13591435Y5402580D01*
G01X13602865Y5396738D01*
G01X13619883Y5396738D01*
G01X13631313Y5402580D01*
G01X13642743Y5414010D01*
G01X13696337Y5476748D02*
G01X13730627Y5396738D01*
G01X13764917Y5476748D02*
G01X13730627Y5396738D01*
G01X13719197Y5373878D01*
G01X13707767Y5362448D01*
G01X13696337Y5356860D01*
G01X13690495Y5356860D01*
G01X13812669Y5442458D02*
G01X13881249Y5442458D01*
G01X13881249Y5453888D01*
G01X13875661Y5465318D01*
G01X13869819Y5471160D01*
G01X13858389Y5476748D01*
G01X13841371Y5476748D01*
G01X13829941Y5471160D01*
G01X13818511Y5459730D01*
G01X13812669Y5442458D01*
G01X13812669Y5431028D01*
G01X13818511Y5414010D01*
G01X13829941Y5402580D01*
G01X13841371Y5396738D01*
G01X13858389Y5396738D01*
G01X13869819Y5402580D01*
G01X13881249Y5414010D01*
G01X13929001Y5476748D02*
G01X13929001Y5396738D01*
G01X13929001Y5442458D02*
G01X13934843Y5459730D01*
G01X13946273Y5471160D01*
G01X13957703Y5476748D01*
G01X13974721Y5476748D01*
G01X14022473Y5448300D02*
G01X14125343Y5448300D01*
G01X14173095Y5516880D02*
G01X14173095Y5396738D01*
G01X14173095Y5516880D02*
G01X14224657Y5516880D01*
G01X14241675Y5511038D01*
G01X14247517Y5505450D01*
G01X14253105Y5494020D01*
G01X14253105Y5482590D01*
G01X14247517Y5471160D01*
G01X14241675Y5465318D01*
G01X14224657Y5459730D01*
G01X14173095Y5459730D02*
G01X14224657Y5459730D01*
G01X14241675Y5453888D01*
G01X14247517Y5448300D01*
G01X14253105Y5436870D01*
G01X14253105Y5419598D01*
G01X14247517Y5408168D01*
G01X14241675Y5402580D01*
G01X14224657Y5396738D01*
G01X14173095Y5396738D01*
G01X14329559Y5476748D02*
G01X14318129Y5471160D01*
G01X14306699Y5459730D01*
G01X14300857Y5442458D01*
G01X14300857Y5431028D01*
G01X14306699Y5414010D01*
G01X14318129Y5402580D01*
G01X14329559Y5396738D01*
G01X14346577Y5396738D01*
G01X14358007Y5402580D01*
G01X14369437Y5414010D01*
G01X14375279Y5431028D01*
G01X14375279Y5442458D01*
G01X14369437Y5459730D01*
G01X14358007Y5471160D01*
G01X14346577Y5476748D01*
G01X14329559Y5476748D01*
G01X14440303Y5516880D02*
G01X14440303Y5419598D01*
G01X14445891Y5402580D01*
G01X14457321Y5396738D01*
G01X14468751Y5396738D01*
G01X14423031Y5476748D02*
G01X14463163Y5476748D01*
G01X14533775Y5516880D02*
G01X14533775Y5419598D01*
G01X14539363Y5402580D01*
G01X14550793Y5396738D01*
G01X14562223Y5396738D01*
G01X14516503Y5476748D02*
G01X14556635Y5476748D01*
G01X14638677Y5476748D02*
G01X14627247Y5471160D01*
G01X14615817Y5459730D01*
G01X14609975Y5442458D01*
G01X14609975Y5431028D01*
G01X14615817Y5414010D01*
G01X14627247Y5402580D01*
G01X14638677Y5396738D01*
G01X14655695Y5396738D01*
G01X14667125Y5402580D01*
G01X14678555Y5414010D01*
G01X14684397Y5431028D01*
G01X14684397Y5442458D01*
G01X14678555Y5459730D01*
G01X14667125Y5471160D01*
G01X14655695Y5476748D01*
G01X14638677Y5476748D01*
G01X14732149Y5476748D02*
G01X14732149Y5396738D01*
G01X14732149Y5453888D02*
G01X14749421Y5471160D01*
G01X14760851Y5476748D01*
G01X14777869Y5476748D01*
G01X14789299Y5471160D01*
G01X14795141Y5453888D01*
G01X14795141Y5396738D01*
G01X14795141Y5453888D02*
G01X14812159Y5471160D01*
G01X14823589Y5476748D01*
G01X14840861Y5476748D01*
G01X14852291Y5471160D01*
G01X14857879Y5453888D01*
G01X14857879Y5396738D01*
G01X15033647Y5516880D02*
G01X15033647Y5396738D01*
G01X15033647Y5396738D02*
G01X15102227Y5396738D01*
G01X15218559Y5476748D02*
G01X15218559Y5396738D01*
G01X15218559Y5459730D02*
G01X15207129Y5471160D01*
G01X15195699Y5476748D01*
G01X15178681Y5476748D01*
G01X15167251Y5471160D01*
G01X15155821Y5459730D01*
G01X15149979Y5442458D01*
G01X15149979Y5431028D01*
G01X15155821Y5414010D01*
G01X15167251Y5402580D01*
G01X15178681Y5396738D01*
G01X15195699Y5396738D01*
G01X15207129Y5402580D01*
G01X15218559Y5414010D01*
G01X15272153Y5476748D02*
G01X15306443Y5396738D01*
G01X15340733Y5476748D02*
G01X15306443Y5396738D01*
G01X15295013Y5373878D01*
G01X15283583Y5362448D01*
G01X15272153Y5356860D01*
G01X15266311Y5356860D01*
G01X15388485Y5442458D02*
G01X15457065Y5442458D01*
G01X15457065Y5453888D01*
G01X15451477Y5465318D01*
G01X15445635Y5471160D01*
G01X15434205Y5476748D01*
G01X15417187Y5476748D01*
G01X15405757Y5471160D01*
G01X15394327Y5459730D01*
G01X15388485Y5442458D01*
G01X15388485Y5431028D01*
G01X15394327Y5414010D01*
G01X15405757Y5402580D01*
G01X15417187Y5396738D01*
G01X15434205Y5396738D01*
G01X15445635Y5402580D01*
G01X15457065Y5414010D01*
G01X15504817Y5476748D02*
G01X15504817Y5396738D01*
G01X15504817Y5442458D02*
G01X15510659Y5459730D01*
G01X15522089Y5471160D01*
G01X15533519Y5476748D01*
G01X15550537Y5476748D01*
G01X1316776Y4936309D02*
G01X1299504Y4930467D01*
G01X1293916Y4919037D01*
G01X1293916Y4907607D01*
G01X1299504Y4896177D01*
G01X1310934Y4890589D01*
G01X1333794Y4884747D01*
G01X1351066Y4879159D01*
G01X1362496Y4867729D01*
G01X1368084Y4856299D01*
G01X1368084Y4839027D01*
G01X1362496Y4827597D01*
G01X1356654Y4822009D01*
G01X1339636Y4816167D01*
G01X1316776Y4816167D01*
G01X1299504Y4822009D01*
G01X1293916Y4827597D01*
G01X1288074Y4839027D01*
G01X1288074Y4856299D01*
G01X1293916Y4867729D01*
G01X1305346Y4879159D01*
G01X1322364Y4884747D01*
G01X1345224Y4890589D01*
G01X1356654Y4896177D01*
G01X1362496Y4907607D01*
G01X1362496Y4919037D01*
G01X1356654Y4930467D01*
G01X1339636Y4936309D01*
G01X1316776Y4936309D01*
G01X2713667Y4936309D02*
G01X2776659Y4936309D01*
G01X2742369Y4890589D01*
G01X2759387Y4890589D01*
G01X2770817Y4884747D01*
G01X2776659Y4879159D01*
G01X2782247Y4861887D01*
G01X2782247Y4850457D01*
G01X2776659Y4833439D01*
G01X2765229Y4822009D01*
G01X2747957Y4816167D01*
G01X2730939Y4816167D01*
G01X2713667Y4822009D01*
G01X2708079Y4827597D01*
G01X2702237Y4839027D01*
G01X2898579Y4919037D02*
G01X2892991Y4930467D01*
G01X2875719Y4936309D01*
G01X2864289Y4936309D01*
G01X2847271Y4930467D01*
G01X2835841Y4913449D01*
G01X2829999Y4884747D01*
G01X2829999Y4856299D01*
G01X2835841Y4833439D01*
G01X2847271Y4822009D01*
G01X2864289Y4816167D01*
G01X2870131Y4816167D01*
G01X2887149Y4822009D01*
G01X2898579Y4833439D01*
G01X2904421Y4850457D01*
G01X2904421Y4856299D01*
G01X2898579Y4873317D01*
G01X2887149Y4884747D01*
G01X2870131Y4890589D01*
G01X2864289Y4890589D01*
G01X2847271Y4884747D01*
G01X2835841Y4873317D01*
G01X2829999Y4856299D01*
G01X2958015Y4844869D02*
G01X2952173Y4839027D01*
G01X2958015Y4833439D01*
G01X2963603Y4839027D01*
G01X2958015Y4844869D01*
G01X3045645Y4936309D02*
G01X3028627Y4930467D01*
G01X3017197Y4913449D01*
G01X3011355Y4884747D01*
G01X3011355Y4867729D01*
G01X3017197Y4839027D01*
G01X3028627Y4822009D01*
G01X3045645Y4816167D01*
G01X3057075Y4816167D01*
G01X3074347Y4822009D01*
G01X3085777Y4839027D01*
G01X3091365Y4867729D01*
G01X3091365Y4884747D01*
G01X3085777Y4913449D01*
G01X3074347Y4930467D01*
G01X3057075Y4936309D01*
G01X3045645Y4936309D01*
G01X3139117Y4896177D02*
G01X3202109Y4816167D01*
G01X3202109Y4896177D02*
G01X3139117Y4816167D01*
G01X3261291Y4936309D02*
G01X3324283Y4936309D01*
G01X3289993Y4890589D01*
G01X3307011Y4890589D01*
G01X3318441Y4884747D01*
G01X3324283Y4879159D01*
G01X3329871Y4861887D01*
G01X3329871Y4850457D01*
G01X3324283Y4833439D01*
G01X3312853Y4822009D01*
G01X3295581Y4816167D01*
G01X3278563Y4816167D01*
G01X3261291Y4822009D01*
G01X3255703Y4827597D01*
G01X3249861Y4839027D01*
G01X3446203Y4919037D02*
G01X3440615Y4930467D01*
G01X3423343Y4936309D01*
G01X3411913Y4936309D01*
G01X3394895Y4930467D01*
G01X3383465Y4913449D01*
G01X3377623Y4884747D01*
G01X3377623Y4856299D01*
G01X3383465Y4833439D01*
G01X3394895Y4822009D01*
G01X3411913Y4816167D01*
G01X3417755Y4816167D01*
G01X3434773Y4822009D01*
G01X3446203Y4833439D01*
G01X3452045Y4850457D01*
G01X3452045Y4856299D01*
G01X3446203Y4873317D01*
G01X3434773Y4884747D01*
G01X3417755Y4890589D01*
G01X3411913Y4890589D01*
G01X3394895Y4884747D01*
G01X3383465Y4873317D01*
G01X3377623Y4856299D01*
G01X3505639Y4844869D02*
G01X3499797Y4839027D01*
G01X3505639Y4833439D01*
G01X3511227Y4839027D01*
G01X3505639Y4844869D01*
G01X3593269Y4936309D02*
G01X3576251Y4930467D01*
G01X3564821Y4913449D01*
G01X3558979Y4884747D01*
G01X3558979Y4867729D01*
G01X3564821Y4839027D01*
G01X3576251Y4822009D01*
G01X3593269Y4816167D01*
G01X3604699Y4816167D01*
G01X3621971Y4822009D01*
G01X3633401Y4839027D01*
G01X3638989Y4867729D01*
G01X3638989Y4884747D01*
G01X3633401Y4913449D01*
G01X3621971Y4930467D01*
G01X3604699Y4936309D01*
G01X3593269Y4936309D01*
G01X3686741Y4896177D02*
G01X3686741Y4816167D01*
G01X3686741Y4873317D02*
G01X3704013Y4890589D01*
G01X3715443Y4896177D01*
G01X3732461Y4896177D01*
G01X3743891Y4890589D01*
G01X3749733Y4873317D01*
G01X3749733Y4816167D01*
G01X3749733Y4873317D02*
G01X3766751Y4890589D01*
G01X3778181Y4896177D01*
G01X3795453Y4896177D01*
G01X3806883Y4890589D01*
G01X3812471Y4873317D01*
G01X3812471Y4816167D01*
G01X3860223Y4936309D02*
G01X3866065Y4930467D01*
G01X3871653Y4936309D01*
G01X3866065Y4941897D01*
G01X3860223Y4936309D01*
G01X3866065Y4896177D02*
G01X3866065Y4816167D01*
G01X3919405Y4936309D02*
G01X3919405Y4816167D01*
G01X4007289Y4959169D02*
G01X3995859Y4947739D01*
G01X3984429Y4930467D01*
G01X3972999Y4907607D01*
G01X3967157Y4879159D01*
G01X3967157Y4856299D01*
G01X3972999Y4827597D01*
G01X3984429Y4804737D01*
G01X3995859Y4787719D01*
G01X4007289Y4776289D01*
G01X4089331Y4936309D02*
G01X4072313Y4930467D01*
G01X4060883Y4913449D01*
G01X4055041Y4884747D01*
G01X4055041Y4867729D01*
G01X4060883Y4839027D01*
G01X4072313Y4822009D01*
G01X4089331Y4816167D01*
G01X4100761Y4816167D01*
G01X4118033Y4822009D01*
G01X4129463Y4839027D01*
G01X4135051Y4867729D01*
G01X4135051Y4884747D01*
G01X4129463Y4913449D01*
G01X4118033Y4930467D01*
G01X4100761Y4936309D01*
G01X4089331Y4936309D01*
G01X4188645Y4844869D02*
G01X4182803Y4839027D01*
G01X4188645Y4833439D01*
G01X4194233Y4839027D01*
G01X4188645Y4844869D01*
G01X4316407Y4896177D02*
G01X4310565Y4879159D01*
G01X4299135Y4867729D01*
G01X4282117Y4861887D01*
G01X4276275Y4861887D01*
G01X4259257Y4867729D01*
G01X4247827Y4879159D01*
G01X4241985Y4896177D01*
G01X4241985Y4902019D01*
G01X4247827Y4919037D01*
G01X4259257Y4930467D01*
G01X4276275Y4936309D01*
G01X4282117Y4936309D01*
G01X4299135Y4930467D01*
G01X4310565Y4919037D01*
G01X4316407Y4896177D01*
G01X4316407Y4867729D01*
G01X4310565Y4839027D01*
G01X4299135Y4822009D01*
G01X4282117Y4816167D01*
G01X4270687Y4816167D01*
G01X4253415Y4822009D01*
G01X4247827Y4833439D01*
G01X4364159Y4913449D02*
G01X4375589Y4919037D01*
G01X4392861Y4936309D01*
G01X4392861Y4816167D01*
G01X4497763Y4936309D02*
G01X4440613Y4856299D01*
G01X4526465Y4856299D01*
G01X4497763Y4936309D02*
G01X4497763Y4816167D01*
G01X4574217Y4896177D02*
G01X4637209Y4816167D01*
G01X4637209Y4896177D02*
G01X4574217Y4816167D01*
G01X4719251Y4936309D02*
G01X4702233Y4930467D01*
G01X4690803Y4913449D01*
G01X4684961Y4884747D01*
G01X4684961Y4867729D01*
G01X4690803Y4839027D01*
G01X4702233Y4822009D01*
G01X4719251Y4816167D01*
G01X4730681Y4816167D01*
G01X4747953Y4822009D01*
G01X4759383Y4839027D01*
G01X4764971Y4867729D01*
G01X4764971Y4884747D01*
G01X4759383Y4913449D01*
G01X4747953Y4930467D01*
G01X4730681Y4936309D01*
G01X4719251Y4936309D01*
G01X4818565Y4844869D02*
G01X4812723Y4839027D01*
G01X4818565Y4833439D01*
G01X4824153Y4839027D01*
G01X4818565Y4844869D01*
G01X4946327Y4896177D02*
G01X4940485Y4879159D01*
G01X4929055Y4867729D01*
G01X4912037Y4861887D01*
G01X4906195Y4861887D01*
G01X4889177Y4867729D01*
G01X4877747Y4879159D01*
G01X4871905Y4896177D01*
G01X4871905Y4902019D01*
G01X4877747Y4919037D01*
G01X4889177Y4930467D01*
G01X4906195Y4936309D01*
G01X4912037Y4936309D01*
G01X4929055Y4930467D01*
G01X4940485Y4919037D01*
G01X4946327Y4896177D01*
G01X4946327Y4867729D01*
G01X4940485Y4839027D01*
G01X4929055Y4822009D01*
G01X4912037Y4816167D01*
G01X4900607Y4816167D01*
G01X4883335Y4822009D01*
G01X4877747Y4833439D01*
G01X4994079Y4913449D02*
G01X5005509Y4919037D01*
G01X5022781Y4936309D01*
G01X5022781Y4816167D01*
G01X5127683Y4936309D02*
G01X5070533Y4856299D01*
G01X5156385Y4856299D01*
G01X5127683Y4936309D02*
G01X5127683Y4816167D01*
G01X5204137Y4896177D02*
G01X5204137Y4816167D01*
G01X5204137Y4873317D02*
G01X5221409Y4890589D01*
G01X5232839Y4896177D01*
G01X5249857Y4896177D01*
G01X5261287Y4890589D01*
G01X5267129Y4873317D01*
G01X5267129Y4816167D01*
G01X5267129Y4873317D02*
G01X5284147Y4890589D01*
G01X5295577Y4896177D01*
G01X5312849Y4896177D01*
G01X5324279Y4890589D01*
G01X5329867Y4873317D01*
G01X5329867Y4816167D01*
G01X5377619Y4896177D02*
G01X5377619Y4816167D01*
G01X5377619Y4873317D02*
G01X5394891Y4890589D01*
G01X5406321Y4896177D01*
G01X5423339Y4896177D01*
G01X5434769Y4890589D01*
G01X5440611Y4873317D01*
G01X5440611Y4816167D01*
G01X5440611Y4873317D02*
G01X5457629Y4890589D01*
G01X5469059Y4896177D01*
G01X5486331Y4896177D01*
G01X5497761Y4890589D01*
G01X5503349Y4873317D01*
G01X5503349Y4816167D01*
G01X5551101Y4959169D02*
G01X5562531Y4947739D01*
G01X5573961Y4930467D01*
G01X5585391Y4907607D01*
G01X5591233Y4879159D01*
G01X5591233Y4856299D01*
G01X5585391Y4827597D01*
G01X5573961Y4804737D01*
G01X5562531Y4787719D01*
G01X5551101Y4776289D01*
G01X6482411Y4936309D02*
G01X6482411Y4816167D01*
G01X6482411Y4936309D02*
G01X6533973Y4936309D01*
G01X6550991Y4930467D01*
G01X6556833Y4924879D01*
G01X6562421Y4913449D01*
G01X6562421Y4896177D01*
G01X6556833Y4884747D01*
G01X6550991Y4879159D01*
G01X6533973Y4873317D01*
G01X6482411Y4873317D01*
G01X6650305Y4936309D02*
G01X6650305Y4816167D01*
G01X6610173Y4936309D02*
G01X6690183Y4936309D01*
G01X6737935Y4936309D02*
G01X6737935Y4816167D01*
G01X6817945Y4936309D02*
G01X6817945Y4816167D01*
G01X6737935Y4879159D02*
G01X6817945Y4879159D01*
G01X7943818Y4936309D02*
G01X7943818Y4816167D01*
G01X7943818Y4936309D02*
G01X7995380Y4936309D01*
G01X8012398Y4930467D01*
G01X8018240Y4924879D01*
G01X8023828Y4913449D01*
G01X8023828Y4902019D01*
G01X8018240Y4890589D01*
G01X8012398Y4884747D01*
G01X7995380Y4879159D01*
G01X7943818Y4879159D01*
G01X7983950Y4879159D02*
G01X8023828Y4816167D01*
G01X8100282Y4896177D02*
G01X8088852Y4890589D01*
G01X8077422Y4879159D01*
G01X8071580Y4861887D01*
G01X8071580Y4850457D01*
G01X8077422Y4833439D01*
G01X8088852Y4822009D01*
G01X8100282Y4816167D01*
G01X8117300Y4816167D01*
G01X8128730Y4822009D01*
G01X8140160Y4833439D01*
G01X8146002Y4850457D01*
G01X8146002Y4861887D01*
G01X8140160Y4879159D01*
G01X8128730Y4890589D01*
G01X8117300Y4896177D01*
G01X8100282Y4896177D01*
G01X8193754Y4896177D02*
G01X8193754Y4839027D01*
G01X8199596Y4822009D01*
G01X8211026Y4816167D01*
G01X8228044Y4816167D01*
G01X8239474Y4822009D01*
G01X8256746Y4839027D01*
G01X8256746Y4896177D02*
G01X8256746Y4816167D01*
G01X8304498Y4896177D02*
G01X8304498Y4816167D01*
G01X8304498Y4873317D02*
G01X8321770Y4890589D01*
G01X8333200Y4896177D01*
G01X8350218Y4896177D01*
G01X8361648Y4890589D01*
G01X8367490Y4873317D01*
G01X8367490Y4816167D01*
G01X8483822Y4936309D02*
G01X8483822Y4816167D01*
G01X8483822Y4879159D02*
G01X8472392Y4890589D01*
G01X8460962Y4896177D01*
G01X8443944Y4896177D01*
G01X8432514Y4890589D01*
G01X8421084Y4879159D01*
G01X8415242Y4861887D01*
G01X8415242Y4850457D01*
G01X8421084Y4833439D01*
G01X8432514Y4822009D01*
G01X8443944Y4816167D01*
G01X8460962Y4816167D01*
G01X8472392Y4822009D01*
G01X8483822Y4833439D01*
G01X9374999Y4936309D02*
G01X9374999Y4816167D01*
G01X9374999Y4936309D02*
G01X9426561Y4936309D01*
G01X9443579Y4930467D01*
G01X9449421Y4924879D01*
G01X9455009Y4913449D01*
G01X9455009Y4896177D01*
G01X9449421Y4884747D01*
G01X9443579Y4879159D01*
G01X9426561Y4873317D01*
G01X9374999Y4873317D01*
G01X9571341Y4896177D02*
G01X9571341Y4816167D01*
G01X9571341Y4879159D02*
G01X9559911Y4890589D01*
G01X9548481Y4896177D01*
G01X9531463Y4896177D01*
G01X9520033Y4890589D01*
G01X9508603Y4879159D01*
G01X9502761Y4861887D01*
G01X9502761Y4850457D01*
G01X9508603Y4833439D01*
G01X9520033Y4822009D01*
G01X9531463Y4816167D01*
G01X9548481Y4816167D01*
G01X9559911Y4822009D01*
G01X9571341Y4833439D01*
G01X9687673Y4936309D02*
G01X9687673Y4816167D01*
G01X9687673Y4879159D02*
G01X9676243Y4890589D01*
G01X9664813Y4896177D01*
G01X9647795Y4896177D01*
G01X9636365Y4890589D01*
G01X9624935Y4879159D01*
G01X9619093Y4861887D01*
G01X9619093Y4850457D01*
G01X9624935Y4833439D01*
G01X9636365Y4822009D01*
G01X9647795Y4816167D01*
G01X9664813Y4816167D01*
G01X9676243Y4822009D01*
G01X9687673Y4833439D01*
G01X11044178Y4936309D02*
G01X11044178Y4816167D01*
G01X11044178Y4936309D02*
G01X11095740Y4936309D01*
G01X11112758Y4930467D01*
G01X11118600Y4924879D01*
G01X11124188Y4913449D01*
G01X11124188Y4902019D01*
G01X11118600Y4890589D01*
G01X11112758Y4884747D01*
G01X11095740Y4879159D01*
G01X11044178Y4879159D01*
G01X11084310Y4879159D02*
G01X11124188Y4816167D01*
G01X11200642Y4896177D02*
G01X11189212Y4890589D01*
G01X11177782Y4879159D01*
G01X11171940Y4861887D01*
G01X11171940Y4850457D01*
G01X11177782Y4833439D01*
G01X11189212Y4822009D01*
G01X11200642Y4816167D01*
G01X11217660Y4816167D01*
G01X11229090Y4822009D01*
G01X11240520Y4833439D01*
G01X11246362Y4850457D01*
G01X11246362Y4861887D01*
G01X11240520Y4879159D01*
G01X11229090Y4890589D01*
G01X11217660Y4896177D01*
G01X11200642Y4896177D01*
G01X11294114Y4896177D02*
G01X11294114Y4839027D01*
G01X11299956Y4822009D01*
G01X11311386Y4816167D01*
G01X11328404Y4816167D01*
G01X11339834Y4822009D01*
G01X11357106Y4839027D01*
G01X11357106Y4896177D02*
G01X11357106Y4816167D01*
G01X11404858Y4896177D02*
G01X11404858Y4816167D01*
G01X11404858Y4873317D02*
G01X11422130Y4890589D01*
G01X11433560Y4896177D01*
G01X11450578Y4896177D01*
G01X11462008Y4890589D01*
G01X11467850Y4873317D01*
G01X11467850Y4816167D01*
G01X11584182Y4936309D02*
G01X11584182Y4816167D01*
G01X11584182Y4879159D02*
G01X11572752Y4890589D01*
G01X11561322Y4896177D01*
G01X11544304Y4896177D01*
G01X11532874Y4890589D01*
G01X11521444Y4879159D01*
G01X11515602Y4861887D01*
G01X11515602Y4850457D01*
G01X11521444Y4833439D01*
G01X11532874Y4822009D01*
G01X11544304Y4816167D01*
G01X11561322Y4816167D01*
G01X11572752Y4822009D01*
G01X11584182Y4833439D01*
G01X13003679Y4936309D02*
G01X13003679Y4816167D01*
G01X12963547Y4936309D02*
G01X13043557Y4936309D01*
G01X13120011Y4896177D02*
G01X13108581Y4890589D01*
G01X13097151Y4879159D01*
G01X13091309Y4861887D01*
G01X13091309Y4850457D01*
G01X13097151Y4833439D01*
G01X13108581Y4822009D01*
G01X13120011Y4816167D01*
G01X13137029Y4816167D01*
G01X13148459Y4822009D01*
G01X13159889Y4833439D01*
G01X13165731Y4850457D01*
G01X13165731Y4861887D01*
G01X13159889Y4879159D01*
G01X13148459Y4890589D01*
G01X13137029Y4896177D01*
G01X13120011Y4896177D01*
G01X13213483Y4896177D02*
G01X13213483Y4776289D01*
G01X13213483Y4879159D02*
G01X13224913Y4890589D01*
G01X13236343Y4896177D01*
G01X13253615Y4896177D01*
G01X13265045Y4890589D01*
G01X13276475Y4879159D01*
G01X13282063Y4861887D01*
G01X13282063Y4850457D01*
G01X13276475Y4833439D01*
G01X13265045Y4822009D01*
G01X13253615Y4816167D01*
G01X13236343Y4816167D01*
G01X13224913Y4822009D01*
G01X13213483Y4833439D01*
G01X13457831Y4936309D02*
G01X13457831Y4816167D01*
G01X13457831Y4816167D02*
G01X13526411Y4816167D01*
G01X13642743Y4896177D02*
G01X13642743Y4816167D01*
G01X13642743Y4879159D02*
G01X13631313Y4890589D01*
G01X13619883Y4896177D01*
G01X13602865Y4896177D01*
G01X13591435Y4890589D01*
G01X13580005Y4879159D01*
G01X13574163Y4861887D01*
G01X13574163Y4850457D01*
G01X13580005Y4833439D01*
G01X13591435Y4822009D01*
G01X13602865Y4816167D01*
G01X13619883Y4816167D01*
G01X13631313Y4822009D01*
G01X13642743Y4833439D01*
G01X13696337Y4896177D02*
G01X13730627Y4816167D01*
G01X13764917Y4896177D02*
G01X13730627Y4816167D01*
G01X13719197Y4793307D01*
G01X13707767Y4781877D01*
G01X13696337Y4776289D01*
G01X13690495Y4776289D01*
G01X13812669Y4861887D02*
G01X13881249Y4861887D01*
G01X13881249Y4873317D01*
G01X13875661Y4884747D01*
G01X13869819Y4890589D01*
G01X13858389Y4896177D01*
G01X13841371Y4896177D01*
G01X13829941Y4890589D01*
G01X13818511Y4879159D01*
G01X13812669Y4861887D01*
G01X13812669Y4850457D01*
G01X13818511Y4833439D01*
G01X13829941Y4822009D01*
G01X13841371Y4816167D01*
G01X13858389Y4816167D01*
G01X13869819Y4822009D01*
G01X13881249Y4833439D01*
G01X13929001Y4896177D02*
G01X13929001Y4816167D01*
G01X13929001Y4861887D02*
G01X13934843Y4879159D01*
G01X13946273Y4890589D01*
G01X13957703Y4896177D01*
G01X13974721Y4896177D01*
G01X14022473Y4867729D02*
G01X14125343Y4867729D01*
G01X14173095Y4936309D02*
G01X14173095Y4816167D01*
G01X14173095Y4936309D02*
G01X14224657Y4936309D01*
G01X14241675Y4930467D01*
G01X14247517Y4924879D01*
G01X14253105Y4913449D01*
G01X14253105Y4902019D01*
G01X14247517Y4890589D01*
G01X14241675Y4884747D01*
G01X14224657Y4879159D01*
G01X14173095Y4879159D02*
G01X14224657Y4879159D01*
G01X14241675Y4873317D01*
G01X14247517Y4867729D01*
G01X14253105Y4856299D01*
G01X14253105Y4839027D01*
G01X14247517Y4827597D01*
G01X14241675Y4822009D01*
G01X14224657Y4816167D01*
G01X14173095Y4816167D01*
G01X14329559Y4896177D02*
G01X14318129Y4890589D01*
G01X14306699Y4879159D01*
G01X14300857Y4861887D01*
G01X14300857Y4850457D01*
G01X14306699Y4833439D01*
G01X14318129Y4822009D01*
G01X14329559Y4816167D01*
G01X14346577Y4816167D01*
G01X14358007Y4822009D01*
G01X14369437Y4833439D01*
G01X14375279Y4850457D01*
G01X14375279Y4861887D01*
G01X14369437Y4879159D01*
G01X14358007Y4890589D01*
G01X14346577Y4896177D01*
G01X14329559Y4896177D01*
G01X14440303Y4936309D02*
G01X14440303Y4839027D01*
G01X14445891Y4822009D01*
G01X14457321Y4816167D01*
G01X14468751Y4816167D01*
G01X14423031Y4896177D02*
G01X14463163Y4896177D01*
G01X14533775Y4936309D02*
G01X14533775Y4839027D01*
G01X14539363Y4822009D01*
G01X14550793Y4816167D01*
G01X14562223Y4816167D01*
G01X14516503Y4896177D02*
G01X14556635Y4896177D01*
G01X14638677Y4896177D02*
G01X14627247Y4890589D01*
G01X14615817Y4879159D01*
G01X14609975Y4861887D01*
G01X14609975Y4850457D01*
G01X14615817Y4833439D01*
G01X14627247Y4822009D01*
G01X14638677Y4816167D01*
G01X14655695Y4816167D01*
G01X14667125Y4822009D01*
G01X14678555Y4833439D01*
G01X14684397Y4850457D01*
G01X14684397Y4861887D01*
G01X14678555Y4879159D01*
G01X14667125Y4890589D01*
G01X14655695Y4896177D01*
G01X14638677Y4896177D01*
G01X14732149Y4896177D02*
G01X14732149Y4816167D01*
G01X14732149Y4873317D02*
G01X14749421Y4890589D01*
G01X14760851Y4896177D01*
G01X14777869Y4896177D01*
G01X14789299Y4890589D01*
G01X14795141Y4873317D01*
G01X14795141Y4816167D01*
G01X14795141Y4873317D02*
G01X14812159Y4890589D01*
G01X14823589Y4896177D01*
G01X14840861Y4896177D01*
G01X14852291Y4890589D01*
G01X14857879Y4873317D01*
G01X14857879Y4816167D01*
G01X15033647Y4936309D02*
G01X15033647Y4816167D01*
G01X15033647Y4816167D02*
G01X15102227Y4816167D01*
G01X15218559Y4896177D02*
G01X15218559Y4816167D01*
G01X15218559Y4879159D02*
G01X15207129Y4890589D01*
G01X15195699Y4896177D01*
G01X15178681Y4896177D01*
G01X15167251Y4890589D01*
G01X15155821Y4879159D01*
G01X15149979Y4861887D01*
G01X15149979Y4850457D01*
G01X15155821Y4833439D01*
G01X15167251Y4822009D01*
G01X15178681Y4816167D01*
G01X15195699Y4816167D01*
G01X15207129Y4822009D01*
G01X15218559Y4833439D01*
G01X15272153Y4896177D02*
G01X15306443Y4816167D01*
G01X15340733Y4896177D02*
G01X15306443Y4816167D01*
G01X15295013Y4793307D01*
G01X15283583Y4781877D01*
G01X15272153Y4776289D01*
G01X15266311Y4776289D01*
G01X15388485Y4861887D02*
G01X15457065Y4861887D01*
G01X15457065Y4873317D01*
G01X15451477Y4884747D01*
G01X15445635Y4890589D01*
G01X15434205Y4896177D01*
G01X15417187Y4896177D01*
G01X15405757Y4890589D01*
G01X15394327Y4879159D01*
G01X15388485Y4861887D01*
G01X15388485Y4850457D01*
G01X15394327Y4833439D01*
G01X15405757Y4822009D01*
G01X15417187Y4816167D01*
G01X15434205Y4816167D01*
G01X15445635Y4822009D01*
G01X15457065Y4833439D01*
G01X15504817Y4896177D02*
G01X15504817Y4816167D01*
G01X15504817Y4861887D02*
G01X15510659Y4879159D01*
G01X15522089Y4890589D01*
G01X15533519Y4896177D01*
G01X15550537Y4896177D01*

G04 Image Start*
G36*
G01X123463Y4755696D02*
G01X17849Y4767177D01*
G01X-25026Y4669971D01*
G01X-67901Y4767177D01*
G01X-173514Y4755696D01*
G01X-110751Y4841421D01*
G01X-150473Y4895676D01*
G01X-118980Y4895676D01*
G01X-79280Y4841421D01*
G01X-118980Y4787167D01*
G01X-52153Y4794431D01*
G01X-52153Y4794431D01*
G01X-25026Y4732938D01*
G01X2101Y4794431D01*
G01X68929Y4787167D01*
G01X29229Y4841421D01*
G01X68903Y4895650D01*
G01X2076Y4888386D01*
G01X-25026Y4949905D01*
G01X-52153Y4888411D01*
G01X-118980Y4895676D01*
G01X-150473Y4895676D01*
G01X-173514Y4927146D01*
G01X-67876Y4915666D01*
G01X-25026Y5012871D01*
G01X17849Y4915666D01*
G01X123463Y4927146D01*
G01X60699Y4841421D01*
G01X123463Y4755696D01*
G37*
G36*
G01X-5531Y5870001D02*
G01X-13271Y5869413D01*
G01X-21114Y5869214D01*
G01X-28957Y5869413D01*
G01X-36698Y5870001D01*
G01X-44325Y5870970D01*
G01X-51830Y5872310D01*
G01X-66436Y5876065D01*
G01X-80438Y5881190D01*
G01X-93760Y5887607D01*
G01X-106326Y5895240D01*
G01X-118058Y5904013D01*
G01X-128880Y5913848D01*
G01X-138716Y5924671D01*
G01X-147489Y5936403D01*
G01X-155122Y5948968D01*
G01X-161539Y5962290D01*
G01X-166663Y5976292D01*
G01X-170418Y5990898D01*
G01X-171758Y5998404D01*
G01X-172728Y6006031D01*
G01X-173316Y6013771D01*
G01X-173514Y6021614D01*
G01X-148114Y6021614D01*
G01X-147457Y6008648D01*
G01X-145530Y5996052D01*
G01X-142395Y5983890D01*
G01X-138118Y5972228D01*
G01X-132763Y5961128D01*
G01X-126395Y5950657D01*
G01X-119077Y5940877D01*
G01X-110875Y5931854D01*
G01X-101851Y5923651D01*
G01X-92072Y5916334D01*
G01X-81600Y5909965D01*
G01X-70501Y5904610D01*
G01X-58838Y5900334D01*
G01X-46677Y5897199D01*
G01X-46677Y5897199D01*
G01X-34081Y5895271D01*
G01X-21114Y5894614D01*
G01X-8148Y5895271D01*
G01X4448Y5897199D01*
G01X16610Y5900334D01*
G01X28272Y5904610D01*
G01X39372Y5909965D01*
G01X49843Y5916334D01*
G01X59623Y5923651D01*
G01X68646Y5931854D01*
G01X76849Y5940877D01*
G01X84166Y5950657D01*
G01X90535Y5961128D01*
G01X95890Y5972228D01*
G01X100166Y5983890D01*
G01X103301Y5996052D01*
G01X105229Y6008648D01*
G01X105886Y6021614D01*
G01X105229Y6034581D01*
G01X103301Y6047177D01*
G01X100166Y6059338D01*
G01X95890Y6071001D01*
G01X90535Y6082100D01*
G01X84166Y6092572D01*
G01X76849Y6102351D01*
G01X68646Y6111375D01*
G01X59623Y6119577D01*
G01X49843Y6126895D01*
G01X39372Y6133263D01*
G01X28272Y6138618D01*
G01X16610Y6142895D01*
G01X4448Y6146029D01*
G01X-8148Y6147957D01*
G01X-21114Y6148614D01*
G01X-34081Y6147957D01*
G01X-46677Y6146029D01*
G01X-58838Y6142895D01*
G01X-70501Y6138618D01*
G01X-81600Y6133263D01*
G01X-92072Y6126895D01*
G01X-101851Y6119577D01*
G01X-110875Y6111375D01*
G01X-119077Y6102351D01*
G01X-126395Y6092572D01*
G01X-132763Y6082100D01*
G01X-138118Y6071001D01*
G01X-142395Y6059338D01*
G01X-145530Y6047177D01*
G01X-147457Y6034581D01*
G01X-148114Y6021614D01*
G01X-173514Y6021614D01*
G01X-173316Y6029457D01*
G01X-172728Y6037198D01*
G01X-171758Y6044825D01*
G01X-170418Y6052330D01*
G01X-166663Y6066936D01*
G01X-161539Y6080938D01*
G01X-155122Y6094260D01*
G01X-147489Y6106826D01*
G01X-138716Y6118558D01*
G01X-128880Y6129380D01*
G01X-118058Y6139216D01*
G01X-106326Y6147989D01*
G01X-93760Y6155622D01*
G01X-80438Y6162039D01*
G01X-66436Y6167163D01*
G01X-51830Y6170918D01*
G01X-44325Y6172258D01*
G01X-36698Y6173228D01*
G01X-28957Y6173816D01*
G01X-21114Y6174014D01*
G01X-13271Y6173816D01*
G01X-5531Y6173228D01*
G01X2096Y6172258D01*
G01X9602Y6170918D01*
G01X24208Y6167163D01*
G01X38210Y6162039D01*
G01X51532Y6155622D01*
G01X64097Y6147989D01*
G01X75829Y6139216D01*
G01X86652Y6129380D01*
G01X96487Y6118558D01*
G01X105260Y6106826D01*
G01X112893Y6094260D01*
G01X119310Y6080938D01*
G01X124435Y6066936D01*
G01X128190Y6052330D01*
G01X129530Y6044825D01*
G01X130499Y6037198D01*
G01X131087Y6029457D01*
G01X131286Y6021614D01*
G01X131087Y6013771D01*
G01X130499Y6006031D01*
G01X129530Y5998404D01*
G01X128190Y5990898D01*
G01X124435Y5976292D01*
G01X119310Y5962290D01*
G01X112893Y5948968D01*
G01X105260Y5936403D01*
G01X96487Y5924671D01*
G01X86652Y5913848D01*
G01X75829Y5904013D01*
G01X64097Y5895240D01*
G01X51532Y5887607D01*
G01X38210Y5881190D01*
G01X24208Y5876065D01*
G01X9602Y5872310D01*
G01X2096Y5870970D01*
G01X-5531Y5870001D01*
G37*
G36*
G01X-173514Y5593443D02*
G01X131286Y5593443D01*
G01X-21114Y5329486D01*
G01X-158849Y5568043D01*
G01X-129521Y5568043D01*
G01X-21114Y5380286D01*
G01X87293Y5568043D01*
G01X87293Y5568043D01*
G01X-129521Y5568043D01*
G01X-158849Y5568043D01*
G01X-173514Y5593443D01*
G37*
G36*
G01X-173514Y6754586D02*
G01X105886Y6754586D01*
G01X105886Y6475186D01*
G01X-173514Y6475186D01*
G01X-173514Y6729186D01*
G01X-148114Y6729186D01*
G01X-148114Y6500586D01*
G01X80486Y6500586D01*
G01X80486Y6729186D01*
G01X80486Y6729186D01*
G01X-148114Y6729186D01*
G01X-173514Y6729186D01*
G01X-173514Y6754586D01*
G37*

G04 PolygonModel Start*
G54D15*
G01X-463800Y4577443D02*
G01X16141269Y4577443D01*
G01X-463800Y5158014D02*
G01X16141269Y5158014D01*
G01X-463800Y5738586D02*
G01X16141269Y5738586D01*
G01X-463800Y6319157D02*
G01X16141269Y6319157D01*
G01X-463800Y6899729D02*
G01X16141269Y6899729D01*
G01X-463800Y7480300D02*
G01X16141269Y7480300D01*
G01X-463800Y7480300D02*
G01X-463800Y4602843D01*
G01X987629Y7480300D02*
G01X987629Y4602843D01*
G01X2401792Y7480300D02*
G01X2401792Y4602843D01*
G01X6181965Y7480300D02*
G01X6181965Y4602843D01*
G01X7643372Y7480300D02*
G01X7643372Y4602843D01*
G01X9074553Y7480300D02*
G01X9074553Y4602843D01*
G01X10743732Y7480300D02*
G01X10743732Y4602843D01*
G01X12663101Y7480300D02*
G01X12663101Y4602843D01*
G01X16141269Y7480300D02*
G01X16141269Y4602843D01*

M02*

