G04 Layer: BottomLayer*
G04 EasyEDA Pro v3.2.148, 2026-07-02 20:03:51*
G04 Gerber Generator version 0.3*
G04 Scale: 100 percent, Rotated: No, Reflected: No*
G04 Dimensions in millimeters*
G04 Leading zeros omitted, absolute positions, 4 integers and 5 decimals*
G04 Generated by one-click*
G04 Object Configs: Pad,Via,Track,Text,Image,Dimension,BoardOutline,BoardCutout,CopperFilled,SolidRegion,FPCStiffener,Line,PlaneZone,ComponentProperty,ComponentSilkscreen,TearDrop*
G04 Layer Configs: 1,2,3,4,5,6,7,8,9,10,11,13,14,56*
G04 Copper Areas: 0*
%FSLAX45Y45*%
%MOMM*%
%ADD10C,0.254*%
%ADD11C,1.524*%
%ADD12C,0.61*%
%ADD13C,0.6958*%
G75*


G04 Image Start*
G36*
G01X-2873560Y481235D02*
G01X-2940003Y474406D01*
G01X-2983716Y469900D01*
G01X-3030141Y480968D01*
G01X-3065538Y489777D01*
G01X-3085447Y495412D01*
G01X-3089851Y496722D01*
G01X-3095280Y497795D01*
G01X-3101043Y498521D01*
G01X-3106451Y498787D01*
G01X-3112062Y499164D01*
G01X-3118377Y500192D01*
G01X-3124621Y501712D01*
G01X-3130023Y503569D01*
G01X-3145242Y508693D01*
G01X-3165755Y514299D01*
G01X-3191637Y521586D01*
G01X-3219764Y530751D01*
G01X-3254734Y543269D01*
G01X-3260493Y545057D01*
G01X-3266973Y546525D01*
G01X-3279617Y549899D01*
G01X-3300195Y556269D01*
G01X-3327450Y564349D01*
G01X-3356147Y571834D01*
G01X-3381506Y577511D01*
G01X-3400734Y581240D01*
G01X-3406906Y582549D01*
G01X-3411587Y584246D01*
G01X-3414558Y586225D01*
G01X-3415332Y587288D01*
G01X-3415597Y588381D01*
G01X-3415225Y590244D01*
G01X-3414215Y591769D01*
G01X-3412719Y592800D01*
G01X-3410893Y593178D01*
G01X-3408610Y593683D01*
G01X-3405871Y595056D01*
G01X-3403020Y597089D01*
G01X-3400402Y599572D01*
G01X-3398918Y601539D01*
G01X-3397682Y603933D01*
G01X-3395894Y610358D01*
G01X-3394913Y619552D01*
G01X-3394614Y632224D01*
G01X-3395145Y644528D01*
G01X-3396594Y658537D01*
G01X-3398744Y672566D01*
G01X-3401380Y684927D01*
G01X-3404714Y696590D01*
G01X-3408791Y708799D01*
G01X-3413095Y720103D01*
G01X-3417110Y729057D01*
G01X-3421479Y736935D01*
G01X-3426747Y745312D01*
G01X-3432251Y753186D01*
G01X-3437328Y759556D01*
G01X-3442840Y765021D01*
G01X-3449529Y770428D01*
G01X-3456551Y775154D01*
G01X-3463061Y778574D01*
G01X-3470825Y782328D01*
G01X-3473490Y784163D01*
G01X-3475517Y786186D01*
G01X-3477038Y788561D01*
G01X-3478186Y791450D01*
G01X-3479883Y799423D01*
G01X-3481335Y806172D01*
G01X-3483558Y813725D01*
G01X-3486248Y821157D01*
G01X-3489104Y827546D01*
G01X-3492949Y833584D01*
G01X-3498334Y840060D01*
G01X-3504545Y846197D01*
G01X-3510868Y851219D01*
G01X-3525940Y860732D01*
G01X-3541276Y869290D01*
G01X-3549804Y872865D01*
G01X-3561547Y876775D01*
G01X-3574958Y880547D01*
G01X-3588486Y883707D01*
G01X-3602306Y886247D01*
G01X-3616514Y888332D01*
G01X-3629437Y889745D01*
G01X-3639405Y890271D01*
G01X-3647878Y890002D01*
G01X-3656730Y889251D01*
G01X-3664912Y888132D01*
G01X-3671374Y886761D01*
G01X-3676656Y884983D01*
G01X-3681622Y882754D01*
G01X-3685714Y880360D01*
G01X-3688375Y878086D01*
G01X-3689874Y875467D01*
G01X-3690800Y872133D01*
G01X-3691079Y868513D01*
G01X-3690637Y865036D01*
G01X-3689483Y862655D01*
G01X-3687043Y859910D01*
G01X-3683151Y856694D01*
G01X-3677640Y852899D01*
G01X-3661096Y843144D01*
G01X-3636082Y829784D01*
G01X-3606284Y813916D01*
G01X-3595804Y807778D01*
G01X-3587230Y802093D01*
G01X-3579782Y796300D01*
G01X-3572679Y789842D01*
G01X-3565142Y782160D01*
G01X-3556390Y772695D01*
G01X-3534286Y747403D01*
G01X-3525277Y736376D01*
G01X-3519255Y728368D01*
G01X-3516020Y723542D01*
G01X-3513599Y719407D01*
G01X-3511902Y715410D01*
G01X-3510841Y710999D01*
G01X-3510327Y705623D01*
G01X-3510271Y698730D01*
G01X-3511178Y678185D01*
G01X-3512246Y663170D01*
G01X-3513738Y648607D01*
G01X-3515455Y636161D01*
G01X-3517200Y627493D01*
G01X-3522424Y608352D01*
G01X-3522883Y607387D01*
G01X-3523675Y606672D01*
G01X-3526363Y605988D01*
G01X-3530698Y606290D01*
G01X-3536887Y607566D01*
G01X-3556584Y611876D01*
G01X-3585202Y617650D01*
G01X-3602781Y620691D01*
G01X-3624794Y623932D01*
G01X-3648431Y626986D01*
G01X-3670878Y629464D01*
G01X-3696920Y632687D01*
G01X-3727832Y637586D01*
G01X-3761303Y643766D01*
G01X-3795022Y650827D01*
G01X-3898184Y673673D01*
G01X-3913727Y677567D01*
G01X-3934072Y683376D01*
G01X-3956582Y690317D01*
G01X-3978615Y697603D01*
G01X-4030349Y714686D01*
G01X-4083526Y731258D01*
G01X-4109412Y739620D01*
G01X-4137246Y749693D01*
G01X-4164884Y760664D01*
G01X-4190185Y771721D01*
G01X-4238216Y794239D01*
G01X-4280037Y814315D01*
G01X-4292253Y820404D01*
G01X-4302416Y825900D01*
G01X-4311587Y831652D01*
G01X-4320827Y838506D01*
G01X-4331197Y847311D01*
G01X-4343759Y858912D01*
G01X-4379702Y893894D01*
G01X-4406638Y920074D01*
G01X-4433951Y946085D01*
G01X-4458448Y968917D01*
G01X-4476940Y985564D01*
G01X-4491185Y998284D01*
G01X-4504122Y1010421D01*
G01X-4514324Y1020603D01*
G01X-4520367Y1027454D01*
G01X-4524915Y1032964D01*
G01X-4530505Y1038916D01*
G01X-3483458Y1038916D01*
G01X-3482911Y1015865D01*
G01X-3481517Y996537D01*
G01X-3479094Y979170D01*
G01X-3475457Y962004D01*
G01X-3471281Y947084D01*
G01X-3466205Y932715D01*
G01X-3460405Y919343D01*
G01X-3454054Y907413D01*
G01X-3447737Y897568D01*
G01X-3440689Y887860D01*
G01X-3433769Y879407D01*
G01X-3427838Y873327D01*
G01X-3422491Y869072D01*
G01X-3417161Y865588D01*
G01X-3417161Y865588D01*
G01X-3412466Y863233D01*
G01X-3409023Y862369D01*
G01X-3406075Y862909D01*
G01X-3402730Y864381D01*
G01X-3399397Y866560D01*
G01X-3396490Y869221D01*
G01X-3393652Y873111D01*
G01X-3392134Y877320D01*
G01X-3391836Y882352D01*
G01X-3392659Y888714D01*
G01X-3393325Y893946D01*
G01X-3393385Y898847D01*
G01X-3392867Y902868D01*
G01X-3391800Y905459D01*
G01X-3391104Y907176D01*
G01X-3390364Y910501D01*
G01X-3388844Y921195D01*
G01X-3387419Y935972D01*
G01X-3386272Y953264D01*
G01X-3385011Y972503D01*
G01X-3383276Y992582D01*
G01X-3381295Y1011122D01*
G01X-3379297Y1025746D01*
G01X-3376625Y1039821D01*
G01X-3373605Y1050663D01*
G01X-3369952Y1059098D01*
G01X-3367800Y1062670D01*
G01X-3365382Y1065950D01*
G01X-3350941Y1084799D01*
G01X-3329194Y1114079D01*
G01X-3305549Y1145652D01*
G01X-3286547Y1170015D01*
G01X-3271297Y1188025D01*
G01X-3256673Y1204327D01*
G01X-3249650Y1211098D01*
G01X-3241010Y1218385D01*
G01X-3231848Y1225312D01*
G01X-3223261Y1231003D01*
G01X-3212148Y1237123D01*
G01X-3207084Y1239278D01*
G01X-3201877Y1240958D01*
G01X-3196174Y1242260D01*
G01X-3189621Y1243281D01*
G01X-3172554Y1244865D01*
G01X-3159070Y1245509D01*
G01X-3146619Y1245495D01*
G01X-3136286Y1244854D01*
G01X-3129156Y1243618D01*
G01X-3123880Y1241646D01*
G01X-3118330Y1238877D01*
G01X-3113166Y1235678D01*
G01X-3109048Y1232416D01*
G01X-3105760Y1228608D01*
G01X-3103171Y1224166D01*
G01X-3101474Y1219506D01*
G01X-3100865Y1215040D01*
G01X-3101816Y1209655D01*
G01X-3104406Y1202158D01*
G01X-3108237Y1193539D01*
G01X-3112917Y1184793D01*
G01X-3123463Y1165219D01*
G01X-3128255Y1155329D01*
G01X-3131895Y1147024D01*
G01X-3138989Y1130246D01*
G01X-3146317Y1114079D01*
G01X-3158138Y1088882D01*
G01X-3159878Y1083580D01*
G01X-3160747Y1077171D01*
G01X-3160748Y1069626D01*
G01X-3159882Y1060915D01*
G01X-3157342Y1044960D01*
G01X-3154861Y1032583D01*
G01X-3154066Y1027131D01*
G01X-3154317Y1024782D01*
G01X-3155081Y1022512D01*
G01X-3156415Y1020189D01*
G01X-3158381Y1017684D01*
G01X-3164442Y1011607D01*
G01X-3170541Y1004763D01*
G01X-3178263Y994370D01*
G01X-3186618Y981839D01*
G01X-3194615Y968581D01*
G01X-3201664Y955632D01*
G01X-3207437Y943939D01*
G01X-3211337Y934786D01*
G01X-3212399Y931564D01*
G01X-3212770Y929458D01*
G01X-3212494Y926474D01*
G01X-3211743Y923706D01*
G01X-3210631Y921463D01*
G01X-3209273Y920052D01*
G01X-3207915Y918439D01*
G01X-3206803Y915645D01*
G01X-3206052Y912061D01*
G01X-3205776Y908081D01*
G01X-3205229Y903578D01*
G01X-3203741Y898567D01*
G01X-3201538Y893659D01*
G01X-3198848Y889466D01*
G01X-3195242Y885862D01*
G01X-3190615Y882668D01*
G01X-3185515Y880201D01*
G01X-3180488Y878782D01*
G01X-3174192Y878447D01*
G01X-3167253Y879516D01*
G01X-3159280Y882082D01*
G01X-3149882Y886241D01*
G01X-3140387Y891798D01*
G01X-3128709Y900026D01*
G01X-3116329Y909813D01*
G01X-3104730Y920052D01*
G01X-3093584Y931183D01*
G01X-3082440Y943400D01*
G01X-3072592Y955221D01*
G01X-3065330Y965168D01*
G01X-3060118Y973702D01*
G01X-3055850Y981677D01*
G01X-3052966Y988200D01*
G01X-3051907Y992378D01*
G01X-3051209Y996306D01*
G01X-3049307Y1002145D01*
G01X-3046492Y1009109D01*
G01X-3043055Y1016408D01*
G01X-3038951Y1025732D01*
G01X-3034318Y1038211D01*
G01X-3029727Y1052214D01*
G01X-3025743Y1066109D01*
G01X-3022169Y1081305D01*
G01X-3018690Y1098850D01*
G01X-3015706Y1116570D01*
G01X-3013613Y1132295D01*
G01X-3011021Y1162406D01*
G01X-3009943Y1187128D01*
G01X-3010315Y1197118D01*
G01X-3011329Y1208877D01*
G01X-3012828Y1220941D01*
G01X-3014660Y1231840D01*
G01X-3016370Y1242608D01*
G01X-3016589Y1244790D01*
G01X-2981449Y1244790D01*
G01X-2981167Y1236350D01*
G01X-2980417Y1228074D01*
G01X-2978702Y1218820D01*
G01X-2975923Y1209781D01*
G01X-2972135Y1201109D01*
G01X-2967396Y1192955D01*
G01X-2964325Y1188733D01*
G01X-2960635Y1184418D01*
G01X-2951213Y1175355D01*
G01X-2938764Y1165448D01*
G01X-2922923Y1154381D01*
G01X-2907640Y1144660D01*
G01X-2891039Y1134839D01*
G01X-2875124Y1126062D01*
G01X-2861896Y1119475D01*
G01X-2850536Y1114665D01*
G01X-2839704Y1110726D01*
G01X-2830627Y1108065D01*
G01X-2830627Y1108065D01*
G01X-2824531Y1107087D01*
G01X-2819866Y1107547D01*
G01X-2815951Y1108914D01*
G01X-2812815Y1111175D01*
G01X-2810488Y1114314D01*
G01X-2808875Y1118213D01*
G01X-2808586Y1121806D01*
G01X-2809675Y1125587D01*
G01X-2812194Y1130045D01*
G01X-2814634Y1133348D01*
G01X-2817158Y1136052D01*
G01X-2819466Y1137880D01*
G01X-2821263Y1138551D01*
G01X-2823856Y1139690D01*
G01X-2828331Y1142790D01*
G01X-2834061Y1147378D01*
G01X-2840416Y1152980D01*
G01X-2846496Y1159085D01*
G01X-2851475Y1165040D01*
G01X-2854839Y1170164D01*
G01X-2855755Y1172201D01*
G01X-2856075Y1173774D01*
G01X-2856449Y1175492D01*
G01X-2857523Y1177943D01*
G01X-2861468Y1184588D01*
G01X-2867305Y1192794D01*
G01X-2874434Y1201648D01*
G01X-2914427Y1249657D01*
G01X-2923466Y1260301D01*
G01X-2932083Y1269692D01*
G01X-2939304Y1276813D01*
G01X-2944152Y1280646D01*
G01X-2947908Y1282399D01*
G01X-2952153Y1283852D01*
G01X-2956368Y1284856D01*
G01X-2960030Y1285258D01*
G01X-2963498Y1284684D01*
G01X-2967090Y1283015D01*
G01X-2970418Y1280486D01*
G01X-2973093Y1277333D01*
G01X-2975316Y1273334D01*
G01X-2977469Y1268396D01*
G01X-2979307Y1263146D01*
G01X-2980584Y1258211D01*
G01X-2981256Y1252407D01*
G01X-2981449Y1244790D01*
G01X-3016589Y1244790D01*
G01X-3017542Y1254315D01*
G01X-3018069Y1265548D01*
G01X-3017848Y1274894D01*
G01X-3016844Y1293609D01*
G01X-3016576Y1311602D01*
G01X-3016979Y1319768D01*
G01X-3017887Y1329082D01*
G01X-3019164Y1338395D01*
G01X-3020677Y1346562D01*
G01X-3025816Y1366638D01*
G01X-3032770Y1390360D01*
G01X-3042227Y1417431D01*
G01X-3053383Y1445560D01*
G01X-3059334Y1458763D01*
G01X-3066396Y1473363D01*
G01X-3073686Y1487583D01*
G01X-3080319Y1499649D01*
G01X-3088354Y1512049D01*
G01X-3098677Y1525629D01*
G01X-3110595Y1539534D01*
G01X-3123415Y1552909D01*
G01X-3136700Y1565277D01*
G01X-3149826Y1576194D01*
G01X-3162051Y1585083D01*
G01X-3172636Y1591364D01*
G01X-3188639Y1599996D01*
G01X-3194588Y1603620D01*
G01X-3198055Y1606138D01*
G01X-3200267Y1607835D01*
G01X-3202800Y1609224D01*
G01X-3205340Y1610163D01*
G01X-3207576Y1610508D01*
G01X-3209868Y1609895D01*
G01X-3212563Y1608226D01*
G01X-3215325Y1605755D01*
G01X-3217817Y1602738D01*
G01X-3219931Y1598799D01*
G01X-3221662Y1593817D01*
G01X-3222831Y1588432D01*
G01X-3223261Y1583281D01*
G01X-3222982Y1578221D01*
G01X-3222221Y1573084D01*
G01X-3221096Y1568470D01*
G01X-3219721Y1564981D01*
G01X-3217454Y1562244D01*
G01X-3213895Y1559681D01*
G01X-3209535Y1557578D01*
G01X-3204859Y1556223D01*
G01X-3199619Y1554634D01*
G01X-3193723Y1551892D01*
G01X-3187891Y1548382D01*
G01X-3182848Y1544491D01*
G01X-3172546Y1534112D01*
G01X-3162787Y1522620D01*
G01X-3159748Y1518524D01*
G01X-3157476Y1514896D01*
G01X-3155887Y1511164D01*
G01X-3154897Y1506757D01*
G01X-3154424Y1501101D01*
G01X-3154384Y1493627D01*
G01X-3155274Y1470931D01*
G01X-3155805Y1453244D01*
G01X-3155607Y1438527D01*
G01X-3154695Y1427092D01*
G01X-3153081Y1419251D01*
G01X-3151677Y1416113D01*
G01X-3149226Y1411886D01*
G01X-3141724Y1400906D01*
G01X-3131659Y1387795D01*
G01X-3120110Y1374037D01*
G01X-3103411Y1354654D01*
G01X-3098126Y1347807D01*
G01X-3094383Y1341951D01*
G01X-3091804Y1336406D01*
G01X-3090013Y1330493D01*
G01X-3088632Y1323532D01*
G01X-3087286Y1314845D01*
G01X-3084528Y1294275D01*
G01X-3083380Y1281684D01*
G01X-3083761Y1278008D01*
G01X-3084506Y1277163D01*
G01X-3085862Y1277007D01*
G01X-3088008Y1277562D01*
G01X-3091124Y1278848D01*
G01X-3100985Y1283695D01*
G01X-3108328Y1287665D01*
G01X-3115310Y1291884D01*
G01X-3121140Y1295847D01*
G01X-3125029Y1299051D01*
G01X-3129303Y1301901D01*
G01X-3136097Y1304770D01*
G01X-3144612Y1307371D01*
G01X-3154047Y1309419D01*
G01X-3165489Y1310946D01*
G01X-3179953Y1312195D01*
G01X-3195585Y1313040D01*
G01X-3210533Y1313350D01*
G01X-3229784Y1313037D01*
G01X-3236950Y1312476D01*
G01X-3243212Y1311496D01*
G01X-3249120Y1309982D01*
G01X-3255226Y1307822D01*
G01X-3270234Y1301114D01*
G01X-3280721Y1296363D01*
G01X-3290209Y1292472D01*
G01X-3297654Y1289844D01*
G01X-3302014Y1288878D01*
G01X-3305654Y1287913D01*
G01X-3311139Y1285284D01*
G01X-3317726Y1281395D01*
G01X-3324671Y1276645D01*
G01X-3332141Y1270790D01*
G01X-3340159Y1263893D01*
G01X-3347763Y1256815D01*
G01X-3353990Y1250415D01*
G01X-3360373Y1242741D01*
G01X-3362583Y1239407D01*
G01X-3364232Y1236189D01*
G01X-3365391Y1232925D01*
G01X-3366131Y1229451D01*
G01X-3366638Y1221218D01*
G01X-3366926Y1214492D01*
G01X-3367709Y1207414D01*
G01X-3368867Y1200826D01*
G01X-3370282Y1195569D01*
G01X-3372601Y1190244D01*
G01X-3373930Y1188391D01*
G01X-3375494Y1186994D01*
G01X-3377386Y1185986D01*
G01X-3379696Y1185306D01*
G01X-3385943Y1184669D01*
G01X-3391747Y1183914D01*
G01X-3398664Y1182191D01*
G01X-3405829Y1179757D01*
G01X-3412372Y1176868D01*
G01X-3419180Y1172897D01*
G01X-3427063Y1167518D01*
G01X-3435045Y1161436D01*
G01X-3442149Y1155359D01*
G01X-3448700Y1148914D01*
G01X-3455179Y1141835D01*
G01X-3460838Y1134978D01*
G01X-3464930Y1129203D01*
G01X-3467659Y1124395D01*
G01X-3469607Y1120170D01*
G01X-3470592Y1116985D01*
G01X-3470436Y1115297D01*
G01X-3470296Y1113410D01*
G01X-3471328Y1109685D01*
G01X-3473344Y1104660D01*
G01X-3476157Y1098875D01*
G01X-3478427Y1094256D01*
G01X-3480196Y1089745D01*
G01X-3481520Y1084878D01*
G01X-3482457Y1079190D01*
G01X-3483062Y1072215D01*
G01X-3483393Y1063488D01*
G01X-3483458Y1038916D01*
G01X-4530505Y1038916D01*
G01X-4531047Y1039493D01*
G01X-4537958Y1046224D01*
G01X-4544846Y1052342D01*
G01X-4567652Y1072997D01*
G01X-4111502Y1072997D01*
G01X-4111006Y1066413D01*
G01X-4109550Y1060201D01*
G01X-4107182Y1054510D01*
G01X-4103950Y1049488D01*
G01X-4099359Y1044353D01*
G01X-4097152Y1042735D01*
G01X-4094714Y1041659D01*
G01X-4094714Y1041659D01*
G01X-4091825Y1041055D01*
G01X-4088268Y1040856D01*
G01X-4078276Y1041393D01*
G01X-4069280Y1042824D01*
G01X-4058761Y1045606D01*
G01X-4047703Y1049437D01*
G01X-4037090Y1054015D01*
G01X-4019642Y1061869D01*
G01X-4013432Y1064258D01*
G01X-4010080Y1065135D01*
G01X-4006565Y1066103D01*
G01X-3999912Y1068738D01*
G01X-3981009Y1077398D01*
G01X-3959983Y1088361D01*
G01X-3951033Y1093488D01*
G01X-3944713Y1097500D01*
G01X-3939694Y1101940D01*
G01X-3934536Y1108098D01*
G01X-3929750Y1115286D01*
G01X-3925848Y1122819D01*
G01X-3922254Y1132631D01*
G01X-3919553Y1143918D01*
G01X-3917639Y1157246D01*
G01X-3916407Y1173176D01*
G01X-3915773Y1190262D01*
G01X-3916177Y1202026D01*
G01X-3916833Y1206545D01*
G01X-3917825Y1210491D01*
G01X-3919179Y1214117D01*
G01X-3920921Y1217676D01*
G01X-3923808Y1222334D01*
G01X-3927039Y1226423D01*
G01X-3930219Y1229503D01*
G01X-3932955Y1231131D01*
G01X-3934343Y1231945D01*
G01X-3936080Y1233565D01*
G01X-3940322Y1238840D01*
G01X-3945124Y1246178D01*
G01X-3949930Y1254802D01*
G01X-3957842Y1271282D01*
G01X-3960248Y1277116D01*
G01X-3961132Y1280234D01*
G01X-3961561Y1282242D01*
G01X-3962730Y1285054D01*
G01X-3966574Y1291596D01*
G01X-3969181Y1294613D01*
G01X-3972256Y1297084D01*
G01X-3975414Y1298753D01*
G01X-3978272Y1299366D01*
G01X-3981153Y1298866D01*
G01X-3984373Y1297505D01*
G01X-3987541Y1295490D01*
G01X-3990262Y1293029D01*
G01X-3991809Y1290970D01*
G01X-3993055Y1288443D01*
G01X-3994024Y1285274D01*
G01X-3994738Y1281289D01*
G01X-3995498Y1270172D01*
G01X-3995521Y1253700D01*
G01X-3995618Y1237736D01*
G01X-3996485Y1225133D01*
G01X-3998206Y1215153D01*
G01X-4000865Y1207056D01*
G01X-4004678Y1199988D01*
G01X-4010758Y1190833D01*
G01X-4018267Y1180774D01*
G01X-4026368Y1170995D01*
G01X-4035972Y1160968D01*
G01X-4047571Y1150235D01*
G01X-4059703Y1140082D01*
G01X-4070908Y1131795D01*
G01X-4082128Y1123652D01*
G01X-4091419Y1115708D01*
G01X-4098635Y1108098D01*
G01X-4101420Y1104460D01*
G01X-4103634Y1100957D01*
G01X-4106756Y1094324D01*
G01X-4109250Y1086947D01*
G01X-4110903Y1079585D01*
G01X-4111502Y1072997D01*
G01X-4567652Y1072997D01*
G01X-4573111Y1077941D01*
G01X-4618569Y1120634D01*
G01X-4673188Y1171834D01*
G01X-4723479Y1217887D01*
G01X-4763617Y1254848D01*
G01X-4781117Y1271559D01*
G01X-4793826Y1284190D01*
G01X-4806259Y1297614D01*
G01X-4823008Y1316485D01*
G01X-4839202Y1335425D01*
G01X-4400958Y1335425D01*
G01X-4400670Y1329734D01*
G01X-4399641Y1324230D01*
G01X-4397697Y1318240D01*
G01X-4394665Y1311091D01*
G01X-4384637Y1290626D01*
G01X-4375754Y1274125D01*
G01X-4366393Y1259006D01*
G01X-4356701Y1245489D01*
G01X-4346825Y1233795D01*
G01X-4336496Y1223381D01*
G01X-4326637Y1215048D01*
G01X-4316817Y1208468D01*
G01X-4306603Y1203312D01*
G01X-4295738Y1198854D01*
G01X-4291958Y1197604D01*
G01X-4289003Y1196972D01*
G01X-4289003Y1196972D01*
G01X-4286663Y1196931D01*
G01X-4284730Y1197454D01*
G01X-4282995Y1198515D01*
G01X-4281250Y1200087D01*
G01X-4277444Y1204237D01*
G01X-4275861Y1206650D01*
G01X-4278501Y1212966D01*
G01X-4284848Y1226502D01*
G01X-4301171Y1259162D01*
G01X-4317538Y1290626D01*
G01X-4322226Y1300764D01*
G01X-4323782Y1305426D01*
G01X-4324892Y1310256D01*
G01X-4325616Y1315581D01*
G01X-4326012Y1321731D01*
G01X-4326059Y1337822D01*
G01X-4325481Y1350581D01*
G01X-4324285Y1363353D01*
G01X-4322645Y1374657D01*
G01X-4320735Y1383009D01*
G01X-4317628Y1391857D01*
G01X-4315987Y1394757D01*
G01X-4313937Y1396919D01*
G01X-4311216Y1398553D01*
G01X-4307560Y1399868D01*
G01X-4296397Y1402377D01*
G01X-4288109Y1404353D01*
G01X-4279977Y1406853D01*
G01X-4272935Y1409555D01*
G01X-4267918Y1412141D01*
G01X-4263736Y1415942D01*
G01X-4259423Y1421764D01*
G01X-4255296Y1429107D01*
G01X-4251675Y1437477D01*
G01X-4246529Y1452216D01*
G01X-4244388Y1460312D01*
G01X-4244114Y1460988D01*
G01X-4243329Y1461619D01*
G01X-4240443Y1462689D01*
G01X-4236173Y1463411D01*
G01X-4230959Y1463677D01*
G01X-4223845Y1464476D01*
G01X-4215065Y1466736D01*
G01X-4205270Y1470254D01*
G01X-4195114Y1474829D01*
G01X-4189279Y1477954D01*
G01X-4183324Y1481589D01*
G01X-4170898Y1490518D01*
G01X-4157508Y1501871D01*
G01X-4142830Y1515906D01*
G01X-4130729Y1528599D01*
G01X-4119863Y1541036D01*
G01X-4111420Y1551788D01*
G01X-4108479Y1556087D01*
G01X-4106590Y1559429D01*
G01X-4103890Y1566280D01*
G01X-4102247Y1573086D01*
G01X-4101647Y1579923D01*
G01X-4102078Y1586867D01*
G01X-4103421Y1592903D01*
G01X-4105707Y1599108D01*
G01X-4108615Y1604751D01*
G01X-4111825Y1609104D01*
G01X-4115581Y1612364D01*
G01X-4119977Y1615034D01*
G01X-4124464Y1616838D01*
G01X-4128497Y1617500D01*
G01X-4132476Y1616998D01*
G01X-4136820Y1615631D01*
G01X-4141002Y1613608D01*
G01X-4144498Y1611138D01*
G01X-4149869Y1607513D01*
G01X-4159157Y1602345D01*
G01X-4171056Y1596325D01*
G01X-4184262Y1590140D01*
G01X-4203541Y1581875D01*
G01X-4211347Y1579159D01*
G01X-4219035Y1577148D01*
G01X-4227435Y1575661D01*
G01X-4237373Y1574518D01*
G01X-4265183Y1572543D01*
G01X-4290399Y1570743D01*
G01X-4306643Y1568750D01*
G01X-4312330Y1567517D01*
G01X-4316887Y1566037D01*
G01X-4320687Y1564246D01*
G01X-4324100Y1562076D01*
G01X-4332562Y1556777D01*
G01X-4335928Y1555165D01*
G01X-4338103Y1554572D01*
G01X-4340271Y1553803D01*
G01X-4343614Y1551710D01*
G01X-4352001Y1544827D01*
G01X-4356950Y1539265D01*
G01X-4362713Y1531326D01*
G01X-4368572Y1522068D01*
G01X-4373813Y1512550D01*
G01X-4380266Y1499047D01*
G01X-4382212Y1493633D01*
G01X-4383445Y1488250D01*
G01X-4384071Y1482249D01*
G01X-4384194Y1474987D01*
G01X-4383356Y1454088D01*
G01X-4382675Y1436352D01*
G01X-4382880Y1424905D01*
G01X-4383348Y1421115D01*
G01X-4384077Y1418388D01*
G01X-4385081Y1416554D01*
G01X-4386373Y1415443D01*
G01X-4387415Y1414508D01*
G01X-4388517Y1412882D01*
G01X-4390769Y1407916D01*
G01X-4392860Y1401259D01*
G01X-4394524Y1393629D01*
G01X-4397497Y1372951D01*
G01X-4400008Y1350058D01*
G01X-4400958Y1335425D01*
G01X-4839202Y1335425D01*
G01X-4860680Y1360546D01*
G01X-4899310Y1405967D01*
G01X-4930795Y1441534D01*
G01X-4941610Y1453897D01*
G01X-4951543Y1466455D01*
G01X-4959493Y1477738D01*
G01X-4964359Y1486280D01*
G01X-4971526Y1502478D01*
G01X-4962595Y1522407D01*
G01X-4950275Y1550958D01*
G01X-4948426Y1555096D01*
G01X-4946865Y1556955D01*
G01X-4946097Y1557078D01*
G01X-4945287Y1556689D01*
G01X-4943386Y1554454D01*
G01X-4942577Y1553496D01*
G01X-4941960Y1553283D01*
G01X-4941535Y1553826D01*
G01X-4941300Y1555135D01*
G01X-4941398Y1560102D01*
G01X-4942248Y1568274D01*
G01X-4943815Y1577541D01*
G01X-4946337Y1588771D01*
G01X-4949466Y1600545D01*
G01X-4952853Y1611447D01*
G01X-4957015Y1624448D01*
G01X-4958872Y1633081D01*
G01X-4959003Y1636361D01*
G01X-4958636Y1639271D01*
G01X-4957798Y1642051D01*
G01X-4956516Y1644942D01*
G01X-4954253Y1650380D01*
G01X-4951478Y1658338D01*
G01X-4945800Y1677534D01*
G01X-4939664Y1700860D01*
G01X-4953963Y1721911D01*
G01X-4960878Y1731425D01*
G01X-4969135Y1741770D01*
G01X-4977699Y1751696D01*
G01X-4985533Y1759956D01*
G01X-5002803Y1776951D01*
G01X-4999231Y1792491D01*
G01X-4997829Y1800732D01*
G01X-4996654Y1811682D01*
G01X-4995829Y1823913D01*
G01X-4995477Y1835999D01*
G01X-4995697Y1847574D01*
G01X-4996431Y1858418D01*
G01X-4997562Y1867313D01*
G01X-4998977Y1873044D01*
G01X-5001327Y1877002D01*
G01X-5005001Y1881066D01*
G01X-5009499Y1884760D01*
G01X-5014315Y1887605D01*
G01X-5022014Y1890200D01*
G01X-5034360Y1893215D01*
G01X-5049651Y1896275D01*
G01X-5066186Y1899006D01*
G01X-5086906Y1901497D01*
G01X-5110180Y1903296D01*
G01X-5135174Y1904355D01*
G01X-5161053Y1904623D01*
G01X-5182958Y1904245D01*
G01X-5202200Y1903441D01*
G01X-5216700Y1902328D01*
G01X-5224381Y1901024D01*
G01X-5229909Y1897860D01*
G01X-5238545Y1891682D01*
G01X-5249108Y1883383D01*
G01X-5260415Y1873854D01*
G01X-5286127Y1851022D01*
G01X-5309528Y1829651D01*
G01X-5331284Y1809319D01*
G01X-5348452Y1818016D01*
G01X-5355489Y1821841D01*
G01X-5361960Y1825824D01*
G01X-5367145Y1829496D01*
G01X-5370328Y1832384D01*
G01X-5376471Y1837596D01*
G01X-5389717Y1847596D01*
G01X-5429725Y1876205D01*
G01X-5451797Y1892065D01*
G01X-5471468Y1907044D01*
G01X-5486595Y1919457D01*
G01X-5491784Y1924174D01*
G01X-5495034Y1927617D01*
G01X-5507629Y1944171D01*
G01X-5522998Y1965350D01*
G01X-5531548Y1978024D01*
G01X-5542004Y1994443D01*
G01X-5553044Y2012484D01*
G01X-5563344Y2030026D01*
G01X-5575079Y2051252D01*
G01X-5590030Y2079325D01*
G01X-5621890Y2141398D01*
G01X-5637949Y2174370D01*
G01X-5649922Y2200839D01*
G01X-5657974Y2221185D01*
G01X-5660580Y2229181D01*
G01X-5662267Y2235789D01*
G01X-5667830Y2265541D01*
G01X-5674420Y2304460D01*
G01X-5683519Y2360305D01*
G01X-5683865Y2364609D01*
G01X-5683402Y2365163D01*
G01X-5682440Y2364581D01*
G01X-5678794Y2359793D01*
G01X-5672477Y2349817D01*
G01X-5640061Y2295016D01*
G01X-5630198Y2279007D01*
G01X-5617831Y2260488D01*
G01X-5604541Y2241753D01*
G01X-5591906Y2225097D01*
G01X-5579761Y2210124D01*
G01X-5567800Y2195973D01*
G01X-5557402Y2184238D01*
G01X-5549942Y2176512D01*
G01X-5541701Y2169552D01*
G01X-5529173Y2159901D01*
G01X-5514061Y2148836D01*
G01X-5498067Y2137632D01*
G01X-5465040Y2115947D01*
G01X-5450432Y2106930D01*
G01X-5439651Y2100742D01*
G01X-5428029Y2095187D01*
G01X-5422515Y2093194D01*
G01X-5416708Y2091611D01*
G01X-5410236Y2090352D01*
G01X-5402730Y2089331D01*
G01X-5383139Y2087660D01*
G01X-5368223Y2086933D01*
G01X-5354638Y2086793D01*
G01X-5343883Y2087224D01*
G01X-5337458Y2088207D01*
G01X-5332661Y2090158D01*
G01X-5331852Y2091170D01*
G01X-5332262Y2092423D01*
G01X-5334013Y2094078D01*
G01X-5337224Y2096297D01*
G01X-5348508Y2103072D01*
G01X-5357582Y2108685D01*
G01X-5367376Y2115224D01*
G01X-5376713Y2121877D01*
G01X-5384414Y2127832D01*
G01X-5399732Y2139610D01*
G01X-5414460Y2149766D01*
G01X-5421980Y2154954D01*
G01X-5431875Y2162427D01*
G01X-5453650Y2180227D01*
G01X-5465067Y2190683D01*
G01X-5477763Y2203289D01*
G01X-5490191Y2216458D01*
G01X-5500802Y2228602D01*
G01X-5519857Y2252511D01*
G01X-5534397Y2272199D01*
G01X-5540120Y2281775D01*
G01X-5547335Y2295512D01*
G01X-5555117Y2311578D01*
G01X-5562542Y2328135D01*
G01X-5578573Y2367784D01*
G01X-5593493Y2407989D01*
G01X-5599401Y2426068D01*
G01X-5605043Y2445277D01*
G01X-5609779Y2463322D01*
G01X-5612971Y2477909D01*
G01X-5617906Y2508648D01*
G01X-5622258Y2541381D01*
G01X-5623929Y2558968D01*
G01X-5624446Y2573806D01*
G01X-5623800Y2587493D01*
G01X-5621984Y2601629D01*
G01X-5620427Y2614797D01*
G01X-5619484Y2630473D01*
G01X-5619209Y2647223D01*
G01X-5619655Y2663613D01*
G01X-5620116Y2682711D01*
G01X-5619501Y2702942D01*
G01X-5617768Y2725059D01*
G01X-5614877Y2749814D01*
G01X-5611390Y2774129D01*
G01X-5608333Y2790369D01*
G01X-5606856Y2795934D01*
G01X-5605354Y2800047D01*
G01X-5603784Y2802900D01*
G01X-5602101Y2804680D01*
G01X-5595212Y2809075D01*
G01X-5587241Y2813242D01*
G01X-5566552Y2823052D01*
G01X-5561729Y2825719D01*
G01X-5557426Y2828692D01*
G01X-5554112Y2831606D01*
G01X-5552257Y2834101D01*
G01X-5542577Y2853329D01*
G01X-5524551Y2887263D01*
G01X-5519707Y2897070D01*
G01X-5514422Y2909024D01*
G01X-5509336Y2921613D01*
G01X-5505087Y2933327D01*
G01X-5501683Y2944777D01*
G01X-5498894Y2956651D01*
G01X-5497011Y2967544D01*
G01X-5496319Y2976056D01*
G01X-5495909Y2985184D01*
G01X-5495257Y2988699D01*
G01X-5494183Y2991792D01*
G01X-5492593Y2994674D01*
G01X-5490395Y2997552D01*
G01X-5483800Y3004135D01*
G01X-5477512Y3009120D01*
G01X-5469647Y3014218D01*
G01X-5461209Y3018832D01*
G01X-5453201Y3022364D01*
G01X-5430922Y3031805D01*
G01X-5402748Y3045002D01*
G01X-5388154Y3052426D01*
G01X-5372346Y3060909D01*
G01X-5357231Y3069403D01*
G01X-5344712Y3076864D01*
G01X-5332981Y3083791D01*
G01X-5320009Y3090829D01*
G01X-5307375Y3097156D01*
G01X-5296654Y3101948D01*
G01X-5276885Y3110384D01*
G01X-5260806Y3117898D01*
G01X-5250819Y3122255D01*
G01X-5247404Y3123203D01*
G01X-5245701Y3123103D01*
G01X-5245390Y3120779D01*
G01X-5245766Y3115674D01*
G01X-5248243Y3100135D01*
G01X-5250078Y3091858D01*
G01X-5251975Y3085081D01*
G01X-5253708Y3080501D01*
G01X-5254444Y3079254D01*
G01X-5255056Y3078819D01*
G01X-5256375Y3078061D01*
G01X-5258032Y3075995D01*
G01X-5259815Y3072938D01*
G01X-5261512Y3069205D01*
G01X-5263303Y3062438D01*
G01X-5265344Y3051119D01*
G01X-5267383Y3036826D01*
G01X-5269168Y3021136D01*
G01X-5270626Y2997790D01*
G01X-5271775Y2962654D01*
G01X-5272500Y2920488D01*
G01X-5272684Y2876052D01*
G01X-5273027Y2757299D01*
G01X-5274277Y2621516D01*
G01X-5275171Y2538456D01*
G01X-5275196Y2510996D01*
G01X-5274872Y2490554D01*
G01X-5274145Y2475358D01*
G01X-5272964Y2463637D01*
G01X-5271275Y2453618D01*
G01X-5269027Y2443531D01*
G01X-5265121Y2429346D01*
G01X-5259768Y2412956D01*
G01X-5253673Y2396391D01*
G01X-5247541Y2381681D01*
G01X-5235975Y2354426D01*
G01X-5231337Y2342387D01*
G01X-5228304Y2333515D01*
G01X-5225539Y2325410D01*
G01X-5221630Y2315457D01*
G01X-5217096Y2304920D01*
G01X-5212459Y2295060D01*
G01X-5209342Y2289234D01*
G01X-5205712Y2283309D01*
G01X-5196710Y2270911D01*
G01X-5185049Y2257358D01*
G01X-5170326Y2242144D01*
G01X-5155077Y2227695D01*
G01X-5141555Y2216290D01*
G01X-5129347Y2207604D01*
G01X-5123606Y2204180D01*
G01X-5118038Y2201314D01*
G01X-5105399Y2195834D01*
G01X-5099809Y2194090D01*
G01X-5093925Y2192891D01*
G01X-5087160Y2192147D01*
G01X-5078929Y2191767D01*
G01X-5055724Y2191742D01*
G01X-5014513Y2192146D01*
G01X-4997368Y2177796D01*
G01X-4987137Y2169966D01*
G01X-4971953Y2159254D01*
G01X-4953865Y2147071D01*
G01X-4934923Y2134826D01*
G01X-4899328Y2112819D01*
G01X-4877365Y2100100D01*
G01X-4870674Y2097254D01*
G01X-4861518Y2094019D01*
G01X-4851101Y2090792D01*
G01X-4840629Y2087971D01*
G01X-4827198Y2085156D01*
G01X-4814338Y2083690D01*
G01X-4800199Y2083456D01*
G01X-4782928Y2084338D01*
G01X-4768511Y2085812D01*
G01X-4753816Y2088058D01*
G01X-4740562Y2090770D01*
G01X-4730473Y2093643D01*
G01X-4705120Y2102407D01*
G01X-4702511Y2102850D01*
G01X-4700591Y2102422D01*
G01X-4699405Y2101148D01*
G01X-4699000Y2099052D01*
G01X-4697724Y2094497D01*
G01X-4694249Y2085944D01*
G01X-4689106Y2074617D01*
G01X-4682826Y2061740D01*
G01X-4675182Y2047781D01*
G01X-4666325Y2033509D01*
G01X-4657354Y2020599D01*
G01X-4649365Y2010723D01*
G01X-4641284Y2002376D01*
G01X-4632058Y1993627D01*
G01X-4622824Y1985514D01*
G01X-4614721Y1979076D01*
G01X-4607608Y1973238D01*
G01X-4601074Y1966759D01*
G01X-4595842Y1960428D01*
G01X-4592638Y1955033D01*
G01X-4590862Y1951833D01*
G01X-4587936Y1948008D01*
G01X-4583832Y1943532D01*
G01X-4578523Y1938379D01*
G01X-4564174Y1925938D01*
G01X-4544666Y1910477D01*
G01X-4526770Y1897011D01*
G01X-4510014Y1884926D01*
G01X-4496274Y1875545D01*
G01X-4487431Y1870189D01*
G01X-4468306Y1861848D01*
G01X-4441970Y1851673D01*
G01X-4417335Y1841999D01*
G01X-4407969Y1837837D01*
G01X-4402305Y1834860D01*
G01X-4388653Y1827600D01*
G01X-4367335Y1817634D01*
G01X-4337123Y1804813D01*
G01X-4302089Y1790686D01*
G01X-4261567Y1775826D01*
G01X-4218161Y1761240D01*
G01X-4196907Y1754963D01*
G01X-4172645Y1748510D01*
G01X-4148364Y1742639D01*
G01X-4127054Y1738111D01*
G01X-4108085Y1734717D01*
G01X-4090182Y1731939D01*
G01X-4075360Y1730061D01*
G01X-4065633Y1729371D01*
G01X-4056491Y1729772D01*
G01X-4043259Y1730863D01*
G01X-4011615Y1734450D01*
G01X-3971408Y1740191D01*
G01X-3928447Y1746863D01*
G01X-3904904Y1751157D01*
G01X-3885406Y1755909D01*
G01X-3876330Y1758696D01*
G01X-3867255Y1761886D01*
G01X-3847758Y1769858D01*
G01X-3832925Y1776772D01*
G01X-3818979Y1784021D01*
G01X-3807485Y1790745D01*
G01X-3800010Y1796084D01*
G01X-3788028Y1806650D01*
G01X-3800268Y1804851D01*
G01X-3852723Y1797586D01*
G01X-3892425Y1791494D01*
G01X-3931406Y1784522D01*
G01X-3952947Y1780796D01*
G01X-3974122Y1778480D01*
G01X-3998419Y1777307D01*
G01X-4029322Y1777009D01*
G01X-4063916Y1777297D01*
G01X-4076156Y1777819D01*
G01X-4086507Y1778778D01*
G01X-4096082Y1780314D01*
G01X-4105993Y1782567D01*
G01X-4131273Y1789777D01*
G01X-4150699Y1796094D01*
G01X-4172173Y1803917D01*
G01X-4193085Y1812252D01*
G01X-4210824Y1820104D01*
G01X-4237482Y1832564D01*
G01X-4249551Y1837747D01*
G01X-4268430Y1845591D01*
G01X-4311465Y1864449D01*
G01X-4337140Y1876168D01*
G01X-4362521Y1888335D01*
G01X-4384678Y1899514D01*
G01X-4400686Y1908267D01*
G01X-4413783Y1916306D01*
G01X-4428016Y1925544D01*
G01X-4441668Y1934839D01*
G01X-4453021Y1943050D01*
G01X-4476786Y1961857D01*
G01X-4501134Y1982262D01*
G01X-4524588Y2003639D01*
G01X-4546204Y2024782D01*
G01X-4555279Y2034581D01*
G01X-4564978Y2045757D01*
G01X-4574141Y2056934D01*
G01X-4581604Y2066733D01*
G01X-4596345Y2088806D01*
G01X-4610592Y2112418D01*
G01X-4617989Y2127373D01*
G01X-4627858Y2149825D01*
G01X-4638911Y2176735D01*
G01X-4649860Y2205062D01*
G01X-4660361Y2234060D01*
G01X-4670195Y2262796D01*
G01X-4678261Y2287952D01*
G01X-4683456Y2306208D01*
G01X-4705376Y2398851D01*
G01X-4716320Y2447748D01*
G01X-4723398Y2481850D01*
G01X-4727631Y2509040D01*
G01X-4731735Y2541316D01*
G01X-4735748Y2577214D01*
G01X-4704260Y2545237D01*
G01X-4689994Y2531395D01*
G01X-4676565Y2519598D01*
G01X-4664741Y2510481D01*
G01X-4659670Y2507126D01*
G01X-4655287Y2504679D01*
G01X-4647190Y2500993D01*
G01X-4638070Y2497299D01*
G01X-4629043Y2494026D01*
G01X-4621228Y2491604D01*
G01X-4614030Y2490010D01*
G01X-4606686Y2488993D01*
G01X-4600056Y2488637D01*
G01X-4595000Y2489026D01*
G01X-4592022Y2489484D01*
G01X-4589475Y2489474D01*
G01X-4587181Y2488856D01*
G01X-4584964Y2487487D01*
G01X-4582648Y2485226D01*
G01X-4580057Y2481934D01*
G01X-4573346Y2471687D01*
G01X-4566719Y2462235D01*
G01X-4557549Y2450732D01*
G01X-4547046Y2438633D01*
G01X-4536423Y2427390D01*
G01X-4476610Y2368735D01*
G01X-4462382Y2355469D01*
G01X-4449437Y2344198D01*
G01X-4439200Y2336113D01*
G01X-4435545Y2333638D01*
G01X-4433101Y2332406D01*
G01X-4428210Y2330165D01*
G01X-4421263Y2326070D01*
G01X-4413184Y2320705D01*
G01X-4404899Y2314651D01*
G01X-4396495Y2308637D01*
G01X-4388089Y2303380D01*
G01X-4380657Y2299446D01*
G01X-4375175Y2297400D01*
G01X-4369420Y2295734D01*
G01X-4361245Y2292832D01*
G01X-4341994Y2284952D01*
G01X-4331417Y2280663D01*
G01X-4319649Y2276552D01*
G01X-4308126Y2273086D01*
G01X-4298282Y2270732D01*
G01X-4286668Y2269178D01*
G01X-4270328Y2267893D01*
G01X-4251432Y2267008D01*
G01X-4232149Y2266659D01*
G01X-4208393Y2266912D01*
G01X-4191362Y2267996D01*
G01X-4184449Y2268951D01*
G01X-4178114Y2270235D01*
G01X-4165706Y2273952D01*
G01X-4110135Y2293828D01*
G01X-4095028Y2299572D01*
G01X-4079464Y2305974D01*
G01X-4065276Y2312252D01*
G01X-4054297Y2317628D01*
G01X-4044519Y2323443D01*
G01X-4033606Y2330922D01*
G01X-4022889Y2339100D01*
G01X-4013700Y2347012D01*
G01X-4004672Y2355838D01*
G01X-3999377Y2362092D01*
G01X-3998004Y2364437D01*
G01X-3997413Y2366357D01*
G01X-3997555Y2367926D01*
G01X-3998378Y2369216D01*
G01X-3999644Y2370132D01*
G01X-4001185Y2370494D01*
G01X-4003076Y2370267D01*
G01X-4005393Y2369417D01*
G01X-4011607Y2365711D01*
G01X-4020427Y2359097D01*
G01X-4029411Y2352597D01*
G01X-4040547Y2345427D01*
G01X-4052420Y2338457D01*
G01X-4063611Y2332559D01*
G01X-4075174Y2327357D01*
G01X-4088058Y2322281D01*
G01X-4100691Y2317914D01*
G01X-4111502Y2314838D01*
G01X-4137314Y2308319D01*
G01X-4167454Y2300265D01*
G01X-4181595Y2296722D01*
G01X-4195539Y2293835D01*
G01X-4207681Y2291903D01*
G01X-4216412Y2291222D01*
G01X-4258376Y2291778D01*
G01X-4272276Y2292437D01*
G01X-4283562Y2294136D01*
G01X-4288796Y2295503D01*
G01X-4294059Y2297282D01*
G01X-4305586Y2302280D01*
G01X-4317458Y2308445D01*
G01X-4334272Y2317801D01*
G01X-4373778Y2341007D01*
G01X-4410557Y2363875D01*
G01X-4424421Y2372866D01*
G01X-4432690Y2378585D01*
G01X-4438798Y2384150D01*
G01X-4446779Y2392724D01*
G01X-4455598Y2403136D01*
G01X-4464220Y2414219D01*
G01X-4473550Y2427332D01*
G01X-4484297Y2443275D01*
G01X-4495132Y2460034D01*
G01X-4504725Y2475595D01*
G01X-4515207Y2494306D01*
G01X-4528460Y2519644D01*
G01X-4542786Y2548285D01*
G01X-4556486Y2576903D01*
G01X-4569232Y2605281D01*
G01X-4580944Y2633234D01*
G01X-4590327Y2657555D01*
G01X-4596087Y2675034D01*
G01X-4604181Y2707969D01*
G01X-4611677Y2742972D01*
G01X-4619155Y2779583D01*
G01X-4627207Y2816387D01*
G01X-4630948Y2834041D01*
G01X-4634878Y2854800D01*
G01X-4638531Y2876076D01*
G01X-4641440Y2895280D01*
G01X-4643133Y2908526D01*
G01X-4644379Y2921170D01*
G01X-4645192Y2934428D01*
G01X-4645588Y2949521D01*
G01X-4645183Y2990082D01*
G01X-4643277Y3052599D01*
G01X-4641461Y3099601D01*
G01X-4639427Y3142293D01*
G01X-4637424Y3175972D01*
G01X-4635700Y3195934D01*
G01X-4632193Y3220821D01*
G01X-4628872Y3241382D01*
G01X-4624442Y3271185D01*
G01X-4618269Y3318294D01*
G01X-4614519Y3345588D01*
G01X-4610717Y3367736D01*
G01X-4606846Y3384828D01*
G01X-4604879Y3391506D01*
G01X-4602888Y3396953D01*
G01X-4599103Y3406902D01*
G01X-4594685Y3419775D01*
G01X-4586150Y3447645D01*
G01X-4576299Y3484757D01*
G01X-4564934Y3529800D01*
G01X-4555458Y3569479D01*
G01X-4550152Y3593693D01*
G01X-4548783Y3600114D01*
G01X-4547327Y3603533D01*
G01X-4546475Y3604235D01*
G01X-4545490Y3604329D01*
G01X-4542977Y3602879D01*
G01X-4541092Y3601009D01*
G01X-4539538Y3598885D01*
G01X-4538475Y3596769D01*
G01X-4538066Y3594922D01*
G01X-4536595Y3591460D01*
G01X-4532643Y3584949D01*
G01X-4519707Y3566508D01*
G01X-4509781Y3554007D01*
G01X-4505289Y3549092D01*
G01X-4500875Y3544857D01*
G01X-4496361Y3541143D01*
G01X-4491568Y3537793D01*
G01X-4480437Y3531548D01*
G01X-4468035Y3525825D01*
G01X-4462680Y3523991D01*
G01X-4457202Y3522718D01*
G01X-4451086Y3521915D01*
G01X-4443817Y3521490D01*
G01X-4423758Y3521403D01*
G01X-4407465Y3521911D01*
G01X-4393390Y3523080D01*
G01X-4381822Y3524876D01*
G01X-4373051Y3527267D01*
G01X-4356763Y3532382D01*
G01X-4338679Y3536928D01*
G01X-4328141Y3538736D01*
G01X-4318285Y3539304D01*
G01X-4307698Y3538622D01*
G01X-4294966Y3536684D01*
G01X-4271358Y3533133D01*
G01X-4248793Y3530753D01*
G01X-4238935Y3530450D01*
G01X-4228226Y3530766D01*
G01X-4217959Y3531630D01*
G01X-4209424Y3532969D01*
G01X-4187539Y3536669D01*
G01X-4159559Y3540282D01*
G01X-4144664Y3542347D01*
G01X-4128001Y3545342D01*
G01X-4111606Y3548868D01*
G01X-4097514Y3552522D01*
G01X-4066094Y3561142D01*
G01X-4032295Y3569668D01*
G01X-4017828Y3573400D01*
G01X-4004676Y3577311D01*
G01X-3994290Y3580936D01*
G01X-3988119Y3583811D01*
G01X-3985865Y3585655D01*
G01X-3983520Y3588301D01*
G01X-3978518Y3596068D01*
G01X-3973039Y3607244D01*
G01X-3967008Y3621962D01*
G01X-3957565Y3647895D01*
G01X-3952317Y3664655D01*
G01X-3948100Y3679324D01*
G01X-3941137Y3700229D01*
G01X-3937465Y3710071D01*
G01X-3934060Y3718130D01*
G01X-3931303Y3723575D01*
G01X-3930285Y3725058D01*
G01X-3929571Y3725575D01*
G01X-3928399Y3724679D01*
G01X-3927162Y3722238D01*
G01X-3926009Y3718625D01*
G01X-3925086Y3714213D01*
G01X-3922618Y3701438D01*
G01X-3919267Y3686677D01*
G01X-3916704Y3678545D01*
G01X-3913191Y3671712D01*
G01X-3908375Y3665629D01*
G01X-3901905Y3659751D01*
G01X-3896537Y3655749D01*
G01X-3891814Y3652797D01*
G01X-3888247Y3651179D01*
G01X-3887057Y3650957D01*
G01X-3886347Y3651175D01*
G01X-3885873Y3652593D01*
G01X-3886190Y3654847D01*
G01X-3887216Y3657626D01*
G01X-3888868Y3660621D01*
G01X-3890867Y3664340D01*
G01X-3892837Y3669093D01*
G01X-3894553Y3674268D01*
G01X-3895787Y3679254D01*
G01X-3896484Y3684493D01*
G01X-3896740Y3690359D01*
G01X-3896550Y3696135D01*
G01X-3895911Y3701103D01*
G01X-3894532Y3706031D01*
G01X-3892594Y3709271D01*
G01X-3891351Y3710328D01*
G01X-3889889Y3711049D01*
G01X-3886207Y3711591D01*
G01X-3882933Y3711271D01*
G01X-3879641Y3710398D01*
G01X-3876714Y3709105D01*
G01X-3874536Y3707528D01*
G01X-3872864Y3706539D01*
G01X-3870043Y3705893D01*
G01X-3865890Y3705597D01*
G01X-3860223Y3705658D01*
G01X-3843616Y3706876D01*
G01X-3818759Y3709602D01*
G01X-3793887Y3712900D01*
G01X-3774518Y3716300D01*
G01X-3759557Y3720030D01*
G01X-3753387Y3722090D01*
G01X-3747908Y3724317D01*
G01X-3739986Y3728091D01*
G01X-3732565Y3732026D01*
G01X-3726477Y3735656D01*
G01X-3722554Y3738516D01*
G01X-3718165Y3741975D01*
G01X-3716830Y3742629D01*
G01X-3716340Y3742396D01*
G01X-3718281Y3735524D01*
G01X-3722949Y3721448D01*
G01X-3729381Y3704474D01*
G01X-3735563Y3690635D01*
G01X-3739175Y3684751D01*
G01X-3744573Y3677311D01*
G01X-3751025Y3669268D01*
G01X-3757804Y3661575D01*
G01X-3765777Y3653862D01*
G01X-3774740Y3646643D01*
G01X-3783986Y3640438D01*
G01X-3792805Y3635770D01*
G01X-3801783Y3632128D01*
G01X-3812359Y3628385D01*
G01X-3823211Y3624983D01*
G01X-3833020Y3622360D01*
G01X-3842683Y3620393D01*
G01X-3853135Y3618774D01*
G01X-3863118Y3617671D01*
G01X-3871374Y3617252D01*
G01X-3878777Y3616976D01*
G01X-3883793Y3616194D01*
G01X-3886478Y3614887D01*
G01X-3886965Y3614033D01*
G01X-3886890Y3613043D01*
G01X-3885607Y3610873D01*
G01X-3883140Y3608038D01*
G01X-3876070Y3601844D01*
G01X-3870559Y3598647D01*
G01X-3863549Y3596191D01*
G01X-3854946Y3594452D01*
G01X-3844658Y3593404D01*
G01X-3835102Y3593143D01*
G01X-3825331Y3593466D01*
G01X-3816490Y3594302D01*
G01X-3809726Y3595580D01*
G01X-3800576Y3597621D01*
G01X-3797793Y3597864D01*
G01X-3796771Y3597505D01*
G01X-3799153Y3592833D01*
G01X-3804881Y3583922D01*
G01X-3809690Y3577556D01*
G01X-3816791Y3569042D01*
G01X-3834039Y3550021D01*
G01X-3844092Y3540015D01*
G01X-3855906Y3529011D01*
G01X-3868007Y3518343D01*
G01X-3878922Y3509347D01*
G01X-3890696Y3500899D01*
G01X-3905133Y3491726D01*
G01X-3920404Y3482934D01*
G01X-3934679Y3475629D01*
G01X-3961601Y3463717D01*
G01X-3973197Y3459072D01*
G01X-3981501Y3456155D01*
G01X-3988612Y3453779D01*
G01X-3992466Y3451757D01*
G01X-3993287Y3450783D01*
G01X-3993432Y3449783D01*
G01X-3992948Y3448719D01*
G01X-3991880Y3447551D01*
G01X-3990149Y3446510D01*
G01X-3987445Y3445783D01*
G01X-3983577Y3445370D01*
G01X-3978356Y3445276D01*
G01X-3963097Y3446047D01*
G01X-3940148Y3448113D01*
G01X-3920024Y3450352D01*
G01X-3900129Y3452971D01*
G01X-3882759Y3455645D01*
G01X-3870208Y3458048D01*
G01X-3858623Y3461441D01*
G01X-3843882Y3466811D01*
G01X-3827879Y3473420D01*
G01X-3812507Y3480531D01*
G01X-3792925Y3490758D01*
G01X-3785062Y3495551D01*
G01X-3777785Y3500659D01*
G01X-3770569Y3506477D01*
G01X-3762890Y3513399D01*
G01X-3744040Y3532144D01*
G01X-3730060Y3546866D01*
G01X-3716760Y3561548D01*
G01X-3705642Y3574489D01*
G01X-3698211Y3583988D01*
G01X-3685501Y3603761D01*
G01X-3672259Y3626755D01*
G01X-3665020Y3639621D01*
G01X-3662243Y3643918D01*
G01X-3659856Y3646983D01*
G01X-3657731Y3648958D01*
G01X-3655739Y3649986D01*
G01X-3653753Y3650212D01*
G01X-3651645Y3649778D01*
G01X-3647825Y3648958D01*
G01X-3642596Y3648399D01*
G01X-3630663Y3648264D01*
G01X-3623714Y3648991D01*
G01X-3615134Y3650414D01*
G01X-3606013Y3652328D01*
G01X-3597441Y3654529D01*
G01X-3587446Y3657845D01*
G01X-3574449Y3662799D01*
G01X-3560134Y3668721D01*
G01X-3546181Y3674941D01*
G01X-3532409Y3681625D01*
G01X-3518588Y3688813D01*
G01X-3506324Y3695640D01*
G01X-3497222Y3701243D01*
G01X-3477560Y3715476D01*
G01X-3454064Y3733680D01*
G01X-3431629Y3752214D01*
G01X-3414521Y3767238D01*
G01X-3401205Y3779763D01*
G01X-3411139Y3751649D01*
G01X-3415746Y3739453D01*
G01X-3420947Y3727030D01*
G01X-3426104Y3715833D01*
G01X-3430580Y3707317D01*
G01X-3436299Y3698312D01*
G01X-3444842Y3685780D01*
G01X-3465783Y3656772D01*
G01X-3477665Y3641329D01*
G01X-3491020Y3624658D01*
G01X-3504213Y3608765D01*
G01X-3515610Y3595654D01*
G01X-3537275Y3572772D01*
G01X-3547463Y3562728D01*
G01X-3555477Y3555379D01*
G01X-3572241Y3541626D01*
G01X-3590447Y3527497D01*
G01X-3599295Y3521215D01*
G01X-3609167Y3514750D01*
G01X-3618859Y3508864D01*
G01X-3627166Y3504317D01*
G01X-3634623Y3500190D01*
G01X-3642001Y3495448D01*
G01X-3648449Y3490676D01*
G01X-3653116Y3486461D01*
G01X-3658661Y3479621D01*
G01X-3660011Y3477203D01*
G01X-3660107Y3475915D01*
G01X-3658155Y3475600D01*
G01X-3653931Y3475830D01*
G01X-3641151Y3477693D01*
G01X-3632341Y3479914D01*
G01X-3621277Y3483558D01*
G01X-3609373Y3488119D01*
G01X-3598043Y3493093D01*
G01X-3586390Y3499107D01*
G01X-3573605Y3506499D01*
G01X-3561236Y3514333D01*
G01X-3550833Y3521670D01*
G01X-3539931Y3529329D01*
G01X-3526203Y3538039D01*
G01X-3511405Y3546729D01*
G01X-3497294Y3554327D01*
G01X-3481053Y3563517D01*
G01X-3461382Y3576125D01*
G01X-3440190Y3590873D01*
G01X-3419385Y3606484D01*
G01X-3400020Y3622156D01*
G01X-3381263Y3638270D01*
G01X-3365256Y3652931D01*
G01X-3354139Y3664242D01*
G01X-3344565Y3675588D01*
G01X-3332759Y3690341D01*
G01X-3308449Y3722431D01*
G01X-3297571Y3737789D01*
G01X-3287467Y3752729D01*
G01X-3279265Y3765542D01*
G01X-3274091Y3774519D01*
G01X-3267721Y3788042D01*
G01X-3263583Y3798465D01*
G01X-3255287Y3817936D01*
G01X-3238917Y3853216D01*
G01X-3229584Y3874000D01*
G01X-3220525Y3896187D01*
G01X-3212774Y3917122D01*
G01X-3207367Y3934150D01*
G01X-3190024Y3998262D01*
G01X-3186306Y4013905D01*
G01X-3182033Y4034532D01*
G01X-3177733Y4057460D01*
G01X-3173934Y4080008D01*
G01X-3165757Y4132038D01*
G01X-3152726Y4103623D01*
G01X-3146454Y4090727D01*
G01X-3139012Y4076618D01*
G01X-3131329Y4063005D01*
G01X-3124339Y4051593D01*
G01X-3114944Y4038975D01*
G01X-3100718Y4022078D01*
G01X-3083590Y4003109D01*
G01X-3065491Y3984278D01*
G01X-3047094Y3966160D01*
G01X-3029152Y3949132D01*
G01X-3013722Y3935108D01*
G01X-3002858Y3925999D01*
G01X-2993769Y3919409D01*
G01X-2983175Y3912244D01*
G01X-2972391Y3905367D01*
G01X-2962733Y3899643D01*
G01X-2944319Y3889885D01*
G01X-2929512Y3882962D01*
G01X-2916759Y3876953D01*
G01X-2903284Y3869395D01*
G01X-2876464Y3852305D01*
G01X-2870842Y3849124D01*
G01X-2865018Y3846693D01*
G01X-2859681Y3845249D01*
G01X-2855518Y3845032D01*
G01X-2852243Y3845987D01*
G01X-2849403Y3847730D01*
G01X-2847284Y3850028D01*
G01X-2846171Y3852650D01*
G01X-2846440Y3855955D01*
G01X-2848097Y3860147D01*
G01X-2850879Y3864707D01*
G01X-2854522Y3869115D01*
G01X-2859400Y3873542D01*
G01X-2865597Y3878202D01*
G01X-2872317Y3882541D01*
G01X-2878765Y3886004D01*
G01X-2882448Y3888074D01*
G01X-2886934Y3891165D01*
G01X-2897828Y3899991D01*
G01X-2910466Y3911628D01*
G01X-2923870Y3925226D01*
G01X-2937479Y3940361D01*
G01X-2952025Y3957668D01*
G01X-2965768Y3975013D01*
G01X-2976965Y3990262D01*
G01X-2988040Y4006748D01*
G01X-3001450Y4027462D01*
G01X-3028513Y4070979D01*
G01X-3043184Y4096122D01*
G01X-3048724Y4106413D01*
G01X-3053305Y4115696D01*
G01X-3057107Y4124353D01*
G01X-3060309Y4132767D01*
G01X-3063089Y4141320D01*
G01X-3065627Y4150398D01*
G01X-3076303Y4189007D01*
G01X-3090434Y4237736D01*
G01X-3097576Y4262903D01*
G01X-3104757Y4290077D01*
G01X-3111142Y4315990D01*
G01X-3115895Y4337372D01*
G01X-3119641Y4357374D01*
G01X-3123286Y4379531D01*
G01X-3126411Y4401147D01*
G01X-3128601Y4419527D01*
G01X-3130228Y4439838D01*
G01X-3131825Y4466712D01*
G01X-3133206Y4496650D01*
G01X-3134189Y4526154D01*
G01X-3136437Y4590341D01*
G01X-3139383Y4648931D01*
G01X-3141142Y4672445D01*
G01X-3143387Y4696103D01*
G01X-3145829Y4717150D01*
G01X-3148179Y4732835D01*
G01X-3154521Y4773039D01*
G01X-3162254Y4828557D01*
G01X-3166454Y4857552D01*
G01X-3171444Y4887399D01*
G01X-3176597Y4914583D01*
G01X-3181290Y4935594D01*
G01X-3191087Y4971346D01*
G01X-3196024Y4987723D01*
G01X-3200160Y5000270D01*
G01X-3204336Y5013041D01*
G01X-3209382Y5030028D01*
G01X-3219538Y5067786D01*
G01X-3225410Y5088682D01*
G01X-3233282Y5112921D01*
G01X-3242217Y5137771D01*
G01X-3251282Y5160502D01*
G01X-3260616Y5181751D01*
G01X-3270562Y5203191D01*
G01X-3279930Y5222324D01*
G01X-3287532Y5236651D01*
G01X-3295504Y5249653D01*
G01X-3305877Y5265179D01*
G01X-3317310Y5281280D01*
G01X-3328460Y5296010D01*
G01X-3342552Y5312901D01*
G01X-3361999Y5334886D01*
G01X-3384232Y5359119D01*
G01X-3406685Y5382755D01*
G01X-3489034Y5468704D01*
G01X-3504438Y5483990D01*
G01X-3524408Y5502191D01*
G01X-3546362Y5521029D01*
G01X-3567717Y5538221D01*
G01X-3609597Y5569661D01*
G01X-3628021Y5582893D01*
G01X-3641538Y5592111D01*
G01X-3663846Y5606233D01*
G01X-3682566Y5617650D01*
G01X-3689667Y5622203D01*
G01X-3694332Y5626122D01*
G01X-3695779Y5627871D01*
G01X-3696649Y5629496D01*
G01X-3696954Y5631007D01*
G01X-3696705Y5632417D01*
G01X-3694561Y5635300D01*
G01X-3690222Y5639251D01*
G01X-3684318Y5643748D01*
G01X-3677481Y5648272D01*
G01X-3669928Y5652391D01*
G01X-3662122Y5655753D01*
G01X-3654967Y5658020D01*
G01X-3649366Y5658851D01*
G01X-3632294Y5659930D01*
G01X-3606580Y5662523D01*
G01X-3536243Y5671594D01*
G01X-3503244Y5676859D01*
G01X-3488667Y5679591D01*
G01X-3477923Y5681936D01*
G01X-3467235Y5685103D01*
G01X-3452810Y5690072D01*
G01X-3436540Y5696163D01*
G01X-3420313Y5702693D01*
G01X-3402886Y5710301D01*
G01X-3383348Y5719328D01*
G01X-3364088Y5728642D01*
G01X-3347496Y5737116D01*
G01X-3308352Y5758800D01*
G01X-3263476Y5784802D01*
G01X-3225304Y5807985D01*
G01X-3202279Y5822891D01*
G01X-3187200Y5834647D01*
G01X-3168136Y5850256D01*
G01X-3159341Y5857383D01*
G01X-3151588Y5863219D01*
G01X-3145715Y5867162D01*
G01X-3142561Y5868610D01*
G01X-3139007Y5870610D01*
G01X-3132046Y5876056D01*
G01X-3122681Y5884115D01*
G01X-3111919Y5893956D01*
G01X-3058566Y5942944D01*
G01X-3035607Y5962821D01*
G01X-3017458Y5977411D01*
G01X-3011317Y5982435D01*
G01X-3005479Y5988111D01*
G01X-3000605Y5993744D01*
G01X-2997355Y5998636D01*
G01X-2993833Y6004236D01*
G01X-2988221Y6011799D01*
G01X-2981290Y6020332D01*
G01X-2973813Y6028844D01*
G01X-2956058Y6049255D01*
G01X-2938875Y6070510D01*
G01X-2922099Y6092367D01*
G01X-2931925Y6096213D01*
G01X-2937948Y6098115D01*
G01X-2947083Y6100453D01*
G01X-2969727Y6105248D01*
G01X-2982522Y6107945D01*
G01X-2996676Y6111451D01*
G01X-3010470Y6115313D01*
G01X-3022183Y6119076D01*
G01X-3065895Y6134871D01*
G01X-3076857Y6138298D01*
G01X-3092483Y6142339D01*
G01X-3110692Y6146489D01*
G01X-3129399Y6150244D01*
G01X-3170597Y6157062D01*
G01X-3190859Y6159927D01*
G01X-3207480Y6161918D01*
G01X-3222725Y6163972D01*
G01X-3239240Y6167009D01*
G01X-3255035Y6170619D01*
G01X-3268120Y6174392D01*
G01X-3279203Y6178404D01*
G01X-3289544Y6182663D01*
G01X-3297989Y6186659D01*
G01X-3303378Y6189884D01*
G01X-3311807Y6196360D01*
G01X-3307604Y6232630D01*
G01X-3305552Y6253304D01*
G01X-3305167Y6261633D01*
G01X-3305243Y6269475D01*
G01X-3305807Y6277470D01*
G01X-3306883Y6286256D01*
G01X-3310678Y6308756D01*
G01X-3314607Y6327678D01*
G01X-3319210Y6345186D01*
G01X-3324417Y6361044D01*
G01X-3330158Y6375016D01*
G01X-3335371Y6385798D01*
G01X-3340544Y6395639D01*
G01X-3345079Y6403450D01*
G01X-3348379Y6408145D01*
G01X-3352648Y6411640D01*
G01X-3359821Y6416185D01*
G01X-3368898Y6421191D01*
G01X-3378878Y6426069D01*
G01X-3389444Y6431417D01*
G01X-3400116Y6437703D01*
G01X-3409651Y6444141D01*
G01X-3416803Y6449949D01*
G01X-3424223Y6457345D01*
G01X-3426491Y6460239D01*
G01X-3427940Y6462960D01*
G01X-3428680Y6465783D01*
G01X-3428819Y6468980D01*
G01X-3427721Y6477590D01*
G01X-3424639Y6491830D01*
G01X-3420778Y6505059D01*
G01X-3418965Y6512276D01*
G01X-3417291Y6522679D01*
G01X-3415943Y6534876D01*
G01X-3415106Y6547476D01*
G01X-3413848Y6577384D01*
G01X-3433082Y6592919D01*
G01X-3451288Y6607026D01*
G01X-3468052Y6619129D01*
G01X-3485329Y6629743D01*
G01X-3504770Y6640270D01*
G01X-3525048Y6649450D01*
G01X-3535466Y6653634D01*
G01X-3544338Y6656823D01*
G01X-3557141Y6661409D01*
G01X-3560784Y6663027D01*
G01X-3561823Y6663886D01*
G01X-3531457Y6664409D01*
G01X-3449590Y6665113D01*
G01X-3181297Y6666691D01*
G01X-2910502Y6667500D01*
G01X-2825927Y6667370D01*
G01X-2792254Y6666875D01*
G01X-2782637Y6665229D01*
G01X-2782637Y4062705D01*
G01X-2782844Y3052200D01*
G01X-2783408Y2224697D01*
G01X-2784242Y1665587D01*
G01X-2784733Y1513366D01*
G01X-2785260Y1460264D01*
G01X-2801447Y1463494D01*
G01X-2815012Y1466640D01*
G01X-2812925Y1443309D01*
G01X-2807464Y1383269D01*
G01X-2806241Y1363091D01*
G01X-2805844Y1338538D01*
G01X-2806271Y1310212D01*
G01X-2807523Y1278714D01*
G01X-2808808Y1247965D01*
G01X-2809221Y1223690D01*
G01X-2808761Y1205855D01*
G01X-2808205Y1199342D01*
G01X-2807430Y1194426D01*
G01X-2805871Y1185108D01*
G01X-2804233Y1171889D01*
G01X-2801498Y1140789D01*
G01X-2800433Y1121431D01*
G01X-2800460Y1110149D01*
G01X-2800934Y1106894D01*
G01X-2801743Y1104888D01*
G01X-2802906Y1103873D01*
G01X-2804444Y1103591D01*
G01X-2807137Y1103135D01*
G01X-2807817Y1102388D01*
G01X-2808055Y1101137D01*
G01X-2807209Y1096651D01*
G01X-2804609Y1088733D01*
G01X-2802310Y1080328D01*
G01X-2801087Y1070929D01*
G01X-2800885Y1059726D01*
G01X-2801646Y1045908D01*
G01X-2802861Y1033669D01*
G01X-2804526Y1021021D01*
G01X-2806422Y1009454D01*
G01X-2808329Y1000460D01*
G01X-2810824Y992042D01*
G01X-2813416Y986481D01*
G01X-2814850Y984613D01*
G01X-2816430Y983268D01*
G01X-2818196Y982384D01*
G01X-2820189Y981896D01*
G01X-2823393Y981078D01*
G01X-2826644Y979652D01*
G01X-2829563Y977818D01*
G01X-2831770Y975778D01*
G01X-2833660Y973823D01*
G01X-2835716Y972223D01*
G01X-2837690Y971141D01*
G01X-2839334Y970744D01*
G01X-2842072Y969543D01*
G01X-2847025Y966272D01*
G01X-2860762Y955521D01*
G01X-2880893Y939447D01*
G01X-2903955Y922177D01*
G01X-2914289Y914221D01*
G01X-2923833Y905956D01*
G01X-2931526Y898359D01*
G01X-2936307Y892406D01*
G01X-2939372Y886465D01*
G01X-2942394Y878902D01*
G01X-2945025Y870687D01*
G01X-2946917Y862792D01*
G01X-2948519Y851168D01*
G01X-2950363Y832801D01*
G01X-2953863Y785924D01*
G01X-2955578Y753768D01*
G01X-2955820Y733585D01*
G01X-2955333Y726385D01*
G01X-2954410Y720263D01*
G01X-2953029Y714578D01*
G01X-2951168Y708691D01*
G01X-2947112Y699449D01*
G01X-2940722Y688027D01*
G01X-2932803Y675758D01*
G01X-2924160Y663976D01*
G01X-2903385Y637592D01*
G01X-2904505Y615825D01*
G01X-2904694Y604525D01*
G01X-2903802Y595393D01*
G01X-2901612Y587211D01*
G01X-2897906Y578761D01*
G01X-2893429Y570979D01*
G01X-2886947Y561099D01*
G01X-2879326Y550389D01*
G01X-2871436Y540117D01*
G01X-2863609Y530879D01*
G01X-2856161Y522985D01*
G01X-2849934Y517272D01*
G01X-2847541Y515495D01*
G01X-2845769Y514578D01*
G01X-2842541Y514016D01*
G01X-2838864Y514109D01*
G01X-2835191Y514808D01*
G01X-2831975Y516064D01*
G01X-2829918Y517009D01*
G01X-2828043Y517469D01*
G01X-2826238Y517384D01*
G01X-2824391Y516696D01*
G01X-2822391Y515344D01*
G01X-2820126Y513271D01*
G01X-2814357Y506721D01*
G01X-2810188Y501209D01*
G01X-2806774Y495829D01*
G01X-2804467Y491197D01*
G01X-2803619Y487930D01*
G01X-2803967Y485402D01*
G01X-2804915Y482782D01*
G01X-2806317Y480380D01*
G01X-2808030Y478504D01*
G01X-2809379Y477673D01*
G01X-2811131Y477103D01*
G01X-2815951Y476748D01*
G01X-2822711Y477445D01*
G01X-2831635Y479202D01*
G01X-2841224Y480862D01*
G01X-2851775Y481772D01*
G01X-2862737Y481905D01*
G01X-2873560Y481235D01*
G37*
G36*
G01X-6369240Y4723260D02*
G01X-6375124Y4722547D01*
G01X-6384374Y4722303D01*
G01X-6395720Y4722530D01*
G01X-6407896Y4723228D01*
G01X-6422152Y4724787D01*
G01X-6435434Y4727197D01*
G01X-6447737Y4730456D01*
G01X-6459059Y4734565D01*
G01X-6471336Y4740180D01*
G01X-6488744Y4748763D01*
G01X-6529686Y4770160D01*
G01X-6550363Y4781764D01*
G01X-6570472Y4793751D01*
G01X-6587711Y4804709D01*
G01X-6599781Y4813224D01*
G01X-6610874Y4822636D01*
G01X-6625450Y4836037D01*
G01X-6641617Y4851640D01*
G01X-6657482Y4867659D01*
G01X-6693927Y4906515D01*
G01X-6730207Y4946718D01*
G01X-6746078Y4965355D01*
G01X-6758077Y4980711D01*
G01X-6766074Y4992605D01*
G01X-6768530Y4997199D01*
G01X-6769937Y5000861D01*
G01X-6773336Y5011005D01*
G01X-6779954Y5029028D01*
G01X-6799027Y5078519D01*
G01X-6818669Y5129844D01*
G01X-6825903Y5149853D01*
G01X-6830055Y5162423D01*
G01X-6832607Y5172923D01*
G01X-6835487Y5187299D01*
G01X-6838340Y5203657D01*
G01X-6840815Y5220106D01*
G01X-6843272Y5241796D01*
G01X-6846077Y5272426D01*
G01X-6848883Y5307922D01*
G01X-6851346Y5344213D01*
G01X-6855058Y5412407D01*
G01X-6856177Y5439146D01*
G01X-6856575Y5456085D01*
G01X-6856143Y5468602D01*
G01X-6855051Y5482683D01*
G01X-6415125Y5482683D01*
G01X-6414640Y5464398D01*
G01X-6412667Y5439205D01*
G01X-6410754Y5420285D01*
G01X-6408639Y5403218D01*
G01X-6406579Y5389875D01*
G01X-6404830Y5382130D01*
G01X-6403467Y5377369D01*
G01X-6402977Y5373436D01*
G01X-6403362Y5370369D01*
G01X-6404622Y5368207D01*
G01X-6405248Y5367068D01*
G01X-6405430Y5365354D01*
G01X-6404473Y5360236D01*
G01X-6401772Y5352921D01*
G01X-6397347Y5343478D01*
G01X-6394252Y5337899D01*
G01X-6390270Y5331687D01*
G01X-6379702Y5317431D01*
G01X-6365756Y5300851D01*
G01X-6348545Y5282090D01*
G01X-6333491Y5265748D01*
G01X-6320650Y5250898D01*
G01X-6311386Y5239175D01*
G01X-6308520Y5234999D01*
G01X-6307058Y5232218D01*
G01X-6305891Y5229826D01*
G01X-6303868Y5226766D01*
G01X-6297702Y5219143D01*
G01X-6289447Y5210360D01*
G01X-6279992Y5201427D01*
G01X-6269446Y5192464D01*
G01X-6258222Y5183598D01*
G01X-6247662Y5175853D01*
G01X-6239106Y5170252D01*
G01X-6230077Y5165583D01*
G01X-6220584Y5161988D01*
G01X-6210403Y5159398D01*
G01X-6199310Y5157740D01*
G01X-6199310Y5157740D01*
G01X-6187176Y5156859D01*
G01X-6177357Y5157267D01*
G01X-6172747Y5158024D01*
G01X-6168033Y5159187D01*
G01X-6157381Y5162840D01*
G01X-6125327Y5175442D01*
G01X-6119400Y5178409D01*
G01X-6112644Y5182685D01*
G01X-6105891Y5187699D01*
G01X-6099974Y5192878D01*
G01X-6095058Y5198152D01*
G01X-6091033Y5203424D01*
G01X-6088313Y5208082D01*
G01X-6087314Y5211515D01*
G01X-6087747Y5214412D01*
G01X-6088928Y5217609D01*
G01X-6090675Y5220719D01*
G01X-6092809Y5223352D01*
G01X-6095406Y5225478D01*
G01X-6098414Y5227204D01*
G01X-6101461Y5228353D01*
G01X-6104174Y5228749D01*
G01X-6107499Y5227920D01*
G01X-6112212Y5225734D01*
G01X-6117686Y5222525D01*
G01X-6123294Y5218624D01*
G01X-6129116Y5214706D01*
G01X-6134646Y5211884D01*
G01X-6139433Y5210349D01*
G01X-6141408Y5210123D01*
G01X-6143027Y5210291D01*
G01X-6145693Y5211693D01*
G01X-6148160Y5214259D01*
G01X-6150153Y5217623D01*
G01X-6151397Y5221419D01*
G01X-6152167Y5223856D01*
G01X-6153545Y5226531D01*
G01X-6158085Y5232550D01*
G01X-6164935Y5239386D01*
G01X-6174015Y5246947D01*
G01X-6185218Y5256358D01*
G01X-6189697Y5260907D01*
G01X-6193729Y5265748D01*
G01X-6197541Y5271176D01*
G01X-6201359Y5277488D01*
G01X-6209918Y5293947D01*
G01X-6218444Y5309963D01*
G01X-6222896Y5317228D01*
G01X-6227635Y5324223D01*
G01X-6238452Y5338079D01*
G01X-6251860Y5352887D01*
G01X-6267173Y5369277D01*
G01X-6272009Y5375111D01*
G01X-6275393Y5380106D01*
G01X-6277647Y5384817D01*
G01X-6279091Y5389796D01*
G01X-6280046Y5395597D01*
G01X-6280835Y5402771D01*
G01X-6281758Y5413965D01*
G01X-6281629Y5420611D01*
G01X-6281119Y5422570D01*
G01X-6280285Y5423800D01*
G01X-6279106Y5424438D01*
G01X-6277562Y5424621D01*
G01X-6274228Y5423632D01*
G01X-6269199Y5420940D01*
G01X-6263158Y5416955D01*
G01X-6256785Y5412089D01*
G01X-6249651Y5406863D01*
G01X-6241536Y5401900D01*
G01X-6233438Y5397760D01*
G01X-6226355Y5395004D01*
G01X-6217926Y5392904D01*
G01X-6206160Y5390553D01*
G01X-6178853Y5386245D01*
G01X-6162178Y5384382D01*
G01X-6149366Y5383784D01*
G01X-6138655Y5384456D01*
G01X-6128282Y5386404D01*
G01X-6111827Y5391139D01*
G01X-6104019Y5393866D01*
G01X-6097823Y5396395D01*
G01X-6081975Y5404366D01*
G01X-6061086Y5415632D01*
G01X-6038955Y5428857D01*
G01X-6028454Y5435691D01*
G01X-6020121Y5441539D01*
G01X-6013456Y5447070D01*
G01X-6007496Y5453038D01*
G01X-6002892Y5458727D01*
G01X-6000293Y5463419D01*
G01X-5997652Y5468075D01*
G01X-5992940Y5473602D01*
G01X-5986789Y5479343D01*
G01X-5979830Y5484645D01*
G01X-5962662Y5496904D01*
G01X-5945429Y5510026D01*
G01X-5938170Y5516483D01*
G01X-5931178Y5523909D01*
G01X-5925250Y5531385D01*
G01X-5921181Y5537994D01*
G01X-5917884Y5545936D01*
G01X-5915954Y5554012D01*
G01X-5915222Y5563317D01*
G01X-5915522Y5574948D01*
G01X-5917054Y5611656D01*
G01X-5916196Y5671087D01*
G01X-5916033Y5690184D01*
G01X-5916460Y5706477D01*
G01X-5917421Y5718782D01*
G01X-5918084Y5723068D01*
G01X-5918858Y5725912D01*
G01X-5921205Y5730986D01*
G01X-5922385Y5732472D01*
G01X-5923763Y5733327D01*
G01X-5925483Y5733604D01*
G01X-5927690Y5733357D01*
G01X-5934143Y5731500D01*
G01X-5949852Y5726681D01*
G01X-5951909Y5725612D01*
G01X-5954428Y5723462D01*
G01X-5957091Y5720544D01*
G01X-5959579Y5717169D01*
G01X-5960902Y5714559D01*
G01X-5962188Y5710842D01*
G01X-5964620Y5700259D01*
G01X-5966812Y5685756D01*
G01X-5968700Y5667674D01*
G01X-5970913Y5645796D01*
G01X-5972102Y5637611D01*
G01X-5973468Y5630735D01*
G01X-5975104Y5624773D01*
G01X-5977103Y5619331D01*
G01X-5979556Y5614014D01*
G01X-5982557Y5608426D01*
G01X-5987231Y5600710D01*
G01X-5992345Y5593183D01*
G01X-5997283Y5586705D01*
G01X-6001424Y5582140D01*
G01X-6006228Y5578377D01*
G01X-6011434Y5575939D01*
G01X-6017541Y5574662D01*
G01X-6025050Y5574382D01*
G01X-6042008Y5575229D01*
G01X-6061640Y5576854D01*
G01X-6071321Y5577512D01*
G01X-6079554Y5577406D01*
G01X-6086117Y5576551D01*
G01X-6090788Y5574960D01*
G01X-6094265Y5572229D01*
G01X-6098108Y5567803D01*
G01X-6101848Y5562293D01*
G01X-6105019Y5556312D01*
G01X-6107596Y5549487D01*
G01X-6109717Y5541679D01*
G01X-6111164Y5533851D01*
G01X-6111716Y5526966D01*
G01X-6111968Y5518728D01*
G01X-6112389Y5516178D01*
G01X-6113140Y5514493D01*
G01X-6114318Y5513537D01*
G01X-6116024Y5513176D01*
G01X-6121410Y5513695D01*
G01X-6135147Y5515344D01*
G01X-6154671Y5517205D01*
G01X-6165293Y5517792D01*
G01X-6174220Y5517625D01*
G01X-6181241Y5516719D01*
G01X-6186144Y5515086D01*
G01X-6189776Y5512852D01*
G01X-6193878Y5509820D01*
G01X-6201480Y5502958D01*
G01X-6207166Y5496157D01*
G01X-6209194Y5493190D01*
G01X-6210295Y5491036D01*
G01X-6211004Y5490116D01*
G01X-6212468Y5489410D01*
G01X-6217788Y5488634D01*
G01X-6226509Y5488697D01*
G01X-6238888Y5489584D01*
G01X-6249820Y5490881D01*
G01X-6259415Y5492586D01*
G01X-6266637Y5494477D01*
G01X-6269035Y5495423D01*
G01X-6270451Y5496333D01*
G01X-6272721Y5498186D01*
G01X-6275738Y5500072D01*
G01X-6282439Y5503056D01*
G01X-6285741Y5504582D01*
G01X-6289032Y5506929D01*
G01X-6291931Y5509777D01*
G01X-6294058Y5512806D01*
G01X-6295524Y5517166D01*
G01X-6296310Y5523264D01*
G01X-6296389Y5530704D01*
G01X-6295737Y5539090D01*
G01X-6294441Y5547290D01*
G01X-6292562Y5555586D01*
G01X-6290352Y5563010D01*
G01X-6288062Y5568594D01*
G01X-6285900Y5573891D01*
G01X-6284543Y5579737D01*
G01X-6284035Y5585858D01*
G01X-6284418Y5591976D01*
G01X-6286693Y5603698D01*
G01X-6289634Y5613821D01*
G01X-6291417Y5617766D01*
G01X-6293746Y5621865D01*
G01X-6296319Y5625633D01*
G01X-6298833Y5628586D01*
G01X-6301966Y5631216D01*
G01X-6304876Y5632385D01*
G01X-6307970Y5632157D01*
G01X-6311656Y5630598D01*
G01X-6315381Y5629044D01*
G01X-6318599Y5628841D01*
G01X-6321747Y5630059D01*
G01X-6325260Y5632767D01*
G01X-6328607Y5635160D01*
G01X-6332272Y5636619D01*
G01X-6336146Y5637117D01*
G01X-6340114Y5636624D01*
G01X-6342111Y5635889D01*
G01X-6344163Y5634685D01*
G01X-6348349Y5630958D01*
G01X-6352510Y5625619D01*
G01X-6356482Y5618845D01*
G01X-6360576Y5611878D01*
G01X-6365754Y5604512D01*
G01X-6371352Y5597626D01*
G01X-6376706Y5592097D01*
G01X-6382092Y5586343D01*
G01X-6387779Y5578845D01*
G01X-6393089Y5570575D01*
G01X-6397345Y5562503D01*
G01X-6401077Y5553008D01*
G01X-6404960Y5540865D01*
G01X-6408535Y5527634D01*
G01X-6411343Y5514880D01*
G01X-6414050Y5498148D01*
G01X-6414787Y5490513D01*
G01X-6415125Y5482683D01*
G01X-6855051Y5482683D01*
G01X-6855003Y5483302D01*
G01X-6853327Y5498352D01*
G01X-6851289Y5511921D01*
G01X-6844514Y5557000D01*
G01X-6835581Y5623792D01*
G01X-6827605Y5684692D01*
G01X-6823133Y5715602D01*
G01X-6822391Y5718402D01*
G01X-6821325Y5720774D01*
G01X-6819781Y5722824D01*
G01X-6817608Y5724658D01*
G01X-6814653Y5726381D01*
G01X-6810762Y5728100D01*
G01X-6799565Y5731949D01*
G01X-6777383Y5739297D01*
G01X-6754370Y5747428D01*
G01X-6744412Y5751446D01*
G01X-6734748Y5755965D01*
G01X-6726481Y5760432D01*
G01X-6720715Y5764293D01*
G01X-6710405Y5771818D01*
G01X-6699731Y5778426D01*
G01X-6694429Y5781808D01*
G01X-6692528Y5783522D01*
G01X-6691070Y5785340D01*
G01X-6690012Y5787326D01*
G01X-6689310Y5789547D01*
G01X-6688800Y5794951D01*
G01X-6689279Y5799927D01*
G01X-6690735Y5804141D01*
G01X-6693189Y5807642D01*
G01X-6696668Y5810478D01*
G01X-6701539Y5812707D01*
G01X-6708986Y5815113D01*
G01X-6717995Y5817407D01*
G01X-6727553Y5819298D01*
G01X-6748520Y5822027D01*
G01X-6758565Y5822858D01*
G01X-6766609Y5823162D01*
G01X-6779561Y5823786D01*
G01X-6784765Y5824461D01*
G01X-6788179Y5825285D01*
G01X-6790585Y5827012D01*
G01X-6792299Y5830075D01*
G01X-6793317Y5834457D01*
G01X-6793631Y5840142D01*
G01X-6792778Y5846876D01*
G01X-6790427Y5855129D01*
G01X-6786778Y5864316D01*
G01X-6782033Y5873854D01*
G01X-6762464Y5908814D01*
G01X-6752174Y5925879D01*
G01X-6738738Y5947270D01*
G01X-6731782Y5957701D01*
G01X-6724432Y5968014D01*
G01X-6717563Y5977018D01*
G01X-6712051Y5983524D01*
G01X-6693830Y6001331D01*
G01X-6665486Y6027599D01*
G01X-6649106Y6042059D01*
G01X-6630789Y6057559D01*
G01X-6612773Y6072239D01*
G01X-6597294Y6084242D01*
G01X-6581944Y6095330D01*
G01X-6564278Y6107522D01*
G01X-6546478Y6119338D01*
G01X-6530729Y6129300D01*
G01X-6517320Y6137893D01*
G01X-6505887Y6145983D01*
G01X-6497643Y6152660D01*
G01X-6495096Y6155184D01*
G01X-6493800Y6157014D01*
G01X-6492740Y6160217D01*
G01X-6492073Y6163759D01*
G01X-6491854Y6167209D01*
G01X-6492138Y6170136D01*
G01X-6493268Y6172663D01*
G01X-6495354Y6175024D01*
G01X-6498098Y6176955D01*
G01X-6501204Y6178190D01*
G01X-6506400Y6178489D01*
G01X-6514837Y6177870D01*
G01X-6525348Y6176458D01*
G01X-6536767Y6174379D01*
G01X-6549234Y6171451D01*
G01X-6562599Y6167727D01*
G01X-6575260Y6163685D01*
G01X-6585613Y6159804D01*
G01X-6594701Y6156420D01*
G01X-6603916Y6153730D01*
G01X-6612181Y6152006D01*
G01X-6618421Y6151520D01*
G01X-6624495Y6151047D01*
G01X-6631947Y6149292D01*
G01X-6640066Y6146464D01*
G01X-6648145Y6142772D01*
G01X-6656793Y6137969D01*
G01X-6667088Y6131756D01*
G01X-6687461Y6118316D01*
G01X-6708612Y6102434D01*
G01X-6729425Y6085547D01*
G01X-6737763Y6078709D01*
G01X-6745259Y6073105D01*
G01X-6751091Y6069313D01*
G01X-6754439Y6067912D01*
G01X-6755852Y6067389D01*
G01X-6758179Y6065900D01*
G01X-6765079Y6060445D01*
G01X-6774155Y6052379D01*
G01X-6784424Y6042535D01*
G01X-6795907Y6030560D01*
G01X-6808290Y6016692D01*
G01X-6820084Y6002649D01*
G01X-6829800Y5990150D01*
G01X-6839427Y5976423D01*
G01X-6850980Y5959038D01*
G01X-6863006Y5940223D01*
G01X-6874053Y5922208D01*
G01X-6884576Y5903912D01*
G01X-6895174Y5884332D01*
G01X-6904614Y5865814D01*
G01X-6911661Y5850705D01*
G01X-6919342Y5833475D01*
G01X-6922224Y5827963D01*
G01X-6924829Y5824066D01*
G01X-6927429Y5821444D01*
G01X-6930293Y5819759D01*
G01X-6933694Y5818671D01*
G01X-6937902Y5817840D01*
G01X-6945389Y5815450D01*
G01X-6956127Y5810615D01*
G01X-6968680Y5804038D01*
G01X-6981614Y5796423D01*
G01X-7007059Y5779880D01*
G01X-7025182Y5767004D01*
G01X-7034873Y5759754D01*
G01X-7038267Y5757549D01*
G01X-7040044Y5756739D01*
G01X-7040802Y5757497D01*
G01X-7041422Y5759563D01*
G01X-7041990Y5766353D01*
G01X-7040640Y5775465D01*
G01X-7036970Y5793168D01*
G01X-7024912Y5844138D01*
G01X-7012169Y5897103D01*
G01X-7007758Y5916966D01*
G01X-7005502Y5928715D01*
G01X-7004489Y5937724D01*
G01X-7004498Y5940889D01*
G01X-7004922Y5943411D01*
G01X-7005817Y5945476D01*
G01X-7007234Y5947274D01*
G01X-7011855Y5950813D01*
G01X-7016223Y5953262D01*
G01X-7020016Y5954423D01*
G01X-7023490Y5954333D01*
G01X-7026901Y5953031D01*
G01X-7030496Y5950488D01*
G01X-7035585Y5946133D01*
G01X-7047541Y5934429D01*
G01X-7054474Y5926348D01*
G01X-7062790Y5915530D01*
G01X-7071444Y5903387D01*
G01X-7079391Y5891334D01*
G01X-7095361Y5864907D01*
G01X-7109091Y5840642D01*
G01X-7114544Y5829750D01*
G01X-7120422Y5816892D01*
G01X-7126018Y5803672D01*
G01X-7130624Y5791699D01*
G01X-7135097Y5777531D01*
G01X-7140328Y5758337D01*
G01X-7145666Y5736637D01*
G01X-7150460Y5714948D01*
G01X-7157831Y5677022D01*
G01X-7160073Y5663743D01*
G01X-7160896Y5656797D01*
G01X-7161170Y5654917D01*
G01X-7161968Y5652729D01*
G01X-7164993Y5647631D01*
G01X-7169685Y5641904D01*
G01X-7175759Y5635949D01*
G01X-7201516Y5612144D01*
G01X-7242571Y5573488D01*
G01X-7279923Y5538463D01*
G01X-7296775Y5523388D01*
G01X-7297388Y5523608D01*
G01X-7298271Y5524575D01*
G01X-7300680Y5528451D01*
G01X-7303669Y5534410D01*
G01X-7306906Y5541845D01*
G01X-7310633Y5552721D01*
G01X-7314957Y5568044D01*
G01X-7319342Y5585781D01*
G01X-7323251Y5603894D01*
G01X-7331348Y5648001D01*
G01X-7338923Y5694055D01*
G01X-7342138Y5717007D01*
G01X-7345564Y5744432D01*
G01X-7351414Y5798935D01*
G01X-7353468Y5825753D01*
G01X-7355152Y5856312D01*
G01X-7356292Y5886849D01*
G01X-7356715Y5913602D01*
G01X-7356297Y5943827D01*
G01X-7354859Y5970653D01*
G01X-7352145Y5997359D01*
G01X-7347901Y6027222D01*
G01X-7339040Y6080398D01*
G01X-7330133Y6129061D01*
G01X-7320308Y6175223D01*
G01X-7309240Y6222387D01*
G01X-7298123Y6264730D01*
G01X-7288181Y6299299D01*
G01X-7277110Y6332126D01*
G01X-7263281Y6370283D01*
G01X-7254458Y6391813D01*
G01X-7242112Y6419424D01*
G01X-7227878Y6449557D01*
G01X-7213394Y6478659D01*
G01X-7181734Y6538853D01*
G01X-7153488Y6590300D01*
G01X-7140711Y6612047D01*
G01X-7131321Y6626351D01*
G01X-7127602Y6631118D01*
G01X-7124376Y6634510D01*
G01X-7121526Y6636689D01*
G01X-7118932Y6637820D01*
G01X-7108897Y6638329D01*
G01X-7083529Y6638895D01*
G01X-6993597Y6640122D01*
G01X-6862734Y6641349D01*
G01X-6704536Y6642425D01*
G01X-6080320Y6646483D01*
G01X-5956229Y6647342D01*
G01X-5916922Y6647373D01*
G01X-5889441Y6647064D01*
G01X-5871285Y6646361D01*
G01X-5859954Y6645206D01*
G01X-5852949Y6643546D01*
G01X-5847768Y6641325D01*
G01X-5841248Y6638634D01*
G01X-5833837Y6636416D01*
G01X-5826444Y6634902D01*
G01X-5819984Y6634321D01*
G01X-5813162Y6633793D01*
G01X-5807277Y6632228D01*
G01X-5802022Y6629509D01*
G01X-5797089Y6625515D01*
G01X-5794551Y6623508D01*
G01X-5790810Y6621137D01*
G01X-5780439Y6615658D01*
G01X-5767417Y6609777D01*
G01X-5753185Y6604194D01*
G01X-5690403Y6581707D01*
G01X-5639696Y6563059D01*
G01X-5585492Y6542217D01*
G01X-5549910Y6527876D01*
G01X-5508558Y6510351D01*
G01X-5488596Y6502015D01*
G01X-5472657Y6496112D01*
G01X-5461138Y6492776D01*
G01X-5457160Y6492113D01*
G01X-5454436Y6492141D01*
G01X-5450082Y6492251D01*
G01X-5444631Y6491378D01*
G01X-5438778Y6489682D01*
G01X-5433220Y6487321D01*
G01X-5427980Y6484394D01*
G01X-5422993Y6481161D01*
G01X-5418824Y6478012D01*
G01X-5416036Y6475342D01*
G01X-5414834Y6473465D01*
G01X-5414232Y6471226D01*
G01X-5414306Y6468367D01*
G01X-5415129Y6464630D01*
G01X-5419315Y6453493D01*
G01X-5427382Y6435756D01*
G01X-5440704Y6406089D01*
G01X-5450300Y6382519D01*
G01X-5458838Y6357130D01*
G01X-5469617Y6323087D01*
G01X-5490863Y6252042D01*
G01X-5498134Y6223916D01*
G01X-5501128Y6210422D01*
G01X-5503157Y6199603D01*
G01X-5506639Y6171512D01*
G01X-5510206Y6134305D01*
G01X-5513383Y6087524D01*
G01X-5515928Y6036417D01*
G01X-5516572Y6008611D01*
G01X-5516221Y5982384D01*
G01X-5514826Y5956248D01*
G01X-5512336Y5928711D01*
G01X-5510289Y5907671D01*
G01X-5508918Y5889947D01*
G01X-5508343Y5877402D01*
G01X-5508685Y5871901D01*
G01X-5509642Y5871239D01*
G01X-5511597Y5870619D01*
G01X-5518022Y5869562D01*
G01X-5527011Y5868838D01*
G01X-5537615Y5868558D01*
G01X-5571218Y5867524D01*
G01X-5614241Y5865112D01*
G01X-5639422Y5862952D01*
G01X-5671222Y5859580D01*
G01X-5705567Y5855459D01*
G01X-5738385Y5851048D01*
G01X-5795048Y5842473D01*
G01X-5815483Y5839055D01*
G01X-5826786Y5836837D01*
G01X-5840538Y5832847D01*
G01X-5853959Y5828229D01*
G01X-5859762Y5826261D01*
G01X-5865818Y5824651D01*
G01X-5871408Y5823562D01*
G01X-5875815Y5823162D01*
G01X-5879734Y5822611D01*
G01X-5883994Y5821109D01*
G01X-5888081Y5818885D01*
G01X-5891481Y5816171D01*
G01X-5894197Y5812773D01*
G01X-5896421Y5808692D01*
G01X-5897923Y5804440D01*
G01X-5898475Y5800531D01*
G01X-5898207Y5798267D01*
G01X-5897407Y5795726D01*
G01X-5894244Y5789857D01*
G01X-5889045Y5783012D01*
G01X-5881870Y5775283D01*
G01X-5877473Y5770612D01*
G01X-5873234Y5765522D01*
G01X-5869085Y5759905D01*
G01X-5864958Y5753653D01*
G01X-5856501Y5738811D01*
G01X-5847320Y5720129D01*
G01X-5831185Y5687052D01*
G01X-5823582Y5672438D01*
G01X-5817590Y5661665D01*
G01X-5784461Y5605729D01*
G01X-5775857Y5590804D01*
G01X-5768209Y5576796D01*
G01X-5762348Y5565277D01*
G01X-5759107Y5557820D01*
G01X-5756249Y5546757D01*
G01X-5755359Y5541313D01*
G01X-5755007Y5536845D01*
G01X-5754327Y5531521D01*
G01X-5752541Y5523748D01*
G01X-5749920Y5514569D01*
G01X-5746737Y5505028D01*
G01X-5735685Y5476670D01*
G01X-5720600Y5440399D01*
G01X-5707917Y5409208D01*
G01X-5704059Y5398479D01*
G01X-5702642Y5393064D01*
G01X-5701129Y5383419D01*
G01X-5697489Y5367856D01*
G01X-5694264Y5357310D01*
G01X-5689291Y5343217D01*
G01X-5683248Y5327416D01*
G01X-5676815Y5311750D01*
G01X-5658952Y5272321D01*
G01X-5637799Y5228537D01*
G01X-5627307Y5208263D01*
G01X-5616109Y5187721D01*
G01X-5605545Y5169311D01*
G01X-5596954Y5155431D01*
G01X-5579605Y5129211D01*
G01X-5583900Y5091541D01*
G01X-5585794Y5076774D01*
G01X-5587776Y5064416D01*
G01X-5589610Y5055759D01*
G01X-5590399Y5053223D01*
G01X-5591062Y5052099D01*
G01X-5592016Y5050996D01*
G01X-5592495Y5049304D01*
G01X-5592469Y5047253D01*
G01X-5591912Y5045072D01*
G01X-5591755Y5043609D01*
G01X-5592086Y5041456D01*
G01X-5594048Y5035492D01*
G01X-5597469Y5028011D01*
G01X-5602016Y5019839D01*
G01X-5608197Y5009047D01*
G01X-5616065Y4994432D01*
G01X-5632821Y4961404D01*
G01X-5641472Y4944135D01*
G01X-5651216Y4925544D01*
G01X-5660858Y4907864D01*
G01X-5669205Y4893329D01*
G01X-5677911Y4879890D01*
G01X-5688528Y4865194D01*
G01X-5699715Y4851018D01*
G01X-5710129Y4839142D01*
G01X-5724010Y4824965D01*
G01X-5729578Y4820150D01*
G01X-5735093Y4816325D01*
G01X-5741204Y4813100D01*
G01X-5748557Y4810082D01*
G01X-5769578Y4803096D01*
G01X-5799013Y4794377D01*
G01X-5810963Y4791247D01*
G01X-5818911Y4789530D01*
G01X-5825311Y4789067D01*
G01X-5833049Y4789350D01*
G01X-5841149Y4790304D01*
G01X-5848636Y4791852D01*
G01X-5858171Y4795184D01*
G01X-5871850Y4800995D01*
G01X-5887845Y4808466D01*
G01X-5904328Y4816780D01*
G01X-5919981Y4824746D01*
G01X-5933715Y4831270D01*
G01X-5944047Y4835678D01*
G01X-5949497Y4837296D01*
G01X-5951904Y4838093D01*
G01X-5956439Y4840377D01*
G01X-5970836Y4848764D01*
G01X-5990585Y4861178D01*
G01X-6013584Y4876336D01*
G01X-6063273Y4909211D01*
G01X-6101302Y4933430D01*
G01X-6115879Y4942678D01*
G01X-6133594Y4954510D01*
G01X-6152212Y4967405D01*
G01X-6169493Y4979840D01*
G01X-6221949Y5018701D01*
G01X-6225781Y5021476D01*
G01X-6180242Y5021476D01*
G01X-6179446Y5020096D01*
G01X-6177735Y5018704D01*
G01X-6173488Y5016566D01*
G01X-6173488Y5016566D01*
G01X-6169940Y5015645D01*
G01X-6169096Y5016035D01*
G01X-6169054Y5017136D01*
G01X-6169773Y5018780D01*
G01X-6171210Y5020797D01*
G01X-6173162Y5022649D01*
G01X-6175283Y5023843D01*
G01X-6177316Y5024279D01*
G01X-6179006Y5023856D01*
G01X-6180103Y5022758D01*
G01X-6180242Y5021476D01*
G01X-6225781Y5021476D01*
G01X-6238797Y5030899D01*
G01X-6259663Y5045472D01*
G01X-6270306Y5052237D01*
G01X-6280516Y5057738D01*
G01X-6289562Y5061618D01*
G01X-6293421Y5062840D01*
G01X-6296716Y5063524D01*
G01X-6304090Y5064085D01*
G01X-6306995Y5063794D01*
G01X-6309618Y5063025D01*
G01X-6312140Y5061706D01*
G01X-6314738Y5059762D01*
G01X-6320886Y5053713D01*
G01X-6326195Y5046945D01*
G01X-6330788Y5038631D01*
G01X-6334855Y5028366D01*
G01X-6338585Y5015743D01*
G01X-6341415Y5003710D01*
G01X-6344055Y4990443D01*
G01X-6346208Y4977552D01*
G01X-6347580Y4966648D01*
G01X-6350613Y4943411D01*
G01X-6354900Y4919453D01*
G01X-6356202Y4912184D01*
G01X-6357296Y4903547D01*
G01X-6358900Y4881258D01*
G01X-6359800Y4850771D01*
G01X-6360081Y4810271D01*
G01X-6360081Y4725558D01*
G01X-6369240Y4723260D01*
G37*
G36*
G01X-5654011Y1735484D02*
G01X-5690097Y1735469D01*
G01X-5702127Y1735743D01*
G01X-5711116Y1736295D01*
G01X-5717790Y1737191D01*
G01X-5722873Y1738499D01*
G01X-5727092Y1740285D01*
G01X-5731172Y1742617D01*
G01X-5743310Y1750116D01*
G01X-5737961Y1776371D01*
G01X-5735187Y1791292D01*
G01X-5734532Y1796847D01*
G01X-5734378Y1801708D01*
G01X-5734734Y1806303D01*
G01X-5735610Y1811064D01*
G01X-5738955Y1822808D01*
G01X-5744205Y1838602D01*
G01X-5747921Y1848235D01*
G01X-5749601Y1850586D01*
G01X-5752239Y1853113D01*
G01X-5755473Y1855510D01*
G01X-5758940Y1857476D01*
G01X-5764255Y1859508D01*
G01X-5772519Y1862085D01*
G01X-5793376Y1867553D01*
G01X-5807884Y1871490D01*
G01X-5813979Y1873760D01*
G01X-5819792Y1876487D01*
G01X-5825690Y1879861D01*
G01X-5832042Y1884075D01*
G01X-5847579Y1895788D01*
G01X-5861551Y1905930D01*
G01X-5878771Y1917166D01*
G01X-5897053Y1928129D01*
G01X-5914212Y1937451D01*
G01X-5930552Y1946276D01*
G01X-5946101Y1955637D01*
G01X-5959255Y1964517D01*
G01X-5968415Y1971899D01*
G01X-5984281Y1986501D01*
G01X-6000330Y2000626D01*
G01X-6008370Y2006866D01*
G01X-6018303Y2013665D01*
G01X-6028866Y2020200D01*
G01X-6038797Y2025651D01*
G01X-6049383Y2031469D01*
G01X-6061729Y2039001D01*
G01X-6074302Y2047276D01*
G01X-6085565Y2055318D01*
G01X-6098657Y2064698D01*
G01X-6116208Y2076617D01*
G01X-6135922Y2089542D01*
G01X-6155505Y2101946D01*
G01X-6194803Y2125805D01*
G01X-6225446Y2143567D01*
G01X-6236891Y2150320D01*
G01X-6249958Y2158787D01*
G01X-6263036Y2167886D01*
G01X-6274516Y2176536D01*
G01X-6295646Y2192891D01*
G01X-6311917Y2204760D01*
G01X-6317168Y2208738D01*
G01X-6321996Y2213153D01*
G01X-6325865Y2217468D01*
G01X-6328240Y2221147D01*
G01X-6330969Y2225192D01*
G01X-6335803Y2230508D01*
G01X-6342057Y2236403D01*
G01X-6349049Y2242187D01*
G01X-6410600Y2288236D01*
G01X-6428391Y2301769D01*
G01X-6444115Y2314426D01*
G01X-6456068Y2324791D01*
G01X-6462546Y2331445D01*
G01X-6466170Y2335762D01*
G01X-6470353Y2339765D01*
G01X-6474576Y2343007D01*
G01X-6478322Y2345042D01*
G01X-6480332Y2346113D01*
G01X-6482440Y2347807D01*
G01X-6486895Y2352990D01*
G01X-6491580Y2360441D01*
G01X-6496382Y2370006D01*
G01X-6501239Y2379437D01*
G01X-6507091Y2388961D01*
G01X-6513201Y2397468D01*
G01X-6518833Y2403847D01*
G01X-6524993Y2409219D01*
G01X-6532543Y2414984D01*
G01X-6540525Y2420451D01*
G01X-6547983Y2424927D01*
G01X-6564656Y2434019D01*
G01X-6563757Y2459387D01*
G01X-6563666Y2471634D01*
G01X-6564403Y2481481D01*
G01X-6566036Y2489432D01*
G01X-6568631Y2495990D01*
G01X-6572488Y2502446D01*
G01X-6578724Y2511719D01*
G01X-6594883Y2533756D01*
G01X-6602835Y2544364D01*
G01X-6609347Y2553635D01*
G01X-6613747Y2560572D01*
G01X-6615362Y2564176D01*
G01X-6614881Y2565273D01*
G01X-6613500Y2566905D01*
G01X-6608429Y2571457D01*
G01X-6600923Y2577199D01*
G01X-6591758Y2583497D01*
G01X-6581782Y2590353D01*
G01X-6572070Y2597614D01*
G01X-6563732Y2604414D01*
G01X-6557882Y2609886D01*
G01X-6553587Y2614142D01*
G01X-6549487Y2617627D01*
G01X-6546046Y2619981D01*
G01X-6543728Y2620846D01*
G01X-6542347Y2621557D01*
G01X-6539895Y2623596D01*
G01X-6532327Y2631084D01*
G01X-6522120Y2642167D01*
G01X-6510367Y2655700D01*
G01X-6480889Y2690553D01*
G01X-6470795Y2681046D01*
G01X-6466212Y2676317D01*
G01X-6461197Y2670471D01*
G01X-6456355Y2664251D01*
G01X-6452294Y2658400D01*
G01X-6448215Y2652574D01*
G01X-6443325Y2646422D01*
G01X-6438238Y2640677D01*
G01X-6433569Y2636073D01*
G01X-6428397Y2630574D01*
G01X-6421941Y2622398D01*
G01X-6415024Y2612647D01*
G01X-6408470Y2602426D01*
G01X-6400979Y2590816D01*
G01X-6394361Y2582392D01*
G01X-6391233Y2579213D01*
G01X-6388148Y2576636D01*
G01X-6385048Y2574598D01*
G01X-6381874Y2573033D01*
G01X-6376823Y2571266D01*
G01X-6371807Y2570104D01*
G01X-6367404Y2569645D01*
G01X-6364195Y2569990D01*
G01X-6357642Y2573604D01*
G01X-6344132Y2582043D01*
G01X-6304128Y2608362D01*
G01X-6253006Y2642110D01*
G01X-6206212Y2672020D01*
G01X-6138020Y2715103D01*
G01X-6117040Y2729155D01*
G01X-6100972Y2740603D01*
G01X-6091418Y2747379D01*
G01X-6087985Y2749440D01*
G01X-6086098Y2750197D01*
G01X-6086207Y2749060D01*
G01X-6087412Y2745802D01*
G01X-6092693Y2733835D01*
G01X-6111782Y2694497D01*
G01X-6123807Y2671311D01*
G01X-6133899Y2653354D01*
G01X-6141513Y2641541D01*
G01X-6144221Y2638224D01*
G01X-6146106Y2636786D01*
G01X-6148067Y2635222D01*
G01X-6150964Y2631536D01*
G01X-6159309Y2618239D01*
G01X-6170631Y2597769D01*
G01X-6184421Y2571001D01*
G01X-6220065Y2501314D01*
G01X-6260860Y2423323D01*
G01X-6295636Y2356314D01*
G01X-6308841Y2329896D01*
G01X-6316811Y2313028D01*
G01X-6321441Y2301691D01*
G01X-6325556Y2290332D01*
G01X-6328707Y2280270D01*
G01X-6330447Y2272825D01*
G01X-6331100Y2266253D01*
G01X-6330836Y2260698D01*
G01X-6329637Y2256040D01*
G01X-6327487Y2252159D01*
G01X-6324565Y2249355D01*
G01X-6320492Y2246989D01*
G01X-6315702Y2245261D01*
G01X-6310632Y2244372D01*
G01X-6299032Y2243064D01*
G01X-6287642Y2241232D01*
G01X-6281819Y2240708D01*
G01X-6274274Y2240909D01*
G01X-6265981Y2241772D01*
G01X-6257917Y2243230D01*
G01X-6238700Y2248290D01*
G01X-6218452Y2254554D01*
G01X-6193874Y2263460D01*
G01X-6164248Y2274869D01*
G01X-6146709Y2282222D01*
G01X-6123515Y2292491D01*
G01X-6072233Y2316336D01*
G01X-6023327Y2340584D01*
G01X-6002703Y2351292D01*
G01X-5988305Y2359180D01*
G01X-5974891Y2367421D01*
G01X-5956949Y2379090D01*
G01X-5916858Y2406503D01*
G01X-5882732Y2430179D01*
G01X-5871248Y2437805D01*
G01X-5865720Y2441108D01*
G01X-5864427Y2441262D01*
G01X-5863168Y2440683D01*
G01X-5861919Y2439323D01*
G01X-5860658Y2437135D01*
G01X-5858005Y2430086D01*
G01X-5855025Y2419157D01*
G01X-5842469Y2369135D01*
G01X-5826661Y2307956D01*
G01X-5817818Y2276590D01*
G01X-5809369Y2250272D01*
G01X-5800453Y2227262D01*
G01X-5790489Y2203850D01*
G01X-5785665Y2193759D01*
G01X-5780448Y2183804D01*
G01X-5775465Y2175132D01*
G01X-5771346Y2168890D01*
G01X-5766595Y2161491D01*
G01X-5759895Y2149670D01*
G01X-5752134Y2135054D01*
G01X-5744205Y2119273D01*
G01X-5735494Y2102470D01*
G01X-5725604Y2085074D01*
G01X-5715752Y2069138D01*
G01X-5707154Y2056713D01*
G01X-5695103Y2042320D01*
G01X-5675852Y2021026D01*
G01X-5652052Y1995700D01*
G01X-5626353Y1969213D01*
G01X-5577476Y1920147D01*
G01X-5547670Y1891060D01*
G01X-5540272Y1884839D01*
G01X-5533426Y1880165D01*
G01X-5527447Y1877224D01*
G01X-5524881Y1876462D01*
G01X-5522649Y1876202D01*
G01X-5520066Y1875784D01*
G01X-5516820Y1874516D01*
G01X-5512882Y1872381D01*
G01X-5508229Y1869361D01*
G01X-5496669Y1860594D01*
G01X-5481933Y1848072D01*
G01X-5468011Y1836173D01*
G01X-5453701Y1824567D01*
G01X-5440685Y1814585D01*
G01X-5430646Y1807556D01*
G01X-5411374Y1795946D01*
G01X-5392239Y1785424D01*
G01X-5385120Y1781471D01*
G01X-5379812Y1777912D01*
G01X-5376825Y1775136D01*
G01X-5376362Y1774164D01*
G01X-5376670Y1773534D01*
G01X-5380049Y1772270D01*
G01X-5386683Y1770411D01*
G01X-5405882Y1765913D01*
G01X-5440498Y1759495D01*
G01X-5487576Y1751755D01*
G01X-5566259Y1739462D01*
G01X-5580215Y1738031D01*
G01X-5601413Y1736804D01*
G01X-5626971Y1735911D01*
G01X-5654011Y1735484D01*
G37*
G36*
G01X-4815518Y2183879D02*
G01X-4821168Y2183371D01*
G01X-4827940Y2183679D01*
G01X-4837163Y2184683D01*
G01X-4847625Y2186224D01*
G01X-4858114Y2188147D01*
G01X-4868628Y2190780D01*
G01X-4879158Y2194256D01*
G01X-4888482Y2198122D01*
G01X-4895378Y2201926D01*
G01X-4908850Y2211628D01*
G01X-4923287Y2222624D01*
G01X-4932068Y2230147D01*
G01X-4944798Y2241823D01*
G01X-4975278Y2271248D01*
G01X-5004494Y2301281D01*
G01X-5015854Y2313614D01*
G01X-5022964Y2321940D01*
G01X-5032834Y2335924D01*
G01X-5041372Y2349908D01*
G01X-5057405Y2377875D01*
G01X-5069339Y2398851D01*
G01X-5083706Y2431381D01*
G01X-5088318Y2443281D01*
G01X-5092834Y2456805D01*
G01X-5096736Y2470290D01*
G01X-5099505Y2482072D01*
G01X-5113120Y2557918D01*
G01X-5116816Y2581463D01*
G01X-5120452Y2608097D01*
G01X-5123610Y2634550D01*
G01X-5125871Y2657554D01*
G01X-5127451Y2685600D01*
G01X-5128405Y2722902D01*
G01X-5128699Y2767297D01*
G01X-5128301Y2816621D01*
G01X-5127172Y2878272D01*
G01X-5126460Y2899697D01*
G01X-5125513Y2916775D01*
G01X-5124227Y2930948D01*
G01X-5122500Y2943657D01*
G01X-5120228Y2956342D01*
G01X-5117310Y2970444D01*
G01X-5109313Y3009009D01*
G01X-5103235Y3040363D01*
G01X-5099874Y3054406D01*
G01X-5094206Y3073258D01*
G01X-5087022Y3094454D01*
G01X-5079113Y3115527D01*
G01X-5062805Y3155694D01*
G01X-5050855Y3183536D01*
G01X-5045871Y3193922D01*
G01X-5044169Y3196919D01*
G01X-5042837Y3198590D01*
G01X-5041757Y3199038D01*
G01X-5040812Y3198368D01*
G01X-5038856Y3194082D01*
G01X-5035703Y3185561D01*
G01X-5033224Y3193370D01*
G01X-5032038Y3196402D01*
G01X-5030641Y3198885D01*
G01X-5029207Y3200562D01*
G01X-5027912Y3201178D01*
G01X-5026464Y3200759D01*
G01X-5024615Y3199618D01*
G01X-5020669Y3195867D01*
G01X-5019725Y3194177D01*
G01X-5018733Y3191396D01*
G01X-5016724Y3183149D01*
G01X-5014877Y3172303D01*
G01X-5013431Y3160033D01*
G01X-5009239Y3124112D01*
G01X-5003131Y3080610D01*
G01X-4995304Y3034765D01*
G01X-4990939Y3012017D01*
G01X-4986979Y2993210D01*
G01X-4978881Y2958666D01*
G01X-4971602Y2929675D01*
G01X-4964365Y2904456D01*
G01X-4956371Y2878983D01*
G01X-4947604Y2854241D01*
G01X-4938508Y2830782D01*
G01X-4927783Y2806590D01*
G01X-4915098Y2780090D01*
G01X-4908372Y2767369D01*
G01X-4900467Y2753538D01*
G01X-4892370Y2740265D01*
G01X-4885066Y2729221D01*
G01X-4870945Y2709848D01*
G01X-4859391Y2695181D01*
G01X-4855305Y2689636D01*
G01X-4851368Y2682902D01*
G01X-4848028Y2675830D01*
G01X-4845735Y2669271D01*
G01X-4843554Y2659166D01*
G01X-4840524Y2642441D01*
G01X-4833516Y2598431D01*
G01X-4817979Y2494991D01*
G01X-4801827Y2393607D01*
G01X-4797672Y2369947D01*
G01X-4792940Y2345581D01*
G01X-4788213Y2323379D01*
G01X-4784074Y2306208D01*
G01X-4779945Y2291933D01*
G01X-4775244Y2277617D01*
G01X-4770552Y2264924D01*
G01X-4766445Y2255516D01*
G01X-4754506Y2231878D01*
G01X-4753450Y2228560D01*
G01X-4753551Y2224894D01*
G01X-4754827Y2220787D01*
G01X-4757295Y2216147D01*
G01X-4763617Y2207611D01*
G01X-4767191Y2203633D01*
G01X-4770463Y2200532D01*
G01X-4773680Y2198179D01*
G01X-4777103Y2196237D01*
G01X-4780322Y2194908D01*
G01X-4782928Y2194393D01*
G01X-4785775Y2193932D01*
G01X-4789648Y2192751D01*
G01X-4798437Y2188943D01*
G01X-4803406Y2186848D01*
G01X-4809348Y2185099D01*
G01X-4815518Y2183879D01*
G37*
G36*
G01X-5667889Y1038350D02*
G01X-5670340Y1037168D01*
G01X-5672305Y1037796D01*
G01X-5675460Y1039506D01*
G01X-5683604Y1045129D01*
G01X-5690913Y1051550D01*
G01X-5703202Y1063148D01*
G01X-5735864Y1095290D01*
G01X-5754227Y1113060D01*
G01X-5773206Y1130250D01*
G01X-5790561Y1144899D01*
G01X-5804056Y1155045D01*
G01X-5815922Y1163760D01*
G01X-5828844Y1174509D01*
G01X-5841260Y1185929D01*
G01X-5851611Y1196654D01*
G01X-5876160Y1224937D01*
G01X-5905232Y1259162D01*
G01X-5921336Y1277624D01*
G01X-5941309Y1299464D01*
G01X-5962609Y1321952D01*
G01X-5982696Y1342358D01*
G01X-6014596Y1374716D01*
G01X-6024300Y1385151D01*
G01X-6027864Y1389686D01*
G01X-6026554Y1391958D01*
G01X-6022985Y1396234D01*
G01X-6011254Y1408345D01*
G01X-6003801Y1415047D01*
G01X-5995790Y1421414D01*
G01X-5988182Y1426728D01*
G01X-5981938Y1430267D01*
G01X-5978431Y1432366D01*
G01X-5973316Y1436109D01*
G01X-5959234Y1447688D01*
G01X-5941641Y1463330D01*
G01X-5922488Y1481357D01*
G01X-5888962Y1513260D01*
G01X-5878363Y1522929D01*
G01X-5873996Y1526436D01*
G01X-5854762Y1519322D01*
G01X-5836250Y1512299D01*
G01X-5816295Y1505183D01*
G01X-5800449Y1499277D01*
G01X-5794830Y1496832D01*
G01X-5791816Y1495164D01*
G01X-5784215Y1491553D01*
G01X-5766103Y1483818D01*
G01X-5709191Y1460522D01*
G01X-5651770Y1438060D01*
G01X-5633105Y1431227D01*
G01X-5624829Y1428717D01*
G01X-5621589Y1428051D01*
G01X-5616637Y1426237D01*
G01X-5610647Y1423552D01*
G01X-5604292Y1420274D01*
G01X-5595867Y1416277D01*
G01X-5584239Y1411636D01*
G01X-5570944Y1406926D01*
G01X-5557516Y1402725D01*
G01X-5529265Y1394288D01*
G01X-5505537Y1386789D01*
G01X-5493383Y1382959D01*
G01X-5489004Y1382014D01*
G01X-5485131Y1381722D01*
G01X-5481296Y1382088D01*
G01X-5477029Y1383116D01*
G01X-5465322Y1387176D01*
G01X-5455461Y1390339D01*
G01X-5443184Y1393617D01*
G01X-5430054Y1396621D01*
G01X-5417636Y1398966D01*
G01X-5397655Y1401991D01*
G01X-5388902Y1402843D01*
G01X-5389495Y1401337D01*
G01X-5391671Y1397751D01*
G01X-5399393Y1386486D01*
G01X-5409392Y1373289D01*
G01X-5417636Y1363553D01*
G01X-5428007Y1350828D01*
G01X-5443119Y1330445D01*
G01X-5490804Y1263939D01*
G01X-5558813Y1167478D01*
G01X-5574299Y1144823D01*
G01X-5587770Y1124381D01*
G01X-5597781Y1108394D01*
G01X-5602885Y1099108D01*
G01X-5605964Y1093459D01*
G01X-5610462Y1087377D01*
G01X-5615774Y1081593D01*
G01X-5621297Y1076838D01*
G01X-5635422Y1065591D01*
G01X-5650912Y1052158D01*
G01X-5663409Y1041571D01*
G01X-5667889Y1038350D01*
G37*
G36*
G01X-4814473Y2853624D02*
G01X-4817405Y2827109D01*
G01X-4819993Y2811377D01*
G01X-4827261Y2827109D01*
G01X-4835031Y2845921D01*
G01X-4843505Y2869060D01*
G01X-4851884Y2894767D01*
G01X-4859425Y2919752D01*
G01X-4866368Y2947305D01*
G01X-4873309Y2979184D01*
G01X-4876157Y2994845D01*
G01X-4878782Y3011644D01*
G01X-4880892Y3027565D01*
G01X-4882196Y3040594D01*
G01X-4883363Y3052638D01*
G01X-4885101Y3065881D01*
G01X-4887176Y3078716D01*
G01X-4889352Y3089537D01*
G01X-4891827Y3101857D01*
G01X-4894717Y3118774D01*
G01X-4900301Y3157479D01*
G01X-4903042Y3185123D01*
G01X-4904758Y3218879D01*
G01X-4905604Y3263449D01*
G01X-4905734Y3323538D01*
G01X-4905298Y3374231D01*
G01X-4904340Y3423097D01*
G01X-4903002Y3464572D01*
G01X-4901423Y3493093D01*
G01X-4898848Y3520720D01*
G01X-4897454Y3530982D01*
G01X-4895763Y3539884D01*
G01X-4893606Y3548180D01*
G01X-4890814Y3556627D01*
G01X-4882649Y3576996D01*
G01X-4869879Y3608875D01*
G01X-4859921Y3636428D01*
G01X-4856489Y3646344D01*
G01X-4853027Y3655251D01*
G01X-4849939Y3662176D01*
G01X-4847627Y3666144D01*
G01X-4843660Y3672415D01*
G01X-4840211Y3680128D01*
G01X-4837467Y3685866D01*
G01X-4832273Y3695029D01*
G01X-4817513Y3718583D01*
G01X-4784724Y3768784D01*
G01X-4778306Y3777693D01*
G01X-4770734Y3786521D01*
G01X-4762861Y3794346D01*
G01X-4755544Y3800248D01*
G01X-4739666Y3812109D01*
G01X-4723974Y3825211D01*
G01X-4717475Y3831387D01*
G01X-4711281Y3837868D01*
G01X-4706093Y3843883D01*
G01X-4702611Y3848662D01*
G01X-4696806Y3858130D01*
G01X-4639362Y3800403D01*
G01X-4644814Y3784955D01*
G01X-4647480Y3775500D01*
G01X-4650706Y3761174D01*
G01X-4654087Y3743923D01*
G01X-4657215Y3725691D01*
G01X-4663717Y3687558D01*
G01X-4669593Y3657404D01*
G01X-4683370Y3596224D01*
G01X-4694072Y3547280D01*
G01X-4695753Y3540598D01*
G01X-4698587Y3531450D01*
G01X-4706131Y3510573D01*
G01X-4710641Y3497071D01*
G01X-4715748Y3478399D01*
G01X-4720825Y3457023D01*
G01X-4725246Y3435409D01*
G01X-4729941Y3407076D01*
G01X-4733366Y3378209D01*
G01X-4735900Y3344855D01*
G01X-4737921Y3303060D01*
G01X-4739694Y3265338D01*
G01X-4741626Y3237768D01*
G01X-4743805Y3219358D01*
G01X-4745015Y3213278D01*
G01X-4746320Y3209116D01*
G01X-4748314Y3203563D01*
G01X-4749947Y3197526D01*
G01X-4751050Y3191734D01*
G01X-4751455Y3186916D01*
G01X-4753101Y3177193D01*
G01X-4757584Y3158048D01*
G01X-4764218Y3132250D01*
G01X-4772319Y3102565D01*
G01X-4780977Y3070490D01*
G01X-4789127Y3038184D01*
G01X-4795854Y3009408D01*
G01X-4800240Y2987924D01*
G01X-4803277Y2968176D01*
G01X-4806329Y2944126D01*
G01X-4809041Y2918814D01*
G01X-4811058Y2895280D01*
G01X-4814473Y2853624D01*
G37*
G36*
G01X-7021403Y5067400D02*
G01X-7016555Y5056231D01*
G01X-7015069Y5051835D01*
G01X-7017149Y5053407D01*
G01X-7022012Y5058486D01*
G01X-7037185Y5075998D01*
G01X-7058239Y5102043D01*
G01X-7079321Y5129211D01*
G01X-7101959Y5160773D01*
G01X-7126751Y5197382D01*
G01X-7152663Y5238613D01*
G01X-7177994Y5281286D01*
G01X-7188909Y5301402D01*
G01X-7200207Y5323870D01*
G01X-7210556Y5345947D01*
G01X-7218622Y5364888D01*
G01X-7229718Y5394185D01*
G01X-7233094Y5403965D01*
G01X-7234333Y5408588D01*
G01X-7232978Y5412131D01*
G01X-7229288Y5418972D01*
G01X-7217159Y5438605D01*
G01X-7208849Y5450573D01*
G01X-7198919Y5463777D01*
G01X-7188615Y5476613D01*
G01X-7179183Y5487477D01*
G01X-7168317Y5498987D01*
G01X-7161717Y5504877D01*
G01X-7159630Y5505981D01*
G01X-7158145Y5505999D01*
G01X-7157107Y5505040D01*
G01X-7156361Y5503209D01*
G01X-7152113Y5484458D01*
G01X-7144733Y5449093D01*
G01X-7141056Y5429835D01*
G01X-7138147Y5412288D01*
G01X-7136299Y5398389D01*
G01X-7135805Y5390074D01*
G01X-7135337Y5382707D01*
G01X-7133558Y5371387D01*
G01X-7130752Y5357657D01*
G01X-7127200Y5343060D01*
G01X-7122667Y5327036D01*
G01X-7117186Y5309423D01*
G01X-7111450Y5292356D01*
G01X-7106148Y5277971D01*
G01X-7093128Y5242992D01*
G01X-7078350Y5200878D01*
G01X-7070218Y5178578D01*
G01X-7059929Y5152747D01*
G01X-7048801Y5126587D01*
G01X-7038152Y5103300D01*
G01X-7021403Y5067400D01*
G37*
G36*
G01X-7136099Y4661088D02*
G01X-7152951Y4657380D01*
G01X-7160341Y4656560D01*
G01X-7166884Y4656771D01*
G01X-7172933Y4658056D01*
G01X-7178842Y4660455D01*
G01X-7183770Y4662606D01*
G01X-7188977Y4664367D01*
G01X-7193845Y4665557D01*
G01X-7197751Y4665994D01*
G01X-7199878Y4666352D01*
G01X-7202441Y4667419D01*
G01X-7208810Y4671628D01*
G01X-7216728Y4678519D01*
G01X-7226064Y4687990D01*
G01X-7235356Y4698519D01*
G01X-7245493Y4710927D01*
G01X-7255252Y4723665D01*
G01X-7263406Y4735185D01*
G01X-7271171Y4747565D01*
G01X-7279872Y4762644D01*
G01X-7288444Y4778517D01*
G01X-7295824Y4793277D01*
G01X-7308341Y4821479D01*
G01X-7313322Y4833928D01*
G01X-7316547Y4843095D01*
G01X-7320185Y4857670D01*
G01X-7321301Y4864144D01*
G01X-7321721Y4868945D01*
G01X-7322840Y4874692D01*
G01X-7325857Y4883743D01*
G01X-7330313Y4894855D01*
G01X-7335747Y4906787D01*
G01X-7341178Y4918531D01*
G01X-7345626Y4929129D01*
G01X-7348631Y4937419D01*
G01X-7349735Y4942238D01*
G01X-7349122Y4945204D01*
G01X-7347452Y4948451D01*
G01X-7344981Y4951585D01*
G01X-7341963Y4954214D01*
G01X-7335904Y4958057D01*
G01X-7332250Y4959656D01*
G01X-7328572Y4958040D01*
G01X-7322456Y4954157D01*
G01X-7318608Y4950260D01*
G01X-7313934Y4943712D01*
G01X-7309026Y4935429D01*
G01X-7304473Y4926323D01*
G01X-7299766Y4916605D01*
G01X-7294439Y4906658D01*
G01X-7289146Y4897648D01*
G01X-7284541Y4890744D01*
G01X-7267871Y4869581D01*
G01X-7241555Y4837296D01*
G01X-7226866Y4819877D01*
G01X-7211403Y4802166D01*
G01X-7197003Y4786237D01*
G01X-7185508Y4774160D01*
G01X-7174561Y4763722D01*
G01X-7161657Y4752254D01*
G01X-7148405Y4741146D01*
G01X-7136417Y4731789D01*
G01X-7114941Y4714913D01*
G01X-7106110Y4707330D01*
G01X-7100137Y4701636D01*
G01X-7095423Y4696068D01*
G01X-7092693Y4691320D01*
G01X-7092002Y4689081D01*
G01X-7091726Y4686841D01*
G01X-7092302Y4682083D01*
G01X-7093125Y4679571D01*
G01X-7094321Y4677384D01*
G01X-7096014Y4675441D01*
G01X-7098332Y4673661D01*
G01X-7101398Y4671962D01*
G01X-7105338Y4670263D01*
G01X-7116343Y4666544D01*
G01X-7136099Y4661088D01*
G37*
G36*
G01X-5174792Y3396381D02*
G01X-5175408Y3394912D01*
G01X-5176339Y3394551D01*
G01X-5177518Y3395380D01*
G01X-5179112Y3398640D01*
G01X-5181292Y3405061D01*
G01X-5186260Y3423673D01*
G01X-5190387Y3443217D01*
G01X-5192137Y3455137D01*
G01X-5193117Y3460002D01*
G01X-5195740Y3468451D01*
G01X-5199607Y3479294D01*
G01X-5204318Y3491345D01*
G01X-5209029Y3503482D01*
G01X-5212897Y3514563D01*
G01X-5215520Y3523364D01*
G01X-5216499Y3528659D01*
G01X-5215611Y3532802D01*
G01X-5213149Y3538468D01*
G01X-5209490Y3544910D01*
G01X-5205012Y3551383D01*
G01X-5199859Y3558911D01*
G01X-5194363Y3568227D01*
G01X-5189182Y3578146D01*
G01X-5184973Y3587484D01*
G01X-5177288Y3604866D01*
G01X-5173637Y3612151D01*
G01X-5170738Y3617200D01*
G01X-5164024Y3628107D01*
G01X-5155945Y3642058D01*
G01X-5150833Y3649735D01*
G01X-5143606Y3658723D01*
G01X-5135224Y3667903D01*
G01X-5126648Y3676156D01*
G01X-5115821Y3685350D01*
G01X-5101306Y3697093D01*
G01X-5068809Y3722181D01*
G01X-5053964Y3732879D01*
G01X-5042039Y3740740D01*
G01X-5034100Y3745106D01*
G01X-5031959Y3745773D01*
G01X-5031405Y3745692D01*
G01X-5031216Y3745320D01*
G01X-5031656Y3743051D01*
G01X-5032853Y3740498D01*
G01X-5034625Y3737974D01*
G01X-5036790Y3735791D01*
G01X-5039984Y3731913D01*
G01X-5044560Y3724772D01*
G01X-5049908Y3715386D01*
G01X-5055415Y3704773D01*
G01X-5067927Y3680224D01*
G01X-5079678Y3658266D01*
G01X-5085711Y3646664D01*
G01X-5093851Y3629944D01*
G01X-5112186Y3590095D01*
G01X-5130801Y3546943D01*
G01X-5145652Y3510682D01*
G01X-5151036Y3495602D01*
G01X-5156700Y3477723D01*
G01X-5161971Y3459280D01*
G01X-5166175Y3442510D01*
G01X-5172085Y3414506D01*
G01X-5173890Y3404428D01*
G01X-5174562Y3398876D01*
G01X-5174792Y3396381D01*
G37*
G36*
G01X-7117039Y4981705D02*
G01X-7120377Y4981422D01*
G01X-7125085Y4982258D01*
G01X-7129496Y4983812D01*
G01X-7134422Y4986292D01*
G01X-7139260Y4989358D01*
G01X-7143411Y4992667D01*
G01X-7147496Y4995957D01*
G01X-7152154Y4998971D01*
G01X-7156812Y5001377D01*
G01X-7160896Y5002839D01*
G01X-7165334Y5004663D01*
G01X-7170955Y5008053D01*
G01X-7177037Y5012525D01*
G01X-7182861Y5017595D01*
G01X-7189463Y5024334D01*
G01X-7197665Y5033349D01*
G01X-7214691Y5053495D01*
G01X-7225131Y5065599D01*
G01X-7239799Y5081348D01*
G01X-7256748Y5098704D01*
G01X-7274032Y5115628D01*
G01X-7297243Y5138053D01*
G01X-7304467Y5145551D01*
G01X-7309367Y5151371D01*
G01X-7312393Y5156110D01*
G01X-7313993Y5160365D01*
G01X-7314616Y5164734D01*
G01X-7314710Y5169816D01*
G01X-7314303Y5177410D01*
G01X-7313234Y5186755D01*
G01X-7311665Y5196665D01*
G01X-7309760Y5205953D01*
G01X-7307369Y5214391D01*
G01X-7304478Y5221982D01*
G01X-7301452Y5227895D01*
G01X-7300002Y5229963D01*
G01X-7298655Y5231299D01*
G01X-7293051Y5234505D01*
G01X-7290398Y5235480D01*
G01X-7288297Y5235838D01*
G01X-7286414Y5235493D01*
G01X-7284355Y5234554D01*
G01X-7282368Y5233165D01*
G01X-7280703Y5231468D01*
G01X-7273509Y5219090D01*
G01X-7261052Y5195467D01*
G01X-7252831Y5180223D01*
G01X-7242426Y5162099D01*
G01X-7231171Y5143365D01*
G01X-7220401Y5126292D01*
G01X-7208867Y5109420D01*
G01X-7195535Y5091236D01*
G01X-7182056Y5073926D01*
G01X-7170081Y5059675D01*
G01X-7150607Y5036900D01*
G01X-7143749Y5028227D01*
G01X-7140120Y5022968D01*
G01X-7137537Y5019091D01*
G01X-7133524Y5014178D01*
G01X-7128631Y5008859D01*
G01X-7123405Y5003764D01*
G01X-7117771Y4998136D01*
G01X-7114269Y4993457D01*
G01X-7113277Y4991403D01*
G01X-7112769Y4989501D01*
G01X-7112728Y4987724D01*
G01X-7113139Y4986042D01*
G01X-7114736Y4983210D01*
G01X-7115779Y4982298D01*
G01X-7117039Y4981705D01*
G37*
G36*
G01X-4860484Y6532350D02*
G01X-4909130Y6489927D01*
G01X-4932170Y6470057D01*
G01X-4952593Y6504073D01*
G01X-4977458Y6544015D01*
G01X-5008558Y6592278D01*
G01X-5046606Y6650835D01*
G01X-5046681Y6651454D01*
G01X-5046122Y6652016D01*
G01X-5042870Y6652977D01*
G01X-5036377Y6653737D01*
G01X-5026172Y6654317D01*
G01X-4992745Y6655009D01*
G01X-4938818Y6655205D01*
G01X-4828523Y6655205D01*
G01X-4826496Y6645591D01*
G01X-4824100Y6637018D01*
G01X-4821184Y6629907D01*
G01X-4819908Y6626219D01*
G01X-4818864Y6620663D01*
G01X-4818158Y6613994D01*
G01X-4817898Y6606963D01*
G01X-4818468Y6598632D01*
G01X-4820124Y6589901D01*
G01X-4822790Y6581085D01*
G01X-4826389Y6572496D01*
G01X-4828777Y6568026D01*
G01X-4831703Y6563395D01*
G01X-4839167Y6553660D01*
G01X-4848765Y6543306D01*
G01X-4860484Y6532350D01*
G37*
G36*
G01X-6989365Y5220634D02*
G01X-6989722Y5220034D01*
G01X-6990194Y5219892D01*
G01X-6991492Y5220994D01*
G01X-6993271Y5223968D01*
G01X-6995541Y5228839D01*
G01X-7001604Y5244379D01*
G01X-7009773Y5267829D01*
G01X-7017935Y5293078D01*
G01X-7026800Y5322158D01*
G01X-7035297Y5351472D01*
G01X-7042358Y5377425D01*
G01X-7056872Y5433361D01*
G01X-7060384Y5609969D01*
G01X-7039826Y5629138D01*
G01X-7030407Y5637556D01*
G01X-7019959Y5646304D01*
G01X-7009753Y5654349D01*
G01X-7001062Y5660656D01*
G01X-6987585Y5670379D01*
G01X-6983003Y5674117D01*
G01X-6980748Y5676416D01*
G01X-6979638Y5677741D01*
G01X-6978174Y5678825D01*
G01X-6976547Y5679558D01*
G01X-6974946Y5679827D01*
G01X-6974096Y5679054D01*
G01X-6973431Y5676716D01*
G01X-6972659Y5667232D01*
G01X-6972621Y5651155D01*
G01X-6973313Y5628262D01*
G01X-6975331Y5567710D01*
G01X-6977292Y5494540D01*
G01X-6979113Y5430356D01*
G01X-6980795Y5391409D01*
G01X-6982595Y5355543D01*
G01X-6984703Y5298766D01*
G01X-6987032Y5246251D01*
G01X-6988275Y5228799D01*
G01X-6989365Y5220634D01*
G37*
G36*
G01X-7327858Y6479329D02*
G01X-7342952Y6452637D01*
G01X-7354927Y6430112D01*
G01X-7357491Y6443897D01*
G01X-7358671Y6452991D01*
G01X-7359990Y6467559D01*
G01X-7362398Y6505090D01*
G01X-7363534Y6532693D01*
G01X-7363525Y6542411D01*
G01X-7363010Y6550584D01*
G01X-7361896Y6558096D01*
G01X-7360093Y6565830D01*
G01X-7354048Y6585498D01*
G01X-7345873Y6611628D01*
G01X-7341233Y6628112D01*
G01X-7339111Y6637726D01*
G01X-7283019Y6637726D01*
G01X-7255838Y6637524D01*
G01X-7239036Y6636824D01*
G01X-7233978Y6636243D01*
G01X-7230857Y6635483D01*
G01X-7229453Y6634526D01*
G01X-7229546Y6633356D01*
G01X-7258976Y6588782D01*
G01X-7284548Y6549605D01*
G01X-7308382Y6511870D01*
G01X-7327858Y6479329D01*
G37*
G36*
G01X-5095338Y2276763D02*
G01X-5095434Y2275804D01*
G01X-5097011Y2275358D01*
G01X-5099827Y2275625D01*
G01X-5103482Y2276530D01*
G01X-5107579Y2278003D01*
G01X-5112410Y2280555D01*
G01X-5118065Y2284396D01*
G01X-5123840Y2289007D01*
G01X-5129031Y2293868D01*
G01X-5134394Y2300699D01*
G01X-5140635Y2310677D01*
G01X-5146980Y2322461D01*
G01X-5152653Y2334711D01*
G01X-5165897Y2366966D01*
G01X-5180447Y2403537D01*
G01X-5188593Y2425514D01*
G01X-5191496Y2434662D01*
G01X-5193791Y2443298D01*
G01X-5195604Y2451960D01*
G01X-5197062Y2461185D01*
G01X-5199427Y2483474D01*
G01X-5201528Y2512302D01*
G01X-5201878Y2521360D01*
G01X-5201662Y2525031D01*
G01X-5200675Y2524080D01*
G01X-5198920Y2520556D01*
G01X-5194103Y2508021D01*
G01X-5177894Y2463527D01*
G01X-5167802Y2435023D01*
G01X-5157462Y2403310D01*
G01X-5152453Y2388655D01*
G01X-5146588Y2373882D01*
G01X-5140597Y2360714D01*
G01X-5135210Y2350871D01*
G01X-5122509Y2329823D01*
G01X-5108453Y2305116D01*
G01X-5102778Y2294354D01*
G01X-5098432Y2285240D01*
G01X-5095842Y2278736D01*
G01X-5095338Y2276763D01*
G37*
G36*
G01X-7408559Y4692600D02*
G01X-7409425Y4692430D01*
G01X-7410773Y4692645D01*
G01X-7414643Y4694101D01*
G01X-7419624Y4696718D01*
G01X-7425171Y4700244D01*
G01X-7436018Y4708015D01*
G01X-7442871Y4713428D01*
G01X-7458282Y4726754D01*
G01X-7469684Y4736345D01*
G01X-7481423Y4840058D01*
G01X-7489373Y4914331D01*
G01X-7491525Y4937722D01*
G01X-7492000Y4947260D01*
G01X-7491682Y4947534D01*
G01X-7491223Y4946964D01*
G01X-7489969Y4943578D01*
G01X-7486719Y4929827D01*
G01X-7484271Y4919084D01*
G01X-7480649Y4905303D01*
G01X-7471837Y4875722D01*
G01X-7462884Y4850177D01*
G01X-7459110Y4840764D01*
G01X-7456476Y4835356D01*
G01X-7448913Y4820140D01*
G01X-7437182Y4793647D01*
G01X-7430383Y4778514D01*
G01X-7422737Y4762832D01*
G01X-7415180Y4748451D01*
G01X-7408649Y4737225D01*
G01X-7400920Y4724618D01*
G01X-7398687Y4720312D01*
G01X-7397422Y4716876D01*
G01X-7397034Y4713960D01*
G01X-7397432Y4711218D01*
G01X-7398526Y4708303D01*
G01X-7400226Y4704866D01*
G01X-7404906Y4696947D01*
G01X-7406997Y4694126D01*
G01X-7408559Y4692600D01*
G37*
G36*
G01X-4650042Y2593792D02*
G01X-4651040Y2593147D01*
G01X-4653440Y2592878D01*
G01X-4657390Y2595267D01*
G01X-4665632Y2601770D01*
G01X-4676962Y2611395D01*
G01X-4690174Y2623149D01*
G01X-4706172Y2638157D01*
G01X-4716990Y2649583D01*
G01X-4720742Y2654287D01*
G01X-4723543Y2658497D01*
G01X-4725507Y2662349D01*
G01X-4726748Y2665975D01*
G01X-4728329Y2674007D01*
G01X-4730239Y2686596D01*
G01X-4734084Y2718545D01*
G01X-4735509Y2736449D01*
G01X-4736302Y2755127D01*
G01X-4736412Y2772556D01*
G01X-4735789Y2786716D01*
G01X-4732838Y2813277D01*
G01X-4729099Y2837597D01*
G01X-4726765Y2849196D01*
G01X-4725155Y2854623D01*
G01X-4724503Y2855245D01*
G01X-4723888Y2854595D01*
G01X-4722578Y2849833D01*
G01X-4718164Y2823613D01*
G01X-4716225Y2813301D01*
G01X-4712566Y2796855D01*
G01X-4702184Y2754614D01*
G01X-4695317Y2729724D01*
G01X-4686812Y2701331D01*
G01X-4677752Y2672933D01*
G01X-4669218Y2648026D01*
G01X-4650042Y2593792D01*
G37*
G36*
G01X-7380926Y5496973D02*
G01X-7373968Y5469689D01*
G01X-7422173Y5420339D01*
G01X-7424711Y5461810D01*
G01X-7426215Y5480119D01*
G01X-7428431Y5499314D01*
G01X-7431062Y5517117D01*
G01X-7433810Y5531248D01*
G01X-7436662Y5545142D01*
G01X-7439578Y5562297D01*
G01X-7442217Y5580533D01*
G01X-7444236Y5597672D01*
G01X-7445549Y5614259D01*
G01X-7446268Y5630993D01*
G01X-7446344Y5645925D01*
G01X-7445727Y5657103D01*
G01X-7444547Y5665739D01*
G01X-7443089Y5673744D01*
G01X-7441539Y5680227D01*
G01X-7440081Y5684295D01*
G01X-7438563Y5686555D01*
G01X-7436847Y5688115D01*
G01X-7435144Y5688832D01*
G01X-7433665Y5688569D01*
G01X-7433011Y5688591D01*
G01X-7432358Y5689408D01*
G01X-7431123Y5693130D01*
G01X-7430100Y5699135D01*
G01X-7429426Y5706824D01*
G01X-7428332Y5727023D01*
G01X-7425418Y5713039D01*
G01X-7405195Y5611656D01*
G01X-7390925Y5541915D01*
G01X-7380926Y5496973D01*
G37*
G36*
G01X-3596099Y3713635D02*
G01X-3602288Y3712267D01*
G01X-3608340Y3712219D01*
G01X-3614613Y3713237D01*
G01X-3616791Y3714128D01*
G01X-3618486Y3715438D01*
G01X-3619817Y3717290D01*
G01X-3620902Y3719806D01*
G01X-3622802Y3727323D01*
G01X-3623761Y3733714D01*
G01X-3623951Y3739712D01*
G01X-3623382Y3745018D01*
G01X-3622064Y3749338D01*
G01X-3620646Y3753201D01*
G01X-3619477Y3757785D01*
G01X-3618678Y3762515D01*
G01X-3618370Y3766817D01*
G01X-3617577Y3774651D01*
G01X-3616749Y3777936D01*
G01X-3615747Y3780215D01*
G01X-3610610Y3785091D01*
G01X-3598524Y3795450D01*
G01X-3560723Y3826534D01*
G01X-3539889Y3842987D01*
G01X-3521939Y3856460D01*
G01X-3508789Y3865564D01*
G01X-3504612Y3868043D01*
G01X-3502354Y3868908D01*
G01X-3499876Y3868615D01*
G01X-3497501Y3867815D01*
G01X-3495497Y3866630D01*
G01X-3494136Y3865183D01*
G01X-3493241Y3862804D01*
G01X-3492508Y3859083D01*
G01X-3491831Y3849654D01*
G01X-3492530Y3843548D01*
G01X-3494431Y3835644D01*
G01X-3497244Y3826965D01*
G01X-3500680Y3818531D01*
G01X-3505058Y3809796D01*
G01X-3510435Y3800296D01*
G01X-3516129Y3791178D01*
G01X-3521460Y3783588D01*
G01X-3534960Y3767006D01*
G01X-3550662Y3749076D01*
G01X-3558506Y3740988D01*
G01X-3567096Y3732931D01*
G01X-3575393Y3725838D01*
G01X-3582356Y3720642D01*
G01X-3589535Y3716401D01*
G01X-3596099Y3713635D01*
G37*
G36*
G01X-7272150Y4495128D02*
G01X-7294767Y4492450D01*
G01X-7320299Y4490292D01*
G01X-7368239Y4536574D01*
G01X-7402096Y4570175D01*
G01X-7412396Y4581108D01*
G01X-7415200Y4584399D01*
G01X-7416178Y4585969D01*
G01X-7415971Y4587139D01*
G01X-7415408Y4588025D01*
G01X-7414574Y4588539D01*
G01X-7413555Y4588596D01*
G01X-7374578Y4585125D01*
G01X-7355509Y4583267D01*
G01X-7342777Y4581082D01*
G01X-7338037Y4579683D01*
G01X-7333982Y4577981D01*
G01X-7330312Y4575903D01*
G01X-7326727Y4573376D01*
G01X-7317769Y4567166D01*
G01X-7314392Y4565263D01*
G01X-7312375Y4564547D01*
G01X-7310162Y4563768D01*
G01X-7306245Y4561696D01*
G01X-7295516Y4554933D01*
G01X-7288362Y4549531D01*
G01X-7279237Y4541884D01*
G01X-7269313Y4533009D01*
G01X-7259764Y4523924D01*
G01X-7238016Y4502466D01*
G01X-7253626Y4498537D01*
G01X-7261701Y4496841D01*
G01X-7272150Y4495128D01*
G37*
G36*
G01X-6876182Y4508375D02*
G01X-6886682Y4507236D01*
G01X-6900594Y4506223D01*
G01X-6909686Y4506355D01*
G01X-6912936Y4506905D01*
G01X-6915596Y4507805D01*
G01X-6917869Y4509079D01*
G01X-6919961Y4510746D01*
G01X-6922542Y4512356D01*
G01X-6927394Y4514665D01*
G01X-6942786Y4520950D01*
G01X-6963890Y4528735D01*
G01X-6988458Y4537153D01*
G01X-7033135Y4552543D01*
G01X-7047450Y4557949D01*
G01X-7053568Y4560795D01*
G01X-7054296Y4562391D01*
G01X-7053700Y4564246D01*
G01X-7051870Y4566215D01*
G01X-7048898Y4568156D01*
G01X-7044305Y4569907D01*
G01X-7037593Y4571574D01*
G01X-7029665Y4572969D01*
G01X-7021421Y4573903D01*
G01X-7010211Y4574188D01*
G01X-7004801Y4573749D01*
G01X-6999150Y4572851D01*
G01X-6986009Y4569457D01*
G01X-6968561Y4563569D01*
G01X-6952564Y4557496D01*
G01X-6933567Y4549746D01*
G01X-6913947Y4541317D01*
G01X-6896083Y4533203D01*
G01X-6880965Y4525827D01*
G01X-6868819Y4519407D01*
G01X-6860883Y4514631D01*
G01X-6858880Y4513075D01*
G01X-6858393Y4512189D01*
G01X-6861110Y4511015D01*
G01X-6867349Y4509689D01*
G01X-6876182Y4508375D01*
G37*
G36*
G01X-2811754Y616775D02*
G01X-2810063Y601918D01*
G01X-2817460Y612940D01*
G01X-2820595Y618695D01*
G01X-2823662Y626215D01*
G01X-2826309Y634528D01*
G01X-2828184Y642656D01*
G01X-2832528Y662534D01*
G01X-2838298Y684074D01*
G01X-2843230Y698582D01*
G01X-2844838Y701797D01*
G01X-2845323Y702143D01*
G01X-2845556Y701554D01*
G01X-2845985Y700007D01*
G01X-2846349Y699820D01*
G01X-2846800Y700013D01*
G01X-2847927Y701514D01*
G01X-2849291Y704450D01*
G01X-2850582Y709176D01*
G01X-2851683Y716024D01*
G01X-2852478Y724077D01*
G01X-2852849Y732418D01*
G01X-2852339Y743159D01*
G01X-2850456Y755044D01*
G01X-2847122Y768438D01*
G01X-2842263Y783709D01*
G01X-2833410Y808241D01*
G01X-2827402Y823039D01*
G01X-2825639Y826093D01*
G01X-2823782Y828594D01*
G01X-2822053Y830284D01*
G01X-2820672Y830905D01*
G01X-2819467Y830008D01*
G01X-2818219Y827567D01*
G01X-2817073Y823955D01*
G01X-2816179Y819543D01*
G01X-2814403Y804330D01*
G01X-2812586Y783709D01*
G01X-2810619Y748339D01*
G01X-2808481Y697667D01*
G01X-2807719Y670621D01*
G01X-2807691Y650958D01*
G01X-2808396Y638698D01*
G01X-2809023Y635352D01*
G01X-2809833Y633864D01*
G01X-2810537Y633112D01*
G01X-2811123Y631839D01*
G01X-2811910Y627979D01*
G01X-2812140Y622790D01*
G01X-2811754Y616775D01*
G37*
G36*
G01X-5355973Y6616455D02*
G01X-5362503Y6608394D01*
G01X-5385900Y6623060D01*
G01X-5402854Y6633417D01*
G01X-5410759Y6637726D01*
G01X-5415155Y6639776D01*
G01X-5423671Y6644704D01*
G01X-5435121Y6651683D01*
G01X-5381792Y6651696D01*
G01X-5359835Y6651460D01*
G01X-5343017Y6650776D01*
G01X-5332254Y6649705D01*
G01X-5329429Y6649042D01*
G01X-5328462Y6648303D01*
G01X-5329290Y6646553D01*
G01X-5331544Y6644304D01*
G01X-5334880Y6641848D01*
G01X-5338953Y6639474D01*
G01X-5343027Y6636992D01*
G01X-5346362Y6634243D01*
G01X-5348616Y6631562D01*
G01X-5349444Y6629283D01*
G01X-5349959Y6626796D01*
G01X-5351362Y6623549D01*
G01X-5353438Y6619961D01*
G01X-5355973Y6616455D01*
G37*
G36*
G01X-3871802Y3750717D02*
G01X-3873874Y3750709D01*
G01X-3874334Y3751230D01*
G01X-3874413Y3752303D01*
G01X-3873521Y3755840D01*
G01X-3871386Y3760798D01*
G01X-3868193Y3766653D01*
G01X-3862755Y3775194D01*
G01X-3860410Y3777832D01*
G01X-3857871Y3779610D01*
G01X-3854805Y3780697D01*
G01X-3850880Y3781262D01*
G01X-3839120Y3781511D01*
G01X-3824173Y3780832D01*
G01X-3819098Y3780097D01*
G01X-3816606Y3779199D01*
G01X-3816387Y3778568D01*
G01X-3816657Y3777656D01*
G01X-3818508Y3775164D01*
G01X-3821838Y3772068D01*
G01X-3826328Y3768711D01*
G01X-3831444Y3765536D01*
G01X-3836475Y3762937D01*
G01X-3840843Y3761180D01*
G01X-3843969Y3760535D01*
G01X-3846978Y3760104D01*
G01X-3851027Y3758932D01*
G01X-3860128Y3755079D01*
G01X-3864478Y3753046D01*
G01X-3868519Y3751544D01*
G01X-3871802Y3750717D01*
G37*
G36*
G01X-6816328Y4519843D02*
G01X-6818384Y4519162D01*
G01X-6819666Y4519549D01*
G01X-6820716Y4520602D01*
G01X-6821426Y4522161D01*
G01X-6821686Y4524064D01*
G01X-6820817Y4526271D01*
G01X-6818451Y4528654D01*
G01X-6814949Y4530927D01*
G01X-6810673Y4532804D01*
G01X-6802278Y4535482D01*
G01X-6797560Y4536532D01*
G01X-6797338Y4536334D01*
G01X-6797518Y4535808D01*
G01X-6798958Y4533919D01*
G01X-6805270Y4527792D01*
G01X-6813170Y4521697D01*
G01X-6816328Y4519843D01*
G37*
G36*
G01X-4841426Y2774827D02*
G01X-4837049Y2766803D01*
G01X-4831540Y2755441D01*
G01X-4838707Y2763694D01*
G01X-4843769Y2770436D01*
G01X-4845309Y2773198D01*
G01X-4845874Y2775056D01*
G01X-4845387Y2777252D01*
G01X-4844860Y2777920D01*
G01X-4844216Y2778165D01*
G01X-4843137Y2777268D01*
G01X-4841426Y2774827D01*
G37*
G36*
G01X-7371669Y4488099D02*
G01X-7372382Y4487840D01*
G01X-7375568Y4488195D01*
G01X-7378360Y4489301D01*
G01X-7381082Y4491389D01*
G01X-7383423Y4494160D01*
G01X-7385072Y4497313D01*
G01X-7386822Y4502868D01*
G01X-7387120Y4504558D01*
G01X-7386951Y4505178D01*
G01X-7383735Y4502500D01*
G01X-7377446Y4496061D01*
G01X-7373212Y4491312D01*
G01X-7371560Y4488725D01*
G01X-7371669Y4488099D01*
G37*
G36*
G01X-4727119Y6640451D02*
G01X-4728775Y6639171D01*
G01X-4729913Y6639011D01*
G01X-4730362Y6640062D01*
G01X-4731064Y6644570D01*
G01X-4732596Y6649676D01*
G01X-4733161Y6652212D01*
G01X-4732524Y6653927D01*
G01X-4730612Y6654899D01*
G01X-4727350Y6655205D01*
G01X-4724489Y6654982D01*
G01X-4722146Y6654375D01*
G01X-4720563Y6653476D01*
G01X-4719982Y6652378D01*
G01X-4720387Y6650744D01*
G01X-4721490Y6648387D01*
G01X-4725116Y6642764D01*
G01X-4727119Y6640451D01*
G37*
G04 Image End*

G04 PolygonModel Start*
G54D10*
G01X-7707665Y-2930D02*
G01X-7357665Y-2930D01*
G01X-2956465Y-2930D02*
G01X-2606465Y-2930D01*
G01X-5007665Y-2930D02*
G01X-4657665Y-2930D01*
G01X-4332665Y-2930D02*
G01X-3982665Y-2930D01*
G01X-7032665Y-2930D02*
G01X-6682665Y-2930D01*
G01X-3657665Y-2930D02*
G01X-3307665Y-2930D01*
G01X-6357665Y-2930D02*
G01X-6007665Y-2930D01*
G01X-5682665Y-2930D02*
G01X-5332665Y-2930D01*

G04 Rect Start*
G01X-7505700Y495300D02*
G01X-7505700Y6692900D01*
G01X-2806700Y6692900D01*
G01X-2806700Y495300D01*
G01X-7505700Y495300D01*
G04 Rect End*

G04 Pad Start*
G54D11*
G01X-7188200Y7124700D03*
G01X-6838200Y7124700D03*
G01X-6473100Y7124700D03*
G01X-6108700Y7124700D03*
G01X-4196091Y7126300D03*
G01X-3846091Y7126300D03*
G01X-3480991Y7126300D03*
G01X-3116591Y7126300D03*
G04 Pad End*

G04 Via Start*
G54D12*
G01X-6613195Y-203200D03*
G01X-5209540Y-309880D03*
G01X-5081702Y-703301D03*
G01X-6595101Y-295699D03*
G04 Via End*

G04 Track Start*
G54D10*
G01X-6613195Y-203200D02*
G01X-6511595Y-304800D01*
G01X-5214620Y-304800D01*
G01X-5209540Y-309880D01*
G01X-6595101Y-295699D02*
G01X-6187499Y-703301D01*
G01X-5081702Y-703301D01*
G04 Track End*

M02*

