G04 Layer: BottomSolderMaskLayer*
G04 EasyEDA Pro v3.2.148, 2026-07-02 20:03:51*
G04 Gerber Generator version 0.3*
G04 Scale: 100 percent, Rotated: No, Reflected: No*
G04 Dimensions in millimeters*
G04 Leading zeros omitted, absolute positions, 4 integers and 5 decimals*
G04 Generated by one-click*
G04 Object Configs: Pad,Via,Track,Text,Image,Dimension,BoardOutline,BoardCutout,CopperFilled,SolidRegion,FPCStiffener,Line,PlaneZone,ComponentProperty,ComponentSilkscreen,TearDrop*
G04 Layer Configs: 1,2,3,4,5,6,7,8,9,10,11,13,14,56*
G04 Copper Areas: 0*
%FSLAX45Y45*%
%MOMM*%
%ADD10C,1.6256*%
%ADD11C,0.9646*%
G75*


G04 Image Start*
G36*
G01X-6853317Y1821070D02*
G01X-6853317Y1821070D01*
G01X-6851032Y1803795D01*
G01X-6851032Y1803795D01*
G01X-6848411Y1782261D01*
G01X-6848411Y1782261D01*
G01X-6845711Y1754689D01*
G01X-6845711Y1754689D01*
G01X-6843576Y1731037D01*
G01X-6843576Y1731037D01*
G01X-6841436Y1715909D01*
G01X-6841436Y1715909D01*
G01X-6839588Y1691518D01*
G01X-6839588Y1691518D01*
G01X-6837386Y1676050D01*
G01X-6837386Y1676050D01*
G01X-6834696Y1653177D01*
G01X-6834696Y1653177D01*
G01X-6831923Y1630105D01*
G01X-6831923Y1630105D01*
G01X-6829266Y1606446D01*
G01X-6829266Y1606446D01*
G01X-6827124Y1585273D01*
G01X-6827124Y1585273D01*
G01X-6825003Y1576928D01*
G01X-6825003Y1576928D01*
G01X-6823180Y1557862D01*
G01X-6823180Y1557862D01*
G01X-6820951Y1543621D01*
G01X-6820951Y1543621D01*
G01X-6818287Y1526658D01*
G01X-6818287Y1526658D01*
G01X-6816104Y1510746D01*
G01X-6816104Y1510746D01*
G01X-6814052Y1502476D01*
G01X-6814052Y1502476D01*
G01X-6812260Y1486192D01*
G01X-6812260Y1486192D01*
G01X-6809851Y1474428D01*
G01X-6809851Y1474428D01*
G01X-6807255Y1459550D01*
G01X-6807255Y1459550D01*
G01X-6804598Y1443749D01*
G01X-6804598Y1443749D01*
G01X-6801782Y1430786D01*
G01X-6801782Y1430786D01*
G01X-6799168Y1418333D01*
G01X-6799168Y1418333D01*
G01X-6796491Y1405149D01*
G01X-6796491Y1405149D01*
G01X-6793634Y1393039D01*
G01X-6793634Y1393039D01*
G01X-6790817Y1381457D01*
G01X-6790817Y1381457D01*
G01X-6788073Y1369956D01*
G01X-6788073Y1369956D01*
G01X-6785485Y1359722D01*
G01X-6785485Y1359722D01*
G01X-6782845Y1349430D01*
G01X-6782845Y1349430D01*
G01X-6779929Y1339929D01*
G01X-6779929Y1339929D01*
G01X-6777090Y1330513D01*
G01X-6777090Y1330513D01*
G01X-6774373Y1321910D01*
G01X-6774373Y1321910D01*
G01X-6771668Y1312646D01*
G01X-6771668Y1312646D01*
G01X-6768873Y1303713D01*
G01X-6768873Y1303713D01*
G01X-6766218Y1295586D01*
G01X-6766218Y1295586D01*
G01X-6763420Y1288469D01*
G01X-6763420Y1288469D01*
G01X-6760611Y1281281D01*
G01X-6760611Y1281281D01*
G01X-6758441Y1275806D01*
G01X-6758441Y1275806D01*
G01X-6755273Y1267667D01*
G01X-6755273Y1267667D01*
G01X-6752048Y1259804D01*
G01X-6752048Y1259804D01*
G01X-6749731Y1255024D01*
G01X-6749731Y1255024D01*
G01X-6746957Y1249238D01*
G01X-6746957Y1249238D01*
G01X-6743661Y1242101D01*
G01X-6743661Y1242101D01*
G01X-6741575Y1237030D01*
G01X-6741575Y1237030D01*
G01X-6739391Y1232092D01*
G01X-6739391Y1232092D01*
G01X-6736263Y1226176D01*
G01X-6736263Y1226176D01*
G01X-6732420Y1218518D01*
G01X-6732420Y1218518D01*
G01X-6729521Y1212770D01*
G01X-6729521Y1212770D01*
G01X-6728453Y1211280D01*
G01X-6728453Y1211280D01*
G01X-6725138Y1206353D01*
G01X-6725138Y1206353D01*
G01X-6721897Y1201426D01*
G01X-6721897Y1201426D01*
G01X-6720131Y1198963D01*
G01X-6720131Y1198963D01*
G01X-6716769Y1193404D01*
G01X-6716769Y1193404D01*
G01X-6714180Y1188744D01*
G01X-6714180Y1188744D01*
G01X-6711440Y1184798D01*
G01X-6711440Y1184798D01*
G01X-6708701Y1181422D01*
G01X-6708701Y1181422D01*
G01X-6703919Y1174776D01*
G01X-6703919Y1174776D01*
G01X-6697718Y1166390D01*
G01X-6697718Y1166390D01*
G01X-6694281Y1162222D01*
G01X-6694281Y1162222D01*
G01X-6692263Y1159753D01*
G01X-6692263Y1159753D01*
G01X-6687058Y1153359D01*
G01X-6687058Y1153359D01*
G01X-6675043Y1141047D01*
G01X-6675043Y1141047D01*
G01X-6660063Y1126153D01*
G01X-6660063Y1126153D01*
G01X-6650772Y1118215D01*
G01X-6650772Y1118215D01*
G01X-6648219Y1116198D01*
G01X-6648219Y1116198D01*
G01X-6645567Y1113735D01*
G01X-6645567Y1113735D01*
G01X-6640812Y1110551D01*
G01X-6640812Y1110551D01*
G01X-6632717Y1104259D01*
G01X-6632717Y1104259D01*
G01X-6626505Y1099146D01*
G01X-6626505Y1099146D01*
G01X-6621969Y1096864D01*
G01X-6621969Y1096864D01*
G01X-6616780Y1093492D01*
G01X-6616780Y1093492D01*
G01X-6612958Y1090843D01*
G01X-6612958Y1090843D01*
G01X-6609953Y1089051D01*
G01X-6609953Y1089051D01*
G01X-6603791Y1085258D01*
G01X-6603791Y1085258D01*
G01X-6599119Y1082296D01*
G01X-6599119Y1082296D01*
G01X-6594914Y1080077D01*
G01X-6594914Y1080077D01*
G01X-6588717Y1076619D01*
G01X-6588717Y1076619D01*
G01X-6585419Y1074420D01*
G01X-6585419Y1074420D01*
G01X-6581585Y1072230D01*
G01X-6581585Y1072230D01*
G01X-6577281Y1070040D01*
G01X-6577281Y1070040D01*
G01X-6568956Y1066790D01*
G01X-6568956Y1066790D01*
G01X-6561187Y1063505D01*
G01X-6561187Y1063505D01*
G01X-6557334Y1061404D01*
G01X-6557334Y1061404D01*
G01X-6550482Y1058171D01*
G01X-6550482Y1058171D01*
G01X-6544472Y1055466D01*
G01X-6544472Y1055466D01*
G01X-6537300Y1052616D01*
G01X-6537300Y1052616D01*
G01X-6529208Y1049177D01*
G01X-6529208Y1049177D01*
G01X-6523633Y1047038D01*
G01X-6523633Y1047038D01*
G01X-6515288Y1044335D01*
G01X-6515288Y1044335D01*
G01X-6508123Y1041608D01*
G01X-6508123Y1041608D01*
G01X-6502236Y1039434D01*
G01X-6502236Y1039434D01*
G01X-6492143Y1036071D01*
G01X-6492143Y1036071D01*
G01X-6484800Y1033400D01*
G01X-6484800Y1033400D01*
G01X-6476128Y1030828D01*
G01X-6476128Y1030828D01*
G01X-6466252Y1027967D01*
G01X-6466252Y1027967D01*
G01X-6455703Y1025240D01*
G01X-6455703Y1025240D01*
G01X-6445182Y1022531D01*
G01X-6445182Y1022531D01*
G01X-6434542Y1019601D01*
G01X-6434542Y1019601D01*
G01X-6424256Y1016945D01*
G01X-6424256Y1016945D01*
G01X-6413003Y1014416D01*
G01X-6413003Y1014416D01*
G01X-6401226Y1011501D01*
G01X-6401226Y1011501D01*
G01X-6389086Y1008708D01*
G01X-6389086Y1008708D01*
G01X-6377140Y1006041D01*
G01X-6377140Y1006041D01*
G01X-6363882Y1003234D01*
G01X-6363882Y1003234D01*
G01X-6350783Y1000530D01*
G01X-6350783Y1000530D01*
G01X-6336088Y997775D01*
G01X-6336088Y997775D01*
G01X-6320939Y995167D01*
G01X-6320939Y995167D01*
G01X-6305987Y992358D01*
G01X-6305987Y992358D01*
G01X-6290726Y989452D01*
G01X-6290726Y989452D01*
G01X-6275637Y986858D01*
G01X-6275637Y986858D01*
G01X-6260214Y984180D01*
G01X-6260214Y984180D01*
G01X-6243047Y981327D01*
G01X-6243047Y981327D01*
G01X-6224966Y978546D01*
G01X-6224966Y978546D01*
G01X-6207388Y975818D01*
G01X-6207388Y975818D01*
G01X-6190951Y973191D01*
G01X-6190951Y973191D01*
G01X-6181089Y970507D01*
G01X-6181089Y970507D01*
G01X-6173017Y967763D01*
G01X-6173017Y967763D01*
G01X-6173902Y964952D01*
G01X-6173902Y964952D01*
G01X-6187454Y962603D01*
G01X-6187454Y962603D01*
G01X-6202979Y959828D01*
G01X-6202979Y959828D01*
G01X-6219417Y957570D01*
G01X-6219417Y957570D01*
G01X-6233737Y955610D01*
G01X-6233737Y955610D01*
G01X-6244148Y953057D01*
G01X-6244148Y953057D01*
G01X-6258866Y951232D01*
G01X-6258866Y951232D01*
G01X-6270920Y948947D01*
G01X-6270920Y948947D01*
G01X-6287358Y946255D01*
G01X-6287358Y946255D01*
G01X-6302545Y943510D01*
G01X-6302545Y943510D01*
G01X-6318245Y940775D01*
G01X-6318245Y940775D01*
G01X-6332192Y938068D01*
G01X-6332192Y938068D01*
G01X-6345771Y935390D01*
G01X-6345771Y935390D01*
G01X-6360796Y932696D01*
G01X-6360796Y932696D01*
G01X-6374226Y929794D01*
G01X-6374226Y929794D01*
G01X-6385953Y927080D01*
G01X-6385953Y927080D01*
G01X-6398347Y924614D01*
G01X-6398347Y924614D01*
G01X-6410401Y921959D01*
G01X-6410401Y921959D01*
G01X-6420811Y919087D01*
G01X-6420811Y919087D01*
G01X-6431820Y916231D01*
G01X-6431820Y916231D01*
G01X-6442900Y913412D01*
G01X-6442900Y913412D01*
G01X-6453063Y910655D01*
G01X-6453063Y910655D01*
G01X-6455370Y909071D01*
G01X-6455370Y909071D01*
G01X-6463727Y907950D01*
G01X-6463727Y907950D01*
G01X-6473169Y905197D01*
G01X-6473169Y905197D01*
G01X-6481885Y902436D01*
G01X-6481885Y902436D01*
G01X-6491493Y899188D01*
G01X-6491493Y899188D01*
G01X-6497097Y897049D01*
G01X-6497097Y897049D01*
G01X-6504102Y894841D01*
G01X-6504102Y894841D01*
G01X-6513948Y891433D01*
G01X-6513948Y891433D01*
G01X-6521315Y888796D01*
G01X-6521315Y888796D01*
G01X-6528438Y886012D01*
G01X-6528438Y886012D01*
G01X-6536109Y883166D01*
G01X-6536109Y883166D01*
G01X-6542684Y880497D01*
G01X-6542684Y880497D01*
G01X-6548729Y877849D01*
G01X-6548729Y877849D01*
G01X-6555583Y875207D01*
G01X-6555583Y875207D01*
G01X-6562963Y871861D01*
G01X-6562963Y871861D01*
G01X-6567804Y869677D01*
G01X-6567804Y869677D01*
G01X-6573557Y867082D01*
G01X-6573557Y867082D01*
G01X-6580102Y863735D01*
G01X-6580102Y863735D01*
G01X-6585477Y860856D01*
G01X-6585477Y860856D01*
G01X-6589093Y858728D01*
G01X-6589093Y858728D01*
G01X-6594676Y856166D01*
G01X-6594676Y856166D01*
G01X-6601748Y851513D01*
G01X-6601748Y851513D01*
G01X-6607265Y847779D01*
G01X-6607265Y847779D01*
G01X-6613267Y843947D01*
G01X-6613267Y843947D01*
G01X-6619962Y839294D01*
G01X-6619962Y839294D01*
G01X-6624036Y836831D01*
G01X-6624036Y836831D01*
G01X-6628261Y834054D01*
G01X-6628261Y834054D01*
G01X-6637008Y827552D01*
G01X-6637008Y827552D01*
G01X-6643991Y822117D01*
G01X-6643991Y822117D01*
G01X-6646482Y820407D01*
G01X-6646482Y820407D01*
G01X-6652810Y815042D01*
G01X-6652810Y815042D01*
G01X-6660274Y808978D01*
G01X-6660274Y808978D01*
G01X-6664247Y805584D01*
G01X-6664247Y805584D01*
G01X-6667457Y802889D01*
G01X-6667457Y802889D01*
G01X-6670148Y800152D01*
G01X-6670148Y800152D01*
G01X-6672944Y797415D01*
G01X-6672944Y797415D01*
G01X-6675127Y794951D01*
G01X-6675127Y794951D01*
G01X-6681334Y787013D01*
G01X-6681334Y787013D01*
G01X-6695064Y771917D01*
G01X-6695064Y771917D01*
G01X-6703222Y760900D01*
G01X-6703222Y760900D01*
G01X-6706509Y756357D01*
G01X-6706509Y756357D01*
G01X-6709797Y752375D01*
G01X-6709797Y752375D01*
G01X-6713358Y746465D01*
G01X-6713358Y746465D01*
G01X-6719892Y736830D01*
G01X-6719892Y736830D01*
G01X-6724398Y728985D01*
G01X-6724398Y728985D01*
G01X-6728274Y723614D01*
G01X-6728274Y723614D01*
G01X-6730617Y719721D01*
G01X-6730617Y719721D01*
G01X-6733357Y714204D01*
G01X-6733357Y714204D01*
G01X-6736096Y708686D01*
G01X-6736096Y708686D01*
G01X-6738266Y704917D01*
G01X-6738266Y704917D01*
G01X-6741130Y699263D01*
G01X-6741130Y699263D01*
G01X-6743785Y693079D01*
G01X-6743785Y693079D01*
G01X-6746978Y686021D01*
G01X-6746978Y686021D01*
G01X-6749915Y679750D01*
G01X-6749915Y679750D01*
G01X-6752748Y673970D01*
G01X-6752748Y673970D01*
G01X-6755943Y667267D01*
G01X-6755943Y667267D01*
G01X-6758013Y661452D01*
G01X-6758013Y661452D01*
G01X-6760752Y653123D01*
G01X-6760752Y653123D01*
G01X-6763492Y645984D01*
G01X-6763492Y645984D01*
G01X-6764752Y641596D01*
G01X-6764752Y641596D01*
G01X-6766969Y638576D01*
G01X-6766969Y638576D01*
G01X-6768964Y631582D01*
G01X-6768964Y631582D01*
G01X-6771493Y623451D01*
G01X-6771493Y623451D01*
G01X-6774226Y614700D01*
G01X-6774226Y614700D01*
G01X-6777098Y605912D01*
G01X-6777098Y605912D01*
G01X-6779386Y599213D01*
G01X-6779386Y599213D01*
G01X-6780577Y590791D01*
G01X-6780577Y590791D01*
G01X-6782735Y585645D01*
G01X-6782735Y585645D01*
G01X-6785321Y576363D01*
G01X-6785321Y576363D01*
G01X-6787997Y565272D01*
G01X-6787997Y565272D01*
G01X-6790928Y552957D01*
G01X-6790928Y552957D01*
G01X-6793855Y540772D01*
G01X-6793855Y540772D01*
G01X-6796453Y529549D01*
G01X-6796453Y529549D01*
G01X-6799049Y518330D01*
G01X-6799049Y518330D01*
G01X-6801845Y504534D01*
G01X-6801845Y504534D01*
G01X-6804522Y490970D01*
G01X-6804522Y490970D01*
G01X-6807230Y475002D01*
G01X-6807230Y475002D01*
G01X-6809974Y459628D01*
G01X-6809974Y459628D01*
G01X-6812693Y444535D01*
G01X-6812693Y444535D01*
G01X-6815441Y427968D01*
G01X-6815441Y427968D01*
G01X-6818202Y409302D01*
G01X-6818202Y409302D01*
G01X-6821008Y390531D01*
G01X-6821008Y390531D01*
G01X-6823852Y369959D01*
G01X-6823852Y369959D01*
G01X-6826633Y350924D01*
G01X-6826633Y350924D01*
G01X-6829304Y329305D01*
G01X-6829304Y329305D01*
G01X-6831989Y305544D01*
G01X-6831989Y305544D01*
G01X-6834699Y282025D01*
G01X-6834699Y282025D01*
G01X-6837462Y259105D01*
G01X-6837462Y259105D01*
G01X-6840261Y235265D01*
G01X-6840261Y235265D01*
G01X-6842984Y209052D01*
G01X-6842984Y209052D01*
G01X-6845656Y182521D01*
G01X-6845656Y182521D01*
G01X-6848327Y156108D01*
G01X-6848327Y156108D01*
G01X-6851044Y133140D01*
G01X-6851044Y133140D01*
G01X-6853657Y113588D01*
G01X-6855177Y110689D01*
G01X-6856441Y113817D01*
G01X-6856441Y113817D01*
G01X-6859288Y129537D01*
G01X-6859288Y129537D01*
G01X-6862025Y148150D01*
G01X-6862025Y148150D01*
G01X-6864371Y176399D01*
G01X-6864371Y176399D01*
G01X-6867100Y202304D01*
G01X-6867100Y202304D01*
G01X-6869712Y226635D01*
G01X-6869712Y226635D01*
G01X-6872369Y251093D01*
G01X-6872369Y251093D01*
G01X-6875209Y274609D01*
G01X-6875209Y274609D01*
G01X-6878028Y298919D01*
G01X-6878028Y298919D01*
G01X-6880719Y322326D01*
G01X-6880719Y322326D01*
G01X-6883373Y345642D01*
G01X-6883373Y345642D01*
G01X-6886190Y366579D01*
G01X-6886190Y366579D01*
G01X-6889078Y387213D01*
G01X-6889078Y387213D01*
G01X-6891693Y404767D01*
G01X-6891693Y404767D01*
G01X-6894297Y421907D01*
G01X-6894297Y421907D01*
G01X-6897057Y439447D01*
G01X-6897057Y439447D01*
G01X-6899892Y456519D01*
G01X-6899892Y456519D01*
G01X-6902691Y470919D01*
G01X-6902691Y470919D01*
G01X-6905447Y485863D01*
G01X-6905447Y485863D01*
G01X-6908204Y500812D01*
G01X-6908204Y500812D01*
G01X-6910919Y514295D01*
G01X-6910919Y514295D01*
G01X-6913541Y526780D01*
G01X-6913541Y526780D01*
G01X-6916294Y538566D01*
G01X-6916294Y538566D01*
G01X-6918011Y541017D01*
G01X-6918011Y541017D01*
G01X-6919127Y551408D01*
G01X-6919127Y551408D01*
G01X-6921897Y563594D01*
G01X-6921897Y563594D01*
G01X-6924683Y573092D01*
G01X-6924683Y573092D01*
G01X-6927243Y581710D01*
G01X-6927243Y581710D01*
G01X-6929916Y591887D01*
G01X-6929916Y591887D01*
G01X-6932797Y602921D01*
G01X-6932797Y602921D01*
G01X-6935611Y611737D01*
G01X-6935611Y611737D01*
G01X-6938892Y621506D01*
G01X-6938892Y621506D01*
G01X-6941011Y628812D01*
G01X-6941011Y628812D01*
G01X-6943605Y637571D01*
G01X-6943605Y637571D01*
G01X-6946942Y646595D01*
G01X-6946942Y646595D01*
G01X-6948602Y650701D01*
G01X-6948602Y650701D01*
G01X-6950700Y653711D01*
G01X-6950700Y653711D01*
G01X-6952626Y660978D01*
G01X-6952626Y660978D01*
G01X-6955410Y667274D01*
G01X-6955410Y667274D01*
G01X-6957452Y672986D01*
G01X-6957452Y672986D01*
G01X-6960192Y679611D01*
G01X-6960192Y679611D01*
G01X-6962931Y685098D01*
G01X-6962931Y685098D01*
G01X-6965216Y690533D01*
G01X-6965216Y690533D01*
G01X-6968574Y697321D01*
G01X-6968574Y697321D01*
G01X-6971769Y703326D01*
G01X-6971769Y703326D01*
G01X-6973889Y707475D01*
G01X-6973889Y707475D01*
G01X-6976629Y712458D01*
G01X-6976629Y712458D01*
G01X-6979368Y718028D01*
G01X-6979368Y718028D01*
G01X-6980483Y721332D01*
G01X-6980483Y721332D01*
G01X-6985962Y728731D01*
G01X-6985962Y728731D01*
G01X-6990327Y736448D01*
G01X-6990327Y736448D01*
G01X-6993614Y741196D01*
G01X-6993614Y741196D01*
G01X-6996902Y746109D01*
G01X-6996902Y746109D01*
G01X-6999686Y750724D01*
G01X-6999686Y750724D01*
G01X-7005165Y757197D01*
G01X-7005165Y757197D01*
G01X-7007860Y761680D01*
G01X-7007860Y761680D01*
G01X-7010051Y765116D01*
G01X-7010051Y765116D01*
G01X-7012243Y768008D01*
G01X-7012243Y768008D01*
G01X-7017996Y775114D01*
G01X-7017996Y775114D01*
G01X-7040273Y798121D01*
G01X-7040273Y798121D01*
G01X-7057806Y814944D01*
G01X-7057806Y814944D01*
G01X-7064842Y820410D01*
G01X-7064842Y820410D01*
G01X-7073156Y828041D01*
G01X-7073156Y828041D01*
G01X-7078684Y831607D01*
G01X-7078684Y831607D01*
G01X-7083521Y834351D01*
G01X-7083521Y834351D01*
G01X-7088561Y838456D01*
G01X-7088561Y838456D01*
G01X-7093021Y841210D01*
G01X-7093021Y841210D01*
G01X-7097717Y844495D01*
G01X-7097717Y844495D01*
G01X-7103393Y847779D01*
G01X-7103393Y847779D01*
G01X-7107554Y849944D01*
G01X-7107554Y849944D01*
G01X-7113307Y853851D01*
G01X-7113307Y853851D01*
G01X-7121405Y857982D01*
G01X-7121405Y857982D01*
G01X-7127432Y861632D01*
G01X-7127432Y861632D01*
G01X-7133559Y864125D01*
G01X-7133559Y864125D01*
G01X-7138885Y866513D01*
G01X-7138885Y866513D01*
G01X-7144136Y869805D01*
G01X-7144136Y869805D01*
G01X-7151412Y873530D01*
G01X-7151412Y873530D01*
G01X-7156470Y875135D01*
G01X-7156470Y875135D01*
G01X-7161633Y877388D01*
G01X-7161633Y877388D01*
G01X-7169999Y881262D01*
G01X-7169999Y881262D01*
G01X-7175520Y883810D01*
G01X-7175520Y883810D01*
G01X-7181990Y885992D01*
G01X-7181990Y885992D01*
G01X-7189745Y888812D01*
G01X-7189745Y888812D01*
G01X-7196972Y891592D01*
G01X-7196972Y891592D01*
G01X-7204404Y894313D01*
G01X-7204404Y894313D01*
G01X-7212898Y897064D01*
G01X-7212898Y897064D01*
G01X-7221667Y899910D01*
G01X-7221667Y899910D01*
G01X-7229886Y902541D01*
G01X-7229886Y902541D01*
G01X-7237490Y905157D01*
G01X-7237490Y905157D01*
G01X-7247301Y907929D01*
G01X-7247301Y907929D01*
G01X-7258204Y910597D01*
G01X-7258204Y910597D01*
G01X-7268117Y913394D01*
G01X-7268117Y913394D01*
G01X-7279075Y916267D01*
G01X-7279075Y916267D01*
G01X-7290545Y918955D01*
G01X-7290545Y918955D01*
G01X-7301080Y921641D01*
G01X-7301080Y921641D01*
G01X-7312622Y924423D01*
G01X-7312622Y924423D01*
G01X-7325100Y927355D01*
G01X-7325100Y927355D01*
G01X-7337274Y929910D01*
G01X-7337274Y929910D01*
G01X-7349747Y932628D01*
G01X-7349747Y932628D01*
G01X-7365656Y935326D01*
G01X-7365656Y935326D01*
G01X-7381428Y937890D01*
G01X-7381428Y937890D01*
G01X-7395460Y940871D01*
G01X-7395460Y940871D01*
G01X-7412692Y944112D01*
G01X-7412692Y944112D01*
G01X-7427325Y946692D01*
G01X-7427325Y946692D01*
G01X-7438721Y948994D01*
G01X-7438721Y948994D01*
G01X-7456181Y951762D01*
G01X-7456181Y951762D01*
G01X-7474282Y954523D01*
G01X-7474282Y954523D01*
G01X-7491575Y957170D01*
G01X-7491575Y957170D01*
G01X-7509746Y959828D01*
G01X-7509746Y959828D01*
G01X-7525288Y962605D01*
G01X-7525288Y962605D01*
G01X-7538281Y964955D01*
G01X-7538281Y964955D01*
G01X-7539598Y967294D01*
G01X-7539598Y967294D01*
G01X-7530988Y970347D01*
G01X-7530988Y970347D01*
G01X-7520156Y973645D01*
G01X-7520156Y973645D01*
G01X-7503747Y975957D01*
G01X-7503747Y975957D01*
G01X-7487224Y978571D01*
G01X-7487224Y978571D01*
G01X-7468634Y981396D01*
G01X-7468634Y981396D01*
G01X-7450513Y984122D01*
G01X-7450513Y984122D01*
G01X-7435105Y986921D01*
G01X-7435105Y986921D01*
G01X-7419340Y989778D01*
G01X-7419340Y989778D01*
G01X-7406191Y992424D01*
G01X-7406191Y992424D01*
G01X-7391134Y995174D01*
G01X-7391134Y995174D01*
G01X-7373601Y998201D01*
G01X-7373601Y998201D01*
G01X-7358774Y1000905D01*
G01X-7358774Y1000905D01*
G01X-7347584Y1003250D01*
G01X-7347584Y1003250D01*
G01X-7336364Y1005890D01*
G01X-7336364Y1005890D01*
G01X-7321902Y1008669D01*
G01X-7321902Y1008669D01*
G01X-7308129Y1011451D01*
G01X-7308129Y1011451D01*
G01X-7297092Y1014341D01*
G01X-7297092Y1014341D01*
G01X-7285669Y1016983D01*
G01X-7285669Y1016983D01*
G01X-7276157Y1019492D01*
G01X-7276157Y1019492D01*
G01X-7266294Y1022266D01*
G01X-7266294Y1022266D01*
G01X-7256199Y1025133D01*
G01X-7256199Y1025133D01*
G01X-7245570Y1027930D01*
G01X-7245570Y1027930D01*
G01X-7236678Y1030772D01*
G01X-7236678Y1030772D01*
G01X-7228641Y1033480D01*
G01X-7228641Y1033480D01*
G01X-7219125Y1035976D01*
G01X-7219125Y1035976D01*
G01X-7208752Y1039180D01*
G01X-7208752Y1039180D01*
G01X-7200851Y1042048D01*
G01X-7200851Y1042048D01*
G01X-7193467Y1044768D01*
G01X-7193467Y1044768D01*
G01X-7185943Y1047536D01*
G01X-7185943Y1047536D01*
G01X-7180999Y1049172D01*
G01X-7180999Y1049172D01*
G01X-7177986Y1051206D01*
G01X-7177986Y1051206D01*
G01X-7171771Y1053049D01*
G01X-7171771Y1053049D01*
G01X-7165871Y1055875D01*
G01X-7165871Y1055875D01*
G01X-7159915Y1057997D01*
G01X-7159915Y1057997D01*
G01X-7153404Y1060734D01*
G01X-7153404Y1060734D01*
G01X-7147663Y1063471D01*
G01X-7147663Y1063471D01*
G01X-7143231Y1065620D01*
G01X-7143231Y1065620D01*
G01X-7137308Y1069039D01*
G01X-7137308Y1069039D01*
G01X-7131140Y1072221D01*
G01X-7131140Y1072221D01*
G01X-7125963Y1074837D01*
G01X-7125963Y1074837D01*
G01X-7118961Y1078266D01*
G01X-7118961Y1078266D01*
G01X-7113623Y1080989D01*
G01X-7113623Y1080989D01*
G01X-7110319Y1083179D01*
G01X-7110319Y1083179D01*
G01X-7107294Y1085369D01*
G01X-7107294Y1085369D01*
G01X-7102996Y1088106D01*
G01X-7102996Y1088106D01*
G01X-7097795Y1090843D01*
G01X-7097795Y1090843D01*
G01X-7092126Y1094183D01*
G01X-7092126Y1094183D01*
G01X-7086211Y1099593D01*
G01X-7086211Y1099593D01*
G01X-7081280Y1102827D01*
G01X-7081280Y1102827D01*
G01X-7073609Y1107852D01*
G01X-7073609Y1107852D01*
G01X-7065662Y1113016D01*
G01X-7065662Y1113016D01*
G01X-7062026Y1116267D01*
G01X-7062026Y1116267D01*
G01X-7060478Y1118215D01*
G01X-7060478Y1118215D01*
G01X-7056634Y1120679D01*
G01X-7056634Y1120679D01*
G01X-7041731Y1135014D01*
G01X-7041731Y1135014D01*
G01X-7028626Y1148974D01*
G01X-7028626Y1148974D01*
G01X-7025875Y1151062D01*
G01X-7025875Y1151062D01*
G01X-7023191Y1153827D01*
G01X-7023191Y1153827D01*
G01X-7020478Y1157229D01*
G01X-7020478Y1157229D01*
G01X-7018818Y1158972D01*
G01X-7018818Y1158972D01*
G01X-7015804Y1163638D01*
G01X-7015804Y1163638D01*
G01X-7009503Y1171368D01*
G01X-7009503Y1171368D01*
G01X-7004298Y1177534D01*
G01X-7004298Y1177534D01*
G01X-7002381Y1180585D01*
G01X-7002381Y1180585D01*
G01X-6999093Y1185383D01*
G01X-6999093Y1185383D01*
G01X-6995806Y1190292D01*
G01X-6995806Y1190292D01*
G01X-6993066Y1194413D01*
G01X-6993066Y1194413D01*
G01X-6990327Y1198965D01*
G01X-6990327Y1198965D01*
G01X-6987861Y1203664D01*
G01X-6987861Y1203664D01*
G01X-6982470Y1211494D01*
G01X-6982470Y1211494D01*
G01X-6978767Y1219314D01*
G01X-6978767Y1219314D01*
G01X-6976555Y1222956D01*
G01X-6976555Y1222956D01*
G01X-6974428Y1226649D01*
G01X-6974428Y1226649D01*
G01X-6971781Y1232305D01*
G01X-6971781Y1232305D01*
G01X-6968459Y1239003D01*
G01X-6968459Y1239003D01*
G01X-6965613Y1243753D01*
G01X-6965613Y1243753D01*
G01X-6963385Y1249297D01*
G01X-6963385Y1249297D01*
G01X-6960654Y1256256D01*
G01X-6960654Y1256256D01*
G01X-6957937Y1262141D01*
G01X-6957937Y1262141D01*
G01X-6955173Y1268624D01*
G01X-6955173Y1268624D01*
G01X-6952415Y1276005D01*
G01X-6952415Y1276005D01*
G01X-6949754Y1282995D01*
G01X-6949754Y1282995D01*
G01X-6947066Y1289806D01*
G01X-6947066Y1289806D01*
G01X-6944085Y1297256D01*
G01X-6944085Y1297256D01*
G01X-6941071Y1306749D01*
G01X-6941071Y1306749D01*
G01X-6938646Y1314628D01*
G01X-6938646Y1314628D01*
G01X-6935626Y1322958D01*
G01X-6935626Y1322958D01*
G01X-6932724Y1331774D01*
G01X-6932724Y1331774D01*
G01X-6930153Y1340892D01*
G01X-6930153Y1340892D01*
G01X-6927468Y1350800D01*
G01X-6927468Y1350800D01*
G01X-6924663Y1361710D01*
G01X-6924663Y1361710D01*
G01X-6921958Y1373094D01*
G01X-6921958Y1373094D01*
G01X-6919123Y1384819D01*
G01X-6919123Y1384819D01*
G01X-6916194Y1396116D01*
G01X-6916194Y1396116D01*
G01X-6913549Y1408480D01*
G01X-6913549Y1408480D01*
G01X-6910905Y1421448D01*
G01X-6910905Y1421448D01*
G01X-6908140Y1434636D01*
G01X-6908140Y1434636D01*
G01X-6905458Y1447663D01*
G01X-6905458Y1447663D01*
G01X-6902851Y1462118D01*
G01X-6902851Y1462118D01*
G01X-6900146Y1477515D01*
G01X-6900146Y1477515D01*
G01X-6897181Y1495537D01*
G01X-6897181Y1495537D01*
G01X-6894366Y1513236D01*
G01X-6894366Y1513236D01*
G01X-6891703Y1530432D01*
G01X-6891703Y1530432D01*
G01X-6888901Y1549276D01*
G01X-6888901Y1549276D01*
G01X-6886171Y1570229D01*
G01X-6886171Y1570229D01*
G01X-6883559Y1589552D01*
G01X-6883559Y1589552D01*
G01X-6880725Y1613812D01*
G01X-6880725Y1613812D01*
G01X-6877875Y1638832D01*
G01X-6877875Y1638832D01*
G01X-6875147Y1661277D01*
G01X-6875147Y1661277D01*
G01X-6872405Y1683722D01*
G01X-6872405Y1683722D01*
G01X-6869778Y1708904D01*
G01X-6869778Y1708904D01*
G01X-6867111Y1734086D01*
G01X-6867111Y1734086D01*
G01X-6864265Y1761454D01*
G01X-6864265Y1761454D01*
G01X-6861572Y1788826D01*
G01X-6861572Y1788826D01*
G01X-6859416Y1803611D01*
G01X-6859416Y1803611D01*
G01X-6857634Y1818072D01*
G01X-6857634Y1818072D01*
G01X-6855566Y1822756D01*
G01X-6855566Y1822756D01*
G01X-6853317Y1821070D01*
G37*
G36*
G01X-7417742Y1951590D02*
G01X-7417742Y1951590D01*
G01X-7415542Y1926946D01*
G01X-7415542Y1926946D01*
G01X-7413497Y1904605D01*
G01X-7413497Y1904605D01*
G01X-7411751Y1897771D01*
G01X-7411751Y1897771D01*
G01X-7409975Y1877101D01*
G01X-7409975Y1877101D01*
G01X-7407978Y1860131D01*
G01X-7407978Y1860131D01*
G01X-7406347Y1855618D01*
G01X-7406347Y1855618D01*
G01X-7404544Y1837162D01*
G01X-7404544Y1837162D01*
G01X-7401819Y1818963D01*
G01X-7401819Y1818963D01*
G01X-7399008Y1803496D01*
G01X-7399008Y1803496D01*
G01X-7396278Y1788187D01*
G01X-7396278Y1788187D01*
G01X-7393449Y1775578D01*
G01X-7393449Y1775578D01*
G01X-7390681Y1764138D01*
G01X-7390681Y1764138D01*
G01X-7388234Y1755217D01*
G01X-7388234Y1755217D01*
G01X-7385270Y1745036D01*
G01X-7385270Y1745036D01*
G01X-7382504Y1736001D01*
G01X-7382504Y1736001D01*
G01X-7380675Y1729269D01*
G01X-7380675Y1729269D01*
G01X-7378555Y1726422D01*
G01X-7378555Y1726422D01*
G01X-7376658Y1719911D01*
G01X-7376658Y1719911D01*
G01X-7373774Y1712920D01*
G01X-7373774Y1712920D01*
G01X-7371672Y1708422D01*
G01X-7371672Y1708422D01*
G01X-7368933Y1702882D01*
G01X-7368933Y1702882D01*
G01X-7366193Y1697164D01*
G01X-7366193Y1697164D01*
G01X-7360714Y1688101D01*
G01X-7360714Y1688101D01*
G01X-7355235Y1680095D01*
G01X-7355235Y1680095D01*
G01X-7352769Y1676109D01*
G01X-7352769Y1676109D01*
G01X-7338798Y1661620D01*
G01X-7338798Y1661620D01*
G01X-7324278Y1648575D01*
G01X-7324278Y1648575D01*
G01X-7321264Y1645920D01*
G01X-7321264Y1645920D01*
G01X-7319659Y1644853D01*
G01X-7319659Y1644853D01*
G01X-7314309Y1641569D01*
G01X-7314309Y1641569D01*
G01X-7309005Y1638284D01*
G01X-7309005Y1638284D01*
G01X-7303731Y1635547D01*
G01X-7303731Y1635547D01*
G01X-7298252Y1632810D01*
G01X-7298252Y1632810D01*
G01X-7292773Y1630073D01*
G01X-7292773Y1630073D01*
G01X-7287355Y1627325D01*
G01X-7287355Y1627325D01*
G01X-7280171Y1624622D01*
G01X-7280171Y1624622D01*
G01X-7273048Y1621861D01*
G01X-7273048Y1621861D01*
G01X-7265926Y1619100D01*
G01X-7265926Y1619100D01*
G01X-7256569Y1616397D01*
G01X-7256569Y1616397D01*
G01X-7248350Y1614164D01*
G01X-7248350Y1614164D01*
G01X-7236375Y1610849D01*
G01X-7236375Y1610849D01*
G01X-7226463Y1608267D01*
G01X-7226463Y1608267D01*
G01X-7213825Y1605464D01*
G01X-7213825Y1605464D01*
G01X-7200176Y1602484D01*
G01X-7200176Y1602484D01*
G01X-7187446Y1599892D01*
G01X-7187446Y1599892D01*
G01X-7173748Y1597324D01*
G01X-7173748Y1597324D01*
G01X-7156456Y1594449D01*
G01X-7156456Y1594449D01*
G01X-7140566Y1592040D01*
G01X-7140566Y1592040D01*
G01X-7131291Y1588570D01*
G01X-7131291Y1588570D01*
G01X-7124716Y1585182D01*
G01X-7124716Y1585182D01*
G01X-7128400Y1582781D01*
G01X-7128400Y1582781D01*
G01X-7141336Y1581412D01*
G01X-7141336Y1581412D01*
G01X-7155034Y1579263D01*
G01X-7155034Y1579263D01*
G01X-7171879Y1575955D01*
G01X-7171879Y1575955D01*
G01X-7187979Y1573128D01*
G01X-7187979Y1573128D01*
G01X-7202461Y1570336D01*
G01X-7202461Y1570336D01*
G01X-7215401Y1567667D01*
G01X-7215401Y1567667D01*
G01X-7227024Y1564889D01*
G01X-7227024Y1564889D01*
G01X-7238876Y1561998D01*
G01X-7238876Y1561998D01*
G01X-7248177Y1559314D01*
G01X-7248177Y1559314D01*
G01X-7256598Y1556764D01*
G01X-7256598Y1556764D01*
G01X-7264830Y1553978D01*
G01X-7264830Y1553978D01*
G01X-7273065Y1551191D01*
G01X-7273065Y1551191D01*
G01X-7279444Y1548666D01*
G01X-7279444Y1548666D01*
G01X-7286003Y1545974D01*
G01X-7286003Y1545974D01*
G01X-7291934Y1543231D01*
G01X-7291934Y1543231D01*
G01X-7298931Y1539838D01*
G01X-7298931Y1539838D01*
G01X-7303118Y1537555D01*
G01X-7303118Y1537555D01*
G01X-7308115Y1534818D01*
G01X-7308115Y1534818D01*
G01X-7313388Y1532081D01*
G01X-7313388Y1532081D01*
G01X-7318647Y1529070D01*
G01X-7318647Y1529070D01*
G01X-7326065Y1523048D01*
G01X-7326065Y1523048D01*
G01X-7330886Y1520037D01*
G01X-7330886Y1520037D01*
G01X-7332623Y1518385D01*
G01X-7332623Y1518385D01*
G01X-7336027Y1515472D01*
G01X-7336027Y1515472D01*
G01X-7338798Y1513228D01*
G01X-7338798Y1513228D01*
G01X-7343455Y1507640D01*
G01X-7343455Y1507640D01*
G01X-7350216Y1499794D01*
G01X-7350216Y1499794D01*
G01X-7353213Y1495431D01*
G01X-7353213Y1495431D01*
G01X-7357059Y1490631D01*
G01X-7357059Y1490631D01*
G01X-7361897Y1483514D01*
G01X-7361897Y1483514D01*
G01X-7368275Y1471276D01*
G01X-7368275Y1471276D01*
G01X-7372768Y1461283D01*
G01X-7372768Y1461283D01*
G01X-7374336Y1458786D01*
G01X-7374336Y1458786D01*
G01X-7377113Y1451854D01*
G01X-7377113Y1451854D01*
G01X-7379814Y1444535D01*
G01X-7379814Y1444535D01*
G01X-7382594Y1436553D01*
G01X-7382594Y1436553D01*
G01X-7385448Y1428693D01*
G01X-7385448Y1428693D01*
G01X-7388200Y1418610D01*
G01X-7388200Y1418610D01*
G01X-7390824Y1407309D01*
G01X-7390824Y1407309D01*
G01X-7393579Y1395843D01*
G01X-7393579Y1395843D01*
G01X-7396506Y1384702D01*
G01X-7396506Y1384702D01*
G01X-7399015Y1370119D01*
G01X-7399015Y1370119D01*
G01X-7401537Y1355516D01*
G01X-7401537Y1355516D01*
G01X-7404488Y1336083D01*
G01X-7404488Y1336083D01*
G01X-7407428Y1315841D01*
G01X-7407428Y1315841D01*
G01X-7410135Y1294213D01*
G01X-7410135Y1294213D01*
G01X-7412843Y1270673D01*
G01X-7412843Y1270673D01*
G01X-7415560Y1245769D01*
G01X-7415560Y1245769D01*
G01X-7417823Y1220226D01*
G01X-7417823Y1220226D01*
G01X-7419311Y1214752D01*
G01X-7419311Y1214752D01*
G01X-7422670Y1222733D01*
G01X-7422670Y1222733D01*
G01X-7426614Y1234229D01*
G01X-7426614Y1234229D01*
G01X-7428647Y1258893D01*
G01X-7428647Y1258893D01*
G01X-7431388Y1284075D01*
G01X-7431388Y1284075D01*
G01X-7434036Y1306721D01*
G01X-7434036Y1306721D01*
G01X-7436691Y1327523D01*
G01X-7436691Y1327523D01*
G01X-7439510Y1344308D01*
G01X-7439510Y1344308D01*
G01X-7442490Y1363469D01*
G01X-7442490Y1363469D01*
G01X-7445173Y1378472D01*
G01X-7445173Y1378472D01*
G01X-7447770Y1391140D01*
G01X-7447770Y1391140D01*
G01X-7450689Y1402961D01*
G01X-7450689Y1402961D01*
G01X-7453301Y1413833D01*
G01X-7453301Y1413833D01*
G01X-7455907Y1422610D01*
G01X-7455907Y1422610D01*
G01X-7459325Y1434064D01*
G01X-7459325Y1434064D01*
G01X-7461529Y1440726D01*
G01X-7461529Y1440726D01*
G01X-7464142Y1447979D01*
G01X-7464142Y1447979D01*
G01X-7467563Y1456565D01*
G01X-7467563Y1456565D01*
G01X-7469887Y1461756D01*
G01X-7469887Y1461756D01*
G01X-7472623Y1468113D01*
G01X-7472623Y1468113D01*
G01X-7474719Y1472957D01*
G01X-7474719Y1472957D01*
G01X-7477477Y1477884D01*
G01X-7477477Y1477884D01*
G01X-7480279Y1482811D01*
G01X-7480279Y1482811D01*
G01X-7483024Y1486369D01*
G01X-7483024Y1486369D01*
G01X-7487426Y1493212D01*
G01X-7487426Y1493212D01*
G01X-7491929Y1499110D01*
G01X-7491929Y1499110D01*
G01X-7497144Y1505241D01*
G01X-7497144Y1505241D01*
G01X-7503984Y1512482D01*
G01X-7503984Y1512482D01*
G01X-7510126Y1518668D01*
G01X-7510126Y1518668D01*
G01X-7513908Y1521132D01*
G01X-7513908Y1521132D01*
G01X-7516532Y1523048D01*
G01X-7516532Y1523048D01*
G01X-7522074Y1526862D01*
G01X-7522074Y1526862D01*
G01X-7526183Y1529670D01*
G01X-7526183Y1529670D01*
G01X-7530018Y1532408D01*
G01X-7530018Y1532408D01*
G01X-7533854Y1535261D01*
G01X-7533854Y1535261D01*
G01X-7537190Y1537018D01*
G01X-7537190Y1537018D01*
G01X-7543377Y1540390D01*
G01X-7543377Y1540390D01*
G01X-7548644Y1543029D01*
G01X-7548644Y1543029D01*
G01X-7555881Y1545582D01*
G01X-7555881Y1545582D01*
G01X-7564465Y1548880D01*
G01X-7564465Y1548880D01*
G01X-7569944Y1551158D01*
G01X-7569944Y1551158D01*
G01X-7578145Y1553879D01*
G01X-7578145Y1553879D01*
G01X-7586377Y1556647D01*
G01X-7586377Y1556647D01*
G01X-7595091Y1559347D01*
G01X-7595091Y1559347D01*
G01X-7604787Y1562255D01*
G01X-7604787Y1562255D01*
G01X-7616661Y1564874D01*
G01X-7616661Y1564874D01*
G01X-7628613Y1567544D01*
G01X-7628613Y1567544D01*
G01X-7641221Y1570285D01*
G01X-7641221Y1570285D01*
G01X-7653647Y1572908D01*
G01X-7653647Y1572908D01*
G01X-7668209Y1575745D01*
G01X-7668209Y1575745D01*
G01X-7684830Y1578520D01*
G01X-7684830Y1578520D01*
G01X-7701267Y1581209D01*
G01X-7701267Y1581209D01*
G01X-7716100Y1583436D01*
G01X-7716100Y1583436D01*
G01X-7718558Y1585635D01*
G01X-7718558Y1585635D01*
G01X-7709023Y1590040D01*
G01X-7709023Y1590040D01*
G01X-7687074Y1594505D01*
G01X-7687074Y1594505D01*
G01X-7670813Y1597236D01*
G01X-7670813Y1597236D01*
G01X-7655796Y1600088D01*
G01X-7655796Y1600088D01*
G01X-7640932Y1602862D01*
G01X-7640932Y1602862D01*
G01X-7628997Y1605460D01*
G01X-7628997Y1605460D01*
G01X-7617759Y1608025D01*
G01X-7617759Y1608025D01*
G01X-7607423Y1610815D01*
G01X-7607423Y1610815D01*
G01X-7596974Y1613677D01*
G01X-7596974Y1613677D01*
G01X-7586548Y1616302D01*
G01X-7586548Y1616302D01*
G01X-7576778Y1618950D01*
G01X-7576778Y1618950D01*
G01X-7569742Y1621909D01*
G01X-7569742Y1621909D01*
G01X-7564537Y1624048D01*
G01X-7564537Y1624048D01*
G01X-7561523Y1626039D01*
G01X-7561523Y1626039D01*
G01X-7554674Y1627933D01*
G01X-7554674Y1627933D01*
G01X-7548647Y1630620D01*
G01X-7548647Y1630620D01*
G01X-7542986Y1633306D01*
G01X-7542986Y1633306D01*
G01X-7538993Y1635400D01*
G01X-7538993Y1635400D01*
G01X-7533916Y1638263D01*
G01X-7533916Y1638263D01*
G01X-7528587Y1641151D01*
G01X-7528587Y1641151D01*
G01X-7525365Y1643442D01*
G01X-7525365Y1643442D01*
G01X-7516635Y1649800D01*
G01X-7516635Y1649800D01*
G01X-7507034Y1658559D01*
G01X-7507034Y1658559D01*
G01X-7496596Y1669508D01*
G01X-7496596Y1669508D01*
G01X-7487007Y1680760D01*
G01X-7487007Y1680760D01*
G01X-7484542Y1684892D01*
G01X-7484542Y1684892D01*
G01X-7480763Y1691139D01*
G01X-7480763Y1691139D01*
G01X-7475341Y1698719D01*
G01X-7475341Y1698719D01*
G01X-7472538Y1704887D01*
G01X-7472538Y1704887D01*
G01X-7469855Y1710458D01*
G01X-7469855Y1710458D01*
G01X-7467600Y1715786D01*
G01X-7467600Y1715786D01*
G01X-7464824Y1724232D01*
G01X-7464824Y1724232D01*
G01X-7461506Y1733539D01*
G01X-7461506Y1733539D01*
G01X-7458714Y1740165D01*
G01X-7458714Y1740165D01*
G01X-7456143Y1749312D01*
G01X-7456143Y1749312D01*
G01X-7453244Y1758796D01*
G01X-7453244Y1758796D01*
G01X-7450521Y1769542D01*
G01X-7450521Y1769542D01*
G01X-7447906Y1780899D01*
G01X-7447906Y1780899D01*
G01X-7445120Y1794560D01*
G01X-7445120Y1794560D01*
G01X-7442422Y1809793D01*
G01X-7442422Y1809793D01*
G01X-7439649Y1827377D01*
G01X-7439649Y1827377D01*
G01X-7436870Y1845608D01*
G01X-7436870Y1845608D01*
G01X-7434120Y1867280D01*
G01X-7434120Y1867280D01*
G01X-7432356Y1887370D01*
G01X-7432356Y1887370D01*
G01X-7430689Y1891899D01*
G01X-7430689Y1891899D01*
G01X-7428569Y1914816D01*
G01X-7428569Y1914816D01*
G01X-7425226Y1943080D01*
G01X-7425226Y1943080D01*
G01X-7421418Y1952736D01*
G01X-7421418Y1952736D01*
G01X-7419354Y1955800D01*
G01X-7419354Y1955800D01*
G01X-7417742Y1951590D01*
G37*
G36*
G01X-3224926Y6855102D02*
G01X-3224926Y6855102D01*
G01X-3222324Y6836581D01*
G01X-3222324Y6836581D01*
G01X-3219996Y6808650D01*
G01X-3219996Y6808650D01*
G01X-3217540Y6780732D01*
G01X-3217540Y6780732D01*
G01X-3215826Y6763865D01*
G01X-3215826Y6763865D01*
G01X-3214565Y6750488D01*
G01X-3214565Y6750488D01*
G01X-3212537Y6727223D01*
G01X-3212537Y6727223D01*
G01X-3210010Y6702213D01*
G01X-3210010Y6702213D01*
G01X-3207439Y6677785D01*
G01X-3207439Y6677785D01*
G01X-3204982Y6654520D01*
G01X-3204982Y6654520D01*
G01X-3202472Y6631837D01*
G01X-3202472Y6631837D01*
G01X-3200022Y6610317D01*
G01X-3200022Y6610317D01*
G01X-3197518Y6589960D01*
G01X-3197518Y6589960D01*
G01X-3195026Y6570185D01*
G01X-3195026Y6570185D01*
G01X-3193418Y6558553D01*
G01X-3193418Y6558553D01*
G01X-3192132Y6549828D01*
G01X-3192132Y6549828D01*
G01X-3190111Y6534706D01*
G01X-3190111Y6534706D01*
G01X-3187509Y6517257D01*
G01X-3187509Y6517257D01*
G01X-3184973Y6500390D01*
G01X-3184973Y6500390D01*
G01X-3182584Y6485268D01*
G01X-3182584Y6485268D01*
G01X-3180004Y6470146D01*
G01X-3180004Y6470146D01*
G01X-3177619Y6456187D01*
G01X-3177619Y6456187D01*
G01X-3176038Y6448044D01*
G01X-3176038Y6448044D01*
G01X-3174692Y6441647D01*
G01X-3174692Y6441647D01*
G01X-3172659Y6430596D01*
G01X-3172659Y6430596D01*
G01X-3170109Y6418091D01*
G01X-3170109Y6418091D01*
G01X-3167465Y6405877D01*
G01X-3167465Y6405877D01*
G01X-3165024Y6394535D01*
G01X-3165024Y6394535D01*
G01X-3162911Y6385229D01*
G01X-3162911Y6385229D01*
G01X-3161248Y6379265D01*
G01X-3161248Y6379265D01*
G01X-3160017Y6373146D01*
G01X-3160017Y6373146D01*
G01X-3158712Y6368281D01*
G01X-3158712Y6368281D01*
G01X-3157946Y6365676D01*
G01X-3157946Y6365676D01*
G01X-3156310Y6359056D01*
G01X-3156310Y6359056D01*
G01X-3154675Y6352600D01*
G01X-3154675Y6352600D01*
G01X-3153981Y6349692D01*
G01X-3153981Y6349692D01*
G01X-3151412Y6341608D01*
G01X-3151412Y6341608D01*
G01X-3148822Y6332302D01*
G01X-3148822Y6332302D01*
G01X-3145641Y6322414D01*
G01X-3145641Y6322414D01*
G01X-3141379Y6309037D01*
G01X-3141379Y6309037D01*
G01X-3138761Y6301095D01*
G01X-3138761Y6301095D01*
G01X-3133590Y6287136D01*
G01X-3133590Y6287136D01*
G01X-3128229Y6273766D01*
G01X-3128229Y6273766D01*
G01X-3127189Y6270664D01*
G01X-3127189Y6270664D01*
G01X-3126498Y6268711D01*
G01X-3126498Y6268711D01*
G01X-3122295Y6260180D01*
G01X-3122295Y6260180D01*
G01X-3117785Y6249775D01*
G01X-3117785Y6249775D01*
G01X-3116179Y6246285D01*
G01X-3116179Y6246285D01*
G01X-3106445Y6227958D01*
G01X-3106445Y6227958D01*
G01X-3094990Y6207034D01*
G01X-3094990Y6207034D01*
G01X-3083084Y6189819D01*
G01X-3083084Y6189819D01*
G01X-3071435Y6174078D01*
G01X-3071435Y6174078D01*
G01X-3063869Y6165354D01*
G01X-3063869Y6165354D01*
G01X-3055965Y6156369D01*
G01X-3055965Y6156369D01*
G01X-3046064Y6146248D01*
G01X-3046064Y6146248D01*
G01X-3037571Y6137516D01*
G01X-3037571Y6137516D01*
G01X-3035823Y6136295D01*
G01X-3035823Y6136295D01*
G01X-3031635Y6132805D01*
G01X-3031635Y6132805D01*
G01X-3027410Y6129316D01*
G01X-3027410Y6129316D01*
G01X-3025530Y6127861D01*
G01X-3025530Y6127861D01*
G01X-3020270Y6123593D01*
G01X-3020270Y6123593D01*
G01X-3015694Y6120103D01*
G01X-3015694Y6120103D01*
G01X-3012365Y6117243D01*
G01X-3012365Y6117243D01*
G01X-3002381Y6110053D01*
G01X-3002381Y6110053D01*
G01X-2991149Y6102578D01*
G01X-2991149Y6102578D01*
G01X-2985324Y6099071D01*
G01X-2985324Y6099071D01*
G01X-2979500Y6095604D01*
G01X-2979500Y6095604D01*
G01X-2974064Y6092199D01*
G01X-2974064Y6092199D01*
G01X-2970122Y6090405D01*
G01X-2970122Y6090405D01*
G01X-2966980Y6088513D01*
G01X-2966980Y6088513D01*
G01X-2965098Y6087432D01*
G01X-2965098Y6087432D01*
G01X-2961308Y6085687D01*
G01X-2961308Y6085687D01*
G01X-2958105Y6083949D01*
G01X-2958105Y6083949D01*
G01X-2954664Y6082322D01*
G01X-2954664Y6082322D01*
G01X-2947466Y6078682D01*
G01X-2947466Y6078682D01*
G01X-2939978Y6075150D01*
G01X-2939978Y6075150D01*
G01X-2930825Y6071147D01*
G01X-2930825Y6071147D01*
G01X-2922921Y6067736D01*
G01X-2922921Y6067736D01*
G01X-2917512Y6065443D01*
G01X-2917512Y6065443D01*
G01X-2909608Y6062308D01*
G01X-2909608Y6062308D01*
G01X-2900871Y6058954D01*
G01X-2900871Y6058954D01*
G01X-2891303Y6055599D01*
G01X-2891303Y6055599D01*
G01X-2882150Y6052529D01*
G01X-2882150Y6052529D01*
G01X-2876742Y6050508D01*
G01X-2876742Y6050508D01*
G01X-2870918Y6048339D01*
G01X-2870918Y6048339D01*
G01X-2860517Y6045034D01*
G01X-2860517Y6045034D01*
G01X-2848868Y6041531D01*
G01X-2848868Y6041531D01*
G01X-2836388Y6038011D01*
G01X-2836388Y6038011D01*
G01X-2824739Y6035028D01*
G01X-2824739Y6035028D01*
G01X-2818499Y6033233D01*
G01X-2818499Y6033233D01*
G01X-2809762Y6030992D01*
G01X-2809762Y6030992D01*
G01X-2795617Y6027608D01*
G01X-2795617Y6027608D01*
G01X-2782305Y6024644D01*
G01X-2782305Y6024644D01*
G01X-2772736Y6022395D01*
G01X-2772736Y6022395D01*
G01X-2763167Y6020035D01*
G01X-2763167Y6020035D01*
G01X-2748191Y6017070D01*
G01X-2748191Y6017070D01*
G01X-2731550Y6013586D01*
G01X-2731550Y6013586D01*
G01X-2714077Y6010105D01*
G01X-2714077Y6010105D01*
G01X-2696187Y6006632D01*
G01X-2696187Y6006632D01*
G01X-2677882Y6003052D01*
G01X-2677882Y6003052D01*
G01X-2659577Y5999491D01*
G01X-2659577Y5999491D01*
G01X-2647097Y5997174D01*
G01X-2647097Y5997174D01*
G01X-2635864Y5995435D01*
G01X-2635864Y5995435D01*
G01X-2617920Y5992748D01*
G01X-2617920Y5992748D01*
G01X-2605189Y5989139D01*
G01X-2605189Y5989139D01*
G01X-2603579Y5986209D01*
G01X-2603579Y5986209D01*
G01X-2612983Y5984020D01*
G01X-2612983Y5984020D01*
G01X-2632536Y5981013D01*
G01X-2632536Y5981013D01*
G01X-2653130Y5977571D01*
G01X-2653130Y5977571D01*
G01X-2672267Y5974034D01*
G01X-2672267Y5974034D01*
G01X-2690779Y5970494D01*
G01X-2690779Y5970494D01*
G01X-2709084Y5966997D01*
G01X-2709084Y5966997D01*
G01X-2726141Y5963552D01*
G01X-2726141Y5963552D01*
G01X-2742782Y5960046D01*
G01X-2742782Y5960046D01*
G01X-2759007Y5956628D01*
G01X-2759007Y5956628D01*
G01X-2774816Y5953195D01*
G01X-2774816Y5953195D01*
G01X-2790625Y5949667D01*
G01X-2790625Y5949667D01*
G01X-2805186Y5946251D01*
G01X-2805186Y5946251D01*
G01X-2813506Y5943874D01*
G01X-2813506Y5943874D01*
G01X-2820163Y5942082D01*
G01X-2820163Y5942082D01*
G01X-2831811Y5939288D01*
G01X-2831811Y5939288D01*
G01X-2844708Y5935667D01*
G01X-2844708Y5935667D01*
G01X-2856773Y5932188D01*
G01X-2856773Y5932188D01*
G01X-2868006Y5928661D01*
G01X-2868006Y5928661D01*
G01X-2878406Y5925074D01*
G01X-2878406Y5925074D01*
G01X-2887975Y5921735D01*
G01X-2887975Y5921735D01*
G01X-2897751Y5918230D01*
G01X-2897751Y5918230D01*
G01X-2906904Y5914783D01*
G01X-2906904Y5914783D01*
G01X-2915016Y5911795D01*
G01X-2915016Y5911795D01*
G01X-2920114Y5909463D01*
G01X-2920114Y5909463D01*
G01X-2924690Y5907645D01*
G01X-2924690Y5907645D01*
G01X-2928745Y5905955D01*
G01X-2928745Y5905955D01*
G01X-2932489Y5904228D01*
G01X-2932489Y5904228D01*
G01X-2936234Y5902483D01*
G01X-2936234Y5902483D01*
G01X-2939978Y5900805D01*
G01X-2939978Y5900805D01*
G01X-2944554Y5899039D01*
G01X-2944554Y5899039D01*
G01X-2951626Y5895485D01*
G01X-2951626Y5895485D01*
G01X-2959657Y5891300D01*
G01X-2959657Y5891300D01*
G01X-2963560Y5889687D01*
G01X-2963560Y5889687D01*
G01X-2965316Y5888614D01*
G01X-2965316Y5888614D01*
G01X-2968458Y5886721D01*
G01X-2968458Y5886721D01*
G01X-2972400Y5884927D01*
G01X-2972400Y5884927D01*
G01X-2977836Y5881522D01*
G01X-2977836Y5881522D01*
G01X-2983660Y5878055D01*
G01X-2983660Y5878055D01*
G01X-2989485Y5874566D01*
G01X-2989485Y5874566D01*
G01X-3004046Y5864905D01*
G01X-3004046Y5864905D01*
G01X-3014862Y5857005D01*
G01X-3014862Y5857005D01*
G01X-3017457Y5854679D01*
G01X-3017457Y5854679D01*
G01X-3023282Y5850280D01*
G01X-3023282Y5850280D01*
G01X-3036129Y5838938D01*
G01X-3036129Y5838938D01*
G01X-3046252Y5830362D01*
G01X-3046252Y5830362D01*
G01X-3047451Y5829329D01*
G01X-3047451Y5829329D01*
G01X-3055217Y5820443D01*
G01X-3055217Y5820443D01*
G01X-3063121Y5811879D01*
G01X-3063121Y5811879D01*
G01X-3068913Y5804770D01*
G01X-3068913Y5804770D01*
G01X-3082361Y5786946D01*
G01X-3082361Y5786946D01*
G01X-3093967Y5770092D01*
G01X-3093967Y5770092D01*
G01X-3100457Y5759126D01*
G01X-3100457Y5759126D01*
G01X-3104069Y5753588D01*
G01X-3104069Y5753588D01*
G01X-3104723Y5752478D01*
G01X-3104723Y5752478D01*
G01X-3108676Y5743890D01*
G01X-3108676Y5743890D01*
G01X-3113876Y5733807D01*
G01X-3113876Y5733807D01*
G01X-3115956Y5729840D01*
G01X-3115956Y5729840D01*
G01X-3117781Y5726202D01*
G01X-3117781Y5726202D01*
G01X-3123567Y5712874D01*
G01X-3123567Y5712874D01*
G01X-3130385Y5696589D01*
G01X-3130385Y5696589D01*
G01X-3137219Y5677977D01*
G01X-3137219Y5677977D01*
G01X-3144593Y5656666D01*
G01X-3144593Y5656666D01*
G01X-3147158Y5648169D01*
G01X-3147158Y5648169D01*
G01X-3148851Y5642143D01*
G01X-3148851Y5642143D01*
G01X-3151242Y5634899D01*
G01X-3151242Y5634899D01*
G01X-3152524Y5629387D01*
G01X-3152524Y5629387D01*
G01X-3153878Y5624994D01*
G01X-3153878Y5624994D01*
G01X-3154651Y5622363D01*
G01X-3154651Y5622363D01*
G01X-3155900Y5617064D01*
G01X-3155900Y5617064D01*
G01X-3157148Y5612411D01*
G01X-3157148Y5612411D01*
G01X-3158317Y5607970D01*
G01X-3158317Y5607970D01*
G01X-3160082Y5601028D01*
G01X-3160082Y5601028D01*
G01X-3161313Y5595425D01*
G01X-3161313Y5595425D01*
G01X-3165034Y5579683D01*
G01X-3165034Y5579683D01*
G01X-3168821Y5562816D01*
G01X-3168821Y5562816D01*
G01X-3170083Y5555836D01*
G01X-3170083Y5555836D01*
G01X-3171289Y5550602D01*
G01X-3171289Y5550602D01*
G01X-3172544Y5544249D01*
G01X-3172544Y5544249D01*
G01X-3173853Y5537269D01*
G01X-3173853Y5537269D01*
G01X-3175459Y5529663D01*
G01X-3175459Y5529663D01*
G01X-3177529Y5517449D01*
G01X-3177529Y5517449D01*
G01X-3180020Y5503490D01*
G01X-3180020Y5503490D01*
G01X-3182509Y5488368D01*
G01X-3182509Y5488368D01*
G01X-3184608Y5473828D01*
G01X-3184608Y5473828D01*
G01X-3186061Y5465103D01*
G01X-3186061Y5465103D01*
G01X-3187616Y5455797D01*
G01X-3187616Y5455797D01*
G01X-3189986Y5438930D01*
G01X-3189986Y5438930D01*
G01X-3192561Y5420318D01*
G01X-3192561Y5420318D01*
G01X-3195017Y5401414D01*
G01X-3195017Y5401414D01*
G01X-3197418Y5382220D01*
G01X-3197418Y5382220D01*
G01X-3199958Y5360993D01*
G01X-3199958Y5360993D01*
G01X-3202551Y5338310D01*
G01X-3202551Y5338310D01*
G01X-3204985Y5315626D01*
G01X-3204985Y5315626D01*
G01X-3207524Y5291780D01*
G01X-3207524Y5291780D01*
G01X-3210000Y5267352D01*
G01X-3210000Y5267352D01*
G01X-3212419Y5241760D01*
G01X-3212419Y5241760D01*
G01X-3214524Y5218495D01*
G01X-3214524Y5218495D01*
G01X-3215827Y5205118D01*
G01X-3215827Y5205118D01*
G01X-3217572Y5187088D01*
G01X-3217572Y5187088D01*
G01X-3219925Y5159752D01*
G01X-3219925Y5159752D01*
G01X-3222023Y5135323D01*
G01X-3222023Y5135323D01*
G01X-3224965Y5120896D01*
G01X-3226911Y5118100D01*
G01X-3227351Y5122059D01*
G01X-3227351Y5122059D01*
G01X-3228279Y5138813D01*
G01X-3228279Y5138813D01*
G01X-3229590Y5158007D01*
G01X-3229590Y5158007D01*
G01X-3231199Y5174874D01*
G01X-3231199Y5174874D01*
G01X-3233210Y5198139D01*
G01X-3233210Y5198139D01*
G01X-3235794Y5225475D01*
G01X-3235794Y5225475D01*
G01X-3238291Y5251648D01*
G01X-3238291Y5251648D01*
G01X-3240695Y5276076D01*
G01X-3240695Y5276076D01*
G01X-3243254Y5300504D01*
G01X-3243254Y5300504D01*
G01X-3245749Y5323769D01*
G01X-3245749Y5323769D01*
G01X-3248269Y5346452D01*
G01X-3248269Y5346452D01*
G01X-3250772Y5367972D01*
G01X-3250772Y5367972D01*
G01X-3253271Y5388329D01*
G01X-3253271Y5388329D01*
G01X-3255709Y5408104D01*
G01X-3255709Y5408104D01*
G01X-3257323Y5419737D01*
G01X-3257323Y5419737D01*
G01X-3258625Y5428461D01*
G01X-3258625Y5428461D01*
G01X-3260657Y5443583D01*
G01X-3260657Y5443583D01*
G01X-3263156Y5460450D01*
G01X-3263156Y5460450D01*
G01X-3265634Y5476736D01*
G01X-3265634Y5476736D01*
G01X-3267840Y5491276D01*
G01X-3267840Y5491276D01*
G01X-3269526Y5500582D01*
G01X-3269526Y5500582D01*
G01X-3271130Y5508725D01*
G01X-3271130Y5508725D01*
G01X-3273321Y5521521D01*
G01X-3273321Y5521521D01*
G01X-3275720Y5534898D01*
G01X-3275720Y5534898D01*
G01X-3278154Y5547403D01*
G01X-3278154Y5547403D01*
G01X-3280702Y5559326D01*
G01X-3280702Y5559326D01*
G01X-3283198Y5570958D01*
G01X-3283198Y5570958D01*
G01X-3285624Y5582300D01*
G01X-3285624Y5582300D01*
G01X-3287815Y5591897D01*
G01X-3287815Y5591897D01*
G01X-3289421Y5597713D01*
G01X-3289421Y5597713D01*
G01X-3291914Y5608182D01*
G01X-3291914Y5608182D01*
G01X-3294396Y5618070D01*
G01X-3294396Y5618070D01*
G01X-3296473Y5625049D01*
G01X-3296473Y5625049D01*
G01X-3300887Y5640753D01*
G01X-3300887Y5640753D01*
G01X-3307494Y5661691D01*
G01X-3307494Y5661691D01*
G01X-3314326Y5681467D01*
G01X-3314326Y5681467D01*
G01X-3320615Y5698334D01*
G01X-3320615Y5698334D01*
G01X-3324665Y5708054D01*
G01X-3324665Y5708054D01*
G01X-3326627Y5712126D01*
G01X-3326627Y5712126D01*
G01X-3328212Y5716655D01*
G01X-3328212Y5716655D01*
G01X-3329474Y5718690D01*
G01X-3329474Y5718690D01*
G01X-3330209Y5719901D01*
G01X-3330209Y5719901D01*
G01X-3331780Y5724263D01*
G01X-3331780Y5724263D01*
G01X-3336326Y5733813D01*
G01X-3336326Y5733813D01*
G01X-3341411Y5743590D01*
G01X-3341411Y5743590D01*
G01X-3343521Y5747673D01*
G01X-3343521Y5747673D01*
G01X-3345397Y5751273D01*
G01X-3345397Y5751273D01*
G01X-3353046Y5764057D01*
G01X-3353046Y5764057D01*
G01X-3368851Y5787918D01*
G01X-3368851Y5787918D01*
G01X-3383044Y5806490D01*
G01X-3383044Y5806490D01*
G01X-3387620Y5811812D01*
G01X-3387620Y5811812D01*
G01X-3399685Y5824720D01*
G01X-3399685Y5824720D01*
G01X-3419654Y5843880D01*
G01X-3419654Y5843880D01*
G01X-3429222Y5851673D01*
G01X-3429222Y5851673D01*
G01X-3434215Y5855514D01*
G01X-3434215Y5855514D01*
G01X-3447528Y5865301D01*
G01X-3447528Y5865301D01*
G01X-3461256Y5874542D01*
G01X-3461256Y5874542D01*
G01X-3467081Y5877960D01*
G01X-3467081Y5877960D01*
G01X-3472905Y5881459D01*
G01X-3472905Y5881459D01*
G01X-3478510Y5885107D01*
G01X-3478510Y5885107D01*
G01X-3480880Y5886198D01*
G01X-3480880Y5886198D01*
G01X-3484428Y5887840D01*
G01X-3484428Y5887840D01*
G01X-3492458Y5891945D01*
G01X-3492458Y5891945D01*
G01X-3499531Y5895466D01*
G01X-3499531Y5895466D01*
G01X-3507019Y5899040D01*
G01X-3507019Y5899040D01*
G01X-3514507Y5902497D01*
G01X-3514507Y5902497D01*
G01X-3520488Y5905287D01*
G01X-3520488Y5905287D01*
G01X-3525771Y5907136D01*
G01X-3525771Y5907136D01*
G01X-3529359Y5908709D01*
G01X-3529359Y5908709D01*
G01X-3535725Y5911662D01*
G01X-3535725Y5911662D01*
G01X-3543841Y5914720D01*
G01X-3543841Y5914720D01*
G01X-3552994Y5918221D01*
G01X-3552994Y5918221D01*
G01X-3562766Y5921632D01*
G01X-3562766Y5921632D01*
G01X-3572751Y5925122D01*
G01X-3572751Y5925122D01*
G01X-3583152Y5928761D01*
G01X-3583152Y5928761D01*
G01X-3593968Y5932123D01*
G01X-3593968Y5932123D01*
G01X-3606033Y5935667D01*
G01X-3606033Y5935667D01*
G01X-3618930Y5939266D01*
G01X-3618930Y5939266D01*
G01X-3632242Y5942728D01*
G01X-3632242Y5942728D01*
G01X-3645971Y5946120D01*
G01X-3645971Y5946120D01*
G01X-3660116Y5949601D01*
G01X-3660116Y5949601D01*
G01X-3675509Y5953110D01*
G01X-3675509Y5953110D01*
G01X-3691318Y5956510D01*
G01X-3691318Y5956510D01*
G01X-3707959Y5960034D01*
G01X-3707959Y5960034D01*
G01X-3724600Y5963532D01*
G01X-3724600Y5963532D01*
G01X-3742073Y5966987D01*
G01X-3742073Y5966987D01*
G01X-3760794Y5970581D01*
G01X-3760794Y5970581D01*
G01X-3778683Y5974023D01*
G01X-3778683Y5974023D01*
G01X-3797404Y5977462D01*
G01X-3797404Y5977462D01*
G01X-3817789Y5980962D01*
G01X-3817789Y5980962D01*
G01X-3837342Y5983961D01*
G01X-3837342Y5983961D01*
G01X-3847678Y5986233D01*
G01X-3847678Y5986233D01*
G01X-3846014Y5989196D01*
G01X-3846014Y5989196D01*
G01X-3831934Y5992834D01*
G01X-3831934Y5992834D01*
G01X-3810301Y5996056D01*
G01X-3810301Y5996056D01*
G01X-3792828Y5998967D01*
G01X-3792828Y5998967D01*
G01X-3780763Y6001404D01*
G01X-3780763Y6001404D01*
G01X-3768698Y6003741D01*
G01X-3768698Y6003741D01*
G01X-3752889Y6006657D01*
G01X-3752889Y6006657D01*
G01X-3735416Y6010122D01*
G01X-3735416Y6010122D01*
G01X-3718359Y6013617D01*
G01X-3718359Y6013617D01*
G01X-3701718Y6017068D01*
G01X-3701718Y6017068D01*
G01X-3685910Y6020354D01*
G01X-3685910Y6020354D01*
G01X-3676341Y6022721D01*
G01X-3676341Y6022721D01*
G01X-3667604Y6024606D01*
G01X-3667604Y6024606D01*
G01X-3654708Y6027414D01*
G01X-3654708Y6027414D01*
G01X-3647219Y6029734D01*
G01X-3647219Y6029734D01*
G01X-3639731Y6031595D01*
G01X-3639731Y6031595D01*
G01X-3626834Y6034507D01*
G01X-3626834Y6034507D01*
G01X-3613937Y6037871D01*
G01X-3613937Y6037871D01*
G01X-3601457Y6041341D01*
G01X-3601457Y6041341D01*
G01X-3589808Y6044878D01*
G01X-3589808Y6044878D01*
G01X-3578991Y6048500D01*
G01X-3578991Y6048500D01*
G01X-3569007Y6052004D01*
G01X-3569007Y6052004D01*
G01X-3559022Y6055499D01*
G01X-3559022Y6055499D01*
G01X-3549302Y6058759D01*
G01X-3549302Y6058759D01*
G01X-3544379Y6060993D01*
G01X-3544379Y6060993D01*
G01X-3542246Y6061847D01*
G01X-3542246Y6061847D01*
G01X-3535936Y6064042D01*
G01X-3535936Y6064042D01*
G01X-3526156Y6068203D01*
G01X-3526156Y6068203D01*
G01X-3519500Y6071140D01*
G01X-3519500Y6071140D01*
G01X-3511595Y6074687D01*
G01X-3511595Y6074687D01*
G01X-3503691Y6078245D01*
G01X-3503691Y6078245D01*
G01X-3496618Y6081691D01*
G01X-3496618Y6081691D01*
G01X-3488588Y6085796D01*
G01X-3488588Y6085796D01*
G01X-3484685Y6087439D01*
G01X-3484685Y6087439D01*
G01X-3482947Y6088473D01*
G01X-3482947Y6088473D01*
G01X-3480193Y6090258D01*
G01X-3480193Y6090258D01*
G01X-3475205Y6092745D01*
G01X-3475205Y6092745D01*
G01X-3469797Y6096130D01*
G01X-3469797Y6096130D01*
G01X-3462504Y6100443D01*
G01X-3462504Y6100443D01*
G01X-3447112Y6110839D01*
G01X-3447112Y6110839D01*
G01X-3433383Y6120743D01*
G01X-3433383Y6120743D01*
G01X-3430038Y6123717D01*
G01X-3430038Y6123717D01*
G01X-3427541Y6125770D01*
G01X-3427541Y6125770D01*
G01X-3422982Y6129253D01*
G01X-3422982Y6129253D01*
G01X-3417158Y6133981D01*
G01X-3417158Y6133981D01*
G01X-3410758Y6139877D01*
G01X-3410758Y6139877D01*
G01X-3407187Y6143274D01*
G01X-3407187Y6143274D01*
G01X-3405682Y6144459D01*
G01X-3405682Y6144459D01*
G01X-3402678Y6147949D01*
G01X-3402678Y6147949D01*
G01X-3400181Y6150273D01*
G01X-3400181Y6150273D01*
G01X-3396773Y6153750D01*
G01X-3396773Y6153750D01*
G01X-3393028Y6158094D01*
G01X-3393028Y6158094D01*
G01X-3389284Y6162305D01*
G01X-3389284Y6162305D01*
G01X-3382639Y6169865D01*
G01X-3382639Y6169865D01*
G01X-3368494Y6188644D01*
G01X-3368494Y6188644D01*
G01X-3356002Y6206674D01*
G01X-3356002Y6206674D01*
G01X-3349356Y6218304D01*
G01X-3349356Y6218304D01*
G01X-3343779Y6227929D01*
G01X-3343779Y6227929D01*
G01X-3338783Y6237816D01*
G01X-3338783Y6237816D01*
G01X-3334376Y6246803D01*
G01X-3334376Y6246803D01*
G01X-3332956Y6249711D01*
G01X-3332956Y6249711D01*
G01X-3328449Y6260180D01*
G01X-3328449Y6260180D01*
G01X-3324454Y6268906D01*
G01X-3324454Y6268906D01*
G01X-3322401Y6273559D01*
G01X-3322401Y6273559D01*
G01X-3317991Y6285190D01*
G01X-3317991Y6285190D01*
G01X-3314386Y6294496D01*
G01X-3314386Y6294496D01*
G01X-3311866Y6302057D01*
G01X-3311866Y6302057D01*
G01X-3306965Y6317179D01*
G01X-3306965Y6317179D01*
G01X-3302307Y6331720D01*
G01X-3302307Y6331720D01*
G01X-3299276Y6341835D01*
G01X-3299276Y6341835D01*
G01X-3297759Y6347957D01*
G01X-3297759Y6347957D01*
G01X-3296967Y6351220D01*
G01X-3296967Y6351220D01*
G01X-3294952Y6357311D01*
G01X-3294952Y6357311D01*
G01X-3291915Y6369525D01*
G01X-3291915Y6369525D01*
G01X-3289405Y6379995D01*
G01X-3289405Y6379995D01*
G01X-3286909Y6390464D01*
G01X-3286909Y6390464D01*
G01X-3284433Y6400933D01*
G01X-3284433Y6400933D01*
G01X-3282914Y6407912D01*
G01X-3282914Y6407912D01*
G01X-3280710Y6418963D01*
G01X-3280710Y6418963D01*
G01X-3278219Y6431177D01*
G01X-3278219Y6431177D01*
G01X-3275720Y6443973D01*
G01X-3275720Y6443973D01*
G01X-3273174Y6457932D01*
G01X-3273174Y6457932D01*
G01X-3270877Y6471309D01*
G01X-3270877Y6471309D01*
G01X-3269273Y6479452D01*
G01X-3269273Y6479452D01*
G01X-3266565Y6496319D01*
G01X-3266565Y6496319D01*
G01X-3263154Y6519584D01*
G01X-3263154Y6519584D01*
G01X-3260727Y6536742D01*
G01X-3260727Y6536742D01*
G01X-3258167Y6555354D01*
G01X-3258167Y6555354D01*
G01X-3255636Y6574256D01*
G01X-3255636Y6574256D01*
G01X-3253273Y6593450D01*
G01X-3253273Y6593450D01*
G01X-3250852Y6614388D01*
G01X-3250852Y6614388D01*
G01X-3248236Y6636490D01*
G01X-3248236Y6636490D01*
G01X-3245655Y6659755D01*
G01X-3245655Y6659755D01*
G01X-3243187Y6683601D01*
G01X-3243187Y6683601D01*
G01X-3240799Y6707448D01*
G01X-3240799Y6707448D01*
G01X-3238300Y6733039D01*
G01X-3238300Y6733039D01*
G01X-3235763Y6759794D01*
G01X-3235763Y6759794D01*
G01X-3233254Y6787712D01*
G01X-3233254Y6787712D01*
G01X-3230768Y6815630D01*
G01X-3230768Y6815630D01*
G01X-3228625Y6842384D01*
G01X-3228625Y6842384D01*
G01X-3227024Y6857415D01*
G01X-3227024Y6857415D01*
G01X-3224926Y6855102D01*
G37*
G04 Image End*

G04 Rect Start*
G36*
G01X-7124700Y-2933700D02*
G01X-7124700Y-2451100D01*
G01X-6692900Y-2451100D01*
G01X-6692900Y-2933700D01*
G01X-7124700Y-2933700D01*
G37*
G36*
G01X-6524700Y-2933700D02*
G01X-6524700Y-2451100D01*
G01X-6296100Y-2451100D01*
G01X-6296100Y-2933700D01*
G01X-6524700Y-2933700D01*
G37*
G36*
G01X-6140600Y-2933700D02*
G01X-6140600Y-2451100D01*
G01X-5581800Y-2451100D01*
G01X-5581800Y-2933700D01*
G01X-6140600Y-2933700D01*
G37*
G36*
G01X-5439000Y-2933700D02*
G01X-5439000Y-2451100D01*
G01X-5096100Y-2451100D01*
G01X-5096100Y-2933700D01*
G01X-5439000Y-2933700D01*
G37*
G36*
G01X-4940600Y-2933700D02*
G01X-4940600Y-2451100D01*
G01X-4381800Y-2451100D01*
G01X-4381800Y-2933700D01*
G01X-4940600Y-2933700D01*
G37*
G36*
G01X-3946900Y-2933700D02*
G01X-3946900Y-2451100D01*
G01X-3629400Y-2451100D01*
G01X-3629400Y-2933700D01*
G01X-3946900Y-2933700D01*
G37*
G36*
G01X-3486600Y-2933700D02*
G01X-3486600Y-2451100D01*
G01X-3181800Y-2451100D01*
G01X-3181800Y-2933700D01*
G01X-3486600Y-2933700D01*
G37*
G36*
G01X-4240576Y-2933700D02*
G01X-4240576Y-2451100D01*
G01X-4075476Y-2451100D01*
G01X-4075476Y-2933700D01*
G01X-4240576Y-2933700D01*
G37*
G04 Rect End*

G04 Pad Start*
G54D10*
G01X-7188200Y7124700D03*
G01X-6838200Y7124700D03*
G01X-6473100Y7124700D03*
G01X-6108700Y7124700D03*
G01X-4196091Y7126300D03*
G01X-3846091Y7126300D03*
G01X-3480991Y7126300D03*
G01X-3116591Y7126300D03*
G04 Pad End*

M02*

