G04 Layer: TopSilkscreenLayer*
G04 EasyEDA Pro v3.2.148, 2026-07-02 20:03:51*
G04 Gerber Generator version 0.3*
G04 Scale: 100 percent, Rotated: No, Reflected: No*
G04 Dimensions in millimeters*
G04 Leading zeros omitted, absolute positions, 4 integers and 5 decimals*
G04 Generated by one-click*
G04 Object Configs: Pad,Via,Track,Text,Image,Dimension,BoardOutline,BoardCutout,CopperFilled,SolidRegion,FPCStiffener,Line,PlaneZone,ComponentProperty,ComponentSilkscreen,TearDrop*
G04 Layer Configs: 1,2,3,4,5,6,7,8,9,10,11,13,14,56*
G04 Copper Areas: 0*
%FSLAX45Y45*%
%MOMM*%
%ADD10C,0.1524*%
%ADD11C,0.254*%
%ADD12C,0.6420*%
G75*


G04 Image Start*
G36*
G01X-4515221Y411261D02*
G01X-4520793Y410742D01*
G01X-4527207Y410577D01*
G01X-4544620Y411029D01*
G01X-4569800Y412674D01*
G01X-4580296Y413803D01*
G01X-4587518Y414966D01*
G01X-4604374Y419875D01*
G01X-4627484Y427811D01*
G01X-4671584Y443559D01*
G01X-4684033Y448293D01*
G01X-4688418Y450309D01*
G01X-4690740Y451733D01*
G01X-4693797Y453511D01*
G01X-4697470Y454251D01*
G01X-4700493Y455099D01*
G01X-4705684Y457408D01*
G01X-4719658Y464997D01*
G01X-4727597Y470100D01*
G01X-4735851Y476050D01*
G01X-4743443Y482109D01*
G01X-4749398Y487535D01*
G01X-4754577Y493460D01*
G01X-4760053Y500874D01*
G01X-4765175Y508831D01*
G01X-4769290Y516384D01*
G01X-4772923Y524611D01*
G01X-4776732Y534405D01*
G01X-4780264Y544537D01*
G01X-4783068Y553780D01*
G01X-4785773Y565732D01*
G01X-4787622Y579413D01*
G01X-4788795Y596682D01*
G01X-4789475Y619397D01*
G01X-4790059Y640647D01*
G01X-4790920Y654841D01*
G01X-4792145Y662922D01*
G01X-4792922Y664966D01*
G01X-4793823Y665836D01*
G01X-4795552Y665949D01*
G01X-4797680Y665398D01*
G01X-4799936Y664284D01*
G01X-4802052Y662712D01*
G01X-4805171Y660461D01*
G01X-4810160Y657504D01*
G01X-4823000Y651005D01*
G01X-4831610Y647475D01*
G01X-4839633Y645172D01*
G01X-4847934Y643909D01*
G01X-4857378Y643496D01*
G01X-4866881Y643778D01*
G01X-4874650Y644890D01*
G01X-4881770Y647073D01*
G01X-4889329Y650568D01*
G01X-4897387Y655449D01*
G01X-4909141Y663445D01*
G01X-4923011Y673448D01*
G01X-4937420Y684349D01*
G01X-4964835Y704772D01*
G01X-4975653Y712249D01*
G01X-4982569Y716496D01*
G01X-4988014Y718906D01*
G01X-4993030Y720314D01*
G01X-4997833Y720763D01*
G01X-5002643Y720292D01*
G01X-5007109Y718933D01*
G01X-5011379Y716582D01*
G01X-5015406Y713272D01*
G01X-5019146Y709033D01*
G01X-5022435Y704089D01*
G01X-5024666Y699188D01*
G01X-5025917Y694107D01*
G01X-5026264Y688626D01*
G01X-5025974Y683970D01*
G01X-5025297Y679334D01*
G01X-5024332Y675256D01*
G01X-5023183Y672271D01*
G01X-5021113Y667095D01*
G01X-5020252Y662341D01*
G01X-5019077Y658013D01*
G01X-5015879Y649525D01*
G01X-5005366Y624968D01*
G01X-4998801Y611004D01*
G01X-4991929Y597315D01*
G01X-4985565Y585475D01*
G01X-4980525Y577055D01*
G01X-4974379Y568707D01*
G01X-4965003Y557064D01*
G01X-4953673Y543666D01*
G01X-4941663Y530057D01*
G01X-4921248Y506787D01*
G01X-4915038Y499188D01*
G01X-4912757Y495779D01*
G01X-4913081Y494627D01*
G01X-4913964Y493171D01*
G01X-4916867Y490095D01*
G01X-4919482Y488694D01*
G01X-4923159Y487997D01*
G01X-4927997Y487998D01*
G01X-4934093Y488689D01*
G01X-4947917Y490011D01*
G01X-4962733Y490377D01*
G01X-4980472Y489019D01*
G01X-5001321Y486196D01*
G01X-5037329Y480545D01*
G01X-5043337Y480088D01*
G01X-5049960Y480197D01*
G01X-5056468Y480830D01*
G01X-5062135Y481947D01*
G01X-5067932Y484050D01*
G01X-5073704Y487206D01*
G01X-5079336Y491343D01*
G01X-5084714Y496387D01*
G01X-5089410Y501965D01*
G01X-5094273Y508836D01*
G01X-5098731Y516127D01*
G01X-5102209Y522967D01*
G01X-5107720Y534242D01*
G01X-5109959Y538020D01*
G01X-5111449Y539821D01*
G01X-5113875Y540259D01*
G01X-5118660Y540324D01*
G01X-5132542Y539394D01*
G01X-5141635Y538827D01*
G01X-5152619Y538725D01*
G01X-5164111Y539073D01*
G01X-5174726Y539856D01*
G01X-5197231Y542795D01*
G01X-5218264Y546472D01*
G01X-5235782Y550992D01*
G01X-5243761Y553574D01*
G01X-5249837Y555956D01*
G01X-5255260Y558737D01*
G01X-5261459Y562406D01*
G01X-5267671Y566487D01*
G01X-5273131Y570501D01*
G01X-5278982Y576117D01*
G01X-5286258Y584558D01*
G01X-5294034Y594682D01*
G01X-5301382Y605345D01*
G01X-5313068Y623726D01*
G01X-5317928Y632001D01*
G01X-5322672Y640291D01*
G01X-5334079Y658711D01*
G01X-5378511Y731190D01*
G01X-5411972Y786991D01*
G01X-5423092Y806281D01*
G01X-5436491Y830392D01*
G01X-5455238Y863851D01*
G01X-5468740Y888563D01*
G01X-5485351Y920341D01*
G01X-5500948Y951599D01*
G01X-5512011Y975062D01*
G01X-5524695Y1003996D01*
G01X-5545272Y1052219D01*
G01X-5566003Y1100442D01*
G01X-5582012Y1134887D01*
G01X-5587278Y1145328D01*
G01X-5593481Y1156442D01*
G01X-5599847Y1166899D01*
G01X-5605603Y1175372D01*
G01X-5611959Y1183153D01*
G01X-5619405Y1190898D01*
G01X-5627340Y1198027D01*
G01X-5635161Y1203956D01*
G01X-5643517Y1209241D01*
G01X-5653723Y1215115D01*
G01X-5661505Y1219270D01*
G01X-5543608Y1219270D01*
G01X-5543191Y1204978D01*
G01X-5541642Y1173526D01*
G01X-5517198Y1142496D01*
G01X-5495234Y1113392D01*
G01X-5484893Y1098944D01*
G01X-5476751Y1086994D01*
G01X-5460815Y1061925D01*
G01X-5444973Y1036015D01*
G01X-5429105Y1008390D01*
G01X-5413104Y979195D01*
G01X-5374287Y904794D01*
G01X-5338077Y834717D01*
G01X-5332547Y824529D01*
G01X-5327459Y816000D01*
G01X-5323380Y810023D01*
G01X-5323380Y810023D01*
G01X-5320872Y807492D01*
G01X-5320324Y807565D01*
G01X-5319837Y808231D01*
G01X-5319045Y811699D01*
G01X-5318484Y818612D01*
G01X-5318139Y829687D01*
G01X-5318052Y867186D01*
G01X-5318681Y929925D01*
G01X-5319626Y983176D01*
G01X-5321064Y1036006D01*
G01X-5322810Y1082559D01*
G01X-5324674Y1116976D01*
G01X-5328982Y1169832D01*
G01X-5331189Y1192211D01*
G01X-5333065Y1207911D01*
G01X-5337099Y1233848D01*
G01X-5341288Y1257512D01*
G01X-5346038Y1278748D01*
G01X-5351421Y1298846D01*
G01X-5357861Y1318715D01*
G01X-5365152Y1339397D01*
G01X-5368402Y1349019D01*
G01X-5371413Y1359500D01*
G01X-5373850Y1369574D01*
G01X-5375376Y1377976D01*
G01X-5376114Y1387635D01*
G01X-5376403Y1401134D01*
G01X-5376235Y1416683D01*
G01X-5375603Y1432494D01*
G01X-5374580Y1464662D01*
G01X-5374626Y1479036D01*
G01X-5375068Y1489765D01*
G01X-5376781Y1504314D01*
G01X-5377775Y1509032D01*
G01X-5378700Y1511112D01*
G01X-5380201Y1510793D01*
G01X-5382761Y1508980D01*
G01X-5386020Y1505972D01*
G01X-5389620Y1502064D01*
G01X-5404103Y1486273D01*
G01X-5426489Y1462805D01*
G01X-5449897Y1438265D01*
G01X-5466837Y1419895D01*
G01X-5483341Y1400606D01*
G01X-5488220Y1393616D01*
G01X-5494092Y1384270D01*
G01X-5508267Y1358990D01*
G01X-5511859Y1351644D01*
G01X-5516021Y1342181D01*
G01X-5523995Y1321789D01*
G01X-5530634Y1301539D01*
G01X-5535177Y1285068D01*
G01X-5541485Y1253860D01*
G01X-5542730Y1244420D01*
G01X-5543446Y1232654D01*
G01X-5543608Y1219270D01*
G01X-5661505Y1219270D01*
G01X-5664489Y1220863D01*
G01X-5674523Y1225768D01*
G01X-5693575Y1234067D01*
G01X-5707940Y1239570D01*
G01X-5714504Y1242065D01*
G01X-5724227Y1246262D01*
G01X-5747905Y1257422D01*
G01X-5761426Y1264412D01*
G01X-5776846Y1272841D01*
G01X-5792266Y1281649D01*
G01X-5805787Y1289773D01*
G01X-5870252Y1330182D01*
G01X-5887072Y1340477D01*
G01X-5899650Y1347422D01*
G01X-5908642Y1351346D01*
G01X-5911998Y1352279D01*
G01X-5914704Y1352581D01*
G01X-5918380Y1352309D01*
G01X-5921792Y1351569D01*
G01X-5924558Y1350474D01*
G01X-5926297Y1349136D01*
G01X-5927570Y1346820D01*
G01X-5929065Y1343061D01*
G01X-5931976Y1333291D01*
G01X-5933408Y1325820D01*
G01X-5935082Y1314644D01*
G01X-5938320Y1287222D01*
G01X-5939592Y1270313D01*
G01X-5940283Y1251673D01*
G01X-5940373Y1232207D01*
G01X-5939845Y1212821D01*
G01X-5935402Y1126621D01*
G01X-5932744Y1089248D01*
G01X-5930057Y1063242D01*
G01X-5926017Y1039819D01*
G01X-5921472Y1012263D01*
G01X-5914282Y968173D01*
G01X-5912553Y955006D01*
G01X-5911314Y937439D01*
G01X-5910571Y915606D01*
G01X-5910331Y889638D01*
G01X-5910543Y866617D01*
G01X-5911098Y845695D01*
G01X-5911914Y829177D01*
G01X-5912905Y819370D01*
G01X-5920266Y782169D01*
G01X-5925917Y758342D01*
G01X-5932743Y733946D01*
G01X-5940576Y710764D01*
G01X-5948649Y689856D01*
G01X-5956557Y672186D01*
G01X-5963993Y656789D01*
G01X-5970840Y644121D01*
G01X-5977330Y633011D01*
G01X-5990275Y611655D01*
G01X-5995694Y603635D01*
G01X-5997872Y601195D01*
G01X-5999301Y600299D01*
G01X-6000413Y600856D01*
G01X-6001727Y602375D01*
G01X-6004306Y607367D01*
G01X-6006205Y614440D01*
G01X-6006994Y621519D01*
G01X-6008531Y630491D01*
G01X-6012716Y649684D01*
G01X-6026474Y707453D01*
G01X-6052459Y813859D01*
G01X-6060700Y851059D01*
G01X-6066369Y877242D01*
G01X-6071330Y901063D01*
G01X-6077733Y935110D01*
G01X-6081709Y959192D01*
G01X-6083025Y969762D01*
G01X-6083976Y980506D01*
G01X-6085026Y1005989D01*
G01X-6085350Y1042574D01*
G01X-6085283Y1080192D01*
G01X-6084418Y1103904D01*
G01X-6083499Y1113018D01*
G01X-6082156Y1121623D01*
G01X-6077901Y1141263D01*
G01X-6074155Y1155877D01*
G01X-6069599Y1171606D01*
G01X-6064811Y1186559D01*
G01X-6060364Y1198846D01*
G01X-6050903Y1221059D01*
G01X-6042059Y1239316D01*
G01X-6032491Y1255482D01*
G01X-6021290Y1272668D01*
G01X-6010250Y1287977D01*
G01X-6001069Y1299631D01*
G01X-5995521Y1306805D01*
G01X-5993833Y1309596D01*
G01X-5993213Y1311342D01*
G01X-5993485Y1312397D01*
G01X-5994225Y1313303D01*
G01X-5995320Y1313963D01*
G01X-5996658Y1314281D01*
G01X-6009751Y1314098D01*
G01X-6015019Y1313474D01*
G01X-6022231Y1312116D01*
G01X-6038691Y1307998D01*
G01X-6055556Y1302372D01*
G01X-6063207Y1299380D01*
G01X-6069010Y1296761D01*
G01X-6074865Y1293301D01*
G01X-6082658Y1288022D01*
G01X-6099987Y1274874D01*
G01X-6108709Y1267184D01*
G01X-6117706Y1258288D01*
G01X-6125920Y1249287D01*
G01X-6132290Y1241283D01*
G01X-6137933Y1232721D01*
G01X-6144167Y1222202D01*
G01X-6150236Y1211059D01*
G01X-6155381Y1200626D01*
G01X-6160046Y1189506D01*
G01X-6164809Y1176491D01*
G01X-6169111Y1163202D01*
G01X-6172393Y1151258D01*
G01X-6174361Y1142546D01*
G01X-6175905Y1133711D01*
G01X-6177104Y1123258D01*
G01X-6178039Y1109690D01*
G01X-6179429Y1067226D01*
G01X-6180711Y994351D01*
G01X-6181982Y924070D01*
G01X-6183404Y879973D01*
G01X-6184323Y864623D01*
G01X-6185461Y852075D01*
G01X-6186878Y841081D01*
G01X-6188635Y830392D01*
G01X-6191457Y815921D01*
G01X-6194796Y800965D01*
G01X-6198235Y787286D01*
G01X-6201357Y776649D01*
G01X-6206191Y761099D01*
G01X-6208202Y752748D01*
G01X-6209611Y748544D01*
G01X-6213448Y739483D01*
G01X-6226062Y712121D01*
G01X-6234332Y695477D01*
G01X-6243646Y677810D01*
G01X-6252864Y661229D01*
G01X-6260843Y647842D01*
G01X-6278135Y621980D01*
G01X-6295948Y597543D01*
G01X-6304213Y587289D01*
G01X-6313272Y576685D01*
G01X-6322028Y566981D01*
G01X-6329385Y559429D01*
G01X-6345014Y545571D01*
G01X-6361174Y532885D01*
G01X-6377145Y522291D01*
G01X-6392319Y513461D01*
G01X-6408011Y504194D01*
G01X-6425227Y492548D01*
G01X-6434500Y486098D01*
G01X-6441235Y482274D01*
G01X-6443923Y481221D01*
G01X-6446305Y480674D01*
G01X-6448490Y480582D01*
G01X-6450586Y480895D01*
G01X-6457594Y483119D01*
G01X-6464534Y486100D01*
G01X-6468010Y488300D01*
G01X-6472381Y491688D01*
G01X-6481571Y500181D01*
G01X-6486311Y505864D01*
G01X-6491718Y513533D01*
G01X-6497123Y522181D01*
G01X-6501864Y530804D01*
G01X-6509795Y547984D01*
G01X-6512804Y555553D01*
G01X-6514617Y561116D01*
G01X-6522472Y596165D01*
G01X-6527439Y618537D01*
G01X-6532014Y637500D01*
G01X-6536572Y653224D01*
G01X-6541498Y667811D01*
G01X-6560438Y717412D01*
G01X-6571870Y748446D01*
G01X-6580047Y772755D01*
G01X-6585446Y793353D01*
G01X-6590197Y815467D01*
G01X-6594023Y838727D01*
G01X-6597196Y862082D01*
G01X-6598114Y873460D01*
G01X-6598612Y887123D01*
G01X-6598655Y901356D01*
G01X-6598211Y914438D01*
G01X-6597118Y928173D01*
G01X-6595395Y944182D01*
G01X-6593278Y960474D01*
G01X-6591004Y975062D01*
G01X-6585428Y1003109D01*
G01X-6582421Y1016051D01*
G01X-6579762Y1026041D01*
G01X-6573265Y1046140D01*
G01X-6565693Y1067375D01*
G01X-6561348Y1078069D01*
G01X-6555684Y1090891D01*
G01X-6543330Y1116473D01*
G01X-6536194Y1129256D01*
G01X-6527129Y1144065D01*
G01X-6517300Y1159062D01*
G01X-6507871Y1172412D01*
G01X-6497651Y1185482D01*
G01X-6485669Y1199714D01*
G01X-6473419Y1213389D01*
G01X-6462392Y1224790D01*
G01X-6451100Y1235388D01*
G01X-6438125Y1246880D01*
G01X-6425072Y1257880D01*
G01X-6413543Y1267003D01*
G01X-6390761Y1283414D01*
G01X-6370821Y1296580D01*
G01X-6350568Y1308086D01*
G01X-6327033Y1320506D01*
G01X-6305835Y1330846D01*
G01X-6291201Y1337350D01*
G01X-6261949Y1348278D01*
G01X-6238643Y1355838D01*
G01X-6209702Y1363967D01*
G01X-6181940Y1370687D01*
G01X-6161468Y1374862D01*
G01X-6113110Y1381412D01*
G01X-6097315Y1383040D01*
G01X-6078759Y1384377D01*
G01X-6059755Y1385284D01*
G01X-6042615Y1385624D01*
G01X-6007343Y1384787D01*
G01X-5989730Y1383868D01*
G01X-5975087Y1382742D01*
G01X-5947348Y1379498D01*
G01X-5922938Y1375782D01*
G01X-5912638Y1373420D01*
G01X-5901393Y1370059D01*
G01X-5890334Y1366072D01*
G01X-5880590Y1361830D01*
G01X-5869196Y1355662D01*
G01X-5853183Y1346184D01*
G01X-5834679Y1334689D01*
G01X-5815808Y1322467D01*
G01X-5797343Y1310577D01*
G01X-5779945Y1299984D01*
G01X-5765570Y1291842D01*
G01X-5756174Y1287305D01*
G01X-5738586Y1281652D01*
G01X-5717586Y1276060D01*
G01X-5706750Y1273233D01*
G01X-5694563Y1269635D01*
G01X-5682518Y1265730D01*
G01X-5672108Y1261979D01*
G01X-5661807Y1257620D01*
G01X-5650058Y1252059D01*
G01X-5638309Y1246012D01*
G01X-5628008Y1240193D01*
G01X-5599825Y1223006D01*
G01X-5596618Y1221192D01*
G01X-5594204Y1220530D01*
G01X-5592189Y1221003D01*
G01X-5590178Y1222596D01*
G01X-5589313Y1223971D01*
G01X-5588577Y1226266D01*
G01X-5587468Y1233841D01*
G01X-5586813Y1245765D01*
G01X-5586571Y1262483D01*
G01X-5585839Y1289784D01*
G01X-5585097Y1299348D01*
G01X-5584209Y1304358D01*
G01X-5577793Y1319513D01*
G01X-5564809Y1347070D01*
G01X-5556262Y1363362D01*
G01X-5548125Y1377381D01*
G01X-5537282Y1393424D01*
G01X-5522229Y1414582D01*
G01X-5502699Y1440760D01*
G01X-5483385Y1462805D01*
G01X-5462996Y1485901D01*
G01X-5439022Y1512406D01*
G01X-5406722Y1548229D01*
G01X-5395271Y1561740D01*
G01X-5389591Y1568956D01*
G01X-5390508Y1571919D01*
G01X-5322983Y1571919D01*
G01X-5322685Y1569056D01*
G01X-5320991Y1561009D01*
G01X-5315144Y1535829D01*
G01X-5307010Y1500896D01*
G01X-5303041Y1481385D01*
G01X-5301834Y1473408D01*
G01X-5301391Y1468054D01*
G01X-5300587Y1456824D01*
G01X-5298654Y1442364D01*
G01X-5297512Y1429986D01*
G01X-5296424Y1408672D01*
G01X-5295514Y1381414D01*
G01X-5294905Y1351203D01*
G01X-5294173Y1317319D01*
G01X-5292975Y1287253D01*
G01X-5291359Y1261951D01*
G01X-5289373Y1242356D01*
G01X-5285346Y1213577D01*
G01X-5282007Y1192755D01*
G01X-5276649Y1166577D01*
G01X-5268642Y1125243D01*
G01X-5263513Y1094931D01*
G01X-5258901Y1064619D01*
G01X-5252921Y1017774D01*
G01X-5250513Y981813D01*
G01X-5247160Y918572D01*
G01X-5244301Y856140D01*
G01X-5243078Y822125D01*
G01X-5243878Y800658D01*
G01X-5245883Y768391D01*
G01X-5248297Y737561D01*
G01X-5250078Y719546D01*
G01X-5250350Y716703D01*
G01X-5250132Y714048D01*
G01X-5249233Y711296D01*
G01X-5247464Y708158D01*
G01X-5244633Y704347D01*
G01X-5240553Y699578D01*
G01X-5227879Y686014D01*
G01X-5215826Y673816D01*
G01X-5206556Y665588D01*
G01X-5202588Y662664D01*
G01X-5198863Y660375D01*
G01X-5195232Y658601D01*
G01X-5191543Y657224D01*
G01X-5177236Y653323D01*
G01X-5160821Y649767D01*
G01X-5146021Y646655D01*
G01X-5135598Y643823D01*
G01X-5132335Y642329D01*
G01X-5128854Y640207D01*
G01X-5125572Y637740D01*
G01X-5122903Y635211D01*
G01X-5119890Y631168D01*
G01X-5115667Y624577D01*
G01X-5105833Y607406D01*
G01X-5094479Y587793D01*
G01X-5088611Y578559D01*
G01X-5083588Y571287D01*
G01X-5078621Y565051D01*
G01X-5072904Y558638D01*
G01X-5067144Y552803D01*
G01X-5062047Y548300D01*
G01X-5056867Y544601D01*
G01X-5050880Y540956D01*
G01X-5044826Y537785D01*
G01X-5039448Y535507D01*
G01X-5029723Y532613D01*
G01X-5029723Y532613D01*
G01X-5022661Y531408D01*
G01X-5020655Y531727D01*
G01X-5019013Y532594D01*
G01X-5017903Y533878D01*
G01X-5017495Y535446D01*
G01X-5018118Y537728D01*
G01X-5019812Y540956D01*
G01X-5022320Y544702D01*
G01X-5025382Y548535D01*
G01X-5032170Y557356D01*
G01X-5037417Y565854D01*
G01X-5040918Y574930D01*
G01X-5043510Y585143D01*
G01X-5045080Y590802D01*
G01X-5047836Y596499D01*
G01X-5051861Y602374D01*
G01X-5057236Y608566D01*
G01X-5062036Y614033D01*
G01X-5066397Y619752D01*
G01X-5069837Y625044D01*
G01X-5071877Y629233D01*
G01X-5077859Y648522D01*
G01X-5080853Y663592D01*
G01X-5083669Y684345D01*
G01X-5085580Y707526D01*
G01X-5086401Y728435D01*
G01X-5086738Y738425D01*
G01X-5087622Y751367D01*
G01X-5090494Y779414D01*
G01X-5094962Y811103D01*
G01X-5100022Y842793D01*
G01X-5104808Y869221D01*
G01X-5108618Y888260D01*
G01X-5110031Y896545D01*
G01X-5111576Y908919D01*
G01X-5114315Y939239D01*
G01X-5115189Y959663D01*
G01X-5115662Y987772D01*
G01X-5115701Y1019860D01*
G01X-5115275Y1052219D01*
G01X-5114174Y1090796D01*
G01X-5112577Y1122098D01*
G01X-5110262Y1149461D01*
G01X-5107927Y1168644D01*
G01X-5047803Y1168644D01*
G01X-5047329Y1146749D01*
G01X-5046809Y1140089D01*
G01X-5046172Y1137643D01*
G01X-5042864Y1139156D01*
G01X-5037215Y1142794D01*
G01X-5028639Y1148157D01*
G01X-5018294Y1153817D01*
G01X-5012360Y1156337D01*
G01X-5005925Y1158173D01*
G01X-4999128Y1159294D01*
G01X-4992110Y1159668D01*
G01X-4983080Y1158831D01*
G01X-4970762Y1156296D01*
G01X-4954884Y1151999D01*
G01X-4935176Y1145874D01*
G01X-4901238Y1134124D01*
G01X-4887780Y1128976D01*
G01X-4879115Y1125217D01*
G01X-4873603Y1122661D01*
G01X-4873603Y1122661D01*
G01X-4868728Y1120792D01*
G01X-4865018Y1119785D01*
G01X-4863003Y1119819D01*
G01X-4862306Y1120986D01*
G01X-4862186Y1123065D01*
G01X-4862625Y1125762D01*
G01X-4863602Y1128785D01*
G01X-4864781Y1133646D01*
G01X-4865773Y1141353D01*
G01X-4866472Y1150846D01*
G01X-4866776Y1161066D01*
G01X-4866507Y1172762D01*
G01X-4865582Y1184375D01*
G01X-4864061Y1195337D01*
G01X-4862006Y1205083D01*
G01X-4856919Y1222724D01*
G01X-4851625Y1238151D01*
G01X-4844339Y1254813D01*
G01X-4834463Y1275424D01*
G01X-4819704Y1304358D01*
G01X-4804430Y1336047D01*
G01X-4791098Y1366173D01*
G01X-4776225Y1401843D01*
G01X-4760970Y1437613D01*
G01X-4753234Y1454556D01*
G01X-4746716Y1467978D01*
G01X-4734584Y1490081D01*
G01X-4728894Y1499432D01*
G01X-4724430Y1505987D01*
G01X-4720179Y1511007D01*
G01X-4715069Y1516182D01*
G01X-4709743Y1520902D01*
G01X-4704843Y1524557D01*
G01X-4699888Y1527445D01*
G01X-4694412Y1530076D01*
G01X-4689080Y1532160D01*
G01X-4684558Y1533407D01*
G01X-4680249Y1533971D01*
G01X-4676894Y1533862D01*
G01X-4674457Y1533073D01*
G01X-4672903Y1531600D01*
G01X-4672256Y1529654D01*
G01X-4672130Y1526999D01*
G01X-4672509Y1523985D01*
G01X-4673377Y1520961D01*
G01X-4676421Y1509481D01*
G01X-4679971Y1491797D01*
G01X-4681634Y1479606D01*
G01X-4683274Y1462752D01*
G01X-4684701Y1443460D01*
G01X-4685726Y1423956D01*
G01X-4686374Y1403434D01*
G01X-4686410Y1388852D01*
G01X-4685827Y1379932D01*
G01X-4685301Y1377507D01*
G01X-4684618Y1376393D01*
G01X-4683161Y1376285D01*
G01X-4681378Y1377338D01*
G01X-4679494Y1379365D01*
G01X-4677736Y1382175D01*
G01X-4664750Y1406315D01*
G01X-4650818Y1431116D01*
G01X-4639709Y1450405D01*
G01X-4629354Y1469694D01*
G01X-4625057Y1477556D01*
G01X-4620510Y1484850D01*
G01X-4614787Y1494168D01*
G01X-4607659Y1506895D01*
G01X-4590581Y1537207D01*
G01X-4573642Y1564763D01*
G01X-4559981Y1586808D01*
G01X-4551743Y1599408D01*
G01X-4539904Y1616158D01*
G01X-4494660Y1676475D01*
G01X-4481692Y1694183D01*
G01X-4469185Y1712378D01*
G01X-4458562Y1728921D01*
G01X-4451249Y1741671D01*
G01X-4445987Y1752624D01*
G01X-4442033Y1762261D01*
G01X-4439544Y1770151D01*
G01X-4438680Y1775865D01*
G01X-4439097Y1780677D01*
G01X-4440424Y1784907D01*
G01X-4442774Y1788804D01*
G01X-4446259Y1792617D01*
G01X-4456066Y1800487D01*
G01X-4468999Y1809378D01*
G01X-4497939Y1828050D01*
G01X-4512126Y1838282D01*
G01X-4526880Y1850169D01*
G01X-4533717Y1855666D01*
G01X-4541127Y1860971D01*
G01X-4548216Y1865482D01*
G01X-4554092Y1868593D01*
G01X-4561078Y1871077D01*
G01X-4569549Y1872899D01*
G01X-4579939Y1874130D01*
G01X-4592680Y1874838D01*
G01X-4614636Y1874921D01*
G01X-4623818Y1874522D01*
G01X-4630163Y1873871D01*
G01X-4641111Y1872014D01*
G01X-4644208Y1852724D01*
G01X-4647817Y1835054D01*
G01X-4650022Y1826529D01*
G01X-4652147Y1819657D01*
G01X-4657306Y1806688D01*
G01X-4662909Y1794856D01*
G01X-4667496Y1786667D01*
G01X-4670213Y1782456D01*
G01X-4683123Y1765904D01*
G01X-4688733Y1759035D01*
G01X-4695488Y1751550D01*
G01X-4702539Y1744353D01*
G01X-4709034Y1738348D01*
G01X-4724586Y1725841D01*
G01X-4741774Y1713158D01*
G01X-4750675Y1707269D01*
G01X-4761341Y1700702D01*
G01X-4782611Y1688742D01*
G01X-4799386Y1679464D01*
G01X-4805186Y1675802D01*
G01X-4808144Y1673459D01*
G01X-4808857Y1672266D01*
G01X-4809292Y1670690D01*
G01X-4809307Y1666135D01*
G01X-4808138Y1659291D01*
G01X-4805733Y1649652D01*
G01X-4803475Y1640096D01*
G01X-4801364Y1628958D01*
G01X-4799636Y1617623D01*
G01X-4798528Y1607475D01*
G01X-4796845Y1589346D01*
G01X-4795249Y1576716D01*
G01X-4794908Y1570867D01*
G01X-4795114Y1561384D01*
G01X-4796944Y1536760D01*
G01X-4798881Y1521953D01*
G01X-4801626Y1506526D01*
G01X-4804972Y1491515D01*
G01X-4808711Y1477961D01*
G01X-4816046Y1456476D01*
G01X-4819293Y1448365D01*
G01X-4821691Y1443516D01*
G01X-4826014Y1436259D01*
G01X-4830169Y1428484D01*
G01X-4832961Y1424008D01*
G01X-4837583Y1417840D01*
G01X-4843390Y1410794D01*
G01X-4849741Y1403683D01*
G01X-4857804Y1395829D01*
G01X-4867307Y1387897D01*
G01X-4877674Y1380337D01*
G01X-4888329Y1373597D01*
G01X-4943678Y1341052D01*
G01X-4957906Y1332218D01*
G01X-4970247Y1323732D01*
G01X-4980112Y1316021D01*
G01X-4986911Y1309517D01*
G01X-4991296Y1304059D01*
G01X-4995152Y1298381D01*
G01X-4998064Y1293153D01*
G01X-4999613Y1289048D01*
G01X-5001694Y1282849D01*
G01X-5002974Y1280563D01*
G01X-5004213Y1279249D01*
G01X-5005815Y1279086D01*
G01X-5008086Y1279935D01*
G01X-5010723Y1281638D01*
G01X-5013424Y1284040D01*
G01X-5019482Y1291492D01*
G01X-5025088Y1300224D01*
G01X-5029554Y1307036D01*
G01X-5031483Y1309108D01*
G01X-5032870Y1309869D01*
G01X-5033439Y1309503D01*
G01X-5034101Y1308455D01*
G01X-5035604Y1304607D01*
G01X-5037191Y1298912D01*
G01X-5038670Y1291957D01*
G01X-5041856Y1268380D01*
G01X-5044882Y1236845D01*
G01X-5046940Y1201466D01*
G01X-5047803Y1168644D01*
G01X-5107927Y1168644D01*
G01X-5107005Y1176222D01*
G01X-5100201Y1221612D01*
G01X-5093178Y1263023D01*
G01X-5086502Y1296745D01*
G01X-5080531Y1323647D01*
G01X-5070044Y1364225D01*
G01X-5067825Y1373187D01*
G01X-5066798Y1379531D01*
G01X-5066916Y1383790D01*
G01X-5067390Y1385304D01*
G01X-5068133Y1386496D01*
G01X-5075603Y1392818D01*
G01X-5089197Y1402771D01*
G01X-5097074Y1408622D01*
G01X-5105249Y1415284D01*
G01X-5112757Y1421937D01*
G01X-5118631Y1427761D01*
G01X-5123509Y1433433D01*
G01X-5128305Y1439671D01*
G01X-5132468Y1445719D01*
G01X-5135445Y1450820D01*
G01X-5137789Y1456100D01*
G01X-5140230Y1462637D01*
G01X-5144246Y1476152D01*
G01X-5145802Y1484330D01*
G01X-5146335Y1492161D01*
G01X-5145848Y1500943D01*
G01X-5144345Y1511975D01*
G01X-5140028Y1534161D01*
G01X-5134379Y1557874D01*
G01X-5131413Y1568047D01*
G01X-5128213Y1577413D01*
G01X-5125165Y1584932D01*
G01X-5122652Y1589563D01*
G01X-5119922Y1592673D01*
G01X-5116280Y1596048D01*
G01X-5112203Y1599280D01*
G01X-5108164Y1601964D01*
G01X-5105209Y1603537D01*
G01X-5102078Y1604798D01*
G01X-5098500Y1605784D01*
G01X-5094206Y1606531D01*
G01X-5082386Y1607455D01*
G01X-5064453Y1607859D01*
G01X-5050384Y1608219D01*
G01X-5039345Y1608912D01*
G01X-5032038Y1609875D01*
G01X-5030004Y1610437D01*
G01X-5029168Y1611044D01*
G01X-5029160Y1613497D01*
G01X-5029827Y1618108D01*
G01X-5032723Y1631161D01*
G01X-5037433Y1646409D01*
G01X-5040064Y1653396D01*
G01X-5042454Y1658751D01*
G01X-5048674Y1669737D01*
G01X-5056268Y1681723D01*
G01X-5060936Y1687739D01*
G01X-5067311Y1694732D01*
G01X-5074552Y1701835D01*
G01X-5081823Y1708179D01*
G01X-5090349Y1714451D01*
G01X-5099967Y1720435D01*
G01X-5110077Y1725783D01*
G01X-5120077Y1730151D01*
G01X-5131661Y1734265D01*
G01X-5141588Y1736775D01*
G01X-5151702Y1738026D01*
G01X-5163851Y1738366D01*
G01X-5186353Y1738366D01*
G01X-5197704Y1726655D01*
G01X-5211389Y1711352D01*
G01X-5228350Y1691005D01*
G01X-5260047Y1651372D01*
G01X-5274474Y1633812D01*
G01X-5291744Y1613631D01*
G01X-5317681Y1583375D01*
G01X-5321289Y1578490D01*
G01X-5322317Y1576417D01*
G01X-5322871Y1574300D01*
G01X-5322983Y1571919D01*
G01X-5390508Y1571919D01*
G01X-5400333Y1603668D01*
G01X-5409583Y1634240D01*
G01X-5416738Y1659831D01*
G01X-5428138Y1703921D01*
G01X-5437830Y1743878D01*
G01X-5448497Y1787967D01*
G01X-5462252Y1838176D01*
G01X-5468475Y1857559D01*
G01X-5471339Y1865333D01*
G01X-5473544Y1870417D01*
G01X-5476544Y1877167D01*
G01X-5477791Y1881863D01*
G01X-5478579Y1884886D01*
G01X-5480723Y1890725D01*
G01X-5487771Y1907490D01*
G01X-5501403Y1938148D01*
G01X-5533003Y2009794D01*
G01X-5569270Y2091085D01*
G01X-5586260Y2126823D01*
G01X-5594933Y2144651D01*
G01X-5620302Y2153395D01*
G01X-5632488Y2157919D01*
G01X-5646917Y2163776D01*
G01X-5661784Y2170207D01*
G01X-5675284Y2176456D01*
G01X-5699480Y2188848D01*
G01X-5709393Y2194393D01*
G01X-5716066Y2198537D01*
G01X-5725785Y2205756D01*
G01X-5733471Y2212212D01*
G01X-5736090Y2214385D01*
G01X-5738613Y2215932D01*
G01X-5740750Y2216709D01*
G01X-5742216Y2216574D01*
G01X-5743334Y2215321D01*
G01X-5744521Y2213054D01*
G01X-5746539Y2206766D01*
G01X-5747661Y2203336D01*
G01X-5749374Y2200102D01*
G01X-5751445Y2197428D01*
G01X-5753642Y2195678D01*
G01X-5755845Y2193979D01*
G01X-5757485Y2191606D01*
G01X-5758493Y2188691D01*
G01X-5758806Y2185367D01*
G01X-5758278Y2181565D01*
G01X-5756933Y2176743D01*
G01X-5754974Y2171520D01*
G01X-5752604Y2166514D01*
G01X-5748456Y2160200D01*
G01X-5741652Y2151413D01*
G01X-5733138Y2141318D01*
G01X-5723855Y2131076D01*
G01X-5714318Y2120396D01*
G01X-5705111Y2109109D01*
G01X-5697284Y2098559D01*
G01X-5691884Y2090091D01*
G01X-5687969Y2082435D01*
G01X-5684183Y2074096D01*
G01X-5680958Y2066080D01*
G01X-5678725Y2059395D01*
G01X-5677056Y2050784D01*
G01X-5675847Y2038600D01*
G01X-5675112Y2023036D01*
G01X-5674864Y2004283D01*
G01X-5675143Y1986502D01*
G01X-5675913Y1969641D01*
G01X-5677077Y1955291D01*
G01X-5678535Y1945037D01*
G01X-5688596Y1898192D01*
G01X-5701019Y1843080D01*
G01X-5703921Y1828643D01*
G01X-5705791Y1814275D01*
G01X-5706803Y1798119D01*
G01X-5707134Y1778323D01*
G01X-5706904Y1758460D01*
G01X-5705993Y1742797D01*
G01X-5704213Y1729303D01*
G01X-5701376Y1715945D01*
G01X-5698449Y1702145D01*
G01X-5696691Y1688052D01*
G01X-5695857Y1670683D01*
G01X-5695701Y1647055D01*
G01X-5696508Y1611567D01*
G01X-5697291Y1597936D01*
G01X-5698218Y1589563D01*
G01X-5706088Y1544096D01*
G01X-5711259Y1516695D01*
G01X-5713824Y1505209D01*
G01X-5715944Y1497250D01*
G01X-5717631Y1491103D01*
G01X-5719017Y1484550D01*
G01X-5719959Y1478376D01*
G01X-5720313Y1473364D01*
G01X-5720825Y1464945D01*
G01X-5722016Y1458897D01*
G01X-5723178Y1457205D01*
G01X-5725107Y1455819D01*
G01X-5727533Y1454882D01*
G01X-5730189Y1454538D01*
G01X-5733472Y1455206D01*
G01X-5737608Y1457022D01*
G01X-5742067Y1459710D01*
G01X-5746320Y1462993D01*
G01X-5750589Y1467402D01*
G01X-5755092Y1473159D01*
G01X-5759294Y1479515D01*
G01X-5762658Y1485727D01*
G01X-5765537Y1492576D01*
G01X-5768420Y1500668D01*
G01X-5770970Y1508993D01*
G01X-5772855Y1516540D01*
G01X-5774243Y1526659D01*
G01X-5775405Y1541870D01*
G01X-5776227Y1560260D01*
G01X-5776596Y1579919D01*
G01X-5776894Y1604989D01*
G01X-5777682Y1620080D01*
G01X-5778366Y1624924D01*
G01X-5779300Y1628523D01*
G01X-5780528Y1631294D01*
G01X-5782091Y1633653D01*
G01X-5785477Y1637415D01*
G01X-5790821Y1642566D01*
G01X-5804445Y1654320D01*
G01X-5841472Y1683254D01*
G01X-5917652Y1743234D01*
G01X-5960833Y1778318D01*
G01X-5976650Y1791657D01*
G01X-5985642Y1799724D01*
G01X-5996795Y1811201D01*
G01X-6007143Y1822413D01*
G01X-6017276Y1835054D01*
G01X-6027915Y1849969D01*
G01X-6038228Y1866907D01*
G01X-6047579Y1884414D01*
G01X-6055291Y1901921D01*
G01X-6061660Y1918859D01*
G01X-6070189Y1946415D01*
G01X-6071583Y1952978D01*
G01X-6073074Y1962698D01*
G01X-6075632Y1986368D01*
G01X-6077032Y2007611D01*
G01X-6077132Y2018058D01*
G01X-6076044Y2027901D01*
G01X-6074585Y2047693D01*
G01X-6073289Y2061617D01*
G01X-6071152Y2074881D01*
G01X-6068006Y2088329D01*
G01X-6063684Y2102805D01*
G01X-6055185Y2128008D01*
G01X-6047643Y2148953D01*
G01X-6026448Y2204065D01*
G01X-6014715Y2235079D01*
G01X-6006635Y2257406D01*
G01X-6003179Y2269220D01*
G01X-6002449Y2273135D01*
G01X-6002564Y2274956D01*
G01X-6004263Y2274542D01*
G01X-6007848Y2272377D01*
G01X-6018576Y2264199D01*
G01X-6025224Y2258997D01*
G01X-6032533Y2253827D01*
G01X-6039614Y2249286D01*
G01X-6045582Y2245971D01*
G01X-6064462Y2238121D01*
G01X-6092438Y2227759D01*
G01X-6120010Y2217672D01*
G01X-6137917Y2210480D01*
G01X-6148132Y2205280D01*
G01X-6157211Y2199983D01*
G01X-6168213Y2191726D01*
G01X-6183053Y2179410D01*
G01X-6191112Y2171980D01*
G01X-6200063Y2162991D01*
G01X-6208816Y2153575D01*
G01X-6216281Y2144867D01*
G01X-6229759Y2127163D01*
G01X-6240181Y2111752D01*
G01X-6247948Y2097569D01*
G01X-6255046Y2082818D01*
G01X-6257067Y2077920D01*
G01X-6258653Y2073200D01*
G01X-6259870Y2068093D01*
G01X-6260784Y2062036D01*
G01X-6261964Y2044816D01*
G01X-6262720Y2017027D01*
G01X-6262896Y1995708D01*
G01X-6262595Y1975093D01*
G01X-6261881Y1957534D01*
G01X-6260815Y1945381D01*
G01X-6254844Y1905081D01*
G01X-6249639Y1869258D01*
G01X-6248967Y1862559D01*
G01X-6248789Y1856751D01*
G01X-6249099Y1852405D01*
G01X-6249890Y1850090D01*
G01X-6251803Y1849208D01*
G01X-6255125Y1849057D01*
G01X-6259709Y1849630D01*
G01X-6265410Y1850920D01*
G01X-6272114Y1853065D01*
G01X-6280701Y1856346D01*
G01X-6299104Y1864529D01*
G01X-6308684Y1869735D01*
G01X-6319530Y1876412D01*
G01X-6330308Y1883698D01*
G01X-6339688Y1890734D01*
G01X-6348393Y1898098D01*
G01X-6357336Y1906276D01*
G01X-6365463Y1914273D01*
G01X-6371725Y1921093D01*
G01X-6383007Y1935644D01*
G01X-6393183Y1950549D01*
G01X-6400784Y1963276D01*
G01X-6405877Y1972593D01*
G01X-6416256Y1997349D01*
G01X-6419856Y2005704D01*
G01X-6424431Y2015243D01*
G01X-6429393Y2024791D01*
G01X-6434155Y2033172D01*
G01X-6439619Y2041462D01*
G01X-6446494Y2050760D01*
G01X-6453901Y2059928D01*
G01X-6460959Y2067829D01*
G01X-6477102Y2083709D01*
G01X-6493475Y2098434D01*
G01X-6510417Y2111733D01*
G01X-6527928Y2124184D01*
G01X-6546249Y2136787D01*
G01X-6565138Y2150454D01*
G01X-6580516Y2162552D01*
G01X-6590397Y2171383D01*
G01X-6593409Y2175184D01*
G01X-6597203Y2180728D01*
G01X-6605193Y2194062D01*
G01X-6609700Y2203122D01*
G01X-6612595Y2211425D01*
G01X-6614330Y2220691D01*
G01X-6615358Y2232641D01*
G01X-6615787Y2244970D01*
G01X-6615160Y2254818D01*
G01X-6613173Y2264467D01*
G01X-6609520Y2276197D01*
G01X-6606246Y2286967D01*
G01X-6604020Y2297045D01*
G01X-6602750Y2306949D01*
G01X-6602347Y2317195D01*
G01X-6602649Y2328072D01*
G01X-6603876Y2336276D01*
G01X-6606513Y2343774D01*
G01X-6611044Y2352532D01*
G01X-6618247Y2364721D01*
G01X-6623354Y2372272D01*
G01X-6625309Y2375385D01*
G01X-6627958Y2380721D01*
G01X-6633952Y2395068D01*
G01X-6637304Y2405044D01*
G01X-6639453Y2414388D01*
G01X-6640598Y2424256D01*
G01X-6640935Y2435800D01*
G01X-6640510Y2446474D01*
G01X-6639327Y2458471D01*
G01X-6637526Y2470657D01*
G01X-6635249Y2481893D01*
G01X-6630426Y2500887D01*
G01X-6626815Y2512975D01*
G01X-6624796Y2516599D01*
G01X-6621572Y2519515D01*
G01X-6616707Y2522016D01*
G01X-6609762Y2524394D01*
G01X-6567894Y2538203D01*
G01X-6544785Y2545854D01*
G01X-6527928Y2550823D01*
G01X-6508238Y2554670D01*
G01X-6478315Y2559623D01*
G01X-6445829Y2565251D01*
G01X-6419975Y2570718D01*
G01X-6408831Y2573092D01*
G01X-6396836Y2574761D01*
G01X-6383794Y2575748D01*
G01X-6369512Y2576072D01*
G01X-6356559Y2575829D01*
G01X-6342974Y2575166D01*
G01X-6330369Y2574185D01*
G01X-6320358Y2572987D01*
G01X-6309736Y2571680D01*
G01X-6299764Y2571296D01*
G01X-6289277Y2571843D01*
G01X-6277108Y2573331D01*
G01X-6266815Y2575111D01*
G01X-6256109Y2577420D01*
G01X-6246255Y2579961D01*
G01X-6238520Y2582434D01*
G01X-6231421Y2584679D01*
G01X-6223751Y2586404D01*
G01X-6216231Y2587476D01*
G01X-6209580Y2587764D01*
G01X-6202743Y2587070D01*
G01X-6194618Y2585422D01*
G01X-6186050Y2583023D01*
G01X-6177883Y2580078D01*
G01X-6169107Y2576043D01*
G01X-6158457Y2570484D01*
G01X-6147278Y2564134D01*
G01X-6136912Y2557727D01*
G01X-6120281Y2547475D01*
G01X-6114951Y2544627D01*
G01X-6112671Y2543904D01*
G01X-6113217Y2546619D01*
G01X-6115579Y2553137D01*
G01X-6124235Y2573670D01*
G01X-6136434Y2601815D01*
G01X-6147857Y2629348D01*
G01X-6159194Y2655837D01*
G01X-6171185Y2681470D01*
G01X-6176920Y2692258D01*
G01X-6183325Y2703134D01*
G01X-6189618Y2712829D01*
G01X-6195018Y2720079D01*
G01X-6200749Y2726214D01*
G01X-6207092Y2731749D01*
G01X-6213741Y2736443D01*
G01X-6220390Y2740055D01*
G01X-6257814Y2756775D01*
G01X-6268032Y2761611D01*
G01X-6278533Y2767143D01*
G01X-6288083Y2772690D01*
G01X-6295448Y2777569D01*
G01X-6301463Y2782349D01*
G01X-6307341Y2787625D01*
G01X-6312406Y2792756D01*
G01X-6315987Y2797101D01*
G01X-6320972Y2803908D01*
G01X-6324062Y2807544D01*
G01X-6327824Y2813374D01*
G01X-6334425Y2825455D01*
G01X-6338311Y2833506D01*
G01X-6342520Y2843203D01*
G01X-6349876Y2862656D01*
G01X-6355616Y2882514D01*
G01X-6359826Y2901235D01*
G01X-6362739Y2919956D01*
G01X-6365358Y2939813D01*
G01X-6367103Y2959825D01*
G01X-6367916Y2978918D01*
G01X-6367779Y2986197D01*
G01X-6367296Y2992388D01*
G01X-6366543Y2996834D01*
G01X-6365595Y2998882D01*
G01X-6364016Y2999152D01*
G01X-6361541Y2998760D01*
G01X-6358509Y2997790D01*
G01X-6355260Y2996325D01*
G01X-6350683Y2994417D01*
G01X-6344036Y2992240D01*
G01X-6328099Y2988153D01*
G01X-6317101Y2986338D01*
G01X-6301419Y2984421D01*
G01X-6283144Y2982630D01*
G01X-6264366Y2981193D01*
G01X-6243714Y2979593D01*
G01X-6226784Y2977691D01*
G01X-6213393Y2975464D01*
G01X-6203359Y2972885D01*
G01X-6187897Y2967433D01*
G01X-6173989Y2961961D01*
G01X-6166144Y2957879D01*
G01X-6154244Y2950819D01*
G01X-6139906Y2941774D01*
G01X-6124747Y2931734D01*
G01X-6096580Y2911966D01*
G01X-6086121Y2904167D01*
G01X-6080035Y2899182D01*
G01X-6072250Y2892320D01*
G01X-6065144Y2886793D01*
G01X-6052050Y2875735D01*
G01X-6029868Y2855576D01*
G01X-6018617Y2845358D01*
G01X-6009165Y2837229D01*
G01X-6002503Y2832012D01*
G01X-6000528Y2830752D01*
G01X-5999624Y2830527D01*
G01X-5999353Y2833165D01*
G01X-5999791Y2839171D01*
G01X-6002424Y2857720D01*
G01X-6006361Y2885655D01*
G01X-6009661Y2916865D01*
G01X-6011670Y2946485D01*
G01X-6012504Y2970599D01*
G01X-6012195Y2979962D01*
G01X-6011356Y2990527D01*
G01X-6010116Y3000998D01*
G01X-6008602Y3010081D01*
G01X-6005079Y3026133D01*
G01X-6002081Y3037637D01*
G01X-5998220Y3047523D01*
G01X-5992622Y3059682D01*
G01X-5980182Y3081785D01*
G01X-5959870Y3115577D01*
G01X-5926022Y3170690D01*
G01X-5916993Y3186343D01*
G01X-5906424Y3205730D01*
G01X-5895306Y3228179D01*
G01X-5884959Y3251197D01*
G01X-5877470Y3269763D01*
G01X-5873225Y3281509D01*
G01X-5869930Y3290648D01*
G01X-5864723Y3302947D01*
G01X-5860085Y3314388D01*
G01X-5858674Y3318776D01*
G01X-5858156Y3321465D01*
G01X-5857591Y3324264D01*
G01X-5856053Y3328948D01*
G01X-5850998Y3341362D01*
G01X-5836695Y3372161D01*
G01X-5833023Y3379155D01*
G01X-5828307Y3387203D01*
G01X-5823155Y3395311D01*
G01X-5818174Y3402483D01*
G01X-5812140Y3409713D01*
G01X-5804121Y3417978D01*
G01X-5795163Y3426260D01*
G01X-5786310Y3433539D01*
G01X-5776288Y3440675D01*
G01X-5764148Y3448565D01*
G01X-5751420Y3456250D01*
G01X-5739637Y3462772D01*
G01X-5716286Y3474451D01*
G01X-5696914Y3483400D01*
G01X-5658327Y3498629D01*
G01X-5636681Y3505869D01*
G01X-5615605Y3511728D01*
G01X-5605475Y3513720D01*
G01X-5593177Y3515540D01*
G01X-5580262Y3516987D01*
G01X-5568284Y3517859D01*
G01X-5554123Y3518257D01*
G01X-5543280Y3517764D01*
G01X-5533769Y3516177D01*
G01X-5523607Y3513292D01*
G01X-5510154Y3509180D01*
G01X-5503123Y3507469D01*
G01X-5500781Y3506654D01*
G01X-5496220Y3504434D01*
G01X-5483071Y3497136D01*
G01X-5474919Y3491811D01*
G01X-5465729Y3484951D01*
G01X-5456628Y3477442D01*
G01X-5448742Y3470167D01*
G01X-5441535Y3462676D01*
G01X-5434280Y3454576D01*
G01X-5427822Y3446843D01*
G01X-5423006Y3440451D01*
G01X-5413378Y3424592D01*
G01X-5402872Y3404832D01*
G01X-5398248Y3394921D01*
G01X-5393885Y3384596D01*
G01X-5390275Y3375078D01*
G01X-5387909Y3367591D01*
G01X-5386392Y3359390D01*
G01X-5385178Y3348169D01*
G01X-5384371Y3335197D01*
G01X-5384078Y3321742D01*
G01X-5384318Y3308910D01*
G01X-5384969Y3296995D01*
G01X-5385933Y3287326D01*
G01X-5387110Y3281231D01*
G01X-5390790Y3271185D01*
G01X-5395379Y3260183D01*
G01X-5399078Y3250909D01*
G01X-5400616Y3245015D01*
G01X-5402584Y3237128D01*
G01X-5407316Y3223061D01*
G01X-5415333Y3203305D01*
G01X-5425200Y3181739D01*
G01X-5431393Y3170147D01*
G01X-5439986Y3155480D01*
G01X-5449844Y3139617D01*
G01X-5459829Y3124439D01*
G01X-5515950Y3041575D01*
G01X-5541702Y3002579D01*
G01X-5557733Y2976818D01*
G01X-5566850Y2959844D01*
G01X-5575980Y2941978D01*
G01X-5580285Y2932449D01*
G01X-5585250Y2920181D01*
G01X-5590261Y2906755D01*
G01X-5594704Y2893755D01*
G01X-5602672Y2868312D01*
G01X-5608372Y2848878D01*
G01X-5611790Y2834127D01*
G01X-5614274Y2819944D01*
G01X-5616792Y2805761D01*
G01X-5620293Y2791010D01*
G01X-5623665Y2778080D01*
G01X-5625874Y2768276D01*
G01X-5626221Y2765168D01*
G01X-5626034Y2762777D01*
G01X-5625344Y2761241D01*
G01X-5624183Y2760698D01*
G01X-5621958Y2762020D01*
G01X-5618169Y2765619D01*
G01X-5613347Y2770946D01*
G01X-5608022Y2777450D01*
G01X-5596582Y2793062D01*
G01X-5587458Y2807073D01*
G01X-5558948Y2857536D01*
G01X-5549582Y2873559D01*
G01X-5539629Y2889396D01*
G01X-5530278Y2903221D01*
G01X-5522717Y2913206D01*
G01X-5515481Y2921079D01*
G01X-5507011Y2929153D01*
G01X-5498362Y2936479D01*
G01X-5490589Y2942109D01*
G01X-5474583Y2952024D01*
G01X-5459876Y2960660D01*
G01X-5442741Y2971624D01*
G01X-5420897Y2987136D01*
G01X-5407550Y2997894D01*
G01X-5392850Y3011324D01*
G01X-5376702Y3027517D01*
G01X-5359013Y3046563D01*
G01X-5325824Y3082701D01*
G01X-5297546Y3112468D01*
G01X-5286814Y3122936D01*
G01X-5275910Y3132791D01*
G01X-5266112Y3140922D01*
G01X-5258692Y3146224D01*
G01X-5252052Y3149838D01*
G01X-5245668Y3152516D01*
G01X-5239761Y3154179D01*
G01X-5234548Y3154751D01*
G01X-5228897Y3154218D01*
G01X-5226349Y3153430D01*
G01X-5223798Y3152188D01*
G01X-5218132Y3148015D01*
G01X-5210777Y3141054D01*
G01X-5203685Y3133477D01*
G01X-5199026Y3126971D01*
G01X-5197360Y3123683D01*
G01X-5196000Y3120141D01*
G01X-5193804Y3111595D01*
G01X-5192580Y3103716D01*
G01X-5191927Y3094910D01*
G01X-5191867Y3085713D01*
G01X-5192421Y3076658D01*
G01X-5193709Y3067669D01*
G01X-5195819Y3057368D01*
G01X-5198458Y3047027D01*
G01X-5201334Y3037916D01*
G01X-5205249Y3027926D01*
G01X-5210717Y3015192D01*
G01X-5223415Y2988036D01*
G01X-5235195Y2965351D01*
G01X-5239669Y2957455D01*
G01X-5242369Y2953374D01*
G01X-5245121Y2949843D01*
G01X-5246265Y2947461D01*
G01X-5251258Y2938381D01*
G01X-5263261Y2918744D01*
G01X-5275802Y2899162D01*
G01X-5282088Y2890212D01*
G01X-5287769Y2882865D01*
G01X-5298856Y2867135D01*
G01X-5316550Y2840874D01*
G01X-5324569Y2829586D01*
G01X-5339978Y2808853D01*
G01X-5361460Y2780848D01*
G01X-5384078Y2752079D01*
G01X-5393777Y2739530D01*
G01X-5402864Y2727032D01*
G01X-5410321Y2716031D01*
G01X-5415130Y2707976D01*
G01X-5420500Y2696276D01*
G01X-5422124Y2691740D01*
G01X-5422709Y2688915D01*
G01X-5422954Y2686995D01*
G01X-5423650Y2684927D01*
G01X-5424693Y2682958D01*
G01X-5425974Y2681337D01*
G01X-5427182Y2679788D01*
G01X-5427705Y2678282D01*
G01X-5427535Y2676888D01*
G01X-5426663Y2675672D01*
G01X-5423797Y2674928D01*
G01X-5417931Y2674646D01*
G01X-5409919Y2674830D01*
G01X-5400616Y2675488D01*
G01X-5386843Y2676396D01*
G01X-5366662Y2677260D01*
G01X-5317928Y2678470D01*
G01X-5284216Y2678793D01*
G01X-5264820Y2678270D01*
G01X-5258547Y2677540D01*
G01X-5253521Y2676419D01*
G01X-5248963Y2674846D01*
G01X-5244097Y2672760D01*
G01X-5238012Y2669686D01*
G01X-5232216Y2666136D01*
G01X-5227365Y2662549D01*
G01X-5224114Y2659364D01*
G01X-5222527Y2657101D01*
G01X-5221279Y2654610D01*
G01X-5220329Y2651596D01*
G01X-5219639Y2647762D01*
G01X-5218885Y2636456D01*
G01X-5218703Y2618324D01*
G01X-5218934Y2599347D01*
G01X-5219980Y2586241D01*
G01X-5220974Y2580738D01*
G01X-5222368Y2575320D01*
G01X-5226625Y2562894D01*
G01X-5233261Y2543219D01*
G01X-5238091Y2525778D01*
G01X-5239707Y2517044D01*
G01X-5240256Y2509118D01*
G01X-5239741Y2500565D01*
G01X-5238166Y2489955D01*
G01X-5233689Y2467393D01*
G01X-5227797Y2441196D01*
G01X-5225088Y2428921D01*
G01X-5222812Y2416776D01*
G01X-5221208Y2406163D01*
G01X-5220516Y2398484D01*
G01X-5220849Y2384293D01*
G01X-5222184Y2369731D01*
G01X-5223037Y2365421D01*
G01X-5224549Y2360143D01*
G01X-5229645Y2346459D01*
G01X-5237659Y2328222D01*
G01X-5248778Y2304974D01*
G01X-5261762Y2278009D01*
G01X-5269672Y2259625D01*
G01X-5272231Y2252325D01*
G01X-5274128Y2245578D01*
G01X-5276747Y2231621D01*
G01X-5280184Y2210940D01*
G01X-5283640Y2194111D01*
G01X-5287776Y2180859D01*
G01X-5290345Y2174258D01*
G01X-5292847Y2168781D01*
G01X-5295875Y2163805D01*
G01X-5299879Y2158568D01*
G01X-5304338Y2153693D01*
G01X-5308730Y2149801D01*
G01X-5312074Y2147351D01*
G01X-5315167Y2145463D01*
G01X-5318456Y2144050D01*
G01X-5322390Y2143023D01*
G01X-5327417Y2142295D01*
G01X-5333986Y2141779D01*
G01X-5353545Y2141026D01*
G01X-5413019Y2139895D01*
G01X-5425654Y2140119D01*
G01X-5435371Y2141018D01*
G01X-5443364Y2142772D01*
G01X-5450826Y2145559D01*
G01X-5463617Y2152108D01*
G01X-5476113Y2159768D01*
G01X-5487038Y2166592D01*
G01X-5496052Y2171129D01*
G01X-5500250Y2172280D01*
G01X-5504875Y2172644D01*
G01X-5510163Y2172219D01*
G01X-5516348Y2171005D01*
G01X-5521990Y2169174D01*
G01X-5527890Y2166449D01*
G01X-5533394Y2163177D01*
G01X-5537845Y2159701D01*
G01X-5544098Y2153508D01*
G01X-5546698Y2150236D01*
G01X-5532698Y2113864D01*
G01X-5518826Y2079995D01*
G01X-5505135Y2047967D01*
G01X-5495557Y2025792D01*
G01X-5491573Y2015616D01*
G01X-5485502Y2001706D01*
G01X-5470907Y1970555D01*
G01X-5455045Y1937859D01*
G01X-5445930Y1920237D01*
G01X-5442428Y1913920D01*
G01X-5440060Y1908408D01*
G01X-5433756Y1893824D01*
G01X-5420790Y1865696D01*
G01X-5405443Y1831330D01*
G01X-5393411Y1801745D01*
G01X-5378635Y1761789D01*
G01X-5372434Y1743559D01*
G01X-5364697Y1719077D01*
G01X-5348093Y1665400D01*
G01X-5341859Y1647676D01*
G01X-5339383Y1642092D01*
G01X-5337785Y1639811D01*
G01X-5336493Y1640089D01*
G01X-5334850Y1641470D01*
G01X-5333066Y1643729D01*
G01X-5331352Y1646643D01*
G01X-5324963Y1657731D01*
G01X-5315078Y1673610D01*
G01X-5305285Y1689296D01*
G01X-5299120Y1699924D01*
G01X-5292642Y1710107D01*
G01X-5282098Y1724725D01*
G01X-5274364Y1734220D01*
G01X-5263244Y1746935D01*
G01X-5250223Y1761206D01*
G01X-5236789Y1775372D01*
G01X-5214299Y1799455D01*
G01X-5207470Y1807456D01*
G01X-5204977Y1811195D01*
G01X-5207536Y1830679D01*
G01X-5213250Y1866502D01*
G01X-5219071Y1900948D01*
G01X-5220262Y1915421D01*
G01X-5221574Y1943625D01*
G01X-5223924Y2024950D01*
G01X-5225264Y2081927D01*
G01X-5226665Y2117327D01*
G01X-5227510Y2129041D01*
G01X-5228517Y2137885D01*
G01X-5229735Y2144701D01*
G01X-5231212Y2150330D01*
G01X-5233720Y2157589D01*
G01X-5236818Y2165131D01*
G01X-5240110Y2172064D01*
G01X-5243205Y2177497D01*
G01X-5250150Y2188130D01*
G01X-5240628Y2196188D01*
G01X-5235645Y2199983D01*
G01X-5229115Y2204360D01*
G01X-5214805Y2212690D01*
G01X-5199580Y2219781D01*
G01X-5185864Y2224970D01*
G01X-5179232Y2226462D01*
G01X-5170518Y2227688D01*
G01X-5160853Y2228521D01*
G01X-5151370Y2228835D01*
G01X-5142107Y2228608D01*
G01X-5133044Y2227966D01*
G01X-5125219Y2227008D01*
G01X-5119673Y2225833D01*
G01X-5109124Y2221958D01*
G01X-5097585Y2216901D01*
G01X-5085247Y2210349D01*
G01X-5072779Y2202880D01*
G01X-5057430Y2191691D01*
G01X-5038167Y2176197D01*
G01X-5019235Y2159588D01*
G01X-5004681Y2145717D01*
G01X-4990844Y2129608D01*
G01X-4973637Y2107618D01*
G01X-4965051Y2095497D01*
G01X-4956167Y2081845D01*
G01X-4948033Y2068335D01*
G01X-4941698Y2056640D01*
G01X-4936245Y2045053D01*
G01X-4930513Y2031839D01*
G01X-4925184Y2018625D01*
G01X-4920939Y2007039D01*
G01X-4917327Y1995561D01*
G01X-4913724Y1982643D01*
G01X-4910546Y1969867D01*
G01X-4908211Y1958815D01*
G01X-4906480Y1946785D01*
G01X-4904945Y1931345D01*
G01X-4903772Y1914484D01*
G01X-4903130Y1898192D01*
G01X-4902348Y1860991D01*
G01X-4872791Y1860991D01*
G01X-4872082Y1873391D01*
G01X-4870809Y1885387D01*
G01X-4868744Y1896814D01*
G01X-4864838Y1913348D01*
G01X-4598962Y1913348D01*
G01X-4597905Y1912024D01*
G01X-4595733Y1910456D01*
G01X-4589315Y1907374D01*
G01X-4562135Y1898419D01*
G01X-4551022Y1895482D01*
G01X-4539076Y1893777D01*
G01X-4539076Y1893777D01*
G01X-4523155Y1893027D01*
G01X-4500119Y1892953D01*
G01X-4464927Y1893673D01*
G01X-4441436Y1895020D01*
G01X-4426277Y1896814D01*
G01X-4424643Y1920237D01*
G01X-4422870Y1938196D01*
G01X-4421849Y1944761D01*
G01X-4420902Y1948482D01*
G01X-4420203Y1950996D01*
G01X-4420469Y1951824D01*
G01X-4421240Y1952407D01*
G01X-4424584Y1952971D01*
G01X-4430805Y1952946D01*
G01X-4444144Y1951579D01*
G01X-4459352Y1948797D01*
G01X-4486914Y1942568D01*
G01X-4528258Y1932873D01*
G01X-4579249Y1920861D01*
G01X-4587200Y1918796D01*
G01X-4593567Y1916691D01*
G01X-4597704Y1914793D01*
G01X-4598733Y1913998D01*
G01X-4598962Y1913348D01*
G01X-4864838Y1913348D01*
G01X-4860380Y1932217D01*
G01X-4854398Y1955352D01*
G01X-4848069Y1976736D01*
G01X-4841342Y1995511D01*
G01X-4834403Y2012371D01*
G01X-4827313Y2028963D01*
G01X-4823262Y2035852D01*
G01X-4813521Y2050878D01*
G01X-4807086Y2060031D01*
G01X-4799758Y2069562D01*
G01X-4792441Y2078344D01*
G01X-4786035Y2085247D01*
G01X-4779679Y2091092D01*
G01X-4772495Y2096993D01*
G01X-4765366Y2102260D01*
G01X-4759172Y2106208D01*
G01X-4752754Y2109499D01*
G01X-4745014Y2112979D01*
G01X-4736926Y2116235D01*
G01X-4729466Y2118851D01*
G01X-4722097Y2120884D01*
G01X-4714258Y2122555D01*
G01X-4706887Y2123690D01*
G01X-4700919Y2124117D01*
G01X-4694730Y2123968D01*
G01X-4691380Y2123300D01*
G01X-4690596Y2122686D01*
G01X-4690313Y2121843D01*
G01X-4690974Y2119330D01*
G01X-4693570Y2109448D01*
G01X-4696911Y2092463D01*
G01X-4698709Y2080413D01*
G01X-4699394Y2069881D01*
G01X-4698991Y2058928D01*
G01X-4697525Y2045617D01*
G01X-4695606Y2034248D01*
G01X-4692788Y2021626D01*
G01X-4689452Y2009288D01*
G01X-4685975Y1998772D01*
G01X-4678758Y1981179D01*
G01X-4675502Y1974252D01*
G01X-4673048Y1969838D01*
G01X-4668693Y1962139D01*
G01X-4664733Y1953304D01*
G01X-4661509Y1945779D01*
G01X-4658926Y1941229D01*
G01X-4657948Y1941007D01*
G01X-4655973Y1941317D01*
G01X-4649504Y1943362D01*
G01X-4640463Y1947015D01*
G01X-4629796Y1951931D01*
G01X-4590332Y1970544D01*
G01X-4561333Y1982805D01*
G01X-4531083Y1993992D01*
G01X-4481575Y2011366D01*
G01X-4436291Y2027383D01*
G01X-4422021Y2032749D01*
G01X-4416194Y2035306D01*
G01X-4415676Y2037214D01*
G01X-4415865Y2040810D01*
G01X-4416697Y2045580D01*
G01X-4418110Y2051009D01*
G01X-4421770Y2065078D01*
G01X-4424843Y2079885D01*
G01X-4428123Y2096785D01*
G01X-4432276Y2115885D01*
G01X-4434586Y2128606D01*
G01X-4436075Y2144365D01*
G01X-4436889Y2165517D01*
G01X-4437177Y2194420D01*
G01X-4437037Y2221974D01*
G01X-4436431Y2241514D01*
G01X-4435286Y2254385D01*
G01X-4434489Y2258740D01*
G01X-4433530Y2261933D01*
G01X-4424242Y2283961D01*
G01X-4418068Y2296017D01*
G01X-4410970Y2307613D01*
G01X-4402403Y2318662D01*
G01X-4392696Y2329402D01*
G01X-4382277Y2338809D01*
G01X-4371999Y2346655D01*
G01X-4367856Y2349152D01*
G01X-4364099Y2350971D01*
G01X-4361141Y2351941D01*
G01X-4359397Y2351891D01*
G01X-4358615Y2349951D01*
G01X-4358279Y2345779D01*
G01X-4358403Y2339988D01*
G01X-4358999Y2333190D01*
G01X-4359578Y2325215D01*
G01X-4359655Y2316217D01*
G01X-4359249Y2307298D01*
G01X-4358382Y2299563D01*
G01X-4355821Y2286669D01*
G01X-4354503Y2281741D01*
G01X-4353379Y2278735D01*
G01X-4347504Y2270365D01*
G01X-4336690Y2256421D01*
G01X-4325558Y2241748D01*
G01X-4318919Y2231621D01*
G01X-4317323Y2227533D01*
G01X-4315521Y2221494D01*
G01X-4312181Y2206820D01*
G01X-4306288Y2175131D01*
G01X-4303670Y2154952D01*
G01X-4301019Y2125784D01*
G01X-4299769Y2111763D01*
G01X-4298345Y2099879D01*
G01X-4296920Y2091388D01*
G01X-4295671Y2087544D01*
G01X-4295011Y2087133D01*
G01X-4294326Y2087188D01*
G01X-4292899Y2088671D01*
G01X-4291425Y2091939D01*
G01X-4289939Y2096934D01*
G01X-4286450Y2108691D01*
G01X-4282360Y2120019D01*
G01X-4273010Y2142175D01*
G01X-4268327Y2155520D01*
G01X-4263851Y2171969D01*
G01X-4262172Y2180886D01*
G01X-4260801Y2191371D01*
G01X-4259878Y2202116D01*
G01X-4259545Y2211814D01*
G01X-4260331Y2233656D01*
G01X-4262190Y2256421D01*
G01X-4264899Y2284594D01*
G01X-4267730Y2319436D01*
G01X-4269226Y2335919D01*
G01X-4271143Y2351530D01*
G01X-4273233Y2364509D01*
G01X-4275250Y2373094D01*
G01X-4278347Y2380656D01*
G01X-4282817Y2388018D01*
G01X-4289193Y2395933D01*
G01X-4298007Y2405148D01*
G01X-4307414Y2413823D01*
G01X-4317090Y2421434D01*
G01X-4327260Y2428142D01*
G01X-4338144Y2434108D01*
G01X-4350902Y2440181D01*
G01X-4355885Y2442122D01*
G01X-4360541Y2443474D01*
G01X-4365322Y2444345D01*
G01X-4370679Y2444840D01*
G01X-4384933Y2445130D01*
G01X-4396587Y2444764D01*
G01X-4409258Y2443708D01*
G01X-4421747Y2442088D01*
G01X-4432850Y2440034D01*
G01X-4445007Y2437549D01*
G01X-4453671Y2436467D01*
G01X-4460431Y2436698D01*
G01X-4466876Y2438156D01*
G01X-4472044Y2440333D01*
G01X-4477964Y2443827D01*
G01X-4483947Y2448183D01*
G01X-4489302Y2452948D01*
G01X-4494849Y2459270D01*
G01X-4501442Y2467966D01*
G01X-4508255Y2477889D01*
G01X-4514463Y2487893D01*
G01X-4531236Y2517071D01*
G01X-4544816Y2541872D01*
G01X-4561556Y2570891D01*
G01X-4564826Y2575450D01*
G01X-4569087Y2580490D01*
G01X-4573784Y2585397D01*
G01X-4578368Y2589560D01*
G01X-4583309Y2593166D01*
G01X-4588980Y2596558D01*
G01X-4594681Y2599355D01*
G01X-4599710Y2601176D01*
G01X-4606928Y2602331D01*
G01X-4617315Y2602556D01*
G01X-4631893Y2601830D01*
G01X-4651680Y2600132D01*
G01X-4672722Y2598313D01*
G01X-4687742Y2597617D01*
G01X-4698909Y2598017D01*
G01X-4708394Y2599491D01*
G01X-4715740Y2601423D01*
G01X-4724241Y2604225D01*
G01X-4732842Y2607521D01*
G01X-4740491Y2610936D01*
G01X-4748543Y2615206D01*
G01X-4758243Y2620830D01*
G01X-4777700Y2633215D01*
G01X-4786832Y2639868D01*
G01X-4796414Y2647515D01*
G01X-4805309Y2655212D01*
G01X-4812378Y2662013D01*
G01X-4824690Y2675590D01*
G01X-4834624Y2687675D01*
G01X-4842091Y2699102D01*
G01X-4848474Y2711097D01*
G01X-4853022Y2722279D01*
G01X-4856079Y2731749D01*
G01X-4858332Y2738593D01*
G01X-4860152Y2741979D01*
G01X-4848542Y2741979D01*
G01X-4848132Y2737745D01*
G01X-4845827Y2729576D01*
G01X-4842357Y2720888D01*
G01X-4839528Y2715966D01*
G01X-4835005Y2709260D01*
G01X-4823365Y2694022D01*
G01X-4816631Y2686410D01*
G01X-4810138Y2680110D01*
G01X-4804265Y2675457D01*
G01X-4799388Y2672785D01*
G01X-4788783Y2668495D01*
G01X-4776322Y2662996D01*
G01X-4769557Y2659391D01*
G01X-4761326Y2654278D01*
G01X-4752669Y2648337D01*
G01X-4744625Y2642248D01*
G01X-4728733Y2630417D01*
G01X-4721379Y2625519D01*
G01X-4715684Y2622177D01*
G01X-4709585Y2619639D01*
G01X-4702213Y2617641D01*
G01X-4693653Y2616200D01*
G01X-4683987Y2615335D01*
G01X-4683987Y2615335D01*
G01X-4673774Y2614985D01*
G01X-4666515Y2615335D01*
G01X-4661446Y2616476D01*
G01X-4657803Y2618502D01*
G01X-4654757Y2621014D01*
G01X-4654033Y2621853D01*
G01X-4653860Y2622508D01*
G01X-4654250Y2623049D01*
G01X-4655215Y2623545D01*
G01X-4658923Y2624684D01*
G01X-4667502Y2628095D01*
G01X-4678813Y2633686D01*
G01X-4686029Y2638373D01*
G01X-4695877Y2645854D01*
G01X-4707062Y2655099D01*
G01X-4718287Y2665079D01*
G01X-4731985Y2678185D01*
G01X-4741381Y2688542D01*
G01X-4744993Y2693343D01*
G01X-4748163Y2698241D01*
G01X-4754020Y2709374D01*
G01X-4759359Y2719726D01*
G01X-4764648Y2727701D01*
G01X-4770752Y2734417D01*
G01X-4778537Y2740992D01*
G01X-4785699Y2747104D01*
G01X-4791996Y2753746D01*
G01X-4797497Y2760997D01*
G01X-4802270Y2768938D01*
G01X-4809009Y2780825D01*
G01X-4811506Y2784692D01*
G01X-4812954Y2786411D01*
G01X-4815300Y2786841D01*
G01X-4818192Y2786330D01*
G01X-4819827Y2784786D01*
G01X-4821852Y2781455D01*
G01X-4824011Y2776827D01*
G01X-4826044Y2771392D01*
G01X-4828674Y2764687D01*
G01X-4831730Y2759383D01*
G01X-4835460Y2755133D01*
G01X-4840111Y2751589D01*
G01X-4844943Y2748191D01*
G01X-4847616Y2745225D01*
G01X-4848271Y2743681D01*
G01X-4848542Y2741979D01*
G01X-4860152Y2741979D01*
G01X-4860947Y2743460D01*
G01X-4862735Y2744804D01*
G01X-4865478Y2745904D01*
G01X-4868804Y2746647D01*
G01X-4872338Y2746920D01*
G01X-4877136Y2747586D01*
G01X-4879491Y2748515D01*
G01X-4881948Y2749927D01*
G01X-4887555Y2754459D01*
G01X-4894739Y2761696D01*
G01X-4901892Y2769902D01*
G01X-4907089Y2777576D01*
G01X-4911114Y2786094D01*
G01X-4913371Y2792754D01*
G01X-4768368Y2792754D01*
G01X-4768300Y2791659D01*
G01X-4767722Y2790321D01*
G01X-4759521Y2778610D01*
G01X-4753782Y2769298D01*
G01X-4748644Y2758517D01*
G01X-4746571Y2754010D01*
G01X-4744408Y2750481D01*
G01X-4742410Y2748283D01*
G01X-4741553Y2747793D01*
G01X-4741553Y2747793D01*
G01X-4740835Y2747768D01*
G01X-4739690Y2748906D01*
G01X-4738906Y2751211D01*
G01X-4738545Y2754373D01*
G01X-4738674Y2758084D01*
G01X-4739665Y2762580D01*
G01X-4741665Y2767991D01*
G01X-4744386Y2773637D01*
G01X-4747537Y2778835D01*
G01X-4750964Y2783440D01*
G01X-4754440Y2787468D01*
G01X-4757559Y2790484D01*
G01X-4759914Y2792056D01*
G01X-4763852Y2793264D01*
G01X-4767063Y2793766D01*
G01X-4767949Y2793494D01*
G01X-4768368Y2792754D01*
G01X-4913371Y2792754D01*
G01X-4914752Y2796830D01*
G01X-4919870Y2815256D01*
G01X-4920100Y2816230D01*
G01X-4762133Y2816230D01*
G01X-4761861Y2815218D01*
G01X-4760215Y2812147D01*
G01X-4757333Y2808049D01*
G01X-4753492Y2803366D01*
G01X-4748716Y2797218D01*
G01X-4743283Y2789134D01*
G01X-4737863Y2780163D01*
G01X-4733125Y2771356D01*
G01X-4723774Y2751497D01*
G01X-4715506Y2732261D01*
G01X-4710795Y2721370D01*
G01X-4708472Y2717369D01*
G01X-4705740Y2713851D01*
G01X-4702279Y2710457D01*
G01X-4697764Y2706826D01*
G01X-4684284Y2697415D01*
G01X-4673108Y2689257D01*
G01X-4660216Y2678910D01*
G01X-4647203Y2667703D01*
G01X-4635666Y2656962D01*
G01X-4614872Y2637286D01*
G01X-4599834Y2624242D01*
G01X-4588466Y2616444D01*
G01X-4576493Y2609382D01*
G01X-4565665Y2602855D01*
G01X-4560761Y2599385D01*
G01X-4557048Y2596347D01*
G01X-4551512Y2591759D01*
G01X-4549390Y2590363D01*
G01X-4549390Y2590363D01*
G01X-4548090Y2589850D01*
G01X-4547346Y2590531D01*
G01X-4546737Y2592386D01*
G01X-4546174Y2598481D01*
G01X-4546622Y2602557D01*
G01X-4547841Y2607273D01*
G01X-4549646Y2612047D01*
G01X-4551850Y2616294D01*
G01X-4556053Y2621354D01*
G01X-4563300Y2628346D01*
G01X-4572574Y2636345D01*
G01X-4582858Y2644428D01*
G01X-4593529Y2652805D01*
G01X-4603856Y2661604D01*
G01X-4612662Y2669780D01*
G01X-4618768Y2676287D01*
G01X-4623998Y2682001D01*
G01X-4630418Y2688019D01*
G01X-4637215Y2693626D01*
G01X-4643574Y2698104D01*
G01X-4655797Y2705511D01*
G01X-4665203Y2710804D01*
G01X-4673269Y2715819D01*
G01X-4682269Y2722557D01*
G01X-4687442Y2728042D01*
G01X-4693939Y2736845D01*
G01X-4701254Y2748228D01*
G01X-4708883Y2761455D01*
G01X-4716151Y2774191D01*
G01X-4723411Y2786001D01*
G01X-4729821Y2795569D01*
G01X-4734540Y2801579D01*
G01X-4742876Y2809215D01*
G01X-4747113Y2812429D01*
G01X-4750690Y2814668D01*
G01X-4759188Y2818566D01*
G01X-4760447Y2818053D01*
G01X-4761991Y2816820D01*
G01X-4762133Y2816230D01*
G01X-4920100Y2816230D01*
G01X-4923570Y2830966D01*
G01X-4924729Y2841100D01*
G01X-4925896Y2858505D01*
G01X-4927710Y2905368D01*
G01X-4928609Y2932168D01*
G01X-4929986Y2960325D01*
G01X-4931653Y2986493D01*
G01X-4933423Y3007326D01*
G01X-4937240Y3041056D01*
G01X-4940430Y3064108D01*
G01X-4942002Y3071388D01*
G01X-4944252Y3079789D01*
G01X-4946879Y3088272D01*
G01X-4949585Y3095798D01*
G01X-4953756Y3104558D01*
G01X-4960376Y3116405D01*
G01X-4968533Y3129784D01*
G01X-4977318Y3143143D01*
G01X-4986256Y3156672D01*
G01X-4994828Y3170514D01*
G01X-5002062Y3183046D01*
G01X-5006984Y3192643D01*
G01X-5011053Y3202313D01*
G01X-5013410Y3210007D01*
G01X-5014322Y3216922D01*
G01X-5014057Y3224257D01*
G01X-5013172Y3229832D01*
G01X-5011705Y3235209D01*
G01X-5009854Y3239785D01*
G01X-5007823Y3242958D01*
G01X-5005620Y3245087D01*
G01X-5003291Y3246831D01*
G01X-5001114Y3248009D01*
G01X-4999366Y3248442D01*
G01X-4997747Y3247645D01*
G01X-4995919Y3245474D01*
G01X-4994108Y3242262D01*
G01X-4992538Y3238340D01*
G01X-4990348Y3233447D01*
G01X-4986850Y3227591D01*
G01X-4982526Y3221508D01*
G01X-4977858Y3215932D01*
G01X-4972256Y3210342D01*
G01X-4965390Y3204218D01*
G01X-4958131Y3198301D01*
G01X-4951349Y3193333D01*
G01X-4943129Y3188220D01*
G01X-4931958Y3181908D01*
G01X-4919304Y3175199D01*
G01X-4906633Y3168895D01*
G01X-4884878Y3158906D01*
G01X-4877573Y3155867D01*
G01X-4874074Y3154751D01*
G01X-4866942Y3153173D01*
G01X-4854014Y3149379D01*
G01X-4831849Y3143003D01*
G01X-4802507Y3135217D01*
G01X-4785861Y3130611D01*
G01X-4771667Y3125876D01*
G01X-4759456Y3120839D01*
G01X-4748759Y3115327D01*
G01X-4738825Y3108853D01*
G01X-4727639Y3100211D01*
G01X-4715626Y3089750D01*
G01X-4703210Y3077821D01*
G01X-4690570Y3064410D01*
G01X-4678350Y3050059D01*
G01X-4666790Y3035065D01*
G01X-4656131Y3019726D01*
G01X-4637159Y2989285D01*
G01X-4628068Y2973752D01*
G01X-4620786Y2960598D01*
G01X-4604478Y2927829D01*
G01X-4585662Y2887574D01*
G01X-4568206Y2850118D01*
G01X-4555169Y2824077D01*
G01X-4545007Y2806713D01*
G01X-4534461Y2790117D01*
G01X-4528879Y2782422D01*
G01X-4521679Y2773335D01*
G01X-4513791Y2763990D01*
G01X-4506142Y2755523D01*
G01X-4496654Y2746101D01*
G01X-4487485Y2738518D01*
G01X-4477541Y2731965D01*
G01X-4465729Y2725633D01*
G01X-4454452Y2720444D01*
G01X-4444188Y2716572D01*
G01X-4434664Y2713929D01*
G01X-4425604Y2712424D01*
G01X-4416756Y2711644D01*
G01X-4411265Y2711733D01*
G01X-4409491Y2712143D01*
G01X-4408213Y2712818D01*
G01X-4407314Y2713773D01*
G01X-4406680Y2715025D01*
G01X-4406379Y2718222D01*
G01X-4406826Y2723624D01*
G01X-4407926Y2730478D01*
G01X-4409583Y2738028D01*
G01X-4414915Y2756786D01*
G01X-4421251Y2775854D01*
G01X-4437290Y2819944D01*
G01X-4453810Y2864034D01*
G01X-4468038Y2901235D01*
G01X-4478467Y2930169D01*
G01X-4490996Y2964614D01*
G01X-4508019Y3011459D01*
G01X-4518518Y3043149D01*
G01X-4525249Y3063574D01*
G01X-4530464Y3079744D01*
G01X-4536742Y3101548D01*
G01X-4542418Y3123600D01*
G01X-4546186Y3140368D01*
G01X-4553395Y3174040D01*
G01X-4555747Y3186957D01*
G01X-4557232Y3203133D01*
G01X-4557714Y3216792D01*
G01X-4281573Y3216792D01*
G01X-4280774Y3210449D01*
G01X-4278855Y3200947D01*
G01X-4270670Y3165773D01*
G01X-4265470Y3141541D01*
G01X-4260646Y3116172D01*
G01X-4253556Y3074838D01*
G01X-4250947Y3056444D01*
G01X-4248232Y3033504D01*
G01X-4243922Y2985970D01*
G01X-4242216Y2970887D01*
G01X-4241206Y2966299D01*
G01X-4241206Y2966299D01*
G01X-4240714Y2965050D01*
G01X-4240251Y2964614D01*
G01X-4239033Y2965420D01*
G01X-4237308Y2967614D01*
G01X-4233252Y2974828D01*
G01X-4228741Y2986125D01*
G01X-4224702Y2998940D01*
G01X-4223262Y3006402D01*
G01X-4222079Y3016445D01*
G01X-4221275Y3027754D01*
G01X-4220971Y3039015D01*
G01X-4221275Y3050919D01*
G01X-4222125Y3063979D01*
G01X-4223389Y3076613D01*
G01X-4224938Y3087238D01*
G01X-4229477Y3108879D01*
G01X-4234780Y3129950D01*
G01X-4240109Y3147380D01*
G01X-4244711Y3160262D01*
G01X-4256897Y3186440D01*
G01X-4264232Y3200748D01*
G01X-4270489Y3211930D01*
G01X-4272842Y3215407D01*
G01X-4275188Y3218255D01*
G01X-4277257Y3220179D01*
G01X-4278776Y3220886D01*
G01X-4279862Y3220563D01*
G01X-4280751Y3219683D01*
G01X-4281352Y3218381D01*
G01X-4281573Y3216792D01*
G01X-4557714Y3216792D01*
G01X-4558019Y3225430D01*
G01X-4558275Y3256709D01*
G01X-4558125Y3288909D01*
G01X-4557418Y3310235D01*
G01X-4555921Y3324431D01*
G01X-4554805Y3330026D01*
G01X-4553404Y3335243D01*
G01X-4546363Y3360125D01*
G01X-4542657Y3371259D01*
G01X-4536683Y3386303D01*
G01X-4523529Y3417912D01*
G01X-4512876Y3444090D01*
G01X-4507702Y3458514D01*
G01X-4502409Y3475780D01*
G01X-4497733Y3493692D01*
G01X-4494040Y3509672D01*
G01X-4491927Y3524262D01*
G01X-4491049Y3538835D01*
G01X-4490298Y3553503D01*
G01X-4488493Y3568322D01*
G01X-4482582Y3602538D01*
G01X-4480576Y3612005D01*
G01X-4477594Y3623522D01*
G01X-4474038Y3635635D01*
G01X-4470312Y3646888D01*
G01X-4462804Y3667343D01*
G01X-4457275Y3681333D01*
G01X-4453453Y3691292D01*
G01X-4450051Y3702060D01*
G01X-4447860Y3712202D01*
G01X-4446949Y3720660D01*
G01X-4446734Y3723478D01*
G01X-4446150Y3725786D01*
G01X-4445285Y3727345D01*
G01X-4444229Y3727918D01*
G01X-4442427Y3726342D01*
G01X-4439530Y3722050D01*
G01X-4435938Y3715697D01*
G01X-4432050Y3707940D01*
G01X-4422780Y3687355D01*
G01X-4413776Y3665917D01*
G01X-4405275Y3642658D01*
G01X-4397212Y3617694D01*
G01X-4384021Y3573175D01*
G01X-4380935Y3564130D01*
G01X-4376557Y3553062D01*
G01X-4371468Y3541373D01*
G01X-4366252Y3530463D01*
G01X-4354070Y3507989D01*
G01X-4342093Y3488180D01*
G01X-4330156Y3470842D01*
G01X-4318072Y3454311D01*
G01X-4303759Y3436396D01*
G01X-4286463Y3415733D01*
G01X-4261725Y3388419D01*
G01X-4229519Y3354517D01*
G01X-4213916Y3338082D01*
G01X-4199175Y3321863D01*
G01X-4186954Y3307730D01*
G01X-4178914Y3297551D01*
G01X-4172976Y3288695D01*
G01X-4166477Y3278164D01*
G01X-4160203Y3267277D01*
G01X-4154941Y3257353D01*
G01X-4150071Y3246834D01*
G01X-4144862Y3234325D01*
G01X-4139939Y3221394D01*
G01X-4135926Y3209607D01*
G01X-4128824Y3184014D01*
G01X-4123154Y3158884D01*
G01X-4121139Y3145558D01*
G01X-4119090Y3127608D01*
G01X-4117246Y3107384D01*
G01X-4115848Y3087238D01*
G01X-4114857Y3063598D01*
G01X-4114577Y3040054D01*
G01X-4115011Y3016334D01*
G01X-4116158Y2992170D01*
G01X-4119039Y2954470D01*
G01X-4120528Y2940166D01*
G01X-4121802Y2931546D01*
G01X-4127194Y2904007D01*
G01X-4130437Y2889263D01*
G01X-4134423Y2875073D01*
G01X-4145880Y2843367D01*
G01X-4154201Y2823432D01*
G01X-4164458Y2800655D01*
G01X-4186349Y2753809D01*
G01X-4201512Y2720742D01*
G01X-4207070Y2706077D01*
G01X-4213539Y2686297D01*
G01X-4220207Y2662874D01*
G01X-4226244Y2639451D01*
G01X-4231142Y2615814D01*
G01X-4235075Y2591876D01*
G01X-4236445Y2580137D01*
G01X-4236921Y2571526D01*
G01X-4236504Y2565339D01*
G01X-4235199Y2560875D01*
G01X-4233555Y2558170D01*
G01X-4231434Y2555998D01*
G01X-4229075Y2554552D01*
G01X-4226718Y2554028D01*
G01X-4224022Y2554643D01*
G01X-4220641Y2556320D01*
G01X-4217007Y2558801D01*
G01X-4213554Y2561830D01*
G01X-4209569Y2567125D01*
G01X-4204488Y2575774D01*
G01X-4198964Y2586579D01*
G01X-4193650Y2598342D01*
G01X-4182573Y2623879D01*
G01X-4172934Y2644963D01*
G01X-4162875Y2664274D01*
G01X-4150789Y2685553D01*
G01X-4143869Y2696591D01*
G01X-4135028Y2709883D01*
G01X-4116129Y2736531D01*
G01X-4106749Y2748659D01*
G01X-4096829Y2760761D01*
G01X-4087553Y2771432D01*
G01X-4080102Y2779273D01*
G01X-4064724Y2793120D01*
G01X-4048668Y2806135D01*
G01X-4040598Y2811820D01*
G01X-4030850Y2818117D01*
G01X-4020652Y2824260D01*
G01X-4011233Y2829482D01*
G01X-3990063Y2839555D01*
G01X-3968511Y2848431D01*
G01X-3958441Y2851814D01*
G01X-3947157Y2855093D01*
G01X-3936038Y2857895D01*
G01X-3926464Y2859844D01*
G01X-3914414Y2861271D01*
G01X-3899163Y2861970D01*
G01X-3879926Y2861958D01*
G01X-3855919Y2861249D01*
G01X-3827916Y2860296D01*
G01X-3811244Y2860397D01*
G01X-3805679Y2860928D01*
G01X-3801173Y2861824D01*
G01X-3797135Y2863119D01*
G01X-3792973Y2864846D01*
G01X-3786696Y2868178D01*
G01X-3778936Y2873122D01*
G01X-3770680Y2879012D01*
G01X-3762914Y2885181D01*
G01X-3753508Y2892299D01*
G01X-3741294Y2900293D01*
G01X-3727460Y2908427D01*
G01X-3713194Y2915964D01*
G01X-3699453Y2923184D01*
G01X-3686899Y2930521D01*
G01X-3676629Y2937296D01*
G01X-3669741Y2942831D01*
G01X-3664456Y2948504D01*
G01X-3658324Y2955937D01*
G01X-3652104Y2964168D01*
G01X-3646558Y2972230D01*
G01X-3641268Y2979999D01*
G01X-3635746Y2987431D01*
G01X-3630644Y2993683D01*
G01X-3626618Y2997912D01*
G01X-3618144Y3004572D01*
G01X-3608902Y3010585D01*
G01X-3603626Y3013218D01*
G01X-3596498Y3016281D01*
G01X-3580420Y3022177D01*
G01X-3572364Y3025028D01*
G01X-3564249Y3028327D01*
G01X-3557020Y3031666D01*
G01X-3551621Y3034635D01*
G01X-3542865Y3040982D01*
G01X-3536003Y3047226D01*
G01X-3532775Y3050325D01*
G01X-3528062Y3054199D01*
G01X-3516709Y3062298D01*
G01X-3491903Y3077526D01*
G01X-3472609Y3088616D01*
G01X-3453315Y3099809D01*
G01X-3442097Y3107114D01*
G01X-3430607Y3115646D01*
G01X-3424567Y3120287D01*
G01X-3420760Y3122493D01*
G01X-3419488Y3122759D01*
G01X-3418526Y3122507D01*
G01X-3417793Y3121768D01*
G01X-3417204Y3120572D01*
G01X-3416860Y3117226D01*
G01X-3417194Y3111427D01*
G01X-3418128Y3103992D01*
G01X-3419584Y3095734D01*
G01X-3421829Y3086360D01*
G01X-3424543Y3078106D01*
G01X-3427663Y3071138D01*
G01X-3431124Y3065623D01*
G01X-3435492Y3060980D01*
G01X-3441584Y3056051D01*
G01X-3448906Y3051195D01*
G01X-3456965Y3046773D01*
G01X-3465720Y3041853D01*
G01X-3474890Y3035639D01*
G01X-3483862Y3028580D01*
G01X-3492025Y3021123D01*
G01X-3499466Y3013111D01*
G01X-3506283Y3004575D01*
G01X-3512088Y2996042D01*
G01X-3516491Y2988036D01*
G01X-3520365Y2979007D01*
G01X-3525144Y2966646D01*
G01X-3534988Y2938435D01*
G01X-3544631Y2909820D01*
G01X-3552803Y2887457D01*
G01X-3559584Y2871171D01*
G01X-3565881Y2857167D01*
G01X-3572518Y2844776D01*
G01X-3580116Y2832367D01*
G01X-3596607Y2808922D01*
G01X-3626484Y2770878D01*
G01X-3636269Y2759255D01*
G01X-3646895Y2747582D01*
G01X-3657078Y2737218D01*
G01X-3665539Y2729519D01*
G01X-3673707Y2723247D01*
G01X-3683091Y2716769D01*
G01X-3692534Y2710849D01*
G01X-3700875Y2706250D01*
G01X-3715040Y2699943D01*
G01X-3720509Y2698024D01*
G01X-3723894Y2697319D01*
G01X-3727362Y2696776D01*
G01X-3733056Y2695296D01*
G01X-3747963Y2690430D01*
G01X-3767815Y2683541D01*
G01X-3772971Y2677908D01*
G01X-3784167Y2664365D01*
G01X-3791301Y2656175D01*
G01X-3798819Y2648644D01*
G01X-3806015Y2642431D01*
G01X-3812182Y2638195D01*
G01X-3824770Y2632105D01*
G01X-3837458Y2627286D01*
G01X-3872428Y2615222D01*
G01X-3890702Y2608128D01*
G01X-3903448Y2602518D01*
G01X-3908553Y2599379D01*
G01X-3915941Y2594199D01*
G01X-3933606Y2580595D01*
G01X-3951923Y2566305D01*
G01X-3965980Y2556338D01*
G01X-3979434Y2548387D01*
G01X-3996299Y2538946D01*
G01X-4013974Y2528919D01*
G01X-4029374Y2519563D01*
G01X-4042953Y2509799D01*
G01X-4056248Y2498793D01*
G01X-4061779Y2493347D01*
G01X-4065892Y2488389D01*
G01X-4068456Y2484100D01*
G01X-4069340Y2480661D01*
G01X-4068818Y2477632D01*
G01X-4067397Y2473997D01*
G01X-4065294Y2470211D01*
G01X-4062726Y2466734D01*
G01X-4058694Y2462358D01*
G01X-4057020Y2461143D01*
G01X-4055263Y2460520D01*
G01X-4053190Y2460447D01*
G01X-4050568Y2460880D01*
G01X-4042743Y2463099D01*
G01X-4034758Y2464841D01*
G01X-4023937Y2466124D01*
G01X-4010564Y2466925D01*
G01X-3994921Y2467219D01*
G01X-3960468Y2467285D01*
G01X-3943930Y2478048D01*
G01X-3934677Y2483720D01*
G01X-3930912Y2485613D01*
G01X-3927393Y2486984D01*
G01X-3923874Y2487913D01*
G01X-3920109Y2488482D01*
G01X-3910855Y2488859D01*
G01X-3902374Y2488417D01*
G01X-3893266Y2487061D01*
G01X-3883651Y2484813D01*
G01X-3873645Y2481695D01*
G01X-3818520Y2462327D01*
G01X-3803236Y2456661D01*
G01X-3787090Y2450223D01*
G01X-3772005Y2443802D01*
G01X-3759904Y2438193D01*
G01X-3749146Y2432442D01*
G01X-3737714Y2425639D01*
G01X-3726975Y2418633D01*
G01X-3718293Y2412275D01*
G01X-3710412Y2405530D01*
G01X-3701850Y2397470D01*
G01X-3693642Y2389105D01*
G01X-3686820Y2381448D01*
G01X-3680622Y2374426D01*
G01X-3674115Y2367791D01*
G01X-3668071Y2362290D01*
G01X-3663263Y2358670D01*
G01X-3658505Y2356063D01*
G01X-3652599Y2353318D01*
G01X-3640345Y2348721D01*
G01X-3633823Y2347142D01*
G01X-3625960Y2345845D01*
G01X-3617746Y2344963D01*
G01X-3610171Y2344631D01*
G01X-3591506Y2345530D01*
G01X-3570206Y2347735D01*
G01X-3556999Y2349057D01*
G01X-3542478Y2349481D01*
G01X-3525001Y2349003D01*
G01X-3502928Y2347620D01*
G01X-3428509Y2341534D01*
G01X-3404262Y2338689D01*
G01X-3394681Y2337170D01*
G01X-3388543Y2335836D01*
G01X-3376793Y2331546D01*
G01X-3362089Y2325244D01*
G01X-3353657Y2320804D01*
G01X-3343122Y2314431D01*
G01X-3331830Y2306977D01*
G01X-3321123Y2299293D01*
G01X-3310843Y2291816D01*
G01X-3300711Y2284922D01*
G01X-3291895Y2279379D01*
G01X-3285561Y2275952D01*
G01X-3269006Y2269466D01*
G01X-3245217Y2261067D01*
G01X-3218478Y2252492D01*
G01X-3194830Y2245582D01*
G01X-3184607Y2243232D01*
G01X-3172624Y2241066D01*
G01X-3160375Y2239325D01*
G01X-3149352Y2238248D01*
G01X-3132096Y2236832D01*
G01X-3124355Y2235690D01*
G01X-3124200Y2234169D01*
G01X-3125184Y2231841D01*
G01X-3127990Y2229331D01*
G01X-3134304Y2224641D01*
G01X-3153711Y2211405D01*
G01X-3206629Y2177429D01*
G01X-3230536Y2163240D01*
G01X-3251245Y2152214D01*
G01X-3264868Y2146018D01*
G01X-3271738Y2143441D01*
G01X-3278914Y2140494D01*
G01X-3293273Y2133407D01*
G01X-3309305Y2124419D01*
G01X-3315956Y2120205D01*
G01X-3320505Y2116900D01*
G01X-3330735Y2109546D01*
G01X-3344434Y2100953D01*
G01X-3352304Y2096849D01*
G01X-3361779Y2092678D01*
G01X-3371667Y2088927D01*
G01X-3380775Y2086086D01*
G01X-3400754Y2081272D01*
G01X-3420464Y2077268D01*
G01X-3431533Y2075885D01*
G01X-3445513Y2075083D01*
G01X-3462129Y2074871D01*
G01X-3481102Y2075260D01*
G01X-3501311Y2076230D01*
G01X-3517602Y2077674D01*
G01X-3531091Y2079724D01*
G01X-3542894Y2082509D01*
G01X-3554674Y2085279D01*
G01X-3568328Y2087370D01*
G01X-3584768Y2088893D01*
G01X-3604910Y2089957D01*
G01X-3622521Y2090908D01*
G01X-3638278Y2092260D01*
G01X-3650925Y2093879D01*
G01X-3659203Y2095636D01*
G01X-3665811Y2098379D01*
G01X-3674233Y2102846D01*
G01X-3683386Y2108417D01*
G01X-3692187Y2114474D01*
G01X-3707982Y2125281D01*
G01X-3714069Y2128859D01*
G01X-3717825Y2130517D01*
G01X-3727199Y2133439D01*
G01X-3741868Y2138685D01*
G01X-3757291Y2145267D01*
G01X-3763850Y2148599D01*
G01X-3768478Y2151403D01*
G01X-3774881Y2155511D01*
G01X-3778802Y2157219D01*
G01X-3781994Y2158735D01*
G01X-3786646Y2162377D01*
G01X-3799166Y2171664D01*
G01X-3821276Y2186749D01*
G01X-3848193Y2203785D01*
G01X-3872267Y2217764D01*
G01X-3909209Y2237556D01*
G01X-3923448Y2245932D01*
G01X-3936771Y2254850D01*
G01X-3942996Y2259845D01*
G01X-3950578Y2266566D01*
G01X-3958559Y2274134D01*
G01X-3965980Y2281670D01*
G01X-3999056Y2318057D01*
G01X-4008539Y2327948D01*
G01X-4019780Y2337845D01*
G01X-4033411Y2348265D01*
G01X-4050065Y2359726D01*
G01X-4065418Y2369572D01*
G01X-4081739Y2379527D01*
G01X-4097077Y2388431D01*
G01X-4109483Y2395121D01*
G01X-4120204Y2400245D01*
G01X-4130956Y2404882D01*
G01X-4140489Y2408524D01*
G01X-4147554Y2410660D01*
G01X-4154085Y2411818D01*
G01X-4160085Y2412216D01*
G01X-4165760Y2411856D01*
G01X-4171313Y2410738D01*
G01X-4176142Y2408926D01*
G01X-4181069Y2406172D01*
G01X-4185658Y2402761D01*
G01X-4189472Y2398972D01*
G01X-4192819Y2394561D01*
G01X-4196367Y2389133D01*
G01X-4199693Y2383375D01*
G01X-4202374Y2377978D01*
G01X-4205180Y2370339D01*
G01X-4206051Y2366232D01*
G01X-4206609Y2361406D01*
G01X-4206906Y2348014D01*
G01X-4206315Y2326999D01*
G01X-4204362Y2290630D01*
G01X-4201678Y2257799D01*
G01X-4200554Y2243678D01*
G01X-4199896Y2227888D01*
G01X-4199750Y2212243D01*
G01X-4200163Y2198554D01*
G01X-4202451Y2170291D01*
G01X-4205578Y2142973D01*
G01X-4207760Y2129980D01*
G01X-4210515Y2118306D01*
G01X-4213914Y2107686D01*
G01X-4218031Y2097856D01*
G01X-4222672Y2088808D01*
G01X-4228855Y2077828D01*
G01X-4235774Y2066301D01*
G01X-4242621Y2055613D01*
G01X-4255595Y2034986D01*
G01X-4260921Y2025726D01*
G01X-4264515Y2018780D01*
G01X-4266857Y2012973D01*
G01X-4268776Y2006814D01*
G01X-4270072Y2001039D01*
G01X-4270548Y1996384D01*
G01X-4270276Y1992534D01*
G01X-4269536Y1988957D01*
G01X-4268440Y1986049D01*
G01X-4267102Y1984212D01*
G01X-4264351Y1982864D01*
G01X-4259406Y1981286D01*
G01X-4245741Y1978231D01*
G01X-4211288Y1972334D01*
G01X-4180969Y1967082D01*
G01X-4149272Y1961106D01*
G01X-4139162Y1959757D01*
G01X-4124879Y1958651D01*
G01X-4108322Y1957903D01*
G01X-4091390Y1957627D01*
G01X-4069792Y1957832D01*
G01X-4055420Y1958706D01*
G01X-4049892Y1959512D01*
G01X-4044907Y1960626D01*
G01X-4034887Y1963972D01*
G01X-4009543Y1974271D01*
G01X-4004139Y1976145D01*
G01X-3995934Y1978329D01*
G01X-3975579Y1982540D01*
G01X-3960179Y1984611D01*
G01X-3941887Y1985698D01*
G01X-3917147Y1985906D01*
G01X-3882404Y1985342D01*
G01X-3827484Y1983559D01*
G01X-3805421Y1982464D01*
G01X-3790958Y1981404D01*
G01X-3766720Y1978260D01*
G01X-3741345Y1974099D01*
G01X-3729112Y1971544D01*
G01X-3715160Y1968198D01*
G01X-3701209Y1964497D01*
G01X-3688976Y1960872D01*
G01X-3667244Y1953580D01*
G01X-3651766Y1947762D01*
G01X-3624204Y1935942D01*
G01X-3606451Y1928953D01*
G01X-3586994Y1922051D01*
G01X-3565108Y1915578D01*
G01X-3541516Y1909619D01*
G01X-3516304Y1904727D01*
G01X-3490525Y1900820D01*
G01X-3464802Y1897022D01*
G01X-3439728Y1892392D01*
G01X-3428593Y1890364D01*
G01X-3416467Y1888704D01*
G01X-3404815Y1887582D01*
G01X-3395102Y1887169D01*
G01X-3387211Y1886977D01*
G01X-3380523Y1886452D01*
G01X-3375742Y1885675D01*
G01X-3373576Y1884726D01*
G01X-3373259Y1883566D01*
G01X-3373513Y1882213D01*
G01X-3374274Y1880836D01*
G01X-3375481Y1879603D01*
G01X-3379634Y1877831D01*
G01X-3388418Y1874988D01*
G01X-3414727Y1867656D01*
G01X-3435900Y1862465D01*
G01X-3444402Y1860822D01*
G01X-3452697Y1859686D01*
G01X-3461672Y1858963D01*
G01X-3472215Y1858557D01*
G01X-3501550Y1858314D01*
G01X-3529824Y1858449D01*
G01X-3547489Y1859270D01*
G01X-3553895Y1860084D01*
G01X-3559509Y1861245D01*
G01X-3570843Y1864840D01*
G01X-3589146Y1871442D01*
G01X-3597028Y1865917D01*
G01X-3601336Y1863311D01*
G01X-3607239Y1860298D01*
G01X-3620723Y1854544D01*
G01X-3627899Y1852241D01*
G01X-3635747Y1850295D01*
G01X-3643319Y1848911D01*
G01X-3649664Y1848294D01*
G01X-3663483Y1848598D01*
G01X-3678272Y1849891D01*
G01X-3685851Y1850489D01*
G01X-3693951Y1850443D01*
G01X-3702136Y1849772D01*
G01X-3709969Y1848495D01*
G01X-3718035Y1847183D01*
G01X-3728007Y1846120D01*
G01X-3738619Y1845415D01*
G01X-3748603Y1845176D01*
G01X-3783760Y1846553D01*
G01X-3836804Y1849756D01*
G01X-3892574Y1853787D01*
G01X-3934283Y1857152D01*
G01X-3960507Y1860020D01*
G01X-3979046Y1862853D01*
G01X-3994556Y1867186D01*
G01X-4013499Y1873661D01*
G01X-4023652Y1876998D01*
G01X-4035486Y1880171D01*
G01X-4047531Y1882823D01*
G01X-4058315Y1884592D01*
G01X-4107928Y1891778D01*
G01X-4131356Y1895868D01*
G01X-4150914Y1899728D01*
G01X-4159482Y1902137D01*
G01X-4170394Y1905962D01*
G01X-4182245Y1910678D01*
G01X-4193636Y1915757D01*
G01X-4216318Y1926183D01*
G01X-4234452Y1933934D01*
G01X-4252741Y1940042D01*
G01X-4275796Y1946517D01*
G01X-4296639Y1951282D01*
G01X-4304663Y1952738D01*
G01X-4309610Y1953279D01*
G01X-4313513Y1952653D01*
G01X-4317517Y1950655D01*
G01X-4321829Y1947148D01*
G01X-4326660Y1941992D01*
G01X-4334681Y1931457D01*
G01X-4338040Y1926271D01*
G01X-4340365Y1922014D01*
G01X-4350188Y1900410D01*
G01X-4354287Y1890045D01*
G01X-4355534Y1885937D01*
G01X-4355992Y1883293D01*
G01X-4355191Y1881335D01*
G01X-4352880Y1879434D01*
G01X-4349197Y1877673D01*
G01X-4344278Y1876138D01*
G01X-4329527Y1871930D01*
G01X-4310513Y1865995D01*
G01X-4273304Y1853940D01*
G01X-4230582Y1840828D01*
G01X-4196128Y1830767D01*
G01X-4179591Y1826319D01*
G01X-4163062Y1823285D01*
G01X-4136869Y1819653D01*
G01X-4119327Y1817803D01*
G01X-4104294Y1817011D01*
G01X-4089620Y1817235D01*
G01X-4073157Y1818436D01*
G01X-4058724Y1819505D01*
G01X-4045985Y1819884D01*
G01X-4034967Y1819571D01*
G01X-4025698Y1818566D01*
G01X-4018128Y1817056D01*
G01X-4009955Y1814946D01*
G01X-4002161Y1812515D01*
G01X-3995730Y1810045D01*
G01X-3984818Y1804448D01*
G01X-3980231Y1801584D01*
G01X-3977040Y1799153D01*
G01X-3969071Y1793475D01*
G01X-3957703Y1786955D01*
G01X-3950505Y1783844D01*
G01X-3941608Y1780947D01*
G01X-3931801Y1778489D01*
G01X-3921871Y1776697D01*
G01X-3910585Y1775542D01*
G01X-3897164Y1774903D01*
G01X-3882661Y1774810D01*
G01X-3868133Y1775289D01*
G01X-3842103Y1777329D01*
G01X-3831350Y1778588D01*
G01X-3824033Y1779807D01*
G01X-3811225Y1783291D01*
G01X-3797848Y1787753D01*
G01X-3781464Y1793503D01*
G01X-3761424Y1800084D01*
G01X-3749738Y1803412D01*
G01X-3738934Y1805633D01*
G01X-3728222Y1806872D01*
G01X-3716814Y1807257D01*
G01X-3707761Y1807057D01*
G01X-3699349Y1806515D01*
G01X-3692517Y1805712D01*
G01X-3688205Y1804732D01*
G01X-3682166Y1801601D01*
G01X-3676975Y1797621D01*
G01X-3675317Y1795640D01*
G01X-3674195Y1793637D01*
G01X-3673708Y1791846D01*
G01X-3673954Y1790501D01*
G01X-3675199Y1789517D01*
G01X-3677431Y1788712D01*
G01X-3680334Y1788167D01*
G01X-3683591Y1787967D01*
G01X-3688740Y1787436D01*
G01X-3696791Y1785990D01*
G01X-3717193Y1781236D01*
G01X-3756504Y1770353D01*
G01X-3776763Y1765571D01*
G01X-3806117Y1759905D01*
G01X-3825921Y1756818D01*
G01X-3844788Y1754880D01*
G01X-3865730Y1753871D01*
G01X-3891759Y1753566D01*
G01X-3941570Y1753522D01*
G01X-3967556Y1766411D01*
G01X-3978843Y1771740D01*
G01X-3990363Y1776720D01*
G01X-4000766Y1780795D01*
G01X-4008702Y1783405D01*
G01X-4019486Y1785301D01*
G01X-4037280Y1787244D01*
G01X-4060423Y1789081D01*
G01X-4087256Y1790659D01*
G01X-4113611Y1792195D01*
G01X-4138505Y1794050D01*
G01X-4159136Y1795990D01*
G01X-4172700Y1797782D01*
G01X-4211931Y1804489D01*
G01X-4220400Y1806180D01*
G01X-4230758Y1808764D01*
G01X-4241694Y1811891D01*
G01X-4251897Y1815207D01*
G01X-4276910Y1824900D01*
G01X-4305052Y1836992D01*
G01X-4330031Y1847687D01*
G01X-4340375Y1851680D01*
G01X-4347436Y1854025D01*
G01X-4352863Y1855267D01*
G01X-4357134Y1855761D01*
G01X-4360248Y1855507D01*
G01X-4362204Y1854504D01*
G01X-4363135Y1852880D01*
G01X-4363631Y1850493D01*
G01X-4363662Y1847664D01*
G01X-4363193Y1844715D01*
G01X-4361912Y1841374D01*
G01X-4359728Y1837478D01*
G01X-4356947Y1833510D01*
G01X-4353876Y1829957D01*
G01X-4344902Y1822046D01*
G01X-4333932Y1813872D01*
G01X-4321940Y1806469D01*
G01X-4310513Y1800410D01*
G01X-4304203Y1798214D01*
G01X-4295410Y1796150D01*
G01X-4285069Y1794405D01*
G01X-4274116Y1793164D01*
G01X-4253125Y1791127D01*
G01X-4238285Y1789242D01*
G01X-4200263Y1782183D01*
G01X-4188365Y1779679D01*
G01X-4176344Y1776766D01*
G01X-4165602Y1773806D01*
G01X-4157541Y1771160D01*
G01X-4131356Y1760871D01*
G01X-4125662Y1758158D01*
G01X-4118307Y1754135D01*
G01X-4102415Y1744329D01*
G01X-4094544Y1738699D01*
G01X-4086355Y1732234D01*
G01X-4078817Y1725733D01*
G01X-4072899Y1719994D01*
G01X-4062005Y1707491D01*
G01X-4052104Y1694764D01*
G01X-4041956Y1679591D01*
G01X-4030470Y1661209D01*
G01X-4014990Y1633257D01*
G01X-3995239Y1595075D01*
G01X-3975863Y1556892D01*
G01X-3961282Y1528940D01*
G01X-3950953Y1510701D01*
G01X-3941800Y1495873D01*
G01X-3933413Y1484394D01*
G01X-3924926Y1474210D01*
G01X-3914766Y1464595D01*
G01X-3902357Y1454485D01*
G01X-3889068Y1443633D01*
G01X-3876790Y1432235D01*
G01X-3871560Y1426540D01*
G01X-3865864Y1419747D01*
G01X-3860389Y1412708D01*
G01X-3855824Y1406275D01*
G01X-3846700Y1391751D01*
G01X-3837979Y1376737D01*
G01X-3832023Y1365404D01*
G01X-3829545Y1359732D01*
G01X-3830208Y1358574D01*
G01X-3831801Y1358092D01*
G01X-3834063Y1359851D01*
G01X-3838554Y1364641D01*
G01X-3851621Y1380385D01*
G01X-3859617Y1390089D01*
G01X-3868403Y1400030D01*
G01X-3876915Y1409042D01*
G01X-3884087Y1415957D01*
G01X-3890306Y1421226D01*
G01X-3896225Y1425757D01*
G01X-3901174Y1429066D01*
G01X-3904483Y1430672D01*
G01X-3907204Y1431155D01*
G01X-3908648Y1430673D01*
G01X-3908996Y1429006D01*
G01X-3908429Y1425939D01*
G01X-3906943Y1421935D01*
G01X-3904043Y1415594D01*
G01X-3895674Y1399388D01*
G01X-3884349Y1380515D01*
G01X-3878249Y1371289D01*
G01X-3872856Y1363761D01*
G01X-3859796Y1348092D01*
G01X-3844705Y1331827D01*
G01X-3834477Y1322245D01*
G01X-3818856Y1308491D01*
G01X-3779932Y1275820D01*
G01X-3741414Y1245083D01*
G01X-3726231Y1233423D01*
G01X-3716538Y1226398D01*
G01X-3700974Y1216817D01*
G01X-3684841Y1207970D01*
G01X-3668304Y1199644D01*
G01X-3606032Y1199644D01*
G01X-3577933Y1199456D01*
G01X-3557837Y1198877D01*
G01X-3545300Y1197887D01*
G01X-3541729Y1197230D01*
G01X-3539881Y1196463D01*
G01X-3532689Y1191781D01*
G01X-3520844Y1184994D01*
G01X-3513544Y1181512D01*
G01X-3504875Y1178156D01*
G01X-3495921Y1175309D01*
G01X-3487768Y1173352D01*
G01X-3479398Y1171515D01*
G01X-3469853Y1168995D01*
G01X-3460307Y1166124D01*
G01X-3451937Y1163234D01*
G01X-3435007Y1156023D01*
G01X-3419461Y1148181D01*
G01X-3406775Y1140305D01*
G01X-3396721Y1133011D01*
G01X-3393546Y1130034D01*
G01X-3390945Y1127014D01*
G01X-3389188Y1124303D01*
G01X-3388543Y1122256D01*
G01X-3389029Y1121168D01*
G01X-3390720Y1120338D01*
G01X-3393965Y1119752D01*
G01X-3399114Y1119395D01*
G01X-3416521Y1119317D01*
G01X-3445735Y1119991D01*
G01X-3474379Y1120584D01*
G01X-3495057Y1120429D01*
G01X-3510195Y1119449D01*
G01X-3522222Y1117568D01*
G01X-3563566Y1108955D01*
G01X-3597151Y1101779D01*
G01X-3614459Y1099138D01*
G01X-3639873Y1096437D01*
G01X-3710147Y1090851D01*
G01X-3729017Y1089225D01*
G01X-3743405Y1087359D01*
G01X-3754256Y1085098D01*
G01X-3762516Y1082289D01*
G01X-3770136Y1079468D01*
G01X-3777767Y1077871D01*
G01X-3786950Y1077301D01*
G01X-3799226Y1077560D01*
G01X-3812392Y1078470D01*
G01X-3817871Y1079259D01*
G01X-3823096Y1080395D01*
G01X-3834219Y1084075D01*
G01X-3848643Y1090249D01*
G01X-3860163Y1095692D01*
G01X-3872318Y1101861D01*
G01X-3883661Y1107999D01*
G01X-3892744Y1113348D01*
G01X-3909048Y1124069D01*
G01X-3922816Y1133837D01*
G01X-3936089Y1144469D01*
G01X-3951204Y1157267D01*
G01X-3959014Y1164551D01*
G01X-3968135Y1173783D01*
G01X-3977433Y1183779D01*
G01X-3985773Y1193353D01*
G01X-4000551Y1211606D01*
G01X-4010606Y1224956D01*
G01X-4018458Y1238085D01*
G01X-4027941Y1255808D01*
G01X-4037601Y1275491D01*
G01X-4045878Y1293335D01*
G01X-4053721Y1312297D01*
G01X-4062339Y1334669D01*
G01X-4081384Y1388404D01*
G01X-4096651Y1432494D01*
G01X-4102565Y1447938D01*
G01X-4109214Y1463786D01*
G01X-4118030Y1481775D01*
G01X-4129156Y1502365D01*
G01X-4136908Y1514794D01*
G01X-4141210Y1520686D01*
G01X-4146067Y1526682D01*
G01X-4158259Y1539945D01*
G01X-4175109Y1556496D01*
G01X-4235977Y1615742D01*
G01X-4248428Y1628507D01*
G01X-4261863Y1642893D01*
G01X-4274666Y1657137D01*
G01X-4285222Y1669476D01*
G01X-4305854Y1694074D01*
G01X-4325185Y1716453D01*
G01X-4333442Y1725442D01*
G01X-4342322Y1734543D01*
G01X-4350756Y1742694D01*
G01X-4357680Y1748831D01*
G01X-4363884Y1753510D01*
G01X-4369769Y1757172D01*
G01X-4374866Y1759559D01*
G01X-4378706Y1760411D01*
G01X-4382066Y1759997D01*
G01X-4384730Y1758676D01*
G01X-4386854Y1756328D01*
G01X-4388595Y1752833D01*
G01X-4391849Y1743434D01*
G01X-4395526Y1731477D01*
G01X-4400039Y1717472D01*
G01X-4405304Y1703146D01*
G01X-4407873Y1695926D01*
G01X-4410579Y1687024D01*
G01X-4415114Y1668701D01*
G01X-4418777Y1646946D01*
G01X-4421953Y1622575D01*
G01X-4423508Y1610980D01*
G01X-4425653Y1598802D01*
G01X-4428104Y1587488D01*
G01X-4430579Y1578485D01*
G01X-4433554Y1570246D01*
G01X-4437370Y1561012D01*
G01X-4441535Y1551912D01*
G01X-4445558Y1544075D01*
G01X-4449740Y1537102D01*
G01X-4454339Y1530352D01*
G01X-4458798Y1524595D01*
G01X-4462558Y1520603D01*
G01X-4470509Y1514035D01*
G01X-4478646Y1507959D01*
G01X-4489748Y1501195D01*
G01X-4504830Y1492971D01*
G01X-4521936Y1483456D01*
G01X-4537905Y1473585D01*
G01X-4545036Y1468378D01*
G01X-4553247Y1461685D01*
G01X-4561521Y1454367D01*
G01X-4568843Y1447289D01*
G01X-4583596Y1430896D01*
G01X-4590892Y1422041D01*
G01X-4596907Y1414195D01*
G01X-4609935Y1394669D01*
G01X-4624008Y1371483D01*
G01X-4640296Y1341375D01*
G01X-4658650Y1305204D01*
G01X-4672651Y1275832D01*
G01X-4676910Y1266291D01*
G01X-4678475Y1262067D01*
G01X-4680509Y1254250D01*
G01X-4685399Y1239176D01*
G01X-4688411Y1229050D01*
G01X-4691494Y1216442D01*
G01X-4694285Y1202959D01*
G01X-4696424Y1190209D01*
G01X-4697995Y1176865D01*
G01X-4699239Y1161766D01*
G01X-4700033Y1146766D01*
G01X-4700250Y1133719D01*
G01X-4699530Y1112241D01*
G01X-4698901Y1104252D01*
G01X-4698183Y1099591D01*
G01X-4697269Y1097101D01*
G01X-4696107Y1095027D01*
G01X-4694846Y1093584D01*
G01X-4693634Y1092989D01*
G01X-4692419Y1093635D01*
G01X-4691149Y1095569D01*
G01X-4689974Y1098493D01*
G01X-4689045Y1102108D01*
G01X-4681413Y1133510D01*
G01X-4674459Y1157470D01*
G01X-4665884Y1184119D01*
G01X-4661048Y1197304D01*
G01X-4655071Y1212090D01*
G01X-4648714Y1226669D01*
G01X-4642736Y1239231D01*
G01X-4631136Y1260814D01*
G01X-4625954Y1269584D01*
G01X-4622088Y1275424D01*
G01X-4613751Y1285624D01*
G01X-4603861Y1296606D01*
G01X-4598258Y1301752D01*
G01X-4591132Y1307234D01*
G01X-4583397Y1312396D01*
G01X-4575970Y1316584D01*
G01X-4566756Y1320806D01*
G01X-4558792Y1323385D01*
G01X-4550604Y1324673D01*
G01X-4540722Y1325025D01*
G01X-4532480Y1324694D01*
G01X-4523609Y1323792D01*
G01X-4515173Y1322458D01*
G01X-4508238Y1320829D01*
G01X-4501948Y1318561D01*
G01X-4496315Y1315740D01*
G01X-4491628Y1312536D01*
G01X-4488176Y1309118D01*
G01X-4485305Y1304884D01*
G01X-4483739Y1300750D01*
G01X-4483310Y1295968D01*
G01X-4483851Y1289789D01*
G01X-4484373Y1284434D01*
G01X-4484256Y1280594D01*
G01X-4483487Y1278174D01*
G01X-4482052Y1277076D01*
G01X-4465219Y1272965D01*
G01X-4458781Y1271127D01*
G01X-4451179Y1268495D01*
G01X-4443361Y1265421D01*
G01X-4436278Y1262256D01*
G01X-4428536Y1257799D01*
G01X-4419726Y1251519D01*
G01X-4410491Y1243911D01*
G01X-4401470Y1235467D01*
G01X-4391281Y1224648D01*
G01X-4383190Y1214275D01*
G01X-4375876Y1202441D01*
G01X-4368019Y1187244D01*
G01X-4356370Y1162357D01*
G01X-4348245Y1143154D01*
G01X-4337284Y1112843D01*
G01X-4322604Y1072886D01*
G01X-4316812Y1058606D01*
G01X-4313946Y1052957D01*
G01X-4310664Y1047665D01*
G01X-4306643Y1042253D01*
G01X-4301556Y1036245D01*
G01X-4286885Y1020530D01*
G01X-4266602Y998640D01*
G01X-4259149Y990091D01*
G01X-4254889Y984707D01*
G01X-4252197Y980192D01*
G01X-4249016Y974011D01*
G01X-4242776Y959906D01*
G01X-4239246Y949647D01*
G01X-4238112Y944527D01*
G01X-4237324Y938663D01*
G01X-4236566Y922456D01*
G01X-4236529Y896527D01*
G01X-4236862Y870537D01*
G01X-4237855Y853859D01*
G01X-4238760Y847540D01*
G01X-4240025Y841781D01*
G01X-4243893Y829592D01*
G01X-4247662Y820173D01*
G01X-4252668Y809380D01*
G01X-4258260Y798544D01*
G01X-4263785Y788997D01*
G01X-4269979Y779770D01*
G01X-4277394Y769806D01*
G01X-4285099Y760303D01*
G01X-4292163Y752460D01*
G01X-4299064Y745840D01*
G01X-4306328Y739668D01*
G01X-4313090Y734633D01*
G01X-4318487Y731426D01*
G01X-4323981Y729306D01*
G01X-4331009Y727231D01*
G01X-4338667Y725438D01*
G01X-4346049Y724166D01*
G01X-4386142Y718820D01*
G01X-4405452Y716029D01*
G01X-4419217Y713656D01*
G01X-4424444Y712301D01*
G01X-4426134Y711533D01*
G01X-4427306Y710593D01*
G01X-4428033Y709400D01*
G01X-4428390Y707871D01*
G01X-4428286Y703473D01*
G01X-4427309Y676298D01*
G01X-4426010Y622344D01*
G01X-4425433Y584876D01*
G01X-4425636Y558516D01*
G01X-4426732Y539270D01*
G01X-4428836Y523142D01*
G01X-4435464Y484563D01*
G01X-4437013Y478444D01*
G01X-4439554Y470949D01*
G01X-4442734Y463027D01*
G01X-4446200Y455629D01*
G01X-4450013Y448719D01*
G01X-4454136Y442128D01*
G01X-4458074Y436601D01*
G01X-4461331Y432886D01*
G01X-4465739Y429811D01*
G01X-4472813Y426028D01*
G01X-4481579Y422018D01*
G01X-4491060Y418261D01*
G01X-4504544Y413637D01*
G01X-4509976Y412203D01*
G01X-4515221Y411261D01*
G37*
G36*
G01X-5197054Y3337756D02*
G01X-5206809Y3337318D01*
G01X-5215703Y3337867D01*
G01X-5225070Y3339412D01*
G01X-5232762Y3341283D01*
G01X-5241093Y3343809D01*
G01X-5249061Y3346660D01*
G01X-5255660Y3349503D01*
G01X-5262177Y3353168D01*
G01X-5269920Y3358253D01*
G01X-5277920Y3364086D01*
G01X-5285208Y3369996D01*
G01X-5292436Y3376724D01*
G01X-5300276Y3384789D01*
G01X-5307783Y3393176D01*
G01X-5314011Y3400872D01*
G01X-5319577Y3408672D01*
G01X-5325282Y3417338D01*
G01X-5330455Y3425816D01*
G01X-5334428Y3433049D01*
G01X-5341862Y3449028D01*
G01X-5349017Y3466135D01*
G01X-5354770Y3482832D01*
G01X-5358834Y3497825D01*
G01X-5363278Y3521469D01*
G01X-5363653Y3527022D01*
G01X-5363507Y3534848D01*
G01X-5362885Y3543907D01*
G01X-5361836Y3553159D01*
G01X-5359829Y3564133D01*
G01X-5356599Y3577880D01*
G01X-5352593Y3592645D01*
G01X-5348254Y3606671D01*
G01X-5331687Y3654894D01*
G01X-5326441Y3668595D01*
G01X-5322267Y3678317D01*
G01X-5309890Y3704495D01*
G01X-5298401Y3728570D01*
G01X-5296619Y3733081D01*
G01X-5295878Y3737208D01*
G01X-5296115Y3738155D01*
G01X-5296830Y3739034D01*
G01X-5299723Y3740597D01*
G01X-5304618Y3741919D01*
G01X-5311572Y3743022D01*
G01X-5320940Y3743634D01*
G01X-5334846Y3743852D01*
G01X-5351413Y3743673D01*
G01X-5368765Y3743095D01*
G01X-5390034Y3742394D01*
G01X-5407149Y3742523D01*
G01X-5422125Y3743556D01*
G01X-5436978Y3745565D01*
G01X-5448613Y3747747D01*
G01X-5460547Y3750469D01*
G01X-5471376Y3753383D01*
G01X-5479700Y3756142D01*
G01X-5489144Y3759327D01*
G01X-5498836Y3761204D01*
G01X-5511231Y3762079D01*
G01X-5528782Y3762260D01*
G01X-5547589Y3761999D01*
G01X-5554255Y3761597D01*
G01X-5559776Y3760899D01*
G01X-5564661Y3759816D01*
G01X-5569418Y3758261D01*
G01X-5580591Y3753389D01*
G01X-5589431Y3748703D01*
G01X-5599653Y3742426D01*
G01X-5609991Y3735379D01*
G01X-5619178Y3728382D01*
G01X-5640488Y3712131D01*
G01X-5663839Y3695864D01*
G01X-5684597Y3682866D01*
G01X-5699671Y3674474D01*
G01X-5713064Y3668941D01*
G01X-5729783Y3662817D01*
G01X-5737925Y3660276D01*
G01X-5745982Y3658195D01*
G01X-5753025Y3656789D01*
G01X-5758124Y3656272D01*
G01X-5762466Y3656585D01*
G01X-5767448Y3657438D01*
G01X-5772456Y3658699D01*
G01X-5776874Y3660240D01*
G01X-5781015Y3662500D01*
G01X-5785269Y3665721D01*
G01X-5789136Y3669474D01*
G01X-5792116Y3673329D01*
G01X-5794868Y3678438D01*
G01X-5796419Y3683497D01*
G01X-5796922Y3689318D01*
G01X-5796531Y3696711D01*
G01X-5795563Y3703271D01*
G01X-5793908Y3710590D01*
G01X-5791799Y3717776D01*
G01X-5789467Y3723935D01*
G01X-5785500Y3730915D01*
G01X-5779185Y3739480D01*
G01X-5770893Y3749167D01*
G01X-5760994Y3759513D01*
G01X-5750497Y3769329D01*
G01X-5739044Y3779006D01*
G01X-5727878Y3787541D01*
G01X-5718242Y3793934D01*
G01X-5700675Y3803484D01*
G01X-5692660Y3807331D01*
G01X-5686545Y3809862D01*
G01X-5679944Y3811614D01*
G01X-5670604Y3813339D01*
G01X-5659769Y3814838D01*
G01X-5648680Y3815913D01*
G01X-5633826Y3817365D01*
G01X-5627681Y3818396D01*
G01X-5621805Y3819791D01*
G01X-5615757Y3821672D01*
G01X-5609097Y3824159D01*
G01X-5592176Y3831438D01*
G01X-5574325Y3839233D01*
G01X-5567934Y3841627D01*
G01X-5562375Y3843216D01*
G01X-5557001Y3844151D01*
G01X-5551171Y3844579D01*
G01X-5535559Y3844510D01*
G01X-5523247Y3843906D01*
G01X-5510821Y3842635D01*
G01X-5499050Y3840795D01*
G01X-5488703Y3838486D01*
G01X-5468111Y3833328D01*
G01X-5447473Y3828653D01*
G01X-5427548Y3825093D01*
G01X-5408672Y3822615D01*
G01X-5400516Y3822093D01*
G01X-5393678Y3822175D01*
G01X-5388308Y3822850D01*
G01X-5384554Y3824110D01*
G01X-5380325Y3827010D01*
G01X-5379038Y3828387D01*
G01X-5378566Y3829482D01*
G01X-5379614Y3830797D01*
G01X-5382468Y3832775D01*
G01X-5391850Y3837651D01*
G01X-5401726Y3841891D01*
G01X-5406815Y3843654D01*
G01X-5415143Y3848405D01*
G01X-5432807Y3859827D01*
G01X-5444096Y3867766D01*
G01X-5456860Y3877428D01*
G01X-5469533Y3887591D01*
G01X-5471902Y3889622D01*
G01X-5141214Y3889622D01*
G01X-5141018Y3878099D01*
G01X-5140157Y3864933D01*
G01X-5138675Y3855280D01*
G01X-5136151Y3847290D01*
G01X-5132167Y3839112D01*
G01X-5128366Y3832840D01*
G01X-5123743Y3826249D01*
G01X-5118882Y3820123D01*
G01X-5114368Y3815244D01*
G01X-5109483Y3810942D01*
G01X-5103609Y3806388D01*
G01X-5097488Y3802124D01*
G01X-5091856Y3798693D01*
G01X-5086043Y3795887D01*
G01X-5079428Y3793325D01*
G01X-5072826Y3791290D01*
G01X-5067049Y3790065D01*
G01X-5067049Y3790065D01*
G01X-5060900Y3789595D01*
G01X-5054327Y3789838D01*
G01X-5047584Y3790774D01*
G01X-5040924Y3792378D01*
G01X-5023129Y3798078D01*
G01X-4999699Y3806060D01*
G01X-4988765Y3810172D01*
G01X-4979281Y3814264D01*
G01X-4972263Y3817863D01*
G01X-4968727Y3820495D01*
G01X-4967227Y3823058D01*
G01X-4965753Y3826466D01*
G01X-4963560Y3834042D01*
G01X-4963186Y3838311D01*
G01X-4963530Y3842948D01*
G01X-4964551Y3847663D01*
G01X-4966205Y3852164D01*
G01X-4971073Y3861089D01*
G01X-4976764Y3869345D01*
G01X-4980051Y3874227D01*
G01X-4981148Y3876857D01*
G01X-4981940Y3879917D01*
G01X-4982788Y3888243D01*
G01X-4982952Y3901035D01*
G01X-4982554Y3913103D01*
G01X-4981400Y3924137D01*
G01X-4979409Y3934707D01*
G01X-4976496Y3945385D01*
G01X-4970130Y3965826D01*
G01X-4976079Y3978524D01*
G01X-4979201Y3984101D01*
G01X-4983165Y3989549D01*
G01X-4987561Y3994363D01*
G01X-4991976Y3998039D01*
G01X-4997908Y4001545D01*
G01X-5000904Y4002761D01*
G01X-5004186Y4003677D01*
G01X-5012410Y4004794D01*
G01X-5024180Y4005253D01*
G01X-5044756Y4004923D01*
G01X-5062974Y4003574D01*
G01X-5077130Y4001287D01*
G01X-5087941Y3998700D01*
G01X-5096276Y3995484D01*
G01X-5104479Y3991685D01*
G01X-5111935Y3986809D01*
G01X-5115550Y3983849D01*
G01X-5118477Y3981007D01*
G01X-5124381Y3972970D01*
G01X-5130305Y3962721D01*
G01X-5132886Y3956202D01*
G01X-5135385Y3947416D01*
G01X-5137563Y3937327D01*
G01X-5139181Y3926898D01*
G01X-5140235Y3915623D01*
G01X-5140933Y3902664D01*
G01X-5141214Y3889622D01*
G01X-5471902Y3889622D01*
G01X-5480548Y3897035D01*
G01X-5490965Y3905865D01*
G01X-5502011Y3914358D01*
G01X-5512368Y3921547D01*
G01X-5520716Y3926468D01*
G01X-5528794Y3930005D01*
G01X-5538133Y3933269D01*
G01X-5547721Y3935943D01*
G01X-5556548Y3937710D01*
G01X-5566661Y3938698D01*
G01X-5579827Y3939235D01*
G01X-5594530Y3939287D01*
G01X-5609256Y3938824D01*
G01X-5626879Y3937521D01*
G01X-5643679Y3935374D01*
G01X-5660971Y3932179D01*
G01X-5680070Y3927728D01*
G01X-5709019Y3919754D01*
G01X-5719910Y3916270D01*
G01X-5726385Y3913735D01*
G01X-5736872Y3907596D01*
G01X-5749284Y3899334D01*
G01X-5756157Y3893892D01*
G01X-5764684Y3886301D01*
G01X-5773780Y3877566D01*
G01X-5782359Y3868692D01*
G01X-5813004Y3836095D01*
G01X-5818467Y3830905D01*
G01X-5823349Y3827246D01*
G01X-5827709Y3825079D01*
G01X-5831609Y3824365D01*
G01X-5834852Y3824791D01*
G01X-5838319Y3825952D01*
G01X-5841595Y3827669D01*
G01X-5844266Y3829767D01*
G01X-5846694Y3833015D01*
G01X-5849309Y3837864D01*
G01X-5851797Y3843660D01*
G01X-5853843Y3849745D01*
G01X-5855687Y3858209D01*
G01X-5857621Y3870478D01*
G01X-5859416Y3884908D01*
G01X-5860843Y3899855D01*
G01X-5862838Y3933035D01*
G01X-5863668Y3962909D01*
G01X-5863891Y3977069D01*
G01X-5864711Y3986801D01*
G01X-5866361Y3993650D01*
G01X-5869069Y3999164D01*
G01X-5872244Y4003534D01*
G01X-5876899Y4008976D01*
G01X-5882406Y4014795D01*
G01X-5888140Y4020299D01*
G01X-5901812Y4032699D01*
G01X-5898063Y4050578D01*
G01X-5894059Y4067221D01*
G01X-5889696Y4082125D01*
G01X-5884795Y4095015D01*
G01X-5879497Y4106815D01*
G01X-5872467Y4119158D01*
G01X-5863400Y4133355D01*
G01X-5857839Y4140714D01*
G01X-5850472Y4149282D01*
G01X-5842258Y4157994D01*
G01X-5834158Y4165785D01*
G01X-5825194Y4173218D01*
G01X-5814628Y4180955D01*
G01X-5803779Y4188080D01*
G01X-5793966Y4193678D01*
G01X-5775395Y4202318D01*
G01X-5767092Y4205635D01*
G01X-5760891Y4207671D01*
G01X-5746216Y4210890D01*
G01X-5727233Y4214400D01*
G01X-5716974Y4215855D01*
G01X-5705339Y4217069D01*
G01X-5693760Y4217915D01*
G01X-5683665Y4218267D01*
G01X-5665072Y4217630D01*
G01X-5656775Y4216858D01*
G01X-5650589Y4215888D01*
G01X-5622495Y4210075D01*
G01X-5604939Y4205820D01*
G01X-5585950Y4200203D01*
G01X-5570951Y4195551D01*
G01X-5562985Y4193617D01*
G01X-5562323Y4193918D01*
G01X-5561784Y4194816D01*
G01X-5561083Y4198364D01*
G01X-5560888Y4204189D01*
G01X-5561206Y4212217D01*
G01X-5563321Y4233043D01*
G01X-5566752Y4256996D01*
G01X-5570739Y4283983D01*
G01X-5574192Y4312108D01*
G01X-5577542Y4338209D01*
G01X-5581283Y4360331D01*
G01X-5587627Y4389265D01*
G01X-5591354Y4400616D01*
G01X-5597049Y4414362D01*
G01X-5604857Y4429640D01*
G01X-5613662Y4444673D01*
G01X-5618438Y4451453D01*
G01X-5624407Y4458926D01*
G01X-5630806Y4466187D01*
G01X-5636874Y4472327D01*
G01X-5649103Y4482685D01*
G01X-5654812Y4486864D01*
G01X-5659272Y4489621D01*
G01X-5665405Y4493384D01*
G01X-5667261Y4494986D01*
G01X-5667931Y4496116D01*
G01X-5667307Y4498374D01*
G01X-5665864Y4501000D01*
G01X-5661923Y4504792D01*
G01X-5655290Y4509853D01*
G01X-5650980Y4512390D01*
G01X-5645564Y4514891D01*
G01X-5639736Y4517067D01*
G01X-5634186Y4518630D01*
G01X-5627627Y4519714D01*
G01X-5620822Y4520055D01*
G01X-5613582Y4519651D01*
G01X-5605718Y4518501D01*
G01X-5597545Y4516330D01*
G01X-5587151Y4512604D01*
G01X-5575806Y4507819D01*
G01X-5564784Y4502474D01*
G01X-5551808Y4495258D01*
G01X-5534974Y4485286D01*
G01X-5516460Y4473874D01*
G01X-5498441Y4462339D01*
G01X-5447473Y4429120D01*
G01X-5411641Y4407840D01*
G01X-5387481Y4394359D01*
G01X-5366163Y4383163D01*
G01X-5349446Y4375389D01*
G01X-5336348Y4370133D01*
G01X-5328521Y4368085D01*
G01X-5325831Y4367771D01*
G01X-5324476Y4368022D01*
G01X-5324693Y4369712D01*
G01X-5326284Y4373315D01*
G01X-5332531Y4384142D01*
G01X-5340979Y4398619D01*
G01X-5348080Y4412688D01*
G01X-5354332Y4427680D01*
G01X-5360740Y4444377D01*
G01X-5367735Y4466336D01*
G01X-5375400Y4493978D01*
G01X-5382172Y4523239D01*
G01X-5387022Y4549090D01*
G01X-5388392Y4560556D01*
G01X-5389549Y4574460D01*
G01X-5390371Y4589046D01*
G01X-5390736Y4602562D01*
G01X-5390630Y4614868D01*
G01X-5390138Y4624555D01*
G01X-5389310Y4630997D01*
G01X-5388787Y4632805D01*
G01X-5388199Y4633567D01*
G01X-5387389Y4633328D01*
G01X-5386145Y4632270D01*
G01X-5382603Y4628031D01*
G01X-5378068Y4621513D01*
G01X-5373039Y4613378D01*
G01X-5365229Y4601346D01*
G01X-5353122Y4584216D01*
G01X-5338371Y4564271D01*
G01X-5322632Y4543795D01*
G01X-5291891Y4503919D01*
G01X-5271368Y4476067D01*
G01X-5258705Y4456984D01*
G01X-5246861Y4438191D01*
G01X-5236532Y4420001D01*
G01X-5227515Y4402368D01*
G01X-5216370Y4377554D01*
G01X-5214935Y4374611D01*
G01X-5213291Y4372202D01*
G01X-5211641Y4370574D01*
G01X-5210187Y4369976D01*
G01X-5209433Y4370418D01*
G01X-5208841Y4371781D01*
G01X-5208134Y4377487D01*
G01X-5208043Y4387532D01*
G01X-5208547Y4402354D01*
G01X-5209638Y4418245D01*
G01X-5211430Y4433526D01*
G01X-5213924Y4448203D01*
G01X-5217121Y4462282D01*
G01X-5222131Y4483942D01*
G01X-5223655Y4492246D01*
G01X-5224215Y4497331D01*
G01X-5224735Y4501826D01*
G01X-5226150Y4508521D01*
G01X-5230803Y4524894D01*
G01X-5237651Y4544730D01*
G01X-5244865Y4564246D01*
G01X-5260954Y4604203D01*
G01X-5268954Y4621785D01*
G01X-5276089Y4635037D01*
G01X-5280050Y4640568D01*
G01X-5281955Y4642445D01*
G01X-5284059Y4643865D01*
G01X-5286549Y4644929D01*
G01X-5289611Y4645738D01*
G01X-5298201Y4646994D01*
G01X-5312452Y4649021D01*
G01X-5324819Y4651380D01*
G01X-5336653Y4654925D01*
G01X-5349625Y4659805D01*
G01X-5371675Y4669073D01*
G01X-5379983Y4672020D01*
G01X-5388345Y4674277D01*
G01X-5394366Y4674520D01*
G01X-5404549Y4673876D01*
G01X-5417471Y4672472D01*
G01X-5431711Y4670434D01*
G01X-5451499Y4667703D01*
G01X-5471830Y4665981D01*
G01X-5495840Y4665084D01*
G01X-5526671Y4664826D01*
G01X-5554567Y4665060D01*
G01X-5576678Y4665775D01*
G01X-5593470Y4666997D01*
G01X-5605408Y4668747D01*
G01X-5623233Y4672958D01*
G01X-5639769Y4677579D01*
G01X-5647142Y4680365D01*
G01X-5655671Y4684322D01*
G01X-5664299Y4688921D01*
G01X-5671970Y4693636D01*
G01X-5679187Y4699003D01*
G01X-5686582Y4705374D01*
G01X-5693286Y4711953D01*
G01X-5698431Y4717943D01*
G01X-5702543Y4724126D01*
G01X-5706434Y4731232D01*
G01X-5709665Y4738385D01*
G01X-5711799Y4744705D01*
G01X-5713013Y4750212D01*
G01X-5713742Y4755151D01*
G01X-5713929Y4758983D01*
G01X-5713517Y4761167D01*
G01X-5711810Y4762279D01*
G01X-5708470Y4763191D01*
G01X-5703979Y4763809D01*
G01X-5698819Y4764038D01*
G01X-5692913Y4764409D01*
G01X-5687164Y4765452D01*
G01X-5681942Y4767076D01*
G01X-5677621Y4769192D01*
G01X-5672779Y4772738D01*
G01X-5665708Y4778590D01*
G01X-5648680Y4793963D01*
G01X-5638589Y4803049D01*
G01X-5629486Y4810174D01*
G01X-5621168Y4815484D01*
G01X-5613434Y4819121D01*
G01X-5604982Y4821798D01*
G01X-5595691Y4823497D01*
G01X-5584188Y4824392D01*
G01X-5569100Y4824652D01*
G01X-5554084Y4824368D01*
G01X-5541958Y4823422D01*
G01X-5531543Y4821674D01*
G01X-5521658Y4818981D01*
G01X-5506741Y4813922D01*
G01X-5495707Y4809722D01*
G01X-5450146Y4789139D01*
G01X-5432375Y4780631D01*
G01X-5417146Y4772442D01*
G01X-5404179Y4764410D01*
G01X-5393193Y4756375D01*
G01X-5373263Y4739963D01*
G01X-5352956Y4722651D01*
G01X-5336304Y4708835D01*
G01X-5329587Y4703748D01*
G01X-5325159Y4700831D01*
G01X-5319569Y4698591D01*
G01X-5317488Y4698290D01*
G01X-5316271Y4698631D01*
G01X-5316191Y4700514D01*
G01X-5317202Y4704409D01*
G01X-5321780Y4715961D01*
G01X-5326846Y4727713D01*
G01X-5328953Y4733968D01*
G01X-5330882Y4739895D01*
G01X-5335520Y4750857D01*
G01X-5340754Y4763156D01*
G01X-5344113Y4772295D01*
G01X-5350382Y4787238D01*
G01X-5362609Y4813491D01*
G01X-5372267Y4832884D01*
G01X-5376344Y4840098D01*
G01X-5380425Y4846375D01*
G01X-5384885Y4852249D01*
G01X-5390102Y4858259D01*
G01X-5404318Y4872831D01*
G01X-5425381Y4893324D01*
G01X-5440582Y4907440D01*
G01X-5481926Y4941685D01*
G01X-5496308Y4953808D01*
G01X-5513054Y4968583D01*
G01X-5530085Y4984140D01*
G01X-5545320Y4998612D01*
G01X-5571918Y5023962D01*
G01X-5589420Y5039610D01*
G01X-5602578Y5049352D01*
G01X-5618732Y5060503D01*
G01X-5632347Y5069104D01*
G01X-5637034Y5071735D01*
G01X-5639404Y5072718D01*
G01X-5643113Y5074344D01*
G01X-5648680Y5078168D01*
G01X-5651736Y5080265D01*
G01X-5654963Y5081992D01*
G01X-5657977Y5083169D01*
G01X-5660394Y5083618D01*
G01X-5662420Y5083265D01*
G01X-5663937Y5082190D01*
G01X-5664888Y5080458D01*
G01X-5665217Y5078131D01*
G01X-5664951Y5075550D01*
G01X-5664226Y5072624D01*
G01X-5663152Y5069713D01*
G01X-5661841Y5067177D01*
G01X-5660556Y5064667D01*
G01X-5660014Y5062460D01*
G01X-5660218Y5060584D01*
G01X-5661170Y5059067D01*
G01X-5663417Y5058470D01*
G01X-5668796Y5057902D01*
G01X-5688088Y5056891D01*
G01X-5717333Y5056096D01*
G01X-5754814Y5055582D01*
G01X-5845753Y5054802D01*
G01X-5869181Y5066278D01*
G01X-5879453Y5071742D01*
G01X-5890103Y5078137D01*
G01X-5899874Y5084666D01*
G01X-5907507Y5090534D01*
G01X-5914524Y5096967D01*
G01X-5922618Y5105037D01*
G01X-5930786Y5113712D01*
G01X-5938027Y5121961D01*
G01X-5945077Y5130815D01*
G01X-5952726Y5141137D01*
G01X-5960051Y5151645D01*
G01X-5966131Y5161056D01*
G01X-5985946Y5194450D01*
G01X-5991864Y5204051D01*
G01X-5994239Y5207327D01*
G01X-5995795Y5208952D01*
G01X-5997278Y5209364D01*
G01X-5999455Y5209334D01*
G01X-6004720Y5208069D01*
G01X-6021573Y5202305D01*
G01X-6027330Y5201014D01*
G01X-6035285Y5199957D01*
G01X-6044387Y5199242D01*
G01X-6053586Y5198980D01*
G01X-6063108Y5199321D01*
G01X-6073092Y5200248D01*
G01X-6082351Y5201622D01*
G01X-6089701Y5203299D01*
G01X-6096351Y5205553D01*
G01X-6103705Y5208500D01*
G01X-6110869Y5211757D01*
G01X-6116948Y5214942D01*
G01X-6123058Y5218781D01*
G01X-6130305Y5223819D01*
G01X-6144586Y5234876D01*
G01X-6151685Y5241354D01*
G01X-6159972Y5249672D01*
G01X-6168416Y5258758D01*
G01X-6175988Y5267540D01*
G01X-6182667Y5275327D01*
G01X-6188681Y5281703D01*
G01X-6193373Y5286012D01*
G01X-6196081Y5287594D01*
G01X-6198293Y5286727D01*
G01X-6201632Y5284366D01*
G01X-6205646Y5280872D01*
G01X-6209881Y5276604D01*
G01X-6219068Y5265895D01*
G01X-6226872Y5255580D01*
G01X-6230123Y5249810D01*
G01X-6233931Y5241516D01*
G01X-6237823Y5231807D01*
G01X-6241325Y5221791D01*
G01X-6244409Y5211481D01*
G01X-6247163Y5200968D01*
G01X-6249286Y5191483D01*
G01X-6250478Y5184259D01*
G01X-6256251Y5133280D01*
G01X-6260538Y5092819D01*
G01X-6259985Y5091998D01*
G01X-6258241Y5091321D01*
G01X-6250779Y5090371D01*
G01X-6237353Y5089915D01*
G01X-6217159Y5089901D01*
G01X-6198583Y5089809D01*
G01X-6182646Y5089263D01*
G01X-6170356Y5088315D01*
G01X-6162723Y5087018D01*
G01X-6156594Y5084281D01*
G01X-6148055Y5079212D01*
G01X-6138237Y5072535D01*
G01X-6128270Y5064973D01*
G01X-6105246Y5047200D01*
G01X-6082792Y5030901D01*
G01X-6062766Y5017557D01*
G01X-6045582Y5006888D01*
G01X-6028905Y4997885D01*
G01X-6010095Y4988545D01*
G01X-5994991Y4981780D01*
G01X-5987219Y4978966D01*
G01X-5982886Y4977656D01*
G01X-5976046Y4974507D01*
G01X-5964635Y4969355D01*
G01X-5949310Y4963228D01*
G01X-5914659Y4950106D01*
G01X-5885719Y4938821D01*
G01X-5869397Y4931402D01*
G01X-5847574Y4920562D01*
G01X-5836674Y4914665D01*
G01X-5826025Y4908422D01*
G01X-5816848Y4902579D01*
G01X-5810364Y4897880D01*
G01X-5804715Y4892781D01*
G01X-5797812Y4885852D01*
G01X-5790528Y4878003D01*
G01X-5783737Y4870143D01*
G01X-5777143Y4861791D01*
G01X-5770397Y4852601D01*
G01X-5764289Y4843688D01*
G01X-5759612Y4836166D01*
G01X-5755895Y4829238D01*
G01X-5752404Y4821943D01*
G01X-5749531Y4815148D01*
G01X-5747666Y4809721D01*
G01X-5746477Y4804445D01*
G01X-5746072Y4799949D01*
G01X-5746452Y4796034D01*
G01X-5747615Y4792498D01*
G01X-5749192Y4789972D01*
G01X-5751290Y4787932D01*
G01X-5753659Y4786569D01*
G01X-5756052Y4786073D01*
G01X-5758542Y4786610D01*
G01X-5761252Y4788073D01*
G01X-5763855Y4790238D01*
G01X-5766022Y4792882D01*
G01X-5769637Y4796921D01*
G01X-5776180Y4802885D01*
G01X-5784723Y4809970D01*
G01X-5794337Y4817374D01*
G01X-5805882Y4825601D01*
G01X-5819685Y4834930D01*
G01X-5847131Y4852308D01*
G01X-5878096Y4869976D01*
G01X-5911903Y4888229D01*
G01X-5944496Y4904435D01*
G01X-5972541Y4917181D01*
G01X-6002205Y4928690D01*
G01X-6038691Y4941921D01*
G01X-6089682Y4960215D01*
G01X-6101353Y4965526D01*
G01X-6115867Y4972909D01*
G01X-6140673Y4986689D01*
G01X-6164101Y5000650D01*
G01X-6197176Y5020609D01*
G01X-6216989Y5031979D01*
G01X-6239464Y5043982D01*
G01X-6250808Y5049467D01*
G01X-6259952Y5053194D01*
G01X-6267053Y5055216D01*
G01X-6272267Y5055590D01*
G01X-6276141Y5054743D01*
G01X-6279849Y5053060D01*
G01X-6283193Y5050655D01*
G01X-6285976Y5047643D01*
G01X-6288232Y5044032D01*
G01X-6290471Y5039452D01*
G01X-6292435Y5034489D01*
G01X-6293864Y5029731D01*
G01X-6296516Y5015622D01*
G01X-6299228Y4996877D01*
G01X-6303342Y4959677D01*
G01X-6305205Y4944925D01*
G01X-6307773Y4930743D01*
G01X-6309489Y4924306D01*
G01X-6311889Y4916965D01*
G01X-6314656Y4909624D01*
G01X-6317471Y4903187D01*
G01X-6322233Y4895332D01*
G01X-6329860Y4885681D01*
G01X-6340463Y4874105D01*
G01X-6354154Y4860475D01*
G01X-6370562Y4844353D01*
G01X-6376098Y4838463D01*
G01X-6380260Y4833497D01*
G01X-6383351Y4829062D01*
G01X-6385674Y4824764D01*
G01X-6387533Y4820210D01*
G01X-6389230Y4815007D01*
G01X-6390673Y4809773D01*
G01X-6391801Y4804345D01*
G01X-6392643Y4798224D01*
G01X-6393228Y4790910D01*
G01X-6393742Y4770710D01*
G01X-6393573Y4739755D01*
G01X-6393408Y4710047D01*
G01X-6393835Y4690882D01*
G01X-6394999Y4679468D01*
G01X-6395904Y4675795D01*
G01X-6397047Y4673013D01*
G01X-6399077Y4669674D01*
G01X-6401536Y4666513D01*
G01X-6404113Y4663887D01*
G01X-6406500Y4662152D01*
G01X-6409489Y4661051D01*
G01X-6413708Y4660148D01*
G01X-6418596Y4659539D01*
G01X-6423592Y4659315D01*
G01X-6430374Y4659743D01*
G01X-6433135Y4660478D01*
G01X-6435779Y4661738D01*
G01X-6438529Y4663655D01*
G01X-6441614Y4666362D01*
G01X-6449686Y4674681D01*
G01X-6455890Y4681881D01*
G01X-6462205Y4690126D01*
G01X-6467895Y4698399D01*
G01X-6472218Y4705682D01*
G01X-6475788Y4713274D01*
G01X-6479426Y4722390D01*
G01X-6482707Y4731882D01*
G01X-6485204Y4740605D01*
G01X-6487231Y4750207D01*
G01X-6488409Y4759229D01*
G01X-6488755Y4767894D01*
G01X-6488290Y4776428D01*
G01X-6483484Y4813629D01*
G01X-6478916Y4837854D01*
G01X-6472336Y4867075D01*
G01X-6468582Y4881310D01*
G01X-6464286Y4895840D01*
G01X-6459977Y4908960D01*
G01X-6456186Y4918969D01*
G01X-6448660Y4935033D01*
G01X-6444987Y4941916D01*
G01X-6441993Y4946814D01*
G01X-6433162Y4958240D01*
G01X-6420437Y4973455D01*
G01X-6404473Y4993121D01*
G01X-6387856Y5015250D01*
G01X-6380355Y5026221D01*
G01X-6372560Y5038436D01*
G01X-6365392Y5050406D01*
G01X-6359773Y5060642D01*
G01X-6355501Y5069488D01*
G01X-6352003Y5077675D01*
G01X-6349639Y5084291D01*
G01X-6348771Y5088425D01*
G01X-6349070Y5090967D01*
G01X-6349907Y5092951D01*
G01X-6351195Y5094241D01*
G01X-6352845Y5094702D01*
G01X-6353978Y5094322D01*
G01X-6355642Y5093234D01*
G01X-6360247Y5089238D01*
G01X-6366021Y5083323D01*
G01X-6372325Y5076101D01*
G01X-6388991Y5055275D01*
G01X-6407428Y5031323D01*
G01X-6427349Y5005549D01*
G01X-6447583Y4980344D01*
G01X-6462425Y4963740D01*
G01X-6487711Y4936865D01*
G01X-6519903Y4903432D01*
G01X-6555460Y4867157D01*
G01X-6595422Y4827157D01*
G01X-6626242Y4797230D01*
G01X-6648367Y4776952D01*
G01X-6656307Y4770300D01*
G01X-6662240Y4765901D01*
G01X-6671905Y4759973D01*
G01X-6683908Y4753344D01*
G01X-6696720Y4746825D01*
G01X-6708814Y4741224D01*
G01X-6733700Y4729872D01*
G01X-6755320Y4719160D01*
G01X-6764308Y4713982D01*
G01X-6774519Y4707466D01*
G01X-6784697Y4700446D01*
G01X-6793586Y4693754D01*
G01X-6807715Y4683054D01*
G01X-6812581Y4679800D01*
G01X-6815044Y4678604D01*
G01X-6815845Y4678966D01*
G01X-6816094Y4679973D01*
G01X-6815792Y4681504D01*
G01X-6814942Y4683439D01*
G01X-6812339Y4686966D01*
G01X-6807166Y4692993D01*
G01X-6792105Y4709172D01*
G01X-6783047Y4718170D01*
G01X-6773352Y4727221D01*
G01X-6764182Y4735273D01*
G01X-6756698Y4741272D01*
G01X-6742348Y4751172D01*
G01X-6729136Y4759244D01*
G01X-6703388Y4773374D01*
G01X-6688167Y4782513D01*
G01X-6670313Y4794148D01*
G01X-6661877Y4800194D01*
G01X-6653495Y4806739D01*
G01X-6646136Y4812995D01*
G01X-6640769Y4818174D01*
G01X-6628093Y4832548D01*
G01X-6611397Y4852208D01*
G01X-6590966Y4875383D01*
G01X-6569310Y4898211D01*
G01X-6549708Y4916835D01*
G01X-6540872Y4924582D01*
G01X-6534215Y4929901D01*
G01X-6520500Y4940786D01*
G01X-6505170Y4954165D01*
G01X-6496987Y4962442D01*
G01X-6486888Y4973773D01*
G01X-6476156Y4986668D01*
G01X-6466074Y4999633D01*
G01X-6444087Y5029863D01*
G01X-6422987Y5059977D01*
G01X-6388145Y5110955D01*
G01X-6377965Y5126656D01*
G01X-6374846Y5132138D01*
G01X-6373674Y5134989D01*
G01X-6374561Y5136433D01*
G01X-6377047Y5138082D01*
G01X-6380751Y5139735D01*
G01X-6385292Y5141186D01*
G01X-6399118Y5144223D01*
G01X-6415910Y5147156D01*
G01X-6426363Y5148513D01*
G01X-6433629Y5148620D01*
G01X-6436682Y5148149D01*
G01X-6439679Y5147298D01*
G01X-6446487Y5144366D01*
G01X-6451663Y5141361D01*
G01X-6457129Y5137352D01*
G01X-6462233Y5132865D01*
G01X-6466324Y5128421D01*
G01X-6474992Y5115887D01*
G01X-6484365Y5100213D01*
G01X-6511282Y5048836D01*
G01X-6519772Y5033273D01*
G01X-6529930Y5016386D01*
G01X-6540690Y4999879D01*
G01X-6550984Y4985457D01*
G01X-6568976Y4962237D01*
G01X-6580415Y4948418D01*
G01X-6609238Y4918476D01*
G01X-6629669Y4898109D01*
G01X-6647826Y4881182D01*
G01X-6669626Y4862708D01*
G01X-6698817Y4838623D01*
G01X-6715565Y4824401D01*
G01X-6735699Y4806437D01*
G01X-6756685Y4787031D01*
G01X-6775992Y4768487D01*
G01X-6809808Y4735947D01*
G01X-6822930Y4723840D01*
G01X-6831117Y4716769D01*
G01X-6837782Y4711970D01*
G01X-6846759Y4706045D01*
G01X-6866949Y4693832D01*
G01X-6899381Y4675514D01*
G01X-6906738Y4671153D01*
G01X-6911784Y4667753D01*
G01X-6935855Y4647770D01*
G01X-6958349Y4627947D01*
G01X-6983401Y4604536D01*
G01X-6994690Y4593946D01*
G01X-7003140Y4586698D01*
G01X-7008439Y4583042D01*
G01X-7009809Y4582637D01*
G01X-7010275Y4583223D01*
G01X-7009540Y4586924D01*
G01X-7007540Y4593562D01*
G01X-7000967Y4611885D01*
G01X-6990504Y4636530D01*
G01X-6978419Y4662071D01*
G01X-6972187Y4673866D01*
G01X-6965007Y4686630D01*
G01X-6957767Y4698826D01*
G01X-6951355Y4708916D01*
G01X-6931887Y4736463D01*
G01X-6904494Y4773673D01*
G01X-6875143Y4811692D01*
G01X-6861530Y4828612D01*
G01X-6850969Y4841185D01*
G01X-6828699Y4865710D01*
G01X-6803926Y4891781D01*
G01X-6780313Y4915171D01*
G01X-6760833Y4933246D01*
G01X-6747129Y4944743D01*
G01X-6737404Y4952314D01*
G01X-6691926Y4982750D01*
G01X-6634044Y5021160D01*
G01X-6599345Y5044827D01*
G01X-6591751Y5050578D01*
G01X-6582464Y5058164D01*
G01X-6563513Y5074896D01*
G01X-6554725Y5083744D01*
G01X-6546029Y5093560D01*
G01X-6538385Y5103204D01*
G01X-6532752Y5111533D01*
G01X-6525452Y5125197D01*
G01X-6523231Y5130374D01*
G01X-6522416Y5133489D01*
G01X-6522715Y5134702D01*
G01X-6523648Y5135897D01*
G01X-6527641Y5138334D01*
G01X-6534839Y5141001D01*
G01X-6545686Y5144103D01*
G01X-6556203Y5147201D01*
G01X-6567633Y5151095D01*
G01X-6578598Y5155287D01*
G01X-6587720Y5159277D01*
G01X-6596527Y5163821D01*
G01X-6606638Y5169520D01*
G01X-6616804Y5175646D01*
G01X-6625776Y5181470D01*
G01X-6634463Y5187694D01*
G01X-6643853Y5194910D01*
G01X-6652815Y5202222D01*
G01X-6660221Y5208736D01*
G01X-6675021Y5223552D01*
G01X-6689330Y5239371D01*
G01X-6701972Y5255425D01*
G01X-6712766Y5270806D01*
G01X-6723145Y5288285D01*
G01X-6734787Y5309384D01*
G01X-6740919Y5320401D01*
G01X-6745838Y5327883D01*
G01X-6749862Y5332252D01*
G01X-6751637Y5333402D01*
G01X-6753308Y5333932D01*
G01X-6756887Y5333947D01*
G01X-6762211Y5333345D01*
G01X-6775219Y5330712D01*
G01X-6782700Y5328344D01*
G01X-6791291Y5324919D01*
G01X-6799930Y5320897D01*
G01X-6807557Y5316735D01*
G01X-6821471Y5307531D01*
G01X-6827513Y5303003D01*
G01X-6831883Y5299287D01*
G01X-6835996Y5294830D01*
G01X-6841340Y5288282D01*
G01X-6852957Y5272439D01*
G01X-6865130Y5253149D01*
G01X-6875924Y5233860D01*
G01X-6884818Y5215785D01*
G01X-6892420Y5199415D01*
G01X-6905436Y5169103D01*
G01X-6914120Y5148436D01*
G01X-6925755Y5118124D01*
G01X-6934417Y5093729D01*
G01X-6942204Y5069901D01*
G01X-6949634Y5042836D01*
G01X-6957435Y5010655D01*
G01X-6960703Y4995016D01*
G01X-6963639Y4978917D01*
G01X-6965921Y4964250D01*
G01X-6967228Y4952913D01*
G01X-6968107Y4944194D01*
G01X-6969224Y4936656D01*
G01X-6970435Y4931107D01*
G01X-6971597Y4928353D01*
G01X-6972912Y4927735D01*
G01X-6974302Y4928381D01*
G01X-6975722Y4930251D01*
G01X-6977126Y4933304D01*
G01X-6980560Y4944865D01*
G01X-6984763Y4961998D01*
G01X-6986937Y4974042D01*
G01X-6988403Y4988103D01*
G01X-6989224Y5005065D01*
G01X-6989466Y5025811D01*
G01X-6989143Y5046263D01*
G01X-6988218Y5064636D01*
G01X-6986682Y5081034D01*
G01X-6984530Y5095562D01*
G01X-6981987Y5108167D01*
G01X-6978676Y5122500D01*
G01X-6975026Y5136798D01*
G01X-6971466Y5149296D01*
G01X-6967516Y5161173D01*
G01X-6962804Y5173777D01*
G01X-6957921Y5185604D01*
G01X-6953457Y5195148D01*
G01X-6944241Y5211954D01*
G01X-6935890Y5225460D01*
G01X-6931005Y5231609D01*
G01X-6923422Y5240106D01*
G01X-6914177Y5249827D01*
G01X-6904308Y5259652D01*
G01X-6886354Y5277654D01*
G01X-6880027Y5284479D01*
G01X-6876675Y5288586D01*
G01X-6875056Y5291909D01*
G01X-6873443Y5296596D01*
G01X-6872024Y5302025D01*
G01X-6870985Y5307573D01*
G01X-6870162Y5314366D01*
G01X-6870254Y5318337D01*
G01X-6870691Y5319488D01*
G01X-6871413Y5320199D01*
G01X-6873791Y5320662D01*
G01X-6881587Y5319363D01*
G01X-6893713Y5316241D01*
G01X-6903043Y5314134D01*
G01X-6914329Y5312973D01*
G01X-6929539Y5312648D01*
G01X-6950641Y5313050D01*
G01X-6973862Y5313950D01*
G01X-6989373Y5315416D01*
G01X-6995633Y5316569D01*
G01X-7001642Y5318116D01*
G01X-7015136Y5322720D01*
G01X-7025635Y5327029D01*
G01X-7037385Y5332522D01*
G01X-7048951Y5338493D01*
G01X-7058895Y5344235D01*
G01X-7068247Y5350530D01*
G01X-7078198Y5358002D01*
G01X-7087561Y5365718D01*
G01X-7095144Y5372742D01*
G01X-7102210Y5380474D01*
G01X-7110160Y5390117D01*
G01X-7118023Y5400442D01*
G01X-7124824Y5410219D01*
G01X-7131292Y5420844D01*
G01X-7138252Y5433478D01*
G01X-7144865Y5446538D01*
G01X-7150298Y5458442D01*
G01X-7159475Y5481788D01*
G01X-7166004Y5501154D01*
G01X-7173595Y5528035D01*
G01X-7175288Y5535731D01*
G01X-7175500Y5538375D01*
G01X-7175219Y5539705D01*
G01X-7173415Y5539132D01*
G01X-7169482Y5536595D01*
G01X-7157546Y5527260D01*
G01X-7138713Y5512653D01*
G01X-7116391Y5496866D01*
G01X-7104584Y5489343D01*
G01X-7090775Y5481149D01*
G01X-7076681Y5473274D01*
G01X-7064022Y5466708D01*
G01X-7038078Y5454824D01*
G01X-7014409Y5445255D01*
G01X-6973065Y5431301D01*
G01X-6951585Y5425463D01*
G01X-6927036Y5419901D01*
G01X-6902903Y5415573D01*
G01X-6882423Y5412703D01*
G01X-6868578Y5411878D01*
G01X-6863418Y5411990D01*
G01X-6860396Y5412464D01*
G01X-6858488Y5413739D01*
G01X-6858110Y5414707D01*
G01X-6858136Y5416016D01*
G01X-6859450Y5420024D01*
G01X-6862542Y5426489D01*
G01X-6868025Y5436518D01*
G01X-6872365Y5443171D01*
G01X-6875856Y5446172D01*
G01X-6877695Y5447085D01*
G01X-6879294Y5447420D01*
G01X-6882517Y5448515D01*
G01X-6888780Y5451495D01*
G01X-6906810Y5461293D01*
G01X-6928442Y5474215D01*
G01X-6946588Y5485800D01*
G01X-6954218Y5491462D01*
G01X-6963416Y5499018D01*
G01X-6973022Y5507481D01*
G01X-6981880Y5515865D01*
G01X-6990266Y5524563D01*
G01X-6998587Y5533883D01*
G01X-7005883Y5542706D01*
G01X-7011191Y5549915D01*
G01X-7025476Y5573191D01*
G01X-7046228Y5608623D01*
G01X-7076376Y5660980D01*
G01X-7089172Y5683025D01*
G01X-7097425Y5698826D01*
G01X-7106025Y5717470D01*
G01X-7113580Y5736923D01*
G01X-7119317Y5754671D01*
G01X-7126631Y5780849D01*
G01X-7127273Y5785272D01*
G01X-7127895Y5793978D01*
G01X-7129045Y5822985D01*
G01X-7130005Y5865370D01*
G01X-7130703Y5918630D01*
G01X-7130982Y5969252D01*
G01X-7130858Y6012363D01*
G01X-7130366Y6043397D01*
G01X-7129547Y6057788D01*
G01X-7128122Y6063086D01*
G01X-7126384Y6066629D01*
G01X-7124112Y6068727D01*
G01X-7121085Y6069693D01*
G01X-7116998Y6069374D01*
G01X-7110385Y6067854D01*
G01X-7102158Y6065377D01*
G01X-7093233Y6062192D01*
G01X-7074754Y6054507D01*
G01X-7060863Y6047804D01*
G01X-7046556Y6039032D01*
G01X-7027074Y6026371D01*
G01X-7015862Y6018206D01*
G01X-7002462Y6007380D01*
G01X-6988555Y5995303D01*
G01X-6975822Y5983386D01*
G01X-6953640Y5960687D01*
G01X-6945065Y5951262D01*
G01X-6939745Y5944808D01*
G01X-6933612Y5936618D01*
G01X-6930092Y5932408D01*
G01X-6924840Y5924012D01*
G01X-6914545Y5905762D01*
G01X-6908055Y5893161D01*
G01X-6900648Y5877531D01*
G01X-6893236Y5860860D01*
G01X-6886733Y5845139D01*
G01X-6874371Y5811669D01*
G01X-6864204Y5780849D01*
G01X-6847278Y5724359D01*
G01X-6840296Y5702064D01*
G01X-6835196Y5687158D01*
G01X-6829539Y5670624D01*
G01X-6826619Y5662117D01*
G01X-6822263Y5651335D01*
G01X-6809712Y5623090D01*
G01X-6806676Y5616938D01*
G01X-6803711Y5611900D01*
G01X-6801156Y5608496D01*
G01X-6799352Y5607245D01*
G01X-6797485Y5608387D01*
G01X-6794762Y5611495D01*
G01X-6791547Y5616095D01*
G01X-6788206Y5621712D01*
G01X-6781062Y5635977D01*
G01X-6775058Y5649957D01*
G01X-6770198Y5665354D01*
G01X-6765806Y5683025D01*
G01X-6764220Y5692797D01*
G01X-6762901Y5705147D01*
G01X-6761988Y5718491D01*
G01X-6761618Y5731248D01*
G01X-6761829Y5744331D01*
G01X-6762496Y5758563D01*
G01X-6763517Y5772227D01*
G01X-6764787Y5783605D01*
G01X-6768667Y5805813D01*
G01X-6773366Y5826317D01*
G01X-6786266Y5875918D01*
G01X-6790491Y5894183D01*
G01X-6791838Y5902267D01*
G01X-6792774Y5910853D01*
G01X-6793710Y5933134D01*
G01X-6793896Y5968231D01*
G01X-6793677Y5996920D01*
G01X-6792991Y6019244D01*
G01X-6791815Y6035696D01*
G01X-6790126Y6046765D01*
G01X-6786000Y6062998D01*
G01X-6781390Y6078808D01*
G01X-6775715Y6095200D01*
G01X-6769026Y6112834D01*
G01X-6764431Y6122766D01*
G01X-6757399Y6136119D01*
G01X-6748885Y6151144D01*
G01X-6739849Y6166095D01*
G01X-6730964Y6180741D01*
G01X-6722866Y6194934D01*
G01X-6716446Y6207055D01*
G01X-6712601Y6215483D01*
G01X-6710341Y6222306D01*
G01X-6708241Y6230059D01*
G01X-6706533Y6237787D01*
G01X-6705454Y6244538D01*
G01X-6705044Y6251763D01*
G01X-6705157Y6260786D01*
G01X-6705752Y6270453D01*
G01X-6706783Y6279615D01*
G01X-6711549Y6310615D01*
G01X-6712106Y6315009D01*
G01X-6712090Y6318253D01*
G01X-6711512Y6320261D01*
G01X-6710379Y6320949D01*
G01X-6707892Y6319302D01*
G01X-6703291Y6314816D01*
G01X-6690377Y6300073D01*
G01X-6682678Y6290101D01*
G01X-6674329Y6278384D01*
G01X-6666337Y6266382D01*
G01X-6659707Y6255555D01*
G01X-6648519Y6234734D01*
G01X-6643887Y6225190D01*
G01X-6640728Y6217874D01*
G01X-6638217Y6210313D01*
G01X-6635350Y6200104D01*
G01X-6629962Y6177096D01*
G01X-6627218Y6165281D01*
G01X-6623735Y6152880D01*
G01X-6619959Y6141365D01*
G01X-6616338Y6132208D01*
G01X-6610944Y6121891D01*
G01X-6602341Y6107213D01*
G01X-6591715Y6090132D01*
G01X-6580248Y6072602D01*
G01X-6558592Y6039950D01*
G01X-6545645Y6019665D01*
G01X-6530266Y5991653D01*
G01X-6522244Y5974715D01*
G01X-6515083Y5957208D01*
G01X-6512110Y5947878D01*
G01X-6508854Y5935715D01*
G01X-6505710Y5922294D01*
G01X-6503073Y5909192D01*
G01X-6500951Y5895716D01*
G01X-6499214Y5881279D01*
G01X-6498040Y5867611D01*
G01X-6497609Y5856444D01*
G01X-6498041Y5845501D01*
G01X-6499216Y5832442D01*
G01X-6500954Y5818907D01*
G01X-6503077Y5806532D01*
G01X-6505768Y5794539D01*
G01X-6509051Y5782042D01*
G01X-6512513Y5770522D01*
G01X-6515736Y5761456D01*
G01X-6522511Y5746046D01*
G01X-6528700Y5734004D01*
G01X-6536241Y5722725D01*
G01X-6546264Y5709153D01*
G01X-6551883Y5702461D01*
G01X-6558466Y5695479D01*
G01X-6565193Y5689034D01*
G01X-6571244Y5683953D01*
G01X-6583796Y5675115D01*
G01X-6595457Y5667899D01*
G01X-6603768Y5663088D01*
G01X-6608269Y5660031D01*
G01X-6608775Y5657168D01*
G01X-6608831Y5650707D01*
G01X-6607673Y5630826D01*
G01X-6606887Y5618021D01*
G01X-6606667Y5604858D01*
G01X-6607010Y5592279D01*
G01X-6607910Y5581225D01*
G01X-6610453Y5561715D01*
G01X-6612885Y5545985D01*
G01X-6614628Y5539245D01*
G01X-6617635Y5530532D01*
G01X-6621482Y5520971D01*
G01X-6625749Y5511688D01*
G01X-6631598Y5500930D01*
G01X-6638116Y5491156D01*
G01X-6645714Y5481806D01*
G01X-6654806Y5472321D01*
G01X-6662632Y5464968D01*
G01X-6670228Y5458332D01*
G01X-6676728Y5453143D01*
G01X-6681262Y5450128D01*
G01X-6690206Y5445014D01*
G01X-6700604Y5438458D01*
G01X-6705706Y5434758D01*
G01X-6711146Y5430292D01*
G01X-6716273Y5425622D01*
G01X-6720436Y5421311D01*
G01X-6723909Y5416830D01*
G01X-6727156Y5411701D01*
G01X-6729814Y5406556D01*
G01X-6731519Y5402028D01*
G01X-6732510Y5397139D01*
G01X-6732813Y5392153D01*
G01X-6732429Y5387091D01*
G01X-6731358Y5381974D01*
G01X-6727495Y5371016D01*
G01X-6722206Y5359182D01*
G01X-6718268Y5352727D01*
G01X-6712207Y5344362D01*
G01X-6704850Y5335169D01*
G01X-6697022Y5326228D01*
G01X-6677996Y5306054D01*
G01X-6658760Y5286331D01*
G01X-6649706Y5277666D01*
G01X-6639383Y5268417D01*
G01X-6629063Y5259691D01*
G01X-6620017Y5252595D01*
G01X-6604164Y5241644D01*
G01X-6597644Y5237667D01*
G01X-6593234Y5235441D01*
G01X-6587991Y5233927D01*
G01X-6586396Y5233840D01*
G01X-6585810Y5234251D01*
G01X-6586701Y5235749D01*
G01X-6589127Y5238622D01*
G01X-6597104Y5246841D01*
G01X-6601904Y5252033D01*
G01X-6606625Y5258071D01*
G01X-6610724Y5264205D01*
G01X-6613657Y5269684D01*
G01X-6616294Y5276993D01*
G01X-6617801Y5285489D01*
G01X-6618390Y5297212D01*
G01X-6618279Y5313325D01*
G01X-5816050Y5313325D01*
G01X-5815658Y5300972D01*
G01X-5814298Y5277073D01*
G01X-5811900Y5277981D01*
G01X-5806476Y5281395D01*
G01X-5796670Y5286883D01*
G01X-5783737Y5292776D01*
G01X-5776069Y5295381D01*
G01X-5766398Y5297904D01*
G01X-5755961Y5300058D01*
G01X-5745998Y5301554D01*
G01X-5735421Y5302451D01*
G01X-5724754Y5302767D01*
G01X-5714649Y5302500D01*
G01X-5705755Y5301650D01*
G01X-5697940Y5300200D01*
G01X-5689718Y5298099D01*
G01X-5682068Y5295631D01*
G01X-5675965Y5293075D01*
G01X-5670550Y5290044D01*
G01X-5664768Y5286283D01*
G01X-5659312Y5282270D01*
G01X-5654875Y5278483D01*
G01X-5650960Y5274016D01*
G01X-5646926Y5268147D01*
G01X-5643250Y5261639D01*
G01X-5640404Y5255254D01*
G01X-5638267Y5248497D01*
G01X-5636516Y5240974D01*
G01X-5635333Y5233602D01*
G01X-5634899Y5227299D01*
G01X-5635305Y5220976D01*
G01X-5636411Y5213551D01*
G01X-5638048Y5205949D01*
G01X-5640047Y5199095D01*
G01X-5645698Y5184501D01*
G01X-5652056Y5170419D01*
G01X-5657437Y5158506D01*
G01X-5660741Y5149125D01*
G01X-5661309Y5145622D01*
G01X-5661506Y5141686D01*
G01X-5661331Y5137799D01*
G01X-5660783Y5134443D01*
G01X-5660068Y5132443D01*
G01X-5658899Y5130517D01*
G01X-5657189Y5128598D01*
G01X-5654851Y5126622D01*
G01X-5647944Y5122234D01*
G01X-5637483Y5116826D01*
G01X-5627232Y5111484D01*
G01X-5615229Y5104707D01*
G01X-5602966Y5097367D01*
G01X-5591940Y5090332D01*
G01X-5581299Y5082917D01*
G01X-5570087Y5074546D01*
G01X-5559639Y5066243D01*
G01X-5551287Y5059036D01*
G01X-5531751Y5040126D01*
G01X-5508129Y5016167D01*
G01X-5465224Y4970700D01*
G01X-5426572Y4929366D01*
G01X-5391824Y4892164D01*
G01X-5377591Y4875553D01*
G01X-5360881Y4854963D01*
G01X-5338999Y4827344D01*
G01X-5325887Y4808054D01*
G01X-5308787Y4781310D01*
G01X-5303563Y4772581D01*
G01X-5301391Y4767957D01*
G01X-5299899Y4764608D01*
G01X-5296313Y4758942D01*
G01X-5288234Y4745277D01*
G01X-5275940Y4722694D01*
G01X-5251113Y4675849D01*
G01X-5235332Y4646915D01*
G01X-5229338Y4636904D01*
G01X-5223705Y4628314D01*
G01X-5219355Y4622978D01*
G01X-5219355Y4622978D01*
G01X-5217602Y4621368D01*
G01X-5216448Y4620791D01*
G01X-5215002Y4622335D01*
G01X-5212456Y4626499D01*
G01X-5205498Y4640147D01*
G01X-5200433Y4649662D01*
G01X-5194117Y4659394D01*
G01X-5186720Y4669101D01*
G01X-5178416Y4678539D01*
G01X-5160404Y4697628D01*
G01X-5160048Y4753562D01*
G01X-5160112Y4775841D01*
G01X-5160559Y4794563D01*
G01X-5161319Y4807894D01*
G01X-5161795Y4811967D01*
G01X-5162323Y4814005D01*
G01X-5166499Y4818571D01*
G01X-5175922Y4827670D01*
G01X-5204921Y4854189D01*
G01X-5223572Y4871284D01*
G01X-5244811Y4891459D01*
G01X-5266023Y4912194D01*
G01X-5284594Y4930970D01*
G01X-5301831Y4949188D01*
G01X-5319410Y4968405D01*
G01X-5335271Y4986332D01*
G01X-5347356Y5000682D01*
G01X-5365011Y5023207D01*
G01X-5375083Y5037194D01*
G01X-5379017Y5042778D01*
G01X-5380708Y5044477D01*
G01X-5381916Y5045101D01*
G01X-5382756Y5045400D01*
G01X-5383443Y5046216D01*
G01X-5384078Y5048897D01*
G01X-5384394Y5050632D01*
G01X-5385253Y5052552D01*
G01X-5386524Y5054422D01*
G01X-5388076Y5056010D01*
G01X-5390325Y5058530D01*
G01X-5393493Y5062941D01*
G01X-5400901Y5074947D01*
G01X-5425679Y5121394D01*
G01X-5433328Y5135606D01*
G01X-5442362Y5151513D01*
G01X-5451654Y5167173D01*
G01X-5460074Y5180640D01*
G01X-5480926Y5211639D01*
G01X-5505158Y5246260D01*
G01X-5556744Y5319284D01*
G01X-5567403Y5335042D01*
G01X-5577985Y5351464D01*
G01X-5587266Y5366608D01*
G01X-5594024Y5378530D01*
G01X-5594177Y5378821D01*
G01X-5510867Y5378821D01*
G01X-5508461Y5372941D01*
G01X-5501912Y5359198D01*
G01X-5480381Y5316327D01*
G01X-5453232Y5264206D01*
G01X-5430769Y5222343D01*
G01X-5411641Y5186930D01*
G01X-5397466Y5163121D01*
G01X-5384945Y5143269D01*
G01X-5374746Y5127769D01*
G01X-5362143Y5110917D01*
G01X-5343843Y5087813D01*
G01X-5331269Y5073388D01*
G01X-5313563Y5054483D01*
G01X-5293076Y5033551D01*
G01X-5272161Y5013045D01*
G01X-5232265Y4975490D01*
G01X-5205610Y4951494D01*
G01X-5198635Y4945978D01*
G01X-5193189Y4942259D01*
G01X-5189647Y4940562D01*
G01X-5189647Y4940562D01*
G01X-5188707Y4940542D01*
G01X-5188384Y4941113D01*
G01X-5189110Y4944911D01*
G01X-5191086Y4952327D01*
G01X-5197585Y4973730D01*
G01X-5205802Y5001255D01*
G01X-5212638Y5027189D01*
G01X-5215131Y5038993D01*
G01X-5217595Y5052799D01*
G01X-5219745Y5066889D01*
G01X-5221297Y5079546D01*
G01X-5224159Y5112768D01*
G01X-5227098Y5153947D01*
G01X-5230273Y5192489D01*
G01X-5232065Y5208461D01*
G01X-5233704Y5219371D01*
G01X-5235722Y5227800D01*
G01X-5238545Y5237015D01*
G01X-5241799Y5245903D01*
G01X-5245110Y5253349D01*
G01X-5249016Y5260264D01*
G01X-5253890Y5267710D01*
G01X-5259110Y5274790D01*
G01X-5264055Y5280612D01*
G01X-5270279Y5286447D01*
G01X-5278984Y5293566D01*
G01X-5289015Y5301067D01*
G01X-5299218Y5308051D01*
G01X-5320863Y5321132D01*
G01X-5331095Y5326730D01*
G01X-5339184Y5330708D01*
G01X-5356929Y5337936D01*
G01X-5377188Y5345373D01*
G01X-5418532Y5358748D01*
G01X-5465388Y5371984D01*
G01X-5487486Y5377604D01*
G01X-5501909Y5380659D01*
G01X-5505619Y5380953D01*
G01X-5508442Y5380725D01*
G01X-5510237Y5380005D01*
G01X-5510867Y5378821D01*
G01X-5594177Y5378821D01*
G01X-5606359Y5401952D01*
G01X-5622696Y5405412D01*
G01X-5633941Y5406905D01*
G01X-5651203Y5407854D01*
G01X-5674833Y5408271D01*
G01X-5705183Y5408168D01*
G01X-5754370Y5408306D01*
G01X-5771253Y5408843D01*
G01X-5779735Y5409627D01*
G01X-5786237Y5410587D01*
G01X-5788657Y5410437D01*
G01X-5790071Y5409857D01*
G01X-5790827Y5407892D01*
G01X-5791454Y5403971D01*
G01X-5792064Y5392537D01*
G01X-5792569Y5384982D01*
G01X-5793931Y5376309D01*
G01X-5795996Y5367307D01*
G01X-5798612Y5358768D01*
G01X-5801593Y5350983D01*
G01X-5804911Y5343377D01*
G01X-5808161Y5336822D01*
G01X-5810940Y5332189D01*
G01X-5813965Y5327119D01*
G01X-5814931Y5324468D01*
G01X-5815577Y5321436D01*
G01X-5816050Y5313325D01*
G01X-6618279Y5313325D01*
G01X-6618273Y5314205D01*
G01X-6618154Y5330769D01*
G01X-6618679Y5342091D01*
G01X-6620006Y5349785D01*
G01X-6622293Y5355468D01*
G01X-6624763Y5359373D01*
G01X-6628044Y5363629D01*
G01X-6631707Y5367720D01*
G01X-6635324Y5371134D01*
G01X-6641233Y5376957D01*
G01X-6643031Y5379390D01*
G01X-6643691Y5381070D01*
G01X-6642876Y5382559D01*
G01X-6640655Y5384470D01*
G01X-6637369Y5386558D01*
G01X-6633355Y5388577D01*
G01X-6627471Y5390577D01*
G01X-6620035Y5392044D01*
G01X-6611162Y5392962D01*
G01X-6600969Y5393312D01*
G01X-6589634Y5393104D01*
G01X-6581061Y5392193D01*
G01X-6574059Y5390369D01*
G01X-6567437Y5387423D01*
G01X-6562511Y5384431D01*
G01X-6557585Y5380730D01*
G01X-6553232Y5376789D01*
G01X-6550023Y5373081D01*
G01X-6546471Y5368711D01*
G01X-6544737Y5367249D01*
G01X-6542847Y5366188D01*
G01X-6540662Y5365469D01*
G01X-6538044Y5365030D01*
G01X-6530952Y5364752D01*
G01X-6524499Y5364308D01*
G01X-6516640Y5363100D01*
G01X-6508369Y5361312D01*
G01X-6500680Y5359128D01*
G01X-6492940Y5356276D01*
G01X-6484532Y5352667D01*
G01X-6476470Y5348764D01*
G01X-6469768Y5345029D01*
G01X-6459694Y5339385D01*
G01X-6456363Y5337935D01*
G01X-6454822Y5337720D01*
G01X-6454940Y5339013D01*
G01X-6456124Y5341672D01*
G01X-6460894Y5349537D01*
G01X-6469611Y5364311D01*
G01X-6480403Y5384875D01*
G01X-6487479Y5399716D01*
G01X-6489766Y5405656D01*
G01X-6491445Y5411587D01*
G01X-6492686Y5418239D01*
G01X-6493659Y5426345D01*
G01X-6495483Y5449847D01*
G01X-6496595Y5473969D01*
G01X-6497548Y5509867D01*
G01X-6498238Y5552694D01*
G01X-6498567Y5597601D01*
G01X-6498454Y5645122D01*
G01X-6497878Y5685098D01*
G01X-6496870Y5716115D01*
G01X-6495461Y5736759D01*
G01X-6491368Y5769258D01*
G01X-6486273Y5802894D01*
G01X-6479773Y5836530D01*
G01X-6472301Y5869029D01*
G01X-6464891Y5895457D01*
G01X-6461357Y5906646D01*
G01X-6458540Y5914496D01*
G01X-6446099Y5943430D01*
G01X-6438757Y5958181D01*
G01X-6430716Y5972364D01*
G01X-6420530Y5987356D01*
G01X-6408032Y6004053D01*
G01X-6394857Y6021560D01*
G01X-6383044Y6038499D01*
G01X-6373514Y6053901D01*
G01X-6365831Y6067714D01*
G01X-6359443Y6082630D01*
G01X-6353028Y6100685D01*
G01X-6350283Y6108645D01*
G01X-6347563Y6115321D01*
G01X-6345184Y6120012D01*
G01X-6343460Y6122018D01*
G01X-6341760Y6121815D01*
G01X-6339450Y6120490D01*
G01X-6336833Y6118262D01*
G01X-6334212Y6115349D01*
G01X-6326330Y6104199D01*
G01X-6315962Y6088223D01*
G01X-6297364Y6057788D01*
G01X-6288825Y6041909D01*
G01X-6277371Y6019209D01*
G01X-6256692Y5975727D01*
G01X-6251645Y5963280D01*
G01X-6250109Y5958560D01*
G01X-6249546Y5955719D01*
G01X-6249124Y5953212D01*
G01X-6247978Y5949404D01*
G01X-6244208Y5939955D01*
G01X-6241541Y5933028D01*
G01X-6238225Y5922801D01*
G01X-6231335Y5897962D01*
G01X-6228174Y5883366D01*
G01X-6225138Y5866032D01*
G01X-6222573Y5848129D01*
G01X-6220824Y5831828D01*
G01X-6219808Y5816614D01*
G01X-6219242Y5801671D01*
G01X-6219165Y5788717D01*
G01X-6219617Y5779471D01*
G01X-6220988Y5759700D01*
G01X-6221803Y5735381D01*
G01X-6222267Y5722290D01*
G01X-6223222Y5707016D01*
G01X-6226047Y5677513D01*
G01X-6230045Y5648416D01*
G01X-6234284Y5621023D01*
G01X-6239047Y5596059D01*
G01X-6244304Y5572800D01*
G01X-6258176Y5519066D01*
G01X-6268737Y5480487D01*
G01X-6279988Y5441165D01*
G01X-6283308Y5428415D01*
G01X-6285728Y5417675D01*
G01X-6287019Y5410074D01*
G01X-6287170Y5407804D01*
G01X-6286953Y5406743D01*
G01X-6285949Y5406404D01*
G01X-6284687Y5406950D01*
G01X-6283327Y5408268D01*
G01X-6282032Y5410242D01*
G01X-6279782Y5413460D01*
G01X-6275823Y5418165D01*
G01X-6265012Y5429508D01*
G01X-6258380Y5435456D01*
G01X-6250737Y5441465D01*
G01X-6243028Y5446835D01*
G01X-6236199Y5450864D01*
G01X-6228697Y5454313D01*
G01X-6221612Y5456667D01*
G01X-6214604Y5458013D01*
G01X-6207336Y5458442D01*
G01X-6200318Y5457970D01*
G01X-6191660Y5456684D01*
G01X-6182463Y5454780D01*
G01X-6173826Y5452456D01*
G01X-6165727Y5449734D01*
G01X-6157996Y5446749D01*
G01X-6151508Y5443861D01*
G01X-6147138Y5441433D01*
G01X-6141343Y5437877D01*
G01X-6137682Y5436397D01*
G01X-6135092Y5435215D01*
G01X-6129621Y5431996D01*
G01X-6113247Y5421413D01*
G01X-6102800Y5413812D01*
G01X-6090837Y5404194D01*
G01X-6078834Y5393793D01*
G01X-6068267Y5383840D01*
G01X-6057277Y5373166D01*
G01X-6050306Y5367155D01*
G01X-6048106Y5365734D01*
G01X-6046645Y5365280D01*
G01X-6045833Y5365729D01*
G01X-6045582Y5367014D01*
G01X-6046234Y5370357D01*
G01X-6048011Y5375202D01*
G01X-6050640Y5380898D01*
G01X-6053851Y5386796D01*
G01X-6059691Y5397124D01*
G01X-6062120Y5402266D01*
G01X-6064404Y5406673D01*
G01X-6069895Y5415234D01*
G01X-6078685Y5429450D01*
G01X-6088901Y5447455D01*
G01X-6093867Y5457230D01*
G01X-6099085Y5468541D01*
G01X-6103935Y5479987D01*
G01X-6107798Y5490167D01*
G01X-6111933Y5503296D01*
G01X-6113340Y5509416D01*
G01X-6114403Y5515966D01*
G01X-6115783Y5532535D01*
G01X-6116646Y5557356D01*
G01X-6116950Y5578303D01*
G01X-6116663Y5595529D01*
G01X-6115780Y5609169D01*
G01X-6114296Y5619358D01*
G01X-6112326Y5627350D01*
G01X-6109571Y5636676D01*
G01X-6106398Y5646177D01*
G01X-6103172Y5654693D01*
G01X-6099579Y5662817D01*
G01X-6095411Y5671252D01*
G01X-6091185Y5679001D01*
G01X-6087416Y5685068D01*
G01X-6083264Y5690579D01*
G01X-6077993Y5696816D01*
G01X-6072280Y5703013D01*
G01X-6066801Y5708405D01*
G01X-6060901Y5713400D01*
G01X-6054042Y5718518D01*
G01X-6047077Y5723157D01*
G01X-6040855Y5726717D01*
G01X-6034804Y5729523D01*
G01X-6028302Y5732112D01*
G01X-6022129Y5734194D01*
G01X-6017068Y5735483D01*
G01X-6011859Y5736176D01*
G01X-6007809Y5735971D01*
G01X-6004464Y5734783D01*
G01X-6001371Y5732526D01*
G01X-5997556Y5728418D01*
G01X-5996395Y5726658D01*
G01X-5995969Y5725406D01*
G01X-5994750Y5722629D01*
G01X-5991432Y5716718D01*
G01X-5980524Y5698965D01*
G01X-5957860Y5663735D01*
G01X-5947905Y5649475D01*
G01X-5934109Y5630668D01*
G01X-5919633Y5611861D01*
G01X-5908044Y5597601D01*
G01X-5868248Y5554147D01*
G01X-5844373Y5527875D01*
G01X-5829466Y5510251D01*
G01X-5821425Y5498454D01*
G01X-5814056Y5486192D01*
G01X-5810327Y5480262D01*
G01X-5806162Y5475353D01*
G01X-5801467Y5471371D01*
G01X-5796148Y5468224D01*
G01X-5792537Y5466620D01*
G01X-5788752Y5465379D01*
G01X-5784311Y5464460D01*
G01X-5778737Y5463826D01*
G01X-5762269Y5463258D01*
G01X-5735511Y5463368D01*
G01X-5692369Y5463017D01*
G01X-5672944Y5462351D01*
G01X-5658327Y5461444D01*
G01X-5647447Y5460662D01*
G01X-5638198Y5460340D01*
G01X-5631560Y5460487D01*
G01X-5628509Y5461114D01*
G01X-5628206Y5461898D01*
G01X-5628214Y5463322D01*
G01X-5629078Y5467772D01*
G01X-5630933Y5473818D01*
G01X-5633613Y5480813D01*
G01X-5647582Y5512866D01*
G01X-5661421Y5543177D01*
G01X-5681658Y5586578D01*
G01X-5693073Y5611301D01*
G01X-5702251Y5632046D01*
G01X-5716247Y5665113D01*
G01X-5729546Y5698181D01*
G01X-5752052Y5756048D01*
G01X-5771246Y5804272D01*
G01X-5778333Y5821729D01*
G01X-5781958Y5829365D01*
G01X-5783952Y5832579D01*
G01X-5785743Y5834818D01*
G01X-5787902Y5836332D01*
G01X-5790896Y5837572D01*
G01X-5794329Y5838409D01*
G01X-5797807Y5838717D01*
G01X-5802002Y5838188D01*
G01X-5807391Y5836750D01*
G01X-5813279Y5834620D01*
G01X-5818971Y5832020D01*
G01X-5825478Y5827863D01*
G01X-5833329Y5821595D01*
G01X-5841687Y5813936D01*
G01X-5849714Y5805606D01*
G01X-5865818Y5788158D01*
G01X-5879623Y5773896D01*
G01X-5885301Y5768791D01*
G01X-5891769Y5763757D01*
G01X-5898228Y5759374D01*
G01X-5903884Y5756221D01*
G01X-5909724Y5753945D01*
G01X-5916326Y5752145D01*
G01X-5923062Y5750963D01*
G01X-5929303Y5750537D01*
G01X-5947156Y5751772D01*
G01X-5971366Y5754742D01*
G01X-5994056Y5758516D01*
G01X-6008254Y5761686D01*
G01X-6011917Y5763218D01*
G01X-6015866Y5765365D01*
G01X-6019627Y5767841D01*
G01X-6022724Y5770362D01*
G01X-6027188Y5775232D01*
G01X-6028546Y5777240D01*
G01X-6029044Y5778604D01*
G01X-6030660Y5783669D01*
G01X-6034545Y5792609D01*
G01X-6037116Y5797424D01*
G01X-6040049Y5801883D01*
G01X-6042983Y5805491D01*
G01X-6045557Y5807750D01*
G01X-6049383Y5809331D01*
G01X-6055727Y5811094D01*
G01X-6063707Y5812824D01*
G01X-6072442Y5814305D01*
G01X-6081570Y5815931D01*
G01X-6090622Y5818055D01*
G01X-6098553Y5820402D01*
G01X-6104316Y5822696D01*
G01X-6109018Y5825441D01*
G01X-6114060Y5829013D01*
G01X-6118836Y5832950D01*
G01X-6122743Y5836789D01*
G01X-6126300Y5841166D01*
G01X-6130125Y5846567D01*
G01X-6133759Y5852304D01*
G01X-6136742Y5857693D01*
G01X-6139606Y5864259D01*
G01X-6142917Y5873202D01*
G01X-6149239Y5893516D01*
G01X-6153803Y5911705D01*
G01X-6155749Y5922104D01*
G01X-6156257Y5925000D01*
G01X-6157579Y5929297D01*
G01X-6161860Y5939776D01*
G01X-6165431Y5946077D01*
G01X-6170698Y5953757D01*
G01X-6176952Y5961845D01*
G01X-6183484Y5969369D01*
G01X-6197434Y5985423D01*
G01X-6209073Y6000467D01*
G01X-6213504Y6007382D01*
G01X-6218179Y6015622D01*
G01X-6222542Y6024153D01*
G01X-6226037Y6031943D01*
G01X-6229504Y6041486D01*
G01X-6231612Y6050365D01*
G01X-6232638Y6060229D01*
G01X-6232858Y6072730D01*
G01X-6232486Y6083678D01*
G01X-6231534Y6093471D01*
G01X-6230031Y6101903D01*
G01X-6228003Y6108767D01*
G01X-6223298Y6121167D01*
G01X-6197515Y6129849D01*
G01X-6058215Y6129849D01*
G01X-6058200Y6122987D01*
G01X-6057641Y6114623D01*
G01X-6056613Y6105904D01*
G01X-6055382Y6099783D01*
G01X-6053923Y6096173D01*
G01X-6053923Y6096173D01*
G01X-6053101Y6095283D01*
G01X-6052214Y6094989D01*
G01X-6050641Y6095283D01*
G01X-6049023Y6096085D01*
G01X-6047548Y6097271D01*
G01X-6046408Y6098720D01*
G01X-6045077Y6100418D01*
G01X-6043083Y6102282D01*
G01X-6038184Y6105608D01*
G01X-6034256Y6107161D01*
G01X-6028009Y6109054D01*
G01X-6012000Y6112903D01*
G01X-5994412Y6117068D01*
G01X-5980445Y6121274D01*
G01X-5974363Y6123970D01*
G01X-5972045Y6125490D01*
G01X-5970060Y6127283D01*
G01X-5968296Y6129467D01*
G01X-5966642Y6132161D01*
G01X-5963218Y6139550D01*
G01X-5960694Y6146727D01*
G01X-5958867Y6154397D01*
G01X-5957756Y6162455D01*
G01X-5957381Y6170798D01*
G01X-5957623Y6178115D01*
G01X-5958313Y6184058D01*
G01X-5959398Y6188326D01*
G01X-5960827Y6190614D01*
G01X-5961827Y6191096D01*
G01X-5963020Y6191153D01*
G01X-5966059Y6189949D01*
G01X-5970100Y6186910D01*
G01X-5975297Y6181941D01*
G01X-5980339Y6177207D01*
G01X-5985917Y6172658D01*
G01X-5991354Y6168810D01*
G01X-5995969Y6166182D01*
G01X-6018019Y6156390D01*
G01X-6042152Y6146029D01*
G01X-6051257Y6141477D01*
G01X-6054665Y6139324D01*
G01X-6056674Y6137620D01*
G01X-6057701Y6134846D01*
G01X-6058215Y6129849D01*
G01X-6197515Y6129849D01*
G01X-6194389Y6130902D01*
G01X-6170742Y6138560D01*
G01X-6154484Y6143302D01*
G01X-6149775Y6144756D01*
G01X-6146139Y6146543D01*
G01X-6143695Y6148588D01*
G01X-6142562Y6150818D01*
G01X-6142662Y6153444D01*
G01X-6143617Y6157008D01*
G01X-6145269Y6161043D01*
G01X-6147455Y6165081D01*
G01X-6150739Y6169339D01*
G01X-6155381Y6173976D01*
G01X-6160763Y6178432D01*
G01X-6166267Y6182145D01*
G01X-6173915Y6186076D01*
G01X-6182084Y6188778D01*
G01X-6192484Y6190674D01*
G01X-6206823Y6192188D01*
G01X-6264705Y6196575D01*
G01X-6277712Y6197742D01*
G01X-6290250Y6199418D01*
G01X-6301041Y6201404D01*
G01X-6308805Y6203498D01*
G01X-6325177Y6210150D01*
G01X-6345185Y6219228D01*
G01X-6370081Y6232085D01*
G01X-6398204Y6247820D01*
G01X-6424075Y6263620D01*
G01X-6443558Y6276634D01*
G01X-6449779Y6281523D01*
G01X-6455678Y6286682D01*
G01X-6460589Y6291495D01*
G01X-6463847Y6295350D01*
G01X-6468447Y6303208D01*
G01X-6471984Y6311304D01*
G01X-6472893Y6314949D01*
G01X-6473312Y6318762D01*
G01X-6473221Y6322290D01*
G01X-6472599Y6325082D01*
G01X-6471013Y6331162D01*
G01X-6470240Y6338042D01*
G01X-6469162Y6345368D01*
G01X-6469045Y6345730D01*
G01X-6210958Y6345730D01*
G01X-6210256Y6343802D01*
G01X-6208344Y6341056D01*
G01X-6205515Y6337858D01*
G01X-6202061Y6334576D01*
G01X-6197691Y6331103D01*
G01X-6192371Y6327390D01*
G01X-6181567Y6321019D01*
G01X-6168832Y6315746D01*
G01X-6154498Y6311200D01*
G01X-6142801Y6308354D01*
G01X-6142801Y6308354D01*
G01X-6136404Y6307171D01*
G01X-6135386Y6307534D01*
G01X-6134553Y6308524D01*
G01X-6133989Y6309988D01*
G01X-6133782Y6311777D01*
G01X-6134709Y6314452D01*
G01X-6137232Y6318331D01*
G01X-6140966Y6322894D01*
G01X-6145526Y6327621D01*
G01X-6152025Y6333284D01*
G01X-6158238Y6337270D01*
G01X-6165159Y6340094D01*
G01X-6173778Y6342272D01*
G01X-6200622Y6347401D01*
G01X-6205304Y6347985D01*
G01X-6208517Y6347912D01*
G01X-6210365Y6347167D01*
G01X-6210958Y6345730D01*
G01X-6469045Y6345730D01*
G01X-6466841Y6352523D01*
G01X-6464738Y6355829D01*
G01X-6461661Y6358597D01*
G01X-6457557Y6360867D01*
G01X-6452371Y6362675D01*
G01X-6445662Y6363984D01*
G01X-6437625Y6364390D01*
G01X-6427337Y6363889D01*
G01X-6413875Y6362476D01*
G01X-6383211Y6359288D01*
G01X-6347725Y6356281D01*
G01X-6296402Y6352736D01*
G01X-6290499Y6352686D01*
G01X-6283594Y6353044D01*
G01X-6270218Y6354723D01*
G01X-6256436Y6358224D01*
G01X-6242655Y6362915D01*
G01X-6219515Y6372577D01*
G01X-6214695Y6374259D01*
G01X-6209497Y6375239D01*
G01X-6203979Y6375509D01*
G01X-6198200Y6375062D01*
G01X-6192413Y6373693D01*
G01X-6185492Y6371178D01*
G01X-6178308Y6367875D01*
G01X-6171728Y6364142D01*
G01X-6137917Y6342999D01*
G01X-6096573Y6316801D01*
G01X-6078343Y6305639D01*
G01X-6070729Y6301437D01*
G01X-6065476Y6298935D01*
G01X-6058580Y6296950D01*
G01X-6056087Y6296741D01*
G01X-6054703Y6297133D01*
G01X-6054910Y6298057D01*
G01X-6056172Y6300034D01*
G01X-6061450Y6306656D01*
G01X-6069703Y6316015D01*
G01X-6080098Y6327127D01*
G01X-6111384Y6359092D01*
G01X-5947237Y6359092D01*
G01X-5946995Y6357779D01*
G01X-5944452Y6353932D01*
G01X-5938829Y6347596D01*
G01X-5934092Y6341612D01*
G01X-5929014Y6333814D01*
G01X-5924204Y6325212D01*
G01X-5920272Y6316815D01*
G01X-5916506Y6308403D01*
G01X-5912151Y6299756D01*
G01X-5907746Y6291891D01*
G01X-5903830Y6285827D01*
G01X-5899273Y6280390D01*
G01X-5893820Y6275368D01*
G01X-5887660Y6270916D01*
G01X-5880979Y6267185D01*
G01X-5873134Y6263195D01*
G01X-5870713Y6261657D01*
G01X-5869146Y6260249D01*
G01X-5868323Y6258844D01*
G01X-5868134Y6257310D01*
G01X-5869217Y6253341D01*
G01X-5872299Y6243171D01*
G01X-5876024Y6228411D01*
G01X-5878978Y6212716D01*
G01X-5879876Y6205636D01*
G01X-5880206Y6200298D01*
G01X-5879740Y6194905D01*
G01X-5878471Y6187678D01*
G01X-5876592Y6179561D01*
G01X-5874298Y6171498D01*
G01X-5870975Y6162178D01*
G01X-5867390Y6154811D01*
G01X-5863164Y6148744D01*
G01X-5857917Y6143324D01*
G01X-5852946Y6139407D01*
G01X-5847154Y6135736D01*
G01X-5841260Y6132723D01*
G01X-5835984Y6130779D01*
G01X-5827394Y6129096D01*
G01X-5827394Y6129096D01*
G01X-5824394Y6128971D01*
G01X-5822834Y6129384D01*
G01X-5822144Y6131715D01*
G01X-5821517Y6136812D01*
G01X-5820725Y6152299D01*
G01X-5820316Y6161435D01*
G01X-5819510Y6170621D01*
G01X-5818424Y6178787D01*
G01X-5817174Y6184866D01*
G01X-5815361Y6189871D01*
G01X-5812738Y6195113D01*
G01X-5809657Y6199972D01*
G01X-5806469Y6203823D01*
G01X-5799215Y6210458D01*
G01X-5792409Y6215718D01*
G01X-5788262Y6217640D01*
G01X-5782471Y6218923D01*
G01X-5774759Y6219606D01*
G01X-5764847Y6219731D01*
G01X-5754712Y6219244D01*
G01X-5744998Y6218061D01*
G01X-5735870Y6216210D01*
G01X-5727491Y6213716D01*
G01X-5720133Y6211485D01*
G01X-5712134Y6209657D01*
G01X-5704459Y6208422D01*
G01X-5698073Y6207969D01*
G01X-5691438Y6208306D01*
G01X-5686051Y6209430D01*
G01X-5681392Y6211504D01*
G01X-5676939Y6214695D01*
G01X-5673579Y6218160D01*
G01X-5670340Y6222622D01*
G01X-5667592Y6227506D01*
G01X-5665703Y6232237D01*
G01X-5664447Y6237499D01*
G01X-5663423Y6243829D01*
G01X-5662737Y6250433D01*
G01X-5662494Y6256512D01*
G01X-5662805Y6262857D01*
G01X-5663627Y6270185D01*
G01X-5664836Y6277589D01*
G01X-5666306Y6284161D01*
G01X-5668428Y6290617D01*
G01X-5671413Y6297705D01*
G01X-5674863Y6304565D01*
G01X-5678384Y6310339D01*
G01X-5686152Y6320572D01*
G01X-5693176Y6328341D01*
G01X-5696749Y6331126D01*
G01X-5701676Y6334262D01*
G01X-5707307Y6337366D01*
G01X-5712992Y6340053D01*
G01X-5719013Y6342265D01*
G01X-5725559Y6344076D01*
G01X-5731841Y6345300D01*
G01X-5737069Y6345749D01*
G01X-5742282Y6345482D01*
G01X-5748524Y6344755D01*
G01X-5760958Y6342366D01*
G01X-5767561Y6340069D01*
G01X-5775831Y6336316D01*
G01X-5784712Y6331626D01*
G01X-5793147Y6326521D01*
G01X-5816165Y6311304D01*
G01X-5818343Y6310406D01*
G01X-5820549Y6310932D01*
G01X-5823034Y6313022D01*
G01X-5826048Y6316815D01*
G01X-5833652Y6326061D01*
G01X-5843617Y6336681D01*
G01X-5849395Y6341774D01*
G01X-5856517Y6347066D01*
G01X-5864080Y6351932D01*
G01X-5871179Y6355746D01*
G01X-5880233Y6359525D01*
G01X-5889088Y6361957D01*
G01X-5899513Y6363400D01*
G01X-5913281Y6364208D01*
G01X-5924518Y6364409D01*
G01X-5933756Y6364112D01*
G01X-5940545Y6363348D01*
G01X-5944438Y6362145D01*
G01X-5946858Y6360172D01*
G01X-5947237Y6359092D01*
G01X-6111384Y6359092D01*
G01X-6129459Y6377559D01*
G01X-6148809Y6396032D01*
G01X-6164101Y6409320D01*
G01X-6176100Y6418157D01*
G01X-6187137Y6425662D01*
G01X-5785010Y6425662D01*
G01X-5784813Y6409729D01*
G01X-5783999Y6397704D01*
G01X-5782419Y6388241D01*
G01X-5779923Y6379994D01*
G01X-5775158Y6368621D01*
G01X-5770993Y6360906D01*
G01X-5769379Y6359085D01*
G01X-5769379Y6359085D01*
G01X-5767746Y6357905D01*
G01X-5766285Y6357465D01*
G01X-5765187Y6357865D01*
G01X-5764432Y6361168D01*
G01X-5763904Y6368633D01*
G01X-5763723Y6391617D01*
G01X-5764323Y6407251D01*
G01X-5765534Y6420551D01*
G01X-5767447Y6432251D01*
G01X-5770155Y6443082D01*
G01X-5774978Y6457795D01*
G01X-5776996Y6462848D01*
G01X-5778391Y6465390D01*
G01X-5779520Y6466033D01*
G01X-5780701Y6465750D01*
G01X-5781843Y6464598D01*
G01X-5782853Y6462635D01*
G01X-5783658Y6458083D01*
G01X-5784334Y6449595D01*
G01X-5785010Y6425662D01*
G01X-6187137Y6425662D01*
G01X-6187530Y6425929D01*
G01X-6192789Y6428913D01*
G01X-6198959Y6431852D01*
G01X-6205272Y6434409D01*
G01X-6210958Y6436246D01*
G01X-6218806Y6437565D01*
G01X-6230428Y6438457D01*
G01X-6245062Y6438883D01*
G01X-6261949Y6438806D01*
G01X-6283159Y6438600D01*
G01X-6297176Y6439238D01*
G01X-6302645Y6439992D01*
G01X-6307705Y6441097D01*
G01X-6318452Y6444554D01*
G01X-6327199Y6448015D01*
G01X-6337770Y6452640D01*
G01X-6359058Y6462963D01*
G01X-6369493Y6468813D01*
G01X-6381133Y6475932D01*
G01X-6392557Y6483420D01*
G01X-6402345Y6490378D01*
G01X-6420687Y6505125D01*
G01X-6429219Y6512569D01*
G01X-6435859Y6518815D01*
G01X-6448442Y6532603D01*
G01X-6460556Y6547585D01*
G01X-6465455Y6554657D01*
G01X-6470084Y6562210D01*
G01X-6473921Y6569339D01*
G01X-6476447Y6575141D01*
G01X-6478328Y6581867D01*
G01X-6480411Y6591516D01*
G01X-6484172Y6614421D01*
G01X-6485569Y6628709D01*
G01X-6486703Y6647239D01*
G01X-6486966Y6654378D01*
G01X-6380269Y6654378D01*
G01X-6380056Y6653271D01*
G01X-6378216Y6650258D01*
G01X-6370885Y6640352D01*
G01X-6363054Y6629496D01*
G01X-6360671Y6625453D01*
G01X-6359796Y6623089D01*
G01X-6359377Y6621049D01*
G01X-6358234Y6617889D01*
G01X-6354479Y6609932D01*
G01X-6352266Y6605236D01*
G01X-6350171Y6599782D01*
G01X-6348432Y6594246D01*
G01X-6347283Y6589306D01*
G01X-6345882Y6584065D01*
G01X-6343565Y6579198D01*
G01X-6340295Y6574641D01*
G01X-6336034Y6570332D01*
G01X-6331500Y6565762D01*
G01X-6328202Y6560980D01*
G01X-6325880Y6555510D01*
G01X-6324273Y6548876D01*
G01X-6322938Y6543305D01*
G01X-6321069Y6537886D01*
G01X-6318915Y6533239D01*
G01X-6316722Y6529983D01*
G01X-6313957Y6527382D01*
G01X-6310244Y6524518D01*
G01X-6301915Y6519390D01*
G01X-6287410Y6513317D01*
G01X-6266083Y6505579D01*
G01X-6245161Y6498048D01*
G01X-6231630Y6492471D01*
G01X-6219807Y6485513D01*
G01X-6202993Y6474663D01*
G01X-6194541Y6469336D01*
G01X-6186583Y6464904D01*
G01X-6186583Y6464904D01*
G01X-6180015Y6461829D01*
G01X-6175732Y6460573D01*
G01X-6172988Y6460610D01*
G01X-6170615Y6461054D01*
G01X-6168866Y6461830D01*
G01X-6167995Y6462863D01*
G01X-6168287Y6463761D01*
G01X-6169450Y6465265D01*
G01X-6174036Y6469768D01*
G01X-6181039Y6475727D01*
G01X-6189744Y6482499D01*
G01X-6208943Y6496056D01*
G01X-6217307Y6501453D01*
G01X-6223377Y6504946D01*
G01X-6234813Y6509809D01*
G01X-6246805Y6513687D01*
G01X-6259697Y6517560D01*
G01X-6273299Y6522413D01*
G01X-6279555Y6525242D01*
G01X-6284576Y6528298D01*
G01X-6285370Y6528990D01*
G01X-5788415Y6528990D01*
G01X-5788139Y6523952D01*
G01X-5787217Y6520743D01*
G01X-5786397Y6519662D01*
G01X-5786397Y6519662D01*
G01X-5785487Y6519314D01*
G01X-5784421Y6519783D01*
G01X-5783135Y6521151D01*
G01X-5779651Y6526919D01*
G01X-5774521Y6537286D01*
G01X-5767377Y6553199D01*
G01X-5766091Y6556460D01*
G01X-5747564Y6556460D01*
G01X-5747206Y6555793D01*
G01X-5746441Y6555341D01*
G01X-5746441Y6555341D01*
G01X-5745338Y6555176D01*
G01X-5744238Y6555920D01*
G01X-5742263Y6558051D01*
G01X-5736128Y6565881D01*
G01X-5727822Y6577469D01*
G01X-5718235Y6591619D01*
G01X-5707847Y6606770D01*
G01X-5698339Y6619563D01*
G01X-5690469Y6629028D01*
G01X-5687385Y6632210D01*
G01X-5684994Y6634195D01*
G01X-5680277Y6636914D01*
G01X-5674207Y6639781D01*
G01X-5667568Y6642456D01*
G01X-5661141Y6644598D01*
G01X-5653922Y6646255D01*
G01X-5645122Y6647613D01*
G01X-5635854Y6648530D01*
G01X-5627232Y6648867D01*
G01X-5618190Y6649097D01*
G01X-5611623Y6649831D01*
G01X-5607183Y6651133D01*
G01X-5604523Y6653068D01*
G01X-5603043Y6656043D01*
G01X-5602239Y6660703D01*
G01X-5602095Y6667245D01*
G01X-5602594Y6675862D01*
G01X-5603760Y6684570D01*
G01X-5605783Y6694538D01*
G01X-5608378Y6704534D01*
G01X-5611260Y6713331D01*
G01X-5614617Y6721604D01*
G01X-5618505Y6730176D01*
G01X-5622441Y6738036D01*
G01X-5625944Y6744171D01*
G01X-5631740Y6752650D01*
G01X-5633850Y6755252D01*
G01X-5635036Y6756235D01*
G01X-5637079Y6755335D01*
G01X-5639860Y6753029D01*
G01X-5642196Y6750109D01*
G01X-5643167Y6747731D01*
G01X-5644810Y6744495D01*
G01X-5649284Y6737156D01*
G01X-5663989Y6714526D01*
G01X-5674509Y6697516D01*
G01X-5687759Y6674278D01*
G01X-5702045Y6647867D01*
G01X-5715669Y6621343D01*
G01X-5747446Y6557275D01*
G01X-5747564Y6556460D01*
G01X-5766091Y6556460D01*
G01X-5765183Y6558761D01*
G01X-5764353Y6561662D01*
G01X-5762723Y6568345D01*
G01X-5758930Y6579976D01*
G01X-5755138Y6592097D01*
G01X-5753508Y6599955D01*
G01X-5753671Y6601827D01*
G01X-5754182Y6603360D01*
G01X-5754961Y6604396D01*
G01X-5755929Y6604777D01*
G01X-5757461Y6604115D01*
G01X-5759777Y6602312D01*
G01X-5765501Y6596387D01*
G01X-5768703Y6592107D01*
G01X-5772202Y6586653D01*
G01X-5775573Y6580728D01*
G01X-5778395Y6575031D01*
G01X-5780881Y6568551D01*
G01X-5783338Y6560491D01*
G01X-5785482Y6551879D01*
G01X-5787031Y6543741D01*
G01X-5788045Y6535653D01*
G01X-5788415Y6528990D01*
G01X-6285370Y6528990D01*
G01X-6288266Y6531511D01*
G01X-6290526Y6534811D01*
G01X-6292729Y6540887D01*
G01X-6293646Y6545883D01*
G01X-6294395Y6548648D01*
G01X-6296436Y6553052D01*
G01X-6303144Y6564353D01*
G01X-6307606Y6570609D01*
G01X-6312730Y6577111D01*
G01X-6317886Y6583090D01*
G01X-6322438Y6587778D01*
G01X-6326364Y6591927D01*
G01X-6329465Y6596140D01*
G01X-6331501Y6600039D01*
G01X-6332233Y6603244D01*
G01X-6332832Y6606423D01*
G01X-6334460Y6610431D01*
G01X-6336870Y6614755D01*
G01X-6339813Y6618882D01*
G01X-6347329Y6627607D01*
G01X-6354756Y6635453D01*
G01X-6362371Y6642270D01*
G01X-6370341Y6648525D01*
G01X-6376649Y6652659D01*
G01X-6380269Y6654378D01*
G01X-6486966Y6654378D01*
G01X-6487455Y6667617D01*
G01X-6487711Y6687445D01*
G01X-6487439Y6709739D01*
G01X-6486639Y6726510D01*
G01X-6485200Y6739182D01*
G01X-6483016Y6749178D01*
G01X-6478486Y6762602D01*
G01X-6476120Y6768193D01*
G01X-6474078Y6772035D01*
G01X-6471854Y6774802D01*
G01X-6468993Y6777464D01*
G01X-6465863Y6779717D01*
G01X-6462832Y6781259D01*
G01X-6457127Y6782281D01*
G01X-6446711Y6783118D01*
G01X-6433068Y6783684D01*
G01X-6417678Y6783892D01*
G01X-6402331Y6784084D01*
G01X-6388804Y6784608D01*
G01X-6378562Y6785383D01*
G01X-6373068Y6786329D01*
G01X-6369948Y6788431D01*
G01X-6366229Y6792347D01*
G01X-6362345Y6797557D01*
G01X-6358729Y6803541D01*
G01X-6351149Y6816546D01*
G01X-6344097Y6827066D01*
G01X-6340159Y6831113D01*
G01X-6334371Y6835666D01*
G01X-6327510Y6840167D01*
G01X-6320358Y6844058D01*
G01X-6305877Y6850673D01*
G01X-6295024Y6855004D01*
G01X-6289654Y6856076D01*
G01X-6281145Y6856999D01*
G01X-6270667Y6857673D01*
G01X-6259388Y6858000D01*
G01X-6247985Y6857851D01*
G01X-6237169Y6857229D01*
G01X-6228160Y6856233D01*
G01X-6222179Y6854964D01*
G01X-6211989Y6850528D01*
G01X-6201311Y6844541D01*
G01X-6195988Y6840272D01*
G01X-6189645Y6833891D01*
G01X-6183076Y6826263D01*
G01X-6177078Y6818248D01*
G01X-6164748Y6801191D01*
G01X-6153650Y6787146D01*
G01X-6148377Y6781530D01*
G01X-6141574Y6775038D01*
G01X-6134119Y6768473D01*
G01X-6126892Y6762640D01*
G01X-6118622Y6756886D01*
G01X-6108330Y6750535D01*
G01X-6097328Y6744359D01*
G01X-6086926Y6739130D01*
G01X-6046960Y6720145D01*
G01X-6031637Y6712350D01*
G01X-6018019Y6704951D01*
G01X-6002145Y6695176D01*
G01X-5981395Y6681669D01*
G01X-5956425Y6663850D01*
G01X-5930404Y6643709D01*
G01X-5908996Y6625598D01*
G01X-5900536Y6617972D01*
G01X-5895116Y6612657D01*
G01X-5883980Y6598834D01*
G01X-5869167Y6578599D01*
G01X-5855229Y6559262D01*
G01X-5846197Y6547598D01*
G01X-5841723Y6543219D01*
G01X-5839924Y6541887D01*
G01X-5838745Y6541398D01*
G01X-5837865Y6542213D01*
G01X-5836886Y6544433D01*
G01X-5835103Y6551731D01*
G01X-5831017Y6574465D01*
G01X-5829492Y6580802D01*
G01X-5827080Y6588889D01*
G01X-5820925Y6606155D01*
G01X-5814857Y6620587D01*
G01X-5811130Y6628200D01*
G01X-5800058Y6647489D01*
G01X-5789686Y6665010D01*
G01X-5777400Y6683918D01*
G01X-5761734Y6705076D01*
G01X-5743233Y6728008D01*
G01X-5733487Y6739102D01*
G01X-5722118Y6751425D01*
G01X-5710541Y6763474D01*
G01X-5700167Y6773750D01*
G01X-5681930Y6790192D01*
G01X-5674581Y6796146D01*
G01X-5669744Y6799464D01*
G01X-5666218Y6800964D01*
G01X-5662439Y6801969D01*
G01X-5658861Y6802390D01*
G01X-5655937Y6802141D01*
G01X-5652657Y6800560D01*
G01X-5648112Y6797357D01*
G01X-5642902Y6792995D01*
G01X-5637629Y6787943D01*
G01X-5620923Y6770607D01*
G01X-5615791Y6763697D01*
G01X-5609534Y6753580D01*
G01X-5606200Y6746972D01*
G01X-5602342Y6738147D01*
G01X-5598438Y6728257D01*
G01X-5594966Y6718454D01*
G01X-5591143Y6705953D01*
G01X-5589061Y6695974D01*
G01X-5588401Y6686213D01*
G01X-5588842Y6674364D01*
G01X-5590177Y6663095D01*
G01X-5592787Y6648409D01*
G01X-5596325Y6632060D01*
G01X-5600444Y6615799D01*
G01X-5608775Y6583455D01*
G01X-5614456Y6557931D01*
G01X-5618056Y6535241D01*
G01X-5621384Y6509708D01*
G01X-5622482Y6496508D01*
G01X-5623156Y6480938D01*
G01X-5623352Y6464941D01*
G01X-5623017Y6450463D01*
G01X-5622182Y6437397D01*
G01X-5621019Y6425249D01*
G01X-5619682Y6415374D01*
G01X-5618324Y6409128D01*
G01X-5612292Y6391941D01*
G01X-5611024Y6389114D01*
G01X-5609670Y6386994D01*
G01X-5608393Y6385786D01*
G01X-5607355Y6385694D01*
G01X-5606283Y6387218D01*
G01X-5604916Y6390411D01*
G01X-5601998Y6399931D01*
G01X-5600357Y6405515D01*
G01X-5598298Y6411151D01*
G01X-5596085Y6416184D01*
G01X-5593980Y6419956D01*
G01X-5589502Y6427180D01*
G01X-5585418Y6434602D01*
G01X-5582982Y6438539D01*
G01X-5579161Y6443669D01*
G01X-5569458Y6454849D01*
G01X-5563212Y6460618D01*
G01X-5555793Y6466245D01*
G01X-5547757Y6471345D01*
G01X-5539657Y6475532D01*
G01X-5532094Y6478638D01*
G01X-5524547Y6481185D01*
G01X-5517888Y6482908D01*
G01X-5512994Y6483545D01*
G01X-5503771Y6484349D01*
G01X-5494259Y6486260D01*
G01X-5489941Y6487912D01*
G01X-5485965Y6490304D01*
G01X-5482578Y6493252D01*
G01X-5480031Y6496578D01*
G01X-5473738Y6505103D01*
G01X-5464942Y6514902D01*
G01X-5459747Y6519545D01*
G01X-5453422Y6524273D01*
G01X-5446768Y6528533D01*
G01X-5440582Y6531771D01*
G01X-5433600Y6534439D01*
G01X-5424776Y6537144D01*
G01X-5415243Y6539571D01*
G01X-5406129Y6541404D01*
G01X-5396906Y6543294D01*
G01X-5387076Y6545876D01*
G01X-5377814Y6548810D01*
G01X-5370297Y6551756D01*
G01X-5357567Y6557986D01*
G01X-5348247Y6563295D01*
G01X-5338387Y6568702D01*
G01X-5324356Y6575164D01*
G01X-5316024Y6578230D01*
G01X-5305905Y6581245D01*
G01X-5295277Y6583863D01*
G01X-5285418Y6585736D01*
G01X-5273890Y6587224D01*
G01X-5264371Y6587715D01*
G01X-5255500Y6587206D01*
G01X-5245914Y6585696D01*
G01X-5238184Y6583850D01*
G01X-5230121Y6581334D01*
G01X-5222680Y6578479D01*
G01X-5216815Y6575616D01*
G01X-5211899Y6572405D01*
G01X-5207037Y6568604D01*
G01X-5202793Y6564688D01*
G01X-5199725Y6561132D01*
G01X-5197218Y6556490D01*
G01X-5194497Y6549620D01*
G01X-5191891Y6541447D01*
G01X-5189728Y6532897D01*
G01X-5187569Y6524080D01*
G01X-5184972Y6515176D01*
G01X-5182265Y6507224D01*
G01X-5179774Y6501263D01*
G01X-5176009Y6494881D01*
G01X-5169835Y6485783D01*
G01X-5162107Y6475183D01*
G01X-5153682Y6464294D01*
G01X-5136337Y6441470D01*
G01X-5128873Y6430926D01*
G01X-5123533Y6422778D01*
G01X-5116775Y6410724D01*
G01X-5114720Y6406333D01*
G01X-5113965Y6403859D01*
G01X-5112340Y6396797D01*
G01X-5108433Y6384272D01*
G01X-5106784Y6378960D01*
G01X-5105496Y6373549D01*
G01X-5104527Y6367409D01*
G01X-5103834Y6359912D01*
G01X-5103104Y6338326D01*
G01X-5102964Y6303758D01*
G01X-5102748Y6273665D01*
G01X-5102018Y6249171D01*
G01X-5100751Y6229745D01*
G01X-5098923Y6214858D01*
G01X-5092511Y6179035D01*
G01X-5091667Y6173340D01*
G01X-5091076Y6165981D01*
G01X-5090865Y6150076D01*
G01X-5091572Y6141482D01*
G01X-5093006Y6131344D01*
G01X-5094958Y6120927D01*
G01X-5097222Y6111497D01*
G01X-5102951Y6092467D01*
G01X-5108730Y6075699D01*
G01X-5116192Y6058321D01*
G01X-5125968Y6037823D01*
G01X-5130655Y6029000D01*
G01X-5134973Y6021773D01*
G01X-5138440Y6016887D01*
G01X-5139705Y6015556D01*
G01X-5140578Y6015089D01*
G01X-5141385Y6015438D01*
G01X-5142458Y6016443D01*
G01X-5145222Y6020139D01*
G01X-5148497Y6025612D01*
G01X-5151913Y6032299D01*
G01X-5156382Y6040725D01*
G01X-5162527Y6050938D01*
G01X-5169538Y6061647D01*
G01X-5176605Y6071566D01*
G01X-5185007Y6082028D01*
G01X-5195655Y6094216D01*
G01X-5207184Y6106618D01*
G01X-5218227Y6117717D01*
G01X-5229301Y6127940D01*
G01X-5240912Y6137955D01*
G01X-5251682Y6146612D01*
G01X-5260233Y6152761D01*
G01X-5267986Y6157449D01*
G01X-5276586Y6162131D01*
G01X-5284984Y6166262D01*
G01X-5292134Y6169300D01*
G01X-5301038Y6172085D01*
G01X-5310899Y6173798D01*
G01X-5323675Y6174663D01*
G01X-5341324Y6174901D01*
G01X-5369374Y6174145D01*
G01X-5380930Y6173327D01*
G01X-5388766Y6172328D01*
G01X-5404991Y6169581D01*
G01X-5425422Y6166589D01*
G01X-5463741Y6161242D01*
G01X-5471035Y6160527D01*
G01X-5478414Y6160483D01*
G01X-5485691Y6161105D01*
G01X-5492681Y6162383D01*
G01X-5499333Y6164281D01*
G01X-5507058Y6166994D01*
G01X-5514897Y6170158D01*
G01X-5521892Y6173413D01*
G01X-5534747Y6180371D01*
G01X-5544367Y6186277D01*
G01X-5550421Y6189920D01*
G01X-5552953Y6191028D01*
G01X-5554703Y6191435D01*
G01X-5555876Y6191051D01*
G01X-5556836Y6190004D01*
G01X-5557485Y6188455D01*
G01X-5557723Y6186564D01*
G01X-5557150Y6183828D01*
G01X-5555588Y6179982D01*
G01X-5553277Y6175535D01*
G01X-5550455Y6170998D01*
G01X-5538741Y6154911D01*
G01X-5535294Y6151529D01*
G01X-5529195Y6146306D01*
G01X-5512489Y6133189D01*
G01X-5502047Y6125851D01*
G01X-5489736Y6117943D01*
G01X-5477093Y6110416D01*
G01X-5465655Y6104220D01*
G01X-5444734Y6093050D01*
G01X-5429580Y6083942D01*
G01X-5423868Y6079484D01*
G01X-5416485Y6072994D01*
G01X-5408384Y6065343D01*
G01X-5400517Y6057401D01*
G01X-5384899Y6040409D01*
G01X-5372646Y6026098D01*
G01X-5359247Y6007627D01*
G01X-5340872Y5980631D01*
G01X-5331758Y5966414D01*
G01X-5323142Y5952149D01*
G01X-5315996Y5939494D01*
G01X-5311291Y5930107D01*
G01X-5305127Y5915217D01*
G01X-5301068Y5903929D01*
G01X-5297965Y5891698D01*
G01X-5294098Y5874540D01*
G01X-5292402Y5864884D01*
G01X-5291047Y5853873D01*
G01X-5290169Y5842861D01*
G01X-5289906Y5833206D01*
G01X-5290494Y5822827D01*
G01X-5291970Y5810787D01*
G01X-5294189Y5798040D01*
G01X-5297010Y5785542D01*
G01X-5300484Y5773493D01*
G01X-5304853Y5760645D01*
G01X-5309558Y5748534D01*
G01X-5314040Y5738697D01*
G01X-5329641Y5707994D01*
G01X-5332493Y5701702D01*
G01X-5333282Y5699070D01*
G01X-5333667Y5696485D01*
G01X-5333292Y5690557D01*
G01X-5331495Y5682131D01*
G01X-5329515Y5675436D01*
G01X-5326786Y5668306D01*
G01X-5323668Y5661592D01*
G01X-5320522Y5656147D01*
G01X-5316664Y5651267D01*
G01X-5311610Y5646091D01*
G01X-5306014Y5641237D01*
G01X-5300534Y5637323D01*
G01X-5294424Y5633088D01*
G01X-5289998Y5628907D01*
G01X-5286898Y5624366D01*
G01X-5284767Y5619048D01*
G01X-5283425Y5613317D01*
G01X-5282103Y5605418D01*
G01X-5280124Y5587286D01*
G01X-5279677Y5577768D01*
G01X-5279810Y5570372D01*
G01X-5280518Y5565146D01*
G01X-5281800Y5562135D01*
G01X-5282858Y5561088D01*
G01X-5284115Y5560374D01*
G01X-5285708Y5560002D01*
G01X-5287774Y5559981D01*
G01X-5293875Y5561029D01*
G01X-5303514Y5563593D01*
G01X-5331709Y5571759D01*
G01X-5346619Y5577709D01*
G01X-5368919Y5587948D01*
G01X-5381778Y5594563D01*
G01X-5392770Y5601108D01*
G01X-5401902Y5607586D01*
G01X-5409182Y5614003D01*
G01X-5414685Y5620091D01*
G01X-5420283Y5627232D01*
G01X-5425319Y5634538D01*
G01X-5429139Y5641117D01*
G01X-5432553Y5648980D01*
G01X-5435246Y5657750D01*
G01X-5437305Y5667778D01*
G01X-5438818Y5679414D01*
G01X-5440328Y5691283D01*
G01X-5442296Y5700762D01*
G01X-5444925Y5708615D01*
G01X-5448418Y5715602D01*
G01X-5452713Y5721973D01*
G01X-5457654Y5727038D01*
G01X-5464096Y5731515D01*
G01X-5472895Y5736120D01*
G01X-5491145Y5744122D01*
G01X-5510730Y5751740D01*
G01X-5530676Y5759786D01*
G01X-5549793Y5768818D01*
G01X-5558585Y5773965D01*
G01X-5568826Y5780786D01*
G01X-5579244Y5788391D01*
G01X-5588567Y5795891D01*
G01X-5597358Y5803950D01*
G01X-5606328Y5813072D01*
G01X-5614425Y5822139D01*
G01X-5620599Y5830029D01*
G01X-5625926Y5838199D01*
G01X-5631718Y5848026D01*
G01X-5637276Y5858273D01*
G01X-5641901Y5867705D01*
G01X-5645931Y5877378D01*
G01X-5649869Y5888280D01*
G01X-5653264Y5899076D01*
G01X-5655663Y5908429D01*
G01X-5657638Y5920906D01*
G01X-5658927Y5937469D01*
G01X-5659610Y5959709D01*
G01X-5659694Y5975366D01*
G01X-5558260Y5975366D01*
G01X-5557753Y5964769D01*
G01X-5556582Y5954690D01*
G01X-5554783Y5945366D01*
G01X-5552393Y5937036D01*
G01X-5549462Y5929520D01*
G01X-5545572Y5920912D01*
G01X-5541229Y5912274D01*
G01X-5536940Y5904669D01*
G01X-5531961Y5897094D01*
G01X-5525739Y5888541D01*
G01X-5519068Y5880057D01*
G01X-5512741Y5872694D01*
G01X-5506230Y5866004D01*
G01X-5499058Y5859356D01*
G01X-5492094Y5853518D01*
G01X-5486210Y5849260D01*
G01X-5481059Y5846236D01*
G01X-5476095Y5843760D01*
G01X-5476095Y5843760D01*
G01X-5471881Y5842087D01*
G01X-5468983Y5841472D01*
G01X-5467052Y5841709D01*
G01X-5465471Y5842352D01*
G01X-5464403Y5843305D01*
G01X-5464010Y5844468D01*
G01X-5465610Y5848059D01*
G01X-5469965Y5855620D01*
G01X-5484284Y5878224D01*
G01X-5501866Y5905729D01*
G01X-5515670Y5928661D01*
G01X-5525282Y5947300D01*
G01X-5529580Y5956662D01*
G01X-5532789Y5964484D01*
G01X-5539036Y5979328D01*
G01X-5545620Y5992342D01*
G01X-5550762Y6000613D01*
G01X-5553542Y6004053D01*
G01X-5554899Y6003114D01*
G01X-5556619Y6000855D01*
G01X-5557360Y5997855D01*
G01X-5557916Y5992049D01*
G01X-5558260Y5975366D01*
G01X-5659694Y5975366D01*
G01X-5659769Y5989220D01*
G01X-5659880Y6021601D01*
G01X-5660589Y6042488D01*
G01X-5661258Y6049991D01*
G01X-5662186Y6056262D01*
G01X-5663409Y6061849D01*
G01X-5664963Y6067299D01*
G01X-5667411Y6074368D01*
G01X-5670134Y6080949D01*
G01X-5672799Y6086309D01*
G01X-5675075Y6089710D01*
G01X-5677427Y6091760D01*
G01X-5680300Y6093438D01*
G01X-5683330Y6094572D01*
G01X-5686154Y6094989D01*
G01X-5688748Y6094749D01*
G01X-5691155Y6094098D01*
G01X-5693104Y6093134D01*
G01X-5694329Y6091956D01*
G01X-5695104Y6086941D01*
G01X-5695828Y6075528D01*
G01X-5696800Y6040289D01*
G01X-5697393Y6015654D01*
G01X-5698606Y5995071D01*
G01X-5700593Y5976671D01*
G01X-5703507Y5958586D01*
G01X-5706507Y5943860D01*
G01X-5710161Y5928208D01*
G01X-5714005Y5913501D01*
G01X-5717578Y5901607D01*
G01X-5724972Y5881220D01*
G01X-5731570Y5865784D01*
G01X-5737450Y5855072D01*
G01X-5743118Y5846046D01*
G01X-5748636Y5838219D01*
G01X-5737695Y5817112D01*
G01X-5698435Y5742270D01*
G01X-5656963Y5663735D01*
G01X-5622456Y5597601D01*
G01X-5583689Y5522701D01*
G01X-5563544Y5484122D01*
G01X-5552377Y5461804D01*
G01X-5546420Y5448492D01*
G01X-5544607Y5443593D01*
G01X-5543942Y5440786D01*
G01X-5543616Y5439074D01*
G01X-5542730Y5437158D01*
G01X-5541419Y5435272D01*
G01X-5539817Y5433650D01*
G01X-5535224Y5431820D01*
G01X-5525768Y5429367D01*
G01X-5512828Y5426612D01*
G01X-5497784Y5423876D01*
G01X-5461700Y5416937D01*
G01X-5443477Y5412916D01*
G01X-5428179Y5409171D01*
G01X-5381322Y5396668D01*
G01X-5366568Y5391963D01*
G01X-5352381Y5386479D01*
G01X-5319306Y5371519D01*
G01X-5310502Y5367088D01*
G01X-5300792Y5361617D01*
G01X-5291356Y5355801D01*
G01X-5283373Y5350335D01*
G01X-5275833Y5344289D01*
G01X-5267603Y5336891D01*
G01X-5259679Y5329079D01*
G01X-5253054Y5321789D01*
G01X-5242178Y5309283D01*
G01X-5235240Y5302081D01*
G01X-5230430Y5299147D01*
G01X-5224671Y5296902D01*
G01X-5221703Y5296442D01*
G01X-5218887Y5296681D01*
G01X-5216356Y5297589D01*
G01X-5214242Y5299140D01*
G01X-5212576Y5301654D01*
G01X-5210993Y5305547D01*
G01X-5209673Y5310287D01*
G01X-5208793Y5315342D01*
G01X-5207499Y5322583D01*
G01X-5205049Y5333273D01*
G01X-5198090Y5359240D01*
G01X-5189406Y5387487D01*
G01X-5181518Y5410900D01*
G01X-5173205Y5431432D01*
G01X-5163500Y5452753D01*
G01X-5158174Y5463058D01*
G01X-5151580Y5474936D01*
G01X-5137942Y5497540D01*
G01X-5121845Y5521135D01*
G01X-5104016Y5545701D01*
G01X-5085006Y5570033D01*
G01X-5066073Y5593066D01*
G01X-5057734Y5602489D01*
G01X-5048985Y5611803D01*
G01X-5040864Y5619935D01*
G01X-5034412Y5625809D01*
G01X-5022562Y5635306D01*
G01X-5012022Y5643201D01*
G01X-5003200Y5649095D01*
G01X-4995484Y5653778D01*
G01X-4981664Y5661091D01*
G01X-4962370Y5669960D01*
G01X-4949562Y5674976D01*
G01X-4936185Y5679486D01*
G01X-4907245Y5687892D01*
G01X-4887227Y5692923D01*
G01X-4860388Y5699044D01*
G01X-4831120Y5704839D01*
G01X-4805263Y5709090D01*
G01X-4779001Y5711965D01*
G01X-4748759Y5714455D01*
G01X-4733307Y5715129D01*
G01X-4715684Y5715328D01*
G01X-4698061Y5715055D01*
G01X-4682609Y5714316D01*
G01X-4655202Y5711768D01*
G01X-4643713Y5710303D01*
G01X-4635753Y5708946D01*
G01X-4619138Y5704363D01*
G01X-4598543Y5697582D01*
G01X-4587489Y5693367D01*
G01X-4574710Y5688062D01*
G01X-4550308Y5676899D01*
G01X-4525502Y5663692D01*
G01X-4500696Y5649260D01*
G01X-4474675Y5632761D01*
G01X-4446949Y5614584D01*
G01X-4418165Y5594528D01*
G01X-4389603Y5573514D01*
G01X-4355478Y5547152D01*
G01X-4337026Y5531769D01*
G01X-4322717Y5519203D01*
G01X-4306192Y5504046D01*
G01X-4297422Y5495282D01*
G01X-4286927Y5483992D01*
G01X-4276024Y5471630D01*
G01X-4266032Y5459653D01*
G01X-4248082Y5436942D01*
G01X-4235900Y5420801D01*
G01X-4212148Y5389111D01*
G01X-4196370Y5369830D01*
G01X-4180451Y5351875D01*
G01X-4165446Y5337089D01*
G01X-4158008Y5330433D01*
G01X-4151865Y5325427D01*
G01X-4145150Y5321024D01*
G01X-4136156Y5316013D01*
G01X-4126058Y5311011D01*
G01X-4116033Y5306634D01*
G01X-4094745Y5297260D01*
G01X-4076231Y5287859D01*
G01X-4068373Y5282730D01*
G01X-4059202Y5275727D01*
G01X-4049858Y5267772D01*
G01X-4041482Y5259786D01*
G01X-4033950Y5251562D01*
G01X-4026902Y5242957D01*
G01X-4021130Y5234994D01*
G01X-4017422Y5228691D01*
G01X-4015010Y5222982D01*
G01X-4012767Y5216635D01*
G01X-4010945Y5210423D01*
G01X-4009792Y5205120D01*
G01X-4009216Y5199600D01*
G01X-4009454Y5194948D01*
G01X-4010552Y5190866D01*
G01X-4012555Y5187058D01*
G01X-4014631Y5184366D01*
G01X-4016924Y5182162D01*
G01X-4019155Y5180673D01*
G01X-4021047Y5180126D01*
G01X-4023403Y5180684D01*
G01X-4026900Y5182204D01*
G01X-4035427Y5187203D01*
G01X-4049428Y5195397D01*
G01X-4068444Y5205158D01*
G01X-4079349Y5209942D01*
G01X-4092343Y5214926D01*
G01X-4105797Y5219520D01*
G01X-4118084Y5223135D01*
G01X-4156655Y5232616D01*
G01X-4197580Y5242081D01*
G01X-4214412Y5245893D01*
G01X-4220865Y5247014D01*
G01X-4226712Y5247663D01*
G01X-4232480Y5247881D01*
G01X-4238695Y5247706D01*
G01X-4254572Y5246335D01*
G01X-4268250Y5245236D01*
G01X-4285101Y5244337D01*
G01X-4319763Y5243508D01*
G01X-4336170Y5243827D01*
G01X-4353041Y5244693D01*
G01X-4368393Y5245973D01*
G01X-4380241Y5247536D01*
G01X-4401415Y5251672D01*
G01X-4420207Y5255966D01*
G01X-4457047Y5265716D01*
G01X-4472684Y5269491D01*
G01X-4482554Y5271061D01*
G01X-4486912Y5271622D01*
G01X-4494515Y5273151D01*
G01X-4515178Y5278178D01*
G01X-4527320Y5281691D01*
G01X-4540521Y5285996D01*
G01X-4553190Y5290547D01*
G01X-4563732Y5294798D01*
G01X-4574404Y5300019D01*
G01X-4587426Y5307208D01*
G01X-4601149Y5315418D01*
G01X-4613929Y5323700D01*
G01X-4626942Y5332950D01*
G01X-4641303Y5343798D01*
G01X-4655268Y5354892D01*
G01X-4667093Y5364881D01*
G01X-4684785Y5381032D01*
G01X-4690382Y5386542D01*
G01X-4692693Y5389275D01*
G01X-4696596Y5394641D01*
G01X-4704659Y5403879D01*
G01X-4714932Y5415567D01*
G01X-4724149Y5426825D01*
G01X-4728686Y5433425D01*
G01X-4734781Y5443301D01*
G01X-4748456Y5467537D01*
G01X-4763348Y5493853D01*
G01X-4770760Y5505980D01*
G01X-4776906Y5515330D01*
G01X-4782803Y5523066D01*
G01X-4789541Y5530798D01*
G01X-4796287Y5537629D01*
G01X-4802212Y5542664D01*
G01X-4808551Y5546844D01*
G01X-4816425Y5551351D01*
G01X-4824831Y5555643D01*
G01X-4832766Y5559178D01*
G01X-4841878Y5562325D01*
G01X-4853490Y5565562D01*
G01X-4866110Y5568507D01*
G01X-4878244Y5570781D01*
G01X-4891470Y5572496D01*
G01X-4907063Y5573921D01*
G01X-4923077Y5574908D01*
G01X-4937564Y5575308D01*
G01X-4951648Y5575143D01*
G01X-4962756Y5574522D01*
G01X-4970743Y5573456D01*
G01X-4975462Y5571960D01*
G01X-4977866Y5570342D01*
G01X-4979828Y5568514D01*
G01X-4981144Y5566700D01*
G01X-4981614Y5565125D01*
G01X-4980783Y5563162D01*
G01X-4978557Y5560292D01*
G01X-4975276Y5556901D01*
G01X-4971278Y5553374D01*
G01X-4960370Y5544975D01*
G01X-4948589Y5536585D01*
G01X-4909109Y5510735D01*
G01X-4896526Y5502080D01*
G01X-4884437Y5492732D01*
G01X-4873402Y5483150D01*
G01X-4863980Y5473789D01*
G01X-4846482Y5453960D01*
G01X-4829762Y5433642D01*
G01X-4775665Y5361936D01*
G01X-4744625Y5320645D01*
G01X-4723262Y5293045D01*
G01X-4681918Y5242115D01*
G01X-4658414Y5211876D01*
G01X-4647741Y5197325D01*
G01X-4639637Y5185625D01*
G01X-4622286Y5158832D01*
G01X-4618928Y5150964D01*
G01X-4613578Y5136799D01*
G01X-4610851Y5128210D01*
G01X-4608710Y5119319D01*
G01X-4607312Y5110885D01*
G01X-4606812Y5103669D01*
G01X-4607011Y5098047D01*
G01X-4607554Y5093444D01*
G01X-4608357Y5090333D01*
G01X-4608831Y5089486D01*
G01X-4609338Y5089190D01*
G01X-4611393Y5089797D01*
G01X-4612784Y5091257D01*
G01X-4620787Y5098479D01*
G01X-4638738Y5112940D01*
G01X-4666247Y5133375D01*
G01X-4697228Y5154963D01*
G01X-4721360Y5170788D01*
G01X-4732404Y5177370D01*
G01X-4735770Y5178872D01*
G01X-4741443Y5182482D01*
G01X-4757945Y5191991D01*
G01X-4787347Y5207672D01*
G01X-4804109Y5216656D01*
G01X-4821221Y5226273D01*
G01X-4836678Y5235371D01*
G01X-4848475Y5242798D01*
G01X-4858425Y5249809D01*
G01X-4868852Y5257776D01*
G01X-4878519Y5265718D01*
G01X-4886189Y5272656D01*
G01X-4893046Y5279771D01*
G01X-4900499Y5288194D01*
G01X-4907649Y5296873D01*
G01X-4913597Y5304753D01*
G01X-4925859Y5323437D01*
G01X-4938160Y5344084D01*
G01X-4965099Y5393685D01*
G01X-4990154Y5439326D01*
G01X-5000800Y5456499D01*
G01X-5011730Y5472393D01*
G01X-5027759Y5493077D01*
G01X-5041406Y5508782D01*
G01X-5051309Y5518689D01*
G01X-5062832Y5528459D01*
G01X-5068052Y5532101D01*
G01X-5072895Y5534865D01*
G01X-5076820Y5536481D01*
G01X-5079289Y5536681D01*
G01X-5082382Y5533686D01*
G01X-5088009Y5526604D01*
G01X-5095369Y5516494D01*
G01X-5103662Y5504414D01*
G01X-5120607Y5477794D01*
G01X-5127631Y5465916D01*
G01X-5132431Y5457065D01*
G01X-5140040Y5440531D01*
G01X-5146849Y5423997D01*
G01X-5155621Y5401952D01*
G01X-5158638Y5392394D01*
G01X-5162340Y5377152D01*
G01X-5164161Y5366944D01*
G01X-5166021Y5353410D01*
G01X-5167704Y5338314D01*
G01X-5168989Y5323417D01*
G01X-5169812Y5306742D01*
G01X-5170068Y5288593D01*
G01X-5169760Y5270289D01*
G01X-5168888Y5253149D01*
G01X-5166292Y5221374D01*
G01X-5163645Y5195281D01*
G01X-5160892Y5175260D01*
G01X-5158044Y5158081D01*
G01X-5152733Y5127769D01*
G01X-5148568Y5106137D01*
G01X-5141916Y5075412D01*
G01X-5128076Y5017544D01*
G01X-5118312Y4981033D01*
G01X-5109560Y4949343D01*
G01X-5099712Y4912831D01*
G01X-5091692Y4882519D01*
G01X-5083607Y4845716D01*
G01X-5079297Y4825857D01*
G01X-5076670Y4816248D01*
G01X-5075784Y4812240D01*
G01X-5074427Y4803036D01*
G01X-5071038Y4774516D01*
G01X-5069534Y4757891D01*
G01X-5068577Y4742007D01*
G01X-5068242Y4728590D01*
G01X-5068606Y4719366D01*
G01X-5069492Y4710303D01*
G01X-5069507Y4707444D01*
G01X-5069146Y4705435D01*
G01X-5068337Y4704076D01*
G01X-5067013Y4703168D01*
G01X-5062542Y4701910D01*
G01X-5034033Y4695037D01*
G01X-5014213Y4689728D01*
G01X-4995588Y4684189D01*
G01X-4977595Y4679316D01*
G01X-4959291Y4675611D01*
G01X-4949705Y4674484D01*
G01X-4940146Y4674119D01*
G01X-4930244Y4674516D01*
G01X-4919631Y4675677D01*
G01X-4909976Y4677443D01*
G01X-4899310Y4680082D01*
G01X-4888930Y4683235D01*
G01X-4880131Y4686546D01*
G01X-4862807Y4693557D01*
G01X-4846945Y4699278D01*
G01X-4839345Y4701375D01*
G01X-4832135Y4702559D01*
G01X-4824932Y4702869D01*
G01X-4817354Y4702346D01*
G01X-4803085Y4699817D01*
G01X-4789518Y4696175D01*
G01X-4783243Y4693636D01*
G01X-4775818Y4690001D01*
G01X-4768170Y4685755D01*
G01X-4761227Y4681384D01*
G01X-4754389Y4676304D01*
G01X-4747024Y4670124D01*
G01X-4740017Y4663628D01*
G01X-4734253Y4657594D01*
G01X-4724116Y4645272D01*
G01X-4716245Y4634514D01*
G01X-4709910Y4624060D01*
G01X-4703465Y4612470D01*
G01X-4700519Y4606133D01*
G01X-4697319Y4598046D01*
G01X-4694252Y4589248D01*
G01X-4691704Y4580780D01*
G01X-4689549Y4571442D01*
G01X-4687556Y4560277D01*
G01X-4685944Y4548685D01*
G01X-4684938Y4538068D01*
G01X-4684502Y4525489D01*
G01X-4684999Y4513454D01*
G01X-4686539Y4500636D01*
G01X-4689230Y4485711D01*
G01X-4694226Y4462848D01*
G01X-4698065Y4448511D01*
G01X-4703256Y4434733D01*
G01X-4708404Y4418199D01*
G01X-4711581Y4409897D01*
G01X-4718033Y4395439D01*
G01X-4737008Y4356198D01*
G01X-4748577Y4333903D01*
G01X-4761130Y4310885D01*
G01X-4773153Y4289856D01*
G01X-4783134Y4273529D01*
G01X-4803147Y4243733D01*
G01X-4822485Y4216594D01*
G01X-4831504Y4204979D01*
G01X-4842121Y4192015D01*
G01X-4853012Y4179285D01*
G01X-4862852Y4168371D01*
G01X-4882841Y4146477D01*
G01X-4900693Y4126104D01*
G01X-4915252Y4107827D01*
G01X-4927322Y4090970D01*
G01X-4934147Y4079780D01*
G01X-4935875Y4076375D01*
G01X-4936095Y4075125D01*
G01X-4927688Y4080184D01*
G01X-4909616Y4092348D01*
G01X-4878458Y4113704D01*
G01X-4833936Y4143867D01*
G01X-4816043Y4155558D01*
G01X-4799007Y4165790D01*
G01X-4783488Y4174185D01*
G01X-4770148Y4180362D01*
G01X-4758246Y4184853D01*
G01X-4744664Y4189342D01*
G01X-4731077Y4193309D01*
G01X-4719158Y4196233D01*
G01X-4694798Y4200896D01*
G01X-4672074Y4204517D01*
G01X-4661626Y4205634D01*
G01X-4649119Y4206549D01*
G01X-4624207Y4207395D01*
G01X-4609219Y4207282D01*
G01X-4601540Y4206579D01*
G01X-4599749Y4205833D01*
G01X-4598954Y4204733D01*
G01X-4598879Y4203210D01*
G01X-4599245Y4201194D01*
G01X-4600738Y4195537D01*
G01X-4602437Y4190642D01*
G01X-4602778Y4188403D01*
G01X-4602368Y4187429D01*
G01X-4601530Y4186518D01*
G01X-4598449Y4184784D01*
G01X-4593292Y4182998D01*
G01X-4588144Y4180850D01*
G01X-4582349Y4177455D01*
G01X-4576573Y4173250D01*
G01X-4571479Y4168670D01*
G01X-4566779Y4163141D01*
G01X-4561980Y4156245D01*
G01X-4557645Y4148862D01*
G01X-4554336Y4141869D01*
G01X-4551193Y4132672D01*
G01X-4549057Y4122582D01*
G01X-4547673Y4109961D01*
G01X-4546786Y4093169D01*
G01X-4546501Y4078230D01*
G01X-4546789Y4064886D01*
G01X-4547628Y4053627D01*
G01X-4548995Y4044946D01*
G01X-4552558Y4030586D01*
G01X-4556301Y4017530D01*
G01X-4558252Y4012193D01*
G01X-4560701Y4006627D01*
G01X-4563335Y4001491D01*
G01X-4565842Y3997443D01*
G01X-4569203Y3993496D01*
G01X-4574165Y3988631D01*
G01X-4580058Y3983468D01*
G01X-4586214Y3978624D01*
G01X-4592754Y3974101D01*
G01X-4599691Y3969816D01*
G01X-4606197Y3966250D01*
G01X-4611444Y3963889D01*
G01X-4625356Y3959359D01*
G01X-4644021Y3953913D01*
G01X-4651237Y3952022D01*
G01X-4658118Y3950572D01*
G01X-4665597Y3949508D01*
G01X-4674608Y3948776D01*
G01X-4700956Y3948093D01*
G01X-4744625Y3948090D01*
G01X-4789578Y3948134D01*
G01X-4814047Y3947510D01*
G01X-4821032Y3946785D01*
G01X-4825812Y3945696D01*
G01X-4829361Y3944178D01*
G01X-4832650Y3942167D01*
G01X-4850566Y3930645D01*
G01X-4853345Y3929117D01*
G01X-4856570Y3927864D01*
G01X-4860566Y3926845D01*
G01X-4865659Y3926015D01*
G01X-4880440Y3924759D01*
G01X-4903520Y3923756D01*
G01X-4926938Y3922758D01*
G01X-4941247Y3921544D01*
G01X-4945867Y3920736D01*
G01X-4949268Y3919732D01*
G01X-4951802Y3918482D01*
G01X-4953822Y3916939D01*
G01X-4956071Y3914612D01*
G01X-4957912Y3912155D01*
G01X-4959157Y3909861D01*
G01X-4959614Y3908023D01*
G01X-4959277Y3907117D01*
G01X-4958310Y3905942D01*
G01X-4954761Y3902985D01*
G01X-4949509Y3899546D01*
G01X-4943095Y3896020D01*
G01X-4935429Y3892439D01*
G01X-4926768Y3888851D01*
G01X-4918174Y3885672D01*
G01X-4910709Y3883320D01*
G01X-4882438Y3876312D01*
G01X-4874360Y3875107D01*
G01X-4861534Y3873784D01*
G01X-4828691Y3871420D01*
G01X-4809802Y3870065D01*
G01X-4791482Y3868135D01*
G01X-4774885Y3865773D01*
G01X-4761163Y3863119D01*
G01X-4737387Y3856873D01*
G01X-4716994Y3850359D01*
G01X-4703639Y3845623D01*
G01X-4696783Y3843654D01*
G01X-4688920Y3840539D01*
G01X-4673145Y3833051D01*
G01X-4653247Y3822406D01*
G01X-4635474Y3811702D01*
G01X-4627619Y3806007D01*
G01X-4618251Y3798444D01*
G01X-4608545Y3789999D01*
G01X-4599675Y3781659D01*
G01X-4591186Y3772637D01*
G01X-4582517Y3762338D01*
G01X-4574685Y3752029D01*
G01X-4568706Y3742980D01*
G01X-4563736Y3733621D01*
G01X-4558952Y3722936D01*
G01X-4554801Y3712001D01*
G01X-4551726Y3701894D01*
G01X-4547823Y3684470D01*
G01X-4546649Y3677538D01*
G01X-4546235Y3673054D01*
G01X-4546668Y3669380D01*
G01X-4547804Y3664651D01*
G01X-4549470Y3659479D01*
G01X-4551493Y3654472D01*
G01X-4553912Y3649914D01*
G01X-4556656Y3645966D01*
G01X-4559387Y3643049D01*
G01X-4561769Y3641587D01*
G01X-4571043Y3639659D01*
G01X-4586211Y3637043D01*
G01X-4594508Y3635359D01*
G01X-4602785Y3633071D01*
G01X-4610081Y3630479D01*
G01X-4615439Y3627882D01*
G01X-4638796Y3612754D01*
G01X-4644946Y3609001D01*
G01X-4651717Y3605488D01*
G01X-4658287Y3602610D01*
G01X-4663835Y3600759D01*
G01X-4668661Y3599243D01*
G01X-4673269Y3597278D01*
G01X-4677137Y3595118D01*
G01X-4679742Y3593016D01*
G01X-4681749Y3589644D01*
G01X-4683988Y3584028D01*
G01X-4686187Y3576949D01*
G01X-4688071Y3569189D01*
G01X-4690218Y3560355D01*
G01X-4692583Y3553519D01*
G01X-4695246Y3548496D01*
G01X-4698284Y3545100D01*
G01X-4701772Y3542728D01*
G01X-4705246Y3541517D01*
G01X-4709229Y3541372D01*
G01X-4714242Y3542198D01*
G01X-4721601Y3543074D01*
G01X-4734460Y3543847D01*
G01X-4769431Y3544749D01*
G01X-4794891Y3545128D01*
G01X-4810472Y3546123D01*
G01X-4816008Y3547029D01*
G01X-4820815Y3548302D01*
G01X-4830560Y3552234D01*
G01X-4837624Y3555905D01*
G01X-4845285Y3560642D01*
G01X-4852622Y3565832D01*
G01X-4858710Y3570866D01*
G01X-4865225Y3577547D01*
G01X-4873724Y3587223D01*
G01X-4883104Y3598597D01*
G01X-4892267Y3610373D01*
G01X-4911884Y3635476D01*
G01X-4929480Y3656527D01*
G01X-4937101Y3664484D01*
G01X-4945904Y3672722D01*
G01X-4954802Y3680268D01*
G01X-4962703Y3686150D01*
G01X-4969754Y3690598D01*
G01X-4976335Y3694241D01*
G01X-4981711Y3696702D01*
G01X-4985146Y3697606D01*
G01X-4987575Y3697357D01*
G01X-4988918Y3696539D01*
G01X-4989253Y3695049D01*
G01X-4988653Y3692784D01*
G01X-4982845Y3672916D01*
G01X-4981199Y3664140D01*
G01X-4979960Y3652261D01*
G01X-4979179Y3637940D01*
G01X-4978908Y3621832D01*
G01X-4979219Y3605329D01*
G01X-4980067Y3587035D01*
G01X-4981322Y3569176D01*
G01X-4982855Y3553980D01*
G01X-4984338Y3540059D01*
G01X-4985131Y3528042D01*
G01X-4985209Y3518541D01*
G01X-4984547Y3512163D01*
G01X-4983265Y3507640D01*
G01X-4981444Y3502719D01*
G01X-4979326Y3497993D01*
G01X-4977154Y3494057D01*
G01X-4963126Y3473578D01*
G01X-4959424Y3467826D01*
G01X-4955918Y3461313D01*
G01X-4953002Y3454838D01*
G01X-4951072Y3449202D01*
G01X-4949732Y3442922D01*
G01X-4949289Y3437271D01*
G01X-4949746Y3431667D01*
G01X-4951102Y3425524D01*
G01X-4953362Y3419550D01*
G01X-4956949Y3413314D01*
G01X-4961864Y3406810D01*
G01X-4968111Y3400035D01*
G01X-4973745Y3394672D01*
G01X-4978873Y3390280D01*
G01X-4982928Y3387312D01*
G01X-4985347Y3386222D01*
G01X-4990689Y3384730D01*
G01X-4998731Y3381144D01*
G01X-5009692Y3376524D01*
G01X-5022053Y3372548D01*
G01X-5053031Y3363817D01*
G01X-5061961Y3361561D01*
G01X-5073253Y3359272D01*
G01X-5085459Y3357218D01*
G01X-5097131Y3355666D01*
G01X-5108935Y3354118D01*
G01X-5121500Y3352076D01*
G01X-5133324Y3349805D01*
G01X-5142905Y3347570D01*
G01X-5163260Y3342976D01*
G01X-5185104Y3339175D01*
G01X-5197054Y3337756D01*
G37*
G36*
G01X-4913378Y-2020027D02*
G01X-4918616Y-2020238D01*
G01X-4927196Y-2020198D01*
G01X-4934654Y-2018623D01*
G01X-4945454Y-2015295D01*
G01X-4952420Y-2011816D01*
G01X-4958629Y-2007042D01*
G01X-4967747Y-1997768D01*
G01X-4978036Y-1987747D01*
G01X-4986757Y-1979831D01*
G01X-5001677Y-1965212D01*
G01X-5019452Y-1946284D01*
G01X-5031631Y-1932656D01*
G01X-5040719Y-1922304D01*
G01X-5051320Y-1909973D01*
G01X-5061507Y-1898432D01*
G01X-5069100Y-1888415D01*
G01X-5076161Y-1878696D01*
G01X-5082907Y-1870974D01*
G01X-5089388Y-1863381D01*
G01X-5095211Y-1855180D01*
G01X-5100490Y-1845652D01*
G01X-5104510Y-1836303D01*
G01X-5106473Y-1827773D01*
G01X-5106860Y-1822733D01*
G01X-5106408Y-1816929D01*
G01X-5104919Y-1808791D01*
G01X-5100849Y-1801449D01*
G01X-5093864Y-1791304D01*
G01X-5087432Y-1782574D01*
G01X-5082273Y-1775786D01*
G01X-5076556Y-1769186D01*
G01X-5069647Y-1761289D01*
G01X-5052892Y-1743408D01*
G01X-5037347Y-1727097D01*
G01X-5031322Y-1721655D01*
G01X-5023476Y-1715186D01*
G01X-5015579Y-1708211D01*
G01X-5004873Y-1698406D01*
G01X-4994344Y-1688954D01*
G01X-4983966Y-1679929D01*
G01X-4969695Y-1667476D01*
G01X-4957901Y-1657900D01*
G01X-4945647Y-1649391D01*
G01X-4934106Y-1641386D01*
G01X-4927424Y-1636446D01*
G01X-4920135Y-1632005D01*
G01X-4909175Y-1625409D01*
G01X-4900367Y-1619395D01*
G01X-4891281Y-1613987D01*
G01X-4883384Y-1609445D01*
G01X-4875487Y-1605098D01*
G01X-4863642Y-1599496D01*
G01X-4849975Y-1593226D01*
G01X-4829018Y-1583026D01*
G01X-4812313Y-1575565D01*
G01X-4802898Y-1571783D01*
G01X-4791356Y-1566310D01*
G01X-4772829Y-1557604D01*
G01X-4756125Y-1550338D01*
G01X-4745798Y-1546133D01*
G01X-4732738Y-1540876D01*
G01X-4716337Y-1534474D01*
G01X-4700543Y-1528148D01*
G01X-4689306Y-1523891D01*
G01X-4674727Y-1518785D01*
G01X-4659845Y-1513366D01*
G01X-4647088Y-1508993D01*
G01X-4639137Y-1506214D01*
G01X-4631535Y-1503126D01*
G01X-4623798Y-1499818D01*
G01X-4614750Y-1496093D01*
G01X-4601226Y-1490561D01*
G01X-4585387Y-1485833D01*
G01X-4570809Y-1482254D01*
G01X-4565083Y-1481388D01*
G01X-4561317Y-1481084D01*
G01X-4556457Y-1481669D01*
G01X-4550205Y-1483881D01*
G01X-4546882Y-1486141D01*
G01X-4543152Y-1489428D01*
G01X-4539863Y-1493157D01*
G01X-4537599Y-1496480D01*
G01X-4535346Y-1501944D01*
G01X-4534111Y-1508626D01*
G01X-4533900Y-1513065D01*
G01X-4534147Y-1517783D01*
G01X-4535080Y-1523139D01*
G01X-4536546Y-1529128D01*
G01X-4539077Y-1536231D01*
G01X-4542572Y-1544268D01*
G01X-4549754Y-1559996D01*
G01X-4555024Y-1570571D01*
G01X-4562860Y-1581383D01*
G01X-4569335Y-1589971D01*
G01X-4573072Y-1594940D01*
G01X-4576909Y-1599424D01*
G01X-4580683Y-1604560D01*
G01X-4586857Y-1613412D01*
G01X-4593174Y-1621402D01*
G01X-4602298Y-1633376D01*
G01X-4612025Y-1646647D01*
G01X-4618404Y-1655042D01*
G01X-4625936Y-1664025D01*
G01X-4632845Y-1672727D01*
G01X-4637819Y-1679234D01*
G01X-4646096Y-1688155D01*
G01X-4655289Y-1698136D01*
G01X-4661540Y-1705704D01*
G01X-4672237Y-1717287D01*
G01X-4683368Y-1729159D01*
G01X-4705473Y-1752004D01*
G01X-4726967Y-1772925D01*
G01X-4736079Y-1780771D01*
G01X-4747225Y-1790500D01*
G01X-4755729Y-1796995D01*
G01X-4760371Y-1800763D01*
G01X-4765858Y-1805803D01*
G01X-4771639Y-1810951D01*
G01X-4776863Y-1814658D01*
G01X-4782827Y-1817587D01*
G01X-4790516Y-1820542D01*
G01X-4798815Y-1823034D01*
G01X-4805935Y-1824231D01*
G01X-4826373Y-1825106D01*
G01X-4840800Y-1825679D01*
G01X-4841273Y-1826397D01*
G01X-4841471Y-1827542D01*
G01X-4841075Y-1829244D01*
G01X-4840125Y-1831303D01*
G01X-4836856Y-1836349D01*
G01X-4833584Y-1841816D01*
G01X-4830248Y-1847587D01*
G01X-4827000Y-1852750D01*
G01X-4823468Y-1858825D01*
G01X-4817818Y-1866722D01*
G01X-4811743Y-1873100D01*
G01X-4804739Y-1879782D01*
G01X-4795468Y-1889805D01*
G01X-4787108Y-1899524D01*
G01X-4784091Y-1903562D01*
G01X-4781607Y-1907725D01*
G01X-4779950Y-1911824D01*
G01X-4779131Y-1915635D01*
G01X-4779079Y-1919285D01*
G01X-4779502Y-1922924D01*
G01X-4781942Y-1930574D01*
G01X-4787433Y-1940901D01*
G01X-4795335Y-1952373D01*
G01X-4804520Y-1962396D01*
G01X-4817182Y-1973967D01*
G01X-4829625Y-1984348D01*
G01X-4838433Y-1990457D01*
G01X-4850871Y-1997692D01*
G01X-4862716Y-2003770D01*
G01X-4872754Y-2007539D01*
G01X-4884599Y-2011629D01*
G01X-4899785Y-2016599D01*
G01X-4909654Y-2019575D01*
G01X-4913378Y-2020027D01*
G37*
G36*
G01X-5349801Y-2020780D02*
G01X-5356249Y-2020886D01*
G01X-5361443Y-2020416D01*
G01X-5370995Y-2017772D01*
G01X-5387563Y-2012488D01*
G01X-5404399Y-2006670D01*
G01X-5414594Y-2002744D01*
G01X-5429173Y-1994717D01*
G01X-5440107Y-1987795D01*
G01X-5445574Y-1983626D01*
G01X-5453471Y-1977262D01*
G01X-5460870Y-1971032D01*
G01X-5472174Y-1959663D01*
G01X-5478967Y-1951925D01*
G01X-5483845Y-1945691D01*
G01X-5490281Y-1934756D01*
G01X-5492618Y-1929519D01*
G01X-5494133Y-1925036D01*
G01X-5495072Y-1918299D01*
G01X-5494744Y-1915363D01*
G01X-5493944Y-1912224D01*
G01X-5490631Y-1905241D01*
G01X-5487421Y-1900685D01*
G01X-5482255Y-1894883D01*
G01X-5466708Y-1878265D01*
G01X-5452725Y-1863164D01*
G01X-5446993Y-1853965D01*
G01X-5442201Y-1845765D01*
G01X-5438972Y-1840297D01*
G01X-5434638Y-1833395D01*
G01X-5431907Y-1828804D01*
G01X-5432736Y-1826942D01*
G01X-5433601Y-1826318D01*
G01X-5435846Y-1825956D01*
G01X-5449289Y-1825645D01*
G01X-5463269Y-1825268D01*
G01X-5471998Y-1824243D01*
G01X-5483811Y-1821486D01*
G01X-5489014Y-1819408D01*
G01X-5494745Y-1816545D01*
G01X-5504565Y-1810171D01*
G01X-5510496Y-1804764D01*
G01X-5518932Y-1797279D01*
G01X-5528537Y-1789756D01*
G01X-5533730Y-1785457D01*
G01X-5539257Y-1780554D01*
G01X-5551376Y-1769741D01*
G01X-5566152Y-1755509D01*
G01X-5584735Y-1736329D01*
G01X-5603786Y-1716376D01*
G01X-5612826Y-1706353D01*
G01X-5621745Y-1696330D01*
G01X-5635731Y-1680598D01*
G01X-5646239Y-1667841D01*
G01X-5652057Y-1660794D01*
G01X-5657677Y-1654112D01*
G01X-5664300Y-1645000D01*
G01X-5670014Y-1637052D01*
G01X-5675796Y-1629822D01*
G01X-5681713Y-1622280D01*
G01X-5686427Y-1615842D01*
G01X-5692409Y-1607447D01*
G01X-5699840Y-1597728D01*
G01X-5704498Y-1592455D01*
G01X-5708873Y-1586684D01*
G01X-5717168Y-1574535D01*
G01X-5723828Y-1563601D01*
G01X-5731284Y-1547503D01*
G01X-5735641Y-1537317D01*
G01X-5738414Y-1529887D01*
G01X-5739747Y-1524158D01*
G01X-5740343Y-1517807D01*
G01X-5740336Y-1511764D01*
G01X-5739892Y-1506569D01*
G01X-5738789Y-1502056D01*
G01X-5736972Y-1497764D01*
G01X-5734616Y-1493979D01*
G01X-5732019Y-1490751D01*
G01X-5729030Y-1488161D01*
G01X-5725732Y-1485912D01*
G01X-5720569Y-1483409D01*
G01X-5713154Y-1482887D01*
G01X-5704953Y-1483392D01*
G01X-5687752Y-1487655D01*
G01X-5674820Y-1491218D01*
G01X-5665884Y-1494411D01*
G01X-5652409Y-1500433D01*
G01X-5642082Y-1504939D01*
G01X-5625985Y-1510490D01*
G01X-5606243Y-1517567D01*
G01X-5592879Y-1522292D01*
G01X-5581338Y-1526086D01*
G01X-5572530Y-1529729D01*
G01X-5564330Y-1533114D01*
G01X-5553092Y-1537464D01*
G01X-5539121Y-1542740D01*
G01X-5526668Y-1547617D01*
G01X-5514654Y-1552743D01*
G01X-5500379Y-1558982D01*
G01X-5488399Y-1564653D01*
G01X-5477769Y-1569556D01*
G01X-5468050Y-1573933D01*
G01X-5459242Y-1577575D01*
G01X-5445574Y-1583650D01*
G01X-5432514Y-1589828D01*
G01X-5422795Y-1594403D01*
G01X-5410342Y-1600349D01*
G01X-5401534Y-1604358D01*
G01X-5395460Y-1607439D01*
G01X-5387867Y-1611641D01*
G01X-5379970Y-1616445D01*
G01X-5373675Y-1620360D01*
G01X-5362996Y-1627068D01*
G01X-5350882Y-1634687D01*
G01X-5335623Y-1644925D01*
G01X-5318241Y-1656838D01*
G01X-5312487Y-1661025D01*
G01X-5306517Y-1665982D01*
G01X-5296690Y-1674543D01*
G01X-5286698Y-1683016D01*
G01X-5274213Y-1694204D01*
G01X-5260818Y-1706422D01*
G01X-5244814Y-1720519D01*
G01X-5234739Y-1729899D01*
G01X-5222885Y-1741710D01*
G01X-5203143Y-1762612D01*
G01X-5192877Y-1774674D01*
G01X-5186914Y-1782131D01*
G01X-5181096Y-1790115D01*
G01X-5173868Y-1801444D01*
G01X-5170826Y-1806993D01*
G01X-5168751Y-1811771D01*
G01X-5167634Y-1816591D01*
G01X-5167369Y-1823289D01*
G01X-5167649Y-1830046D01*
G01X-5168797Y-1835134D01*
G01X-5173524Y-1846463D01*
G01X-5176751Y-1852519D01*
G01X-5179872Y-1857570D01*
G01X-5186725Y-1865984D01*
G01X-5195285Y-1875834D01*
G01X-5203372Y-1886764D01*
G01X-5210219Y-1896220D01*
G01X-5219815Y-1906989D01*
G01X-5227879Y-1916363D01*
G01X-5232932Y-1922887D01*
G01X-5239043Y-1929569D01*
G01X-5245758Y-1936883D01*
G01X-5253351Y-1945990D01*
G01X-5260666Y-1953977D01*
G01X-5272756Y-1966365D01*
G01X-5296370Y-1989150D01*
G01X-5303761Y-1996154D01*
G01X-5310122Y-2002792D01*
G01X-5315159Y-2008031D01*
G01X-5319119Y-2011195D01*
G01X-5326931Y-2015064D01*
G01X-5337045Y-2018644D01*
G01X-5343035Y-2020079D01*
G01X-5349801Y-2020780D01*
G37*
G36*
G01X-5134886Y-1792232D02*
G01X-5136902Y-1793455D01*
G01X-5139193Y-1793827D01*
G01X-5141382Y-1793492D01*
G01X-5143053Y-1792377D01*
G01X-5144787Y-1789940D01*
G01X-5146923Y-1786114D01*
G01X-5150862Y-1776781D01*
G01X-5156339Y-1763690D01*
G01X-5162431Y-1748669D01*
G01X-5167636Y-1734923D01*
G01X-5170705Y-1726728D01*
G01X-5174747Y-1718067D01*
G01X-5181073Y-1706657D01*
G01X-5186598Y-1698216D01*
G01X-5195179Y-1687158D01*
G01X-5209980Y-1671398D01*
G01X-5218394Y-1663320D01*
G01X-5225339Y-1657237D01*
G01X-5235381Y-1650154D01*
G01X-5239160Y-1647641D01*
G01X-5242425Y-1645000D01*
G01X-5244763Y-1642355D01*
G01X-5245757Y-1639921D01*
G01X-5245848Y-1637935D01*
G01X-5205330Y-1637935D01*
G01X-5204985Y-1639135D01*
G01X-5203689Y-1640896D01*
G01X-5196674Y-1647908D01*
G01X-5182655Y-1661665D01*
G01X-5177856Y-1666959D01*
G01X-5173847Y-1671955D01*
G01X-5167211Y-1681067D01*
G01X-5161456Y-1689041D01*
G01X-5155282Y-1699367D01*
G01X-5149426Y-1710611D01*
G01X-5144876Y-1720538D01*
G01X-5142834Y-1724669D01*
G01X-5141301Y-1726407D01*
G01X-5141301Y-1726407D01*
G01X-5140031Y-1726490D01*
G01X-5138764Y-1725407D01*
G01X-5135727Y-1719550D01*
G01X-5131292Y-1710017D01*
G01X-5124914Y-1697537D01*
G01X-5120912Y-1690327D01*
G01X-5116508Y-1683237D01*
G01X-5110806Y-1675622D01*
G01X-5103686Y-1667147D01*
G01X-5085749Y-1648507D01*
G01X-5078070Y-1640703D01*
G01X-5076435Y-1638651D01*
G01X-5075944Y-1637465D01*
G01X-5076254Y-1636485D01*
G01X-5077290Y-1635119D01*
G01X-5082186Y-1630512D01*
G01X-5088175Y-1624899D01*
G01X-5093811Y-1619078D01*
G01X-5105641Y-1606239D01*
G01X-5111231Y-1599836D01*
G01X-5115618Y-1594090D01*
G01X-5121224Y-1584862D01*
G01X-5126031Y-1576053D01*
G01X-5130979Y-1566958D01*
G01X-5135304Y-1557239D01*
G01X-5138359Y-1550692D01*
G01X-5139435Y-1549941D01*
G01X-5140690Y-1549629D01*
G01X-5142027Y-1550103D01*
G01X-5143291Y-1551340D01*
G01X-5146411Y-1557870D01*
G01X-5152141Y-1569979D01*
G01X-5158327Y-1581107D01*
G01X-5162201Y-1587546D01*
G01X-5165057Y-1591908D01*
G01X-5170483Y-1599137D01*
G01X-5178761Y-1609464D01*
G01X-5194140Y-1625267D01*
G01X-5203228Y-1634479D01*
G01X-5204891Y-1636631D01*
G01X-5205330Y-1637935D01*
G01X-5245848Y-1637935D01*
G01X-5245860Y-1637666D01*
G01X-5245251Y-1635607D01*
G01X-5243495Y-1633433D01*
G01X-5240572Y-1630967D01*
G01X-5230344Y-1623320D01*
G01X-5222280Y-1616360D01*
G01X-5212001Y-1606615D01*
G01X-5202517Y-1596903D01*
G01X-5196361Y-1590025D01*
G01X-5189651Y-1581672D01*
G01X-5182663Y-1571821D01*
G01X-5177403Y-1562425D01*
G01X-5173722Y-1554447D01*
G01X-5168292Y-1542127D01*
G01X-5162873Y-1527153D01*
G01X-5157744Y-1511359D01*
G01X-5151773Y-1493659D01*
G01X-5147400Y-1482544D01*
G01X-5144401Y-1479745D01*
G01X-5142550Y-1478908D01*
G01X-5140828Y-1478559D01*
G01X-5137634Y-1479151D01*
G01X-5136000Y-1480407D01*
G01X-5134266Y-1482592D01*
G01X-5131494Y-1488224D01*
G01X-5129289Y-1494047D01*
G01X-5126001Y-1502458D01*
G01X-5122727Y-1512983D01*
G01X-5118730Y-1527624D01*
G01X-5113195Y-1543827D01*
G01X-5108469Y-1554489D01*
G01X-5103896Y-1563297D01*
G01X-5097826Y-1573320D01*
G01X-5092426Y-1581329D01*
G01X-5085445Y-1589834D01*
G01X-5067694Y-1608060D01*
G01X-5055891Y-1619267D01*
G01X-5046874Y-1626280D01*
G01X-5040778Y-1630787D01*
G01X-5037514Y-1633685D01*
G01X-5036562Y-1635746D01*
G01X-5036026Y-1638244D01*
G01X-5036112Y-1640860D01*
G01X-5037010Y-1643001D01*
G01X-5038641Y-1644861D01*
G01X-5040841Y-1646592D01*
G01X-5046787Y-1650413D01*
G01X-5052059Y-1653582D01*
G01X-5057789Y-1657835D01*
G01X-5067658Y-1667172D01*
G01X-5082167Y-1682055D01*
G01X-5089021Y-1689630D01*
G01X-5092800Y-1694811D01*
G01X-5098125Y-1703620D01*
G01X-5103432Y-1712124D01*
G01X-5108332Y-1721247D01*
G01X-5113242Y-1732320D01*
G01X-5115428Y-1738307D01*
G01X-5116883Y-1742117D01*
G01X-5119673Y-1751260D01*
G01X-5125711Y-1771306D01*
G01X-5131703Y-1788132D01*
G01X-5133169Y-1790369D01*
G01X-5134886Y-1792232D01*
G37*
G36*
G01X-5300699Y-1478571D02*
G01X-5304109Y-1478624D01*
G01X-5306412Y-1477933D01*
G01X-5309351Y-1476279D01*
G01X-5318147Y-1468837D01*
G01X-5322492Y-1464432D01*
G01X-5325288Y-1461092D01*
G01X-5327487Y-1458510D01*
G01X-5331091Y-1454410D01*
G01X-5338948Y-1444843D01*
G01X-5350601Y-1431568D01*
G01X-5359621Y-1420820D01*
G01X-5365362Y-1413441D01*
G01X-5376296Y-1401301D01*
G01X-5382076Y-1394852D01*
G01X-5385695Y-1390162D01*
G01X-5387344Y-1386784D01*
G01X-5388040Y-1383536D01*
G01X-5387999Y-1380638D01*
G01X-5387286Y-1378378D01*
G01X-5385864Y-1376624D01*
G01X-5383726Y-1375254D01*
G01X-5379936Y-1374087D01*
G01X-5374941Y-1375339D01*
G01X-5371212Y-1376933D01*
G01X-5367506Y-1378988D01*
G01X-5362667Y-1382857D01*
G01X-5356212Y-1388809D01*
G01X-5345458Y-1400153D01*
G01X-5338968Y-1408150D01*
G01X-5328945Y-1420244D01*
G01X-5319958Y-1431382D01*
G01X-5315402Y-1437234D01*
G01X-5310671Y-1442701D01*
G01X-5304596Y-1450204D01*
G01X-5298712Y-1458071D01*
G01X-5296830Y-1461158D01*
G01X-5295523Y-1464210D01*
G01X-5294624Y-1469029D01*
G01X-5295319Y-1473141D01*
G01X-5296274Y-1475217D01*
G01X-5297597Y-1476955D01*
G01X-5299161Y-1478047D01*
G01X-5300699Y-1478571D01*
G37*
G36*
G01X-4969991Y-1478104D02*
G01X-4972612Y-1478557D01*
G01X-4974861Y-1478200D01*
G01X-4976777Y-1477074D01*
G01X-4978231Y-1475326D01*
G01X-4979254Y-1473207D01*
G01X-4979968Y-1468638D01*
G01X-4979599Y-1466109D01*
G01X-4978712Y-1463097D01*
G01X-4975523Y-1457038D01*
G01X-4969165Y-1448538D01*
G01X-4961268Y-1438994D01*
G01X-4955974Y-1432673D01*
G01X-4950692Y-1425524D01*
G01X-4941803Y-1414976D01*
G01X-4931368Y-1402321D01*
G01X-4925897Y-1395709D01*
G01X-4919773Y-1389196D01*
G01X-4913801Y-1383735D01*
G01X-4908698Y-1379653D01*
G01X-4901240Y-1375346D01*
G01X-4898248Y-1374485D01*
G01X-4895229Y-1374109D01*
G01X-4892473Y-1374387D01*
G01X-4890257Y-1375259D01*
G01X-4887729Y-1377545D01*
G01X-4886730Y-1380822D01*
G01X-4886632Y-1383061D01*
G01X-4886969Y-1385395D01*
G01X-4888647Y-1388642D01*
G01X-4891898Y-1393178D01*
G01X-4901263Y-1403901D01*
G01X-4909259Y-1413071D01*
G01X-4916456Y-1421997D01*
G01X-4923779Y-1430534D01*
G01X-4932587Y-1440875D01*
G01X-4942306Y-1452330D01*
G01X-4951139Y-1462405D01*
G01X-4959947Y-1471650D01*
G01X-4963649Y-1474748D01*
G01X-4967040Y-1476966D01*
G01X-4969991Y-1478104D01*
G37*
G36*
G01X-5124518Y-1420306D02*
G01X-5126942Y-1420656D01*
G01X-5129675Y-1419647D01*
G01X-5132267Y-1417900D01*
G01X-5134290Y-1415162D01*
G01X-5137688Y-1407180D01*
G01X-5139284Y-1402321D01*
G01X-5140127Y-1361317D01*
G01X-5140647Y-1325252D01*
G01X-5140359Y-1301483D01*
G01X-5140052Y-1285985D01*
G01X-5140356Y-1277184D01*
G01X-5141550Y-1265035D01*
G01X-5142145Y-1247723D01*
G01X-5141916Y-1238576D01*
G01X-5141267Y-1232055D01*
G01X-5140160Y-1227583D01*
G01X-5138718Y-1223962D01*
G01X-5137089Y-1221557D01*
G01X-5135505Y-1220064D01*
G01X-5132436Y-1219200D01*
G01X-5128629Y-1219815D01*
G01X-5126290Y-1221034D01*
G01X-5123834Y-1223608D01*
G01X-5120482Y-1228774D01*
G01X-5119545Y-1234301D01*
G01X-5118470Y-1245175D01*
G01X-5116571Y-1265947D01*
G01X-5116009Y-1286462D01*
G01X-5115849Y-1340520D01*
G01X-5115859Y-1408715D01*
G01X-5117314Y-1412440D01*
G01X-5118842Y-1415576D01*
G01X-5120471Y-1417884D01*
G01X-5122362Y-1419305D01*
G01X-5124518Y-1420306D01*
G37*
G36*
G01X-5370037Y-1541400D02*
G01X-5372471Y-1541733D01*
G01X-5375541Y-1541194D01*
G01X-5379570Y-1539455D01*
G01X-5384264Y-1536526D01*
G01X-5389289Y-1532684D01*
G01X-5399662Y-1523269D01*
G01X-5409065Y-1513881D01*
G01X-5414862Y-1506895D01*
G01X-5416020Y-1504240D01*
G01X-5416371Y-1501276D01*
G01X-5416099Y-1498619D01*
G01X-5415384Y-1496670D01*
G01X-5414091Y-1495310D01*
G01X-5412369Y-1494162D01*
G01X-5410170Y-1493452D01*
G01X-5407731Y-1493149D01*
G01X-5405338Y-1493423D01*
G01X-5403254Y-1494100D01*
G01X-5398273Y-1497241D01*
G01X-5392726Y-1501663D01*
G01X-5385527Y-1507652D01*
G01X-5376862Y-1514869D01*
G01X-5370016Y-1521990D01*
G01X-5365773Y-1528192D01*
G01X-5364860Y-1530636D01*
G01X-5364480Y-1532919D01*
G01X-5365323Y-1537105D01*
G01X-5366456Y-1538913D01*
G01X-5367998Y-1540427D01*
G01X-5370037Y-1541400D01*
G37*
G36*
G01X-4899262Y-1540596D02*
G01X-4901978Y-1541032D01*
G01X-4904360Y-1540473D01*
G01X-4906347Y-1539356D01*
G01X-4907920Y-1537889D01*
G01X-4908914Y-1535796D01*
G01X-4909165Y-1532726D01*
G01X-4908799Y-1529455D01*
G01X-4907872Y-1526483D01*
G01X-4905758Y-1523204D01*
G01X-4902441Y-1519247D01*
G01X-4889471Y-1507288D01*
G01X-4877929Y-1498193D01*
G01X-4873875Y-1495431D01*
G01X-4870230Y-1493414D01*
G01X-4866200Y-1492555D01*
G01X-4864331Y-1492878D01*
G01X-4862219Y-1493694D01*
G01X-4860391Y-1494987D01*
G01X-4859206Y-1496456D01*
G01X-4858479Y-1500817D01*
G01X-4858758Y-1503359D01*
G01X-4859430Y-1505586D01*
G01X-4863892Y-1511651D01*
G01X-4877553Y-1525292D01*
G01X-4886297Y-1533147D01*
G01X-4892074Y-1537361D01*
G01X-4895988Y-1539338D01*
G01X-4899262Y-1540596D01*
G37*
G36*
G01X-5228279Y-1429326D02*
G01X-5230047Y-1430720D01*
G01X-5232063Y-1431521D01*
G01X-5234357Y-1431210D01*
G01X-5238761Y-1429202D01*
G01X-5241720Y-1426236D01*
G01X-5245990Y-1421025D01*
G01X-5251282Y-1413288D01*
G01X-5256724Y-1404016D01*
G01X-5263910Y-1390172D01*
G01X-5265178Y-1386667D01*
G01X-5265902Y-1383359D01*
G01X-5265940Y-1380542D01*
G01X-5265466Y-1378323D01*
G01X-5264453Y-1376750D01*
G01X-5263105Y-1375592D01*
G01X-5260092Y-1374706D01*
G01X-5256625Y-1375649D01*
G01X-5253855Y-1377725D01*
G01X-5250058Y-1381357D01*
G01X-5245180Y-1387257D01*
G01X-5239804Y-1394816D01*
G01X-5230663Y-1409610D01*
G01X-5226311Y-1418343D01*
G01X-5225376Y-1423264D01*
G01X-5225755Y-1425464D01*
G01X-5226744Y-1427559D01*
G01X-5228279Y-1429326D01*
G37*
G36*
G01X-5039586Y-1430734D02*
G01X-5041738Y-1431175D01*
G01X-5043725Y-1430904D01*
G01X-5045592Y-1430253D01*
G01X-5047121Y-1429079D01*
G01X-5048295Y-1427550D01*
G01X-5048946Y-1425457D01*
G01X-5049217Y-1422928D01*
G01X-5048777Y-1419855D01*
G01X-5047559Y-1416368D01*
G01X-5041880Y-1405662D01*
G01X-5036097Y-1395938D01*
G01X-5031321Y-1388952D01*
G01X-5025682Y-1381435D01*
G01X-5021542Y-1376974D01*
G01X-5018373Y-1375284D01*
G01X-5014826Y-1374734D01*
G01X-5013023Y-1375059D01*
G01X-5011348Y-1375929D01*
G01X-5010021Y-1377501D01*
G01X-5009057Y-1379530D01*
G01X-5008656Y-1381990D01*
G01X-5009069Y-1384734D01*
G01X-5013219Y-1394649D01*
G01X-5021762Y-1410218D01*
G01X-5028871Y-1421152D01*
G01X-5032906Y-1425801D01*
G01X-5037304Y-1429598D01*
G01X-5039586Y-1430734D01*
G37*
G04 Image End*

G04 Text Start*
G54D10*
G01X-7273089Y-40749D02*
G01X-7276137Y-34399D01*
G01X-7282487Y-28303D01*
G01X-7288583Y-25255D01*
G01X-7301029Y-25255D01*
G01X-7307125Y-28303D01*
G01X-7313475Y-34399D01*
G01X-7316523Y-40749D01*
G01X-7319571Y-49893D01*
G01X-7319571Y-65387D01*
G01X-7316523Y-74785D01*
G01X-7313475Y-80881D01*
G01X-7307125Y-87231D01*
G01X-7301029Y-90279D01*
G01X-7288583Y-90279D01*
G01X-7282487Y-87231D01*
G01X-7276137Y-80881D01*
G01X-7273089Y-74785D01*
G01X-7242863Y-37701D02*
G01X-7236767Y-34399D01*
G01X-7227623Y-25255D01*
G01X-7227623Y-90279D01*
G01X-6658282Y16444D02*
G01X-6658282Y-30038D01*
G01X-6655234Y-39182D01*
G01X-6648884Y-45532D01*
G01X-6639740Y-48580D01*
G01X-6633390Y-48580D01*
G01X-6624246Y-45532D01*
G01X-6618150Y-39182D01*
G01X-6614848Y-30038D01*
G01X-6614848Y16444D01*
G01X-6584622Y3998D02*
G01X-6578526Y7300D01*
G01X-6569382Y16444D01*
G01X-6569382Y-48580D01*
G01X-7552474Y-199911D02*
G01X-7546378Y-196609D01*
G01X-7536980Y-187465D01*
G01X-7536980Y-252489D01*
G04 Text End*

G04 PolygonModel Start*
G54D11*
G01X-7203519Y-286857D02*
G01X-7283516Y-286857D01*
G01X-7147474Y-286903D02*
G01X-7067476Y-286903D01*
G01X-7203519Y-144889D02*
G01X-7283516Y-144889D01*
G01X-7147474Y-144937D02*
G01X-7067476Y-144937D01*
G01X-7314491Y-255875D02*
G01X-7314491Y-175870D01*
G01X-7036498Y-175923D02*
G01X-7036498Y-255925D01*
G01X-7067481Y-144937D02*
G02X-7036498Y-175923I0J-30983D01*
G01X-7036498Y-255920D02*
G02X-7067481Y-286903I-30983J0D01*
G01X-7283511Y-286857D02*
G02X-7314491Y-255875I3J30983D01*
G01X-7314491Y-175877D02*
G02X-7283511Y-144889I30983J5D01*
G01X-6467389Y-103190D02*
G01X-6453200Y-103190D01*
G01X-6653202Y-170683D02*
G01X-6653202Y-103190D01*
G01X-6653202Y-103190D02*
G01X-6639006Y-103190D01*
G01X-6639006Y-303190D02*
G01X-6653202Y-303190D01*
G01X-6653202Y-303190D02*
G01X-6653202Y-235689D01*
G01X-6453200Y-303190D02*
G01X-6467389Y-303190D01*
G01X-6453200Y-235689D02*
G01X-6453200Y-303190D01*
G01X-6453200Y-103190D02*
G01X-6453200Y-170683D01*

G04 Circle Start*
G01X-6610325Y-330200D02*
G03X-6597625Y-330200I6350J0D01*
G03X-6610325Y-330200I-6350J0D01*
G04 Circle End*

M02*

